<svg id="Layer_1" data-name="Layer 1" xmlns="http://www.w3.org/2000/svg" viewBox="0 0 3902.34 1042.18"><defs><style>.cls-1{fill:#fff;}</style></defs><title>workshop_logo</title><path d="M1346.9,417.23l103.3-8.87c1.32,13.57-.65,26.69-.72,39.79s-.51,26-.62,39c-.11,13.26,0,26.53,0,40.88,38.69.85,77.75-1.77,118-2.25V360.51l112.55,5.88c-.58,44.82-3.3,88.93-4.39,133.81,4.18-1.07,5.1-4.54,6.88-6.92,22.52-30.07,51.12-51.2,88-60.25,14.62-3.58,30.21-4.45,42.14-2.22v41.95c-2.22.48-4.39,1-6.58,1.41-33.58,6.51-60.68,23.52-80.53,51.28-13.75,19.24-19.87,40.88-13.46,64.32,8,29.37,28.82,45.84,57.72,51.77,47.31,9.7,105.42-22.49,123.23-67.41a89.74,89.74,0,0,0,6.13-33.2q0-30,0-60V468.53c4.13,3.81,6.79,6,9.12,8.45a180.18,180.18,0,0,1,46.27,90.38c10.92,55.39,2.31,107.46-29.7,154.57-21.5,31.65-50.38,54.16-87.87,63.66-45.69,11.57-87.07,1.34-124-27.5-15.39-12-27.85-26.72-38.21-43.23-1.58-2.51-3.33-4.92-5-7.35-.11-.16-.58-.08-1.5-.16l-2.74,68.38c-41.1,3.12-81.91,1.57-124,4V609.93h-84.23c-1.05,54.31-2.09,108.41-3.15,163.1H1346.92V712.32c-22.52,38-56.36,59.13-97.24,70.6-42.2,11.84-81,4.49-117.16-21.37l-76.8,57-95.9-174.65-2,.4c1.29,39.22,2.58,78.45,3.9,118.83L868,767.6c-3.4-6-1-12.36-1.26-18.46s.24-12,.3-18c.07-6.26,0-12.52,0-21l-70.1,62c-2.11-3.56-4-6.5-5.66-9.57-14.49-26.66-29.82-52.8-48.67-76.66a223.37,223.37,0,0,0-18.28-19.79c-3-2.92-6.81-4.93-11.71-8.37-2,31.3-3.86,60.81-5.8,91.33l-83.77,26.63c-1.19-11.18-.43-21.33-.57-31.42s0-20,0-30V683.6l-1.58-.48c-1.33,2.43-2.73,4.83-4,7.31C600,723.73,576.28,750.88,542.16,767,488.92,792,438.3,785.45,392.08,749.72c-35.52-27.46-55.93-64.94-64.13-108.58-9.91-52.76-2.12-102.9,27.48-148.47,22.45-34.56,53.05-58.95,93.71-68.33,47.15-10.87,89,1.37,125.58,32.41,17.24,14.62,30.62,32.38,40.87,52.51,1.63,3.2,3.32,6.38,6.7,9.34V369.79c15.23-2,29.31-4.31,43.48-5.45,29.28-2.35,58.57-2.66,87.75,1.63,19.18,2.83,37.81,7.49,55.57,15.51,31.75,14.33,51.83,38.7,62.29,71.51a18.26,18.26,0,0,0,3.77,7.43c.73-15.64,1.46-31.29,2.26-48.35L985.71,401c-4.05,59.82-9.87,118.19-12.53,177.26l82.13-176.73c3.8.23,7.4.24,11,.68,29.41,3.61,58.82,7.21,88.21,11,9.33,1.22,18.24,1.2,27.49-1.68,25-7.75,50.81-7.53,76.32-4.87,21.76,2.28,43.24,7.4,64.82,11.37,2.57.47,5,1.58,8.75,2.79l-44.44,76.27c-3.27-1.43-6.19-2.67-9.07-4-17.18-7.84-34.9-13.41-54.07-11.26a43,43,0,0,0-15.14,4.43c-13,6.91-15.24,22.65-4.7,32.77a54.42,54.42,0,0,0,15.65,10.47,243.13,243.13,0,0,0,30,10.71c27.39,7.85,52.44,19.87,71.78,41.26,8.86,9.8,16.08,21.08,24.25,32,1.69-8.47.48-17.52.7-26.45.23-9.33.05-18.66.05-28V417.23ZM1136.75,629.49c2.87,3.93,4.39,6.49,6.37,8.63a173.76,173.76,0,0,0,49.18,37.14c10.64,5.39,21.66,6.35,33,4.62,10.34-1.58,19-6.23,23.62-16.29a37.8,37.8,0,0,0-16-49.19,103.49,103.49,0,0,0-15.57-6.67c-11.6-4.12-23.61-7.23-34.93-12-36.58-15.33-59.64-41.53-64-82.16-.43-4-1.26-8-2.16-13.61l-94.79,119.5L1109,695.76c5-12,9.43-22.32,13.78-32.69S1131.37,642.41,1136.75,629.49Zm-599.12-77a59.26,59.26,0,0,0-118.52.76c.16,32.8,27.11,59.14,60.24,58.88C511.83,611.9,537.81,585.32,537.63,552.52Zm329,126.42,2.08-.89,5-165.82-2-.56c-16.24,44.55-50.21,71.92-91.54,93.37,18.88,8.6,35,18.52,49.5,31A182.09,182.09,0,0,1,866.68,678.94Zm-151.26-223c-.73,41.86-1.45,82.59-2.17,123.61,32.37-7.28,57.76-34.83,61.51-66,2.2-18.3-1.28-34.73-17.62-45.85C745,459.41,731.3,455.85,715.42,455.9Z" transform="translate(1649.26 124.49)"/><path d="M129.31,781.83c-14.48-56-28.7-110.94-43.39-167.68-1.45,3.41-2.52,5.28-3.07,7.28C68.82,673.12,54.71,724.78,41,776.55c-2,7.38-4.89,10.73-13,11.91-30,4.34-59.76,9.84-89.63,14.84-3.55.59-7.16.79-11.81,1.29C-110.83,650-148,496-185.51,341l133.28-15.57c23,79.16,45.67,157.28,68.36,235.41l2.16.21C37,499.77,54.79,438.27,75.34,376.73Q119.91,493.37,164.46,610l2.13-.21C178,516.62,189.34,423.46,200.86,329.1l144.72,7.34c-21.13,148.67-42.12,296.47-63.29,445.44-16.72,1.82-33.58.14-50.36.32-17,.19-34-.28-51-.35S147,781.83,129.31,781.83Z" transform="translate(1649.26 124.49)"/><path d="M2095.63,784.24,1964.54,810.1c-2.21-8.94,19.67-382.43,25.26-433.48a41.62,41.62,0,0,1,6-2.3c38.82-8.52,78.05-13.9,117.86-13.56,22.68.19,45.25,2.15,67.09,9,3.81,1.2,7.57,2.53,11.31,3.92,33.75,12.56,52.27,37.57,58.84,72.25,5.34,28.17.31,55-11.15,80.83-14.84,33.48-37.64,61.11-63.89,86.13-22.28,21.23-46.76,39.61-72.76,56-3.09,2-6.17,3.93-9.55,6.09C2094.27,710.94,2094.93,746.85,2095.63,784.24Zm-10.47-205.18a15.25,15.25,0,0,0,3.18-.19c43.06-17,60-60.52,56.63-94.12a29.21,29.21,0,0,0-13.55-22.31c-15.14-9.76-31.76-9.71-49.58-7.28C2083,496.93,2084.06,537.77,2085.16,579.06Z" transform="translate(1649.26 124.49)"/><path d="M1949.19,327.2c1.44-2.94,2.89-5.77,4.22-8.67,11-24.07,14.58-48.91,7.79-74.87a63.94,63.94,0,0,0-27.93-38.76c-18.94-12.29-40.19-16.85-63.76-19v12.32c-.07,111.3-.45,222.59.06,333.88.11,22.77-5.46,42-22.7,57.2-19.28,17-41.46,26.55-67.53,24.5-33.43-2.63-50.69-34-35.62-64.09,16-31.93,56.53-52.33,92.08-46.36,1.3.21,2.62.27,5.36.54,0-3.47,0-6.64,0-9.8q.07-34.49.16-69,.18-182.43.35-364.87c0-32,.34-64,.57-95.94,0-2.92.33-5.84.54-9.19h27c1,7.21,2.3,14,3,20.83,3.51,36.4,17,68.24,42.94,94.38,13.38,13.47,26.86,26.84,40.25,40.31,14.15,14.23,27,29.58,37.08,46.94,18.72,32.41,25.38,67.19,15.91,103.81-7.18,27.75-24.56,48.34-49.19,62.8a62.16,62.16,0,0,1-8.15,3.66C1951.12,328.06,1950.39,327.57,1949.19,327.2Z" transform="translate(1649.26 124.49)"/><path d="M-938.87,206.16v6.51c4.26.12,5-6.53,10.44-3.39l-2.4,6.48,6.54-1.38c4.08,6.81-3.54,7.89-5.54,11.66,5.39,5.34.43,9-2.78,13.83,6.44-.77,9-5.52,12.46-9l-.22.1c2.66-2.42,5.21-5.36,10-1.39l-7,9,12.51,7.15-5.23,9.58,10.51,6.42c-2.51,4.87-5,9.76-7.2,14l7.81,5.09-10.78,9.48c1.72,5.62,0,10.67-3.48,15.95-4.65,7-8,14.92-11.92,22.44l.12.79a10.88,10.88,0,0,0-2.86.81c-6.77,4.22-13.49,8.52-20.26,12.82-5.79-4.73-3.64-11.79-5.31-17.84-5.09-.41-10.92,2.36-14.71-4.1l8.34-16.24c-5.31.43-9,.75-12.72,1-10.84.81-12.13-.39-15.31-10.56-2-6.29-5-12.25-7.57-18.34s-5.07-12.14-7.76-18.14a34.92,34.92,0,0,0-3.57-5.94c-11.92-16.52-27.79-28.09-46.17-36.41-2.06-.93-4.55-.86-6.8-1.43-5-1.28-10.08-2.67-15.08-4-1.63,3.47-2.5,9-5.67,11.17-4,2.72-9.84,2.71-14.89,3.87-.16-1-.32-1.94-.49-2.91q3.64-3.37,7.28-6.76c-7.18.42-7.18.42-7.23,6.76l-8-2.41c1.85-8.9,9.88-9,16.56-11.37-9-11.55-21.47-12.43-33.41-10.58-11.06,1.71-21.47,4.46-31.77-2a5.41,5.41,0,0,0-3.8-.32c-16.38,4.21-32.85,8.17-48.19,15.5-2.14,1-3.84,3.24-5.4,5.18a18.58,18.58,0,0,1-11.17,7.11c-9.51,2.27-18.85,5.59-26.21,13.21-7.59,7.87-16.44,14.51-24.43,22-6.26,5.86-12.08,12.17-18,18.36a7.06,7.06,0,0,0-1.95,3.41c-1.46,9.63-5.52,19.18-.5,29,1.12,2.21.65,5.18,1.13,7.75,1.59,8.45,2.44,17.23,11.9,21.51,1.73.78,3.79,3.56,3.64,5.23-.63,7.14,2.44,12.93,5.48,18.88.7,1.37.63,3.14,1.11,5.81l-7.21-1.15-3.89,9.25-11.85-2.49c-1.79-8.5-3.63-17.22-5.64-26.78-1.41,1.8-2,2.51-3.3,4.2-2.46-6.61-4.88-12.59-6.9-18.7-1.54-4.68-4.36-7.16-9.35-7.38-4-.17-8.1-1.47-11.92-.86-8.08,1.29-11.33-3.73-14.51-9.45-2.34-4.22-5.09-8.23-7.18-12.56-6.58-13.7-14.31-27.23-8.24-43-8.35-4.61-15.54-9.23-16.49-19.09l12.32,11.73c2.2-7.66-2.06-12.91-5.91-18.25-4.08.87-7.41,1.91-6.14,6.84-.72-6.39-2.1-12.79-2-19.16.11-8.15,1.41-16.28,2.2-24.41l-.28-.27c.52,5.15,1.35,10.3,1.48,15.45s-.44,10.58-.75,16.88c3.91,0,7.82-.52,11.54.12,5.33.92,2.79,6.24,3.77,9.8,6.17-1.28,5.87-5.9,5.35-9.42a9.28,9.28,0,0,0-5-6.23c-3.24-1.21-6.4-1.49-6.1-6.12,1-.35,2-1.07,2.79-.94,3.85.64,7.66,1.51,12.29,2.47-.65-4.87.76-8.08,6.82-6.2l-2.18-6.36c-5.9-2.4-10.47-3.91-14.64-6.17-1-.57-.78-3.51-1.13-5.36l-.16.28c5.28-1.06,9.86.27,14.59,5.53.37-8.59,7.13-8.59,11.74-10.5,3.45-1.42,7.3-1.16,9.59-5.11.43-.75,3.61.09,6.41.24v-9.42l4.92,1.39c4.57-6.84,8.59-14.1,13.84-20.33,4-4.69,9.37-8.19,14.31-12,13.43-10.38,26.94-20.64,40.76-31.2,1.46,2.3,2.27,5,4,5.94s4.56.41,6.68-.22a48.69,48.69,0,0,0,11.08-4.33,80,80,0,0,1,33-10.61c9.52-1,19-2.51,28.47-3.8l.42,2c-3.2.75-6.38,1.66-9.63,2.22-12.1,2.07-24.29,3.72-36.31,6.19-4.43.91-8.57,3.47-12.71,5.55-5.61,2.82-10.89,5.79-17.47,6.78-4.84.73-9.42,4.42-13.69,7.39-7.86,5.47-15.57,11.18-23,17.17-6.19,5-11.84,10.59-17.9,15.72a41.22,41.22,0,0,0-15.14,30.47c1.34-1.84,4-3.79,3.81-5.5-.62-6.9,4.79-9.42,8.53-13.18.91-.92,2.29-1.35,3.29-2.2,5.9-5.07,5.88-5.09,13.24-4.09,1.83-2.12.49-7.31,6.18-7.08,1.85.07,3.89-4.22,6.38-7.16l6.39,7.22v-9.38c9.13-5.62,10.37-5.17,16.51,2.77,2.72,3.52,6.55,6.17,10,9.27.86-2.6.59-2.46-1.12-5.76-.83-1.62-.44-3.87-.76-7.86l11.16,6.5,4.35-3.83c4,3.92,2.49,9.2-3,14.12,7,0,14.82-2.77,18.08,6.45,21.32-6.53,42.27-14.27,64.54-16.45,10.91-1.07,21.94-.89,32.91-1.19,3-.09,6.41.59,5.51-4.37-8.8,3.28-10.52,3-13.58-2.63,1.3-.36,2.5-.7,3.71-1,.93-.25,1.86-.48,3.22-.82-.75-1-1.14-2.07-1.81-2.27-3.75-1.15-7.65-1.84-11.31-3.2-1.54-.57-2.61-2.4-5.59-5.31,6,0,10.1.82,13.58-.23s6.71-4,11.31-6.9v12.82l6.21,7.22c1.54-5.78,2.78-10.46,3.94-14.81l12.22-3c-.17-3.65-.3-6.54-.5-10.67l9.26-1c1.31,3.11,1.92,5.83,3.46,7.84s3.92,4.33,6,4.37c4.09.06,7.64,0,11,3.08.72.69,4-1.31,7-2.42.8,2.84,1.55,5.51,2.43,8.62.61-.22,1.34-.52,2.1-.74,2.31-.68,5.3-.67,6.77-2.17,1.68-1.7,1.89-4.8,3-7.15.3-.61,1.72-.68,3.39-1.26.3,2.78.57,5.21.85,7.8,3.22-.92,4.48-7,8.9-3.88,1.13.79.68,3.82.92,5.57l13.47,3c-1.62-2-2.51-4-3.48-4.07-4.41-.15-6.72-1.58-6.79-6.47-.11-7.18-4.69-11.19-11.34-11.58-5.66-.34-8.35-4-13.83-8.28l11.67,2.9c2.47-6.86,2.54-7.59,8.55-7.06a181.76,181.76,0,0,1,28.48,4.38c15.3,3.86,30.27,8.9,43.47,18.16-12-4.53-24-9.38-36.16-13.46-6.51-2.19-13.47-3.06-20.22-4.51-2.91-.63-5.8-1.42-8.74-1.79a29.06,29.06,0,0,0-10.69.46c6.37,7.4,16.63,6.65,23.79,12.25,6.88,5.39,14.6,9.71,22.89,15.12l1.15,6.55,5.7,1.4c1.85,6.13,3.45,11.44,5.05,16.73l8.86-1.34-2.56,9.54,8.56-1.72-3.87,11.08,8.85-1c-2,4.83-3.55,8.51-5.27,12.63l6.42,2.94c-1.44,2.72-2.75,5.2-4.31,8.13l6.48,1.15Zm-369.34,77.28c-.9,4.36-2.27,7.8-2.19,11.21.19,8.6,1.1,17.18,1.58,25.77.41,7.16,3.7,13.13,6.84,19.18-.11-6.44-.8-12.65-1.52-18.86-.74-6.49-1.24-13-2.35-19.46C-1306.8,295.7-1302.16,289.38-1308.21,283.44Zm-4.4-82.29c-3.21,15.18-3.33,29.53.39,43.86.89-4.58,2.35-9.88.55-13.58-2.59-5.29-1.55-9.42.14-14.18C-1309.71,212.16-1308.64,206.94-1312.61,201.15Zm2.65,76.26c3.39.62,6.46-.17,6.3-5s-1-9.58-1.56-14.36l-.86.09C-1307.34,264.36-1308.59,270.62-1310,277.41Zm389.64-23.17-1.55-1.77-4.08,4.51,2,2Z" transform="translate(1649.26 124.49)"/><path d="M178.5,113.34c-5.84.33-5.65,4.56-6.48,7.36-5.88,19.76-11.52,39.59-17.13,59.42-5.71,20.19-11.61,40.3-21.1,59.13-4.91,9.74-7.91,11.7-18.83,10.6-8.86-.89-17.32-3.3-20.3-13.25-7.25-24.21-14.25-48.5-21.46-72.73-4.55-15.3-9.25-30.55-14-45.8a11.7,11.7,0,0,0-4.38-6.24,92.67,92.67,0,0,0-1.15,10q-.35,39-.45,77.92c0,11.33.16,22.65.14,34,0,9.16-2.62,11.9-11.72,12.44-3,.18-6,.12-9,.07-9.77-.15-15.26-5.52-15.32-15.36-.16-25,0-50-.28-75-.56-55.64-1.33-111.28-1.91-166.91-.12-11.34,2.48-14.87,13.57-17a56.28,56.28,0,0,1,17.71-.54c9.77,1.28,16.14,7,18.7,16.9,7.15,27.69,14.24,55.4,21.87,83,7,25.3,14.65,50.44,22.14,75.61,1.12,3.73,3,7.24,4.72,11.42,4.65-3.1,5.61-7.56,6.77-11.38q12.45-41,24.3-82.25c6.74-23.31,13.19-46.7,19.89-70a94.45,94.45,0,0,1,4.23-11.19c3.81-8.75,7.73-11.25,17-10.35,8,.76,15.86,1.85,23.75,3.09a11.58,11.58,0,0,1,9.85,11.81q.2,64.47.17,128.93c0,13.33-.08,26.66-.13,40q-.12,39-.27,78c0,9.31-2.46,12.36-11.57,14.44a46.76,46.76,0,0,1-8.93,1c-8.22.27-14.18-3.94-16-11.88a63.72,63.72,0,0,1-1.27-12.88q-1.38-54-2.63-107.91C179,116.41,178.73,115.11,178.5,113.34Z" transform="translate(1649.26 124.49)"/><path d="M432.54,247.1c-1.66-.11-3.32-.21-5-.35-11-.91-13.57-3.05-16.32-13.93-4.15-16.44-8.17-32.91-12.27-49.36-2.84-11.41-4.78-12.65-16.35-13-14.3-.48-28.58-2.13-42.87-2.12-24.85,0-22.24-1.92-30.25,22.13-3,9.11-4.38,18.77-6.85,28.09a152.2,152.2,0,0,1-5.66,17c-5.6,14.11-10.63,17.17-25.71,16.27-11.1-.66-17.61-9.08-14.92-19.8q26.26-105,52.78-209.87c4.1-16.09,9.68-31.8,14.12-47.81,1.64-5.92,5-8.23,10.71-7.95,12.63.63,25.28,1,37.88,2.08,8.08.67,14.77,8.13,16.9,17.38,5.06,22,10.1,44.07,15.26,66.08q13.65,58.28,27.42,116.5c.15.65.58,1.32.49,1.92-1.39,8.66,1.38,15.94,7,22.4a5.63,5.63,0,0,1,1.28,3.7c-.79,10.05,3.47,18.84,6.68,27.9.45,1.26.91,2.51,1.27,3.79C452.12,242.13,447.05,248.28,432.54,247.1ZM382.35,132.47C383.05,119,361,27.92,354.76,19.61c-1.44,4.36-2.85,7.94-3.8,11.65-7.77,30.52-15.4,61.08-23.18,91.61-2.26,8.84-1,11.23,8.39,12.44C351.8,137.32,367.07,134,382.35,132.47Z" transform="translate(1649.26 124.49)"/><path d="M-1221.54,472.72c1.85.49,3.7,1.43,5.53,1.37,6.94-.23,12.78,2.2,18.8,5.55,6.57,3.66,14,5.8,21,8.61,7.35,2.94,14.58,6.23,22.08,8.73,11.62,3.88,23.64,4.4,35.12,0a70.15,70.15,0,0,1,28-5.05c25.19,1.08,49.11-3.9,71.19-15.21,11.66-6,21.42-15.66,32-23.74,1.82-1.4,3.38-3.14,6.27-5.86v38.56l-1.23.05V464.8c-10.86,13.24-21.45,25-30.64,37.83-4.43,6.17-8.32,13.5-7.87,21.91.29,5.58-1.84,9.61-7.52,11.17l-18.9-18.65c-8,3-12.4,8.66-13.59,16.34-2.3,14.85-13.83,21.17-25,27.84-1.27.75-3.23.37-4.87.44-2.65.11-5.81-.76-7.87.38-11.38,6.36-23.4,2.35-35.1,2.53-4.08.06-8.19-1.7-12.34-2.64-.73,7.76,1.24,10.86,8.66,12.78,15.61,4,30.7,9.5,47.7,6.91,10.11-1.54,19.2,3.29,25.48,13.52,3.59,5.85,7.55,12.22,13.11,17.17-1.17,2.14-2.37,4.32-3.59,6.56,1.08.45,1.86,1.07,2.19.88,2.73-1.52,5.2-3.76,8.1-4.65,2.67-.83,6,.45,8.64-.45a55,55,0,0,0,24.42-16.78c10-11.77,17.47-25.24,23.76-39.2,2.2-4.88,1.48-11.05,2.18-16.62.15-1.19.66-2.33,2.82-3.37,0,3.12,0,6.24,0,9.36a51.82,51.82,0,0,0,1.84,13.3c1.44,5.87-.86,12.65-1.55,19l-2.16-.25c.35-3.36.69-6.72,1.15-11.26-2.15,3.9-3.74,6.79-5.34,9.67-7.82,14.16-17.64,26.65-30.73,36.33-5.6,4.15-11.34,7.47-18.77,8.42a39.12,39.12,0,0,0-22.79,11.41c-5.34,5.3-11.61,9.65-18.41,15.19,14.72,13,23.43,29.13,30.35,48.65-1.11.7-2.91,2.39-5,3.06a26.18,26.18,0,0,0-16.41,13.86,68.69,68.69,0,0,0-.05-7.32c-.6-5.53-1.27-11.08-2.24-16.56-.75-4.24-2.71-8.36-2.9-12.58-.38-8.3-5.64-14.13-9.67-20.39-4.32-6.7-14.07-6.74-20.13-1.07-5.58,5.22-11.09,10.52-16.76,15.65s-9.6,11-10.08,19.34l-5.62.64c-1.07,2.95-2.16,6-3.26,9-1-14.78,5-26.33,15.29-36.12,3.74-3.57,7-7.6,11.06-12-3.46-2.95-6.2-5.22-8.87-7.57-6.47-5.68-13.93-10.4-17.77-18.61a7.75,7.75,0,0,0-1.88-2.32c-10.58-9.48-20.85-19.33-31.88-28.26-8.59-7-17.39-13.44-22.33-23.74a14.11,14.11,0,0,0-2.38-3.19c-.4-.44-1.13-.57-2.57-1.25,4.4,30.94,16.42,59.31,22.93,89.29a15.22,15.22,0,0,1-1.43-2.62c-6.27-20.32-13-40.52-18.61-61-5.36-19.4-9.8-39.06-14.31-58.68-4-17.47-7.38-35-5-53.17.42-3.31-1.35-6.89-2.11-10.35Z" transform="translate(1649.26 124.49)"/><path d="M1432.56,183.78c3.49-12.87,7.16-25.57,10.38-38.38,13.31-52.88,26.44-105.8,39.74-158.67,3.6-14.29,7.69-17.13,22.61-16.7,19.78.58,22.45,3.5,17.83,22.72-10,41.7-20.62,83.26-30.88,124.91q-13.71,55.68-27.21,111.41c-3.56,14.65-8.41,19.24-23.3,19.24-9.26,0-18.55-1.39-27.74-2.75-6.64-1-9.64-5.55-11.36-12.15C1389,181,1374.94,128.64,1361.09,76.25Q1349.88,33.83,1339-8.68c-.73-2.82-1.62-5.94-1.14-8.69,2.16-12.28,9.43-16.07,21-11.14,8.94,3.81,14.56,9.5,17.22,20,13.32,52.53,27.71,104.77,41.65,157.14,2.39,9,4.33,18.1,6.6,27.13C1425.55,180.86,1425.66,180.83,1432.56,183.78Z" transform="translate(1649.26 124.49)"/><path d="M1603,123.56c-4.62,15.7-5.36,30.61-5.1,45.59.18,10,.74,20,1.12,29.95.4,10.36,2.94,12.85,13.13,13.07,19.64.43,39.28.84,58.92,1.41a24.29,24.29,0,0,1,8.68,1.69c4.2,1.8,7,5.19,7.13,10,.13,5.95.44,12-.46,17.82-.32,2.1-3.63,4.36-6.07,5.34s-5.25.32-7.91.34l-95.91.5c-8.12,0-15.15-5.45-17.25-13.84a37,37,0,0,1-.92-8.92c.07-21.93,0-43.86.45-65.78,1.34-59.26,3-118.52,4.47-177.77C1563.56-30,1567.85-34,1581-33.72c32.3.6,64.59,1.12,96.89,1.88,12.19.29,17.13,6.16,17.16,18.33,0,5.55-2.6,8.69-7,11a57,57,0,0,1-26,6.33c-15,.33-30,.15-45,.33-4.6.05-9.2.55-13.88.86-.72,1.74-1.54,2.89-1.65,4.1a399.2,399.2,0,0,0-.41,67.84c.49,6.12,2.45,8,9,8.3,7,.34,14-.21,21,.09,13.28.56,26.54,1.48,39.81,2.17,6.7.35,9.32,4.79,9.93,10.49A76.32,76.32,0,0,1,1681,114c-.61,5.93-3,7.92-9.28,8-13,.26-26,0-39,.28C1622.82,122.47,1612.92,123.12,1603,123.56Z" transform="translate(1649.26 124.49)"/><path d="M875.31,250.3c-16.65-.09-30.36-4.93-42.21-14.16-17.9-13.94-32.38-30.68-38.89-53-2.91-10-4.15-20.22-2.22-30.61,1.27-6.83,2.82-8.28,9.56-9.37,11.14-1.82,19.55,3.1,23,13.87,2.52,7.92,4.36,16.05,6.8,24,5.5,17.88,19.13,27.61,37.26,27.21a16.6,16.6,0,0,0,14.23-7.64c9-12.84,11.4-26.62,7-41.71-4-13.66-11-25.62-19.8-36.64-9.75-12.25-19.34-24.63-29.37-36.65-23.43-28.08-25.91-59.7-15.34-93.09,8-25.33,28.25-34.29,52.66-29.56C909.29-31,939.14,2.53,942.43,34.2a42.42,42.42,0,0,1-.28,9.94c-1.14,8.54-3.8,12.4-10,13-6.82.62-13.48-.74-17.35-7.28-4.4-7.44-8.25-15.21-12.57-22.7-3-5.18-5.83-10.57-9.65-15.09-11.13-13.15-26.57-10.88-33.16,5.07-4.88,11.83-5.48,24.16,1.8,35.45C869.93,66,879.2,79,888.13,92.24c9.3,13.8,19.06,27.33,27.62,41.57,10.7,17.8,16.1,37.2,13.39,58.26-2.33,18.15-9.79,33.78-23.41,46.17C896.75,246.4,886.18,250.74,875.31,250.3Z" transform="translate(1649.26 124.49)"/><path d="M-177.7,164.79c.22-4.91.27-7.58.47-10.23.68-8.73,3.91-11.75,12.53-11.79,11,0,16.84,4.15,20.29,15.08,2.69,8.55,4.79,17.31,7.63,25.81,6.3,18.82,22.31,25.2,37.09,24.25,3.92-.26,8.89-2.17,11.27-5,9-10.93,13.63-23.47,10.55-38-3.23-15.34-10.38-28.73-19.95-40.91-10.07-12.84-20.15-25.68-30.6-38.22-23.39-28.09-25.87-59.76-15.41-93.13,8.08-25.78,28.64-34.27,52.6-29.67C-62.36-31.58-32.8-.83-27.51,28.18a65.48,65.48,0,0,1,.61,13.94c-.33,9.56-2.58,13-9,14.8-6.56,1.81-15.08-1.43-18.91-7.88-4.42-7.42-8.17-15.25-12.5-22.74-3-5.16-5.91-10.53-9.84-14.95-10.85-12.24-25.21-10.08-32.09,4.8-5.63,12.16-6.15,24.72,1.35,36.3C-98.06,67.53-87.44,82.05-77.5,97c9.38,14.13,19.19,28.07,27.3,42.92,11.42,20.94,14.75,43.35,7.07,66.57a79.51,79.51,0,0,1-5.55,12.78c-16,29.64-43.12,39.39-73.37,24.81-27.39-13.2-45.56-35.15-53.72-64.74C-177.25,174-177.28,168.2-177.7,164.79Z" transform="translate(1649.26 124.49)"/><path d="M1090.24,107.72c-1.06-45-2-84.65-2.92-124.26-.26-10.55.14-11.13,10.1-13.58,1.6-.4,3.18-.92,4.74-1.48,12.27-4.4,22.53,2.44,23,15.84,1.4,42.92,2.84,85.84,3.71,128.77.58,28.3.17,56.62.3,84.92,0,8.42,2.58,11.38,10.94,12.25a148.86,148.86,0,0,0,16.9.48c9.33-.11,18.66-.87,28-.55a61.28,61.28,0,0,1,16.56,3.06c11.54,3.75,17.48,14.72,15.09,26.59-1.32,6.52-4.69,9.57-11.72,9.9-32.6,1.49-65.2,3-97.8.16-7.93-.69-12.54-4.21-14-12.86a162.89,162.89,0,0,1-2.65-26.79C1090.07,174.22,1090.24,138.26,1090.24,107.72Z" transform="translate(1649.26 124.49)"/><path d="M690.84,89q0,52,0,104c0,12.19,2.11,14.8,14.29,15.15,12.64.37,25.31-.11,38-.26a51.19,51.19,0,0,1,25,5.7c8.68,4.6,13.18,21.86,7.31,29.65a12.33,12.33,0,0,1-8.22,4.37c-31.63,1.36-63.26,2.17-94.9,0-11.86-.83-18.23-2.32-19-20.24-1.33-30.59-1.42-61.24-1.61-91.87-.25-42-.07-83.95-.17-125.93,0-10-.47-20-.61-30-.14-9.66.06-9.84,9.24-12.18,1.94-.49,3.88-1,5.78-1.6,12-3.94,22.41,2.84,22.81,15.31,1.14,36,2.06,71.94,3.06,107.91Z" transform="translate(1649.26 124.49)"/><path d="M487.44,94q-1-56.91-1.95-113.81c-.17-9.31.54-10.24,10.11-12.56,1.62-.39,3.2-.92,4.77-1.45,12.43-4.21,22.68,2.62,22.87,16q1.21,85.86,2,171.73c.13,14-.25,28-.23,41.95,0,8.63,2.08,11.4,10.73,12.35,7.55.84,15.24.45,22.87.65,10.27.27,20.55.45,30.81,1,2.59.13,5.12,1.32,7.68,2,14.12,3.81,15.71,14.25,14.38,27.68-.63,6.31-3.76,8.24-10.21,8.65a725.3,725.3,0,0,1-97.79-.3c-8.34-.6-14.55-4.5-16-18.1a346.87,346.87,0,0,1-1.71-34.87c-.21-33.62-.07-67.24-.07-100.85Z" transform="translate(1649.26 124.49)"/><path d="M1296.67,108.31q0,57.47,0,115c0,4.33-.08,8.67-.41,13-.67,8.7-2.85,10.81-11.71,11.75a48,48,0,0,0-5,.37c-14.53,3.08-21.61-6.11-21.86-18.69-.47-24-1.53-47.95-1.3-71.92.56-58.29,1.74-116.58,2.64-174.88.17-11.39,7.69-17.7,18.66-15.53,1.63.33,3.3.5,4.92.85,12.14,2.6,14.69,5.8,14.69,18.16q0,61,0,122Z" transform="translate(1649.26 124.49)"/><path d="M-1297.3,834.83c4.62-6.82,9.29-13.61,13.85-20.47,8.1-12.2,16-24.52,24.24-36.65,4.75-7,7.42-8,11.86-5.26,5.27,3.24,6.2,7.54,2,14.58-11.21,18.89-22.67,37.63-34.17,56.34-5.75,9.36-11.74,18.58-17.73,27.78-5.08,7.79-7,8.21-15.52,4-.59-.29-1.15-.67-1.74-1-9.52-5-10.09-6.09-7.86-16.3,3.56-16.24,7.22-32.46,10.74-48.71A18.41,18.41,0,0,0-1312,799c-1.13,1.77-2.24,3.56-3.37,5.32-9.7,15.12-19.32,30.29-29.11,45.34-6.26,9.63-7.79,9.94-17.67,4.89-2.07-1-4.17-2-6.26-3.07-3.9-1.9-5.13-5-4-9.09q14-52,28.12-104a15.78,15.78,0,0,1,1.84-3.33c11-.73,15.17,4,12.58,13.94q-7.15,27.51-14.19,55c-.64,2.53-.83,5.17-1.61,10.18,2.89-3.58,4.55-5.29,5.82-7.24,10.51-16.2,20.93-32.45,31.42-48.67,5.55-8.59,8.34-9.3,17-4.5,5.83,3.22,6.93,5.47,5.52,12.15-4,19.2-8.22,38.38-12.26,57.58-.74,3.49-1.14,7.05-1.69,10.58Z" transform="translate(1649.26 124.49)"/><path d="M-1452.73,111.31q15.84,16.32,31.68,32.64c5.06,5.24,4.38,10-1.93,13.43-4.31,2.34-7.42.26-10.52-2.81C-1447.2,141-1461,127.49-1474.82,114c-10-9.8-20-19.55-29.83-29.51-5.25-5.32-5.39-7.2-2.34-12,3.49-5.53,8.93-8.15,14.35-6.32a50.42,50.42,0,0,1,8.87,4.52c16.12,9.34,32.18,18.77,48.32,28.08,2.86,1.65,6,2.84,10.43,4.93-.8-3.24-.9-5.39-1.83-7.11-6.16-11.4-12.53-22.7-18.77-34.06-4.63-8.45-9.49-16.81-13.66-25.49-3.87-8-3-9.61,6.19-15.93,6.41-4.43,7.26-4.42,13.41,1.76q35.6,35.76,71.07,71.64c1.15,1.16,2.11,2.52,3.46,4.15a22.31,22.31,0,0,1-1.58,4.49c-4.46,7.38-8.81,8.14-15.13,2.26-9-8.39-17.77-17.07-26.67-25.6a25.65,25.65,0,0,0-8.76-6c1,2.42,1.9,4.94,3.14,7.25,5.66,10.56,11.47,21,17.11,31.59a66.07,66.07,0,0,1,3.54,8.25c1.56,4.21,2.43,8.3-2,11.63-4.15,3.13-8.23,3.78-12.91,1.11-9.82-5.62-19.74-11.07-29.64-16.53-4.53-2.5-9.13-4.88-13.69-7.32Z" transform="translate(1649.26 124.49)"/><path d="M-384.48-124.49c.88,1.1,2.39,2.12,2.51,3.29a100.45,100.45,0,0,1,.32,11q0,507.79-.08,1015.59c0,4.14,2,9.12-2.39,12.32a8.91,8.91,0,0,1-1.58-.39,1.4,1.4,0,0,1-.59-.68,5.9,5.9,0,0,1-.51-1.9q-.09-516.78-.11-1033.58a45,45,0,0,1,.54-4.87Z" transform="translate(1649.26 124.49)"/><path d="M-1414.52,749.18q15.64-20,31.28-40.09a60.8,60.8,0,0,1,4.92-6.28c3.52-3.46,7.58-3.52,11.76-.58s5.32,6.88,3,11.33a47.91,47.91,0,0,1-5.28,7.25q-29.52,37.19-59.08,74.33c-6.43,8.08-8.73,9-14.53,5.73-10.19-5.67-12.56-10.77-8.66-20.19,5.47-13.2,11.3-26.25,16.92-39.4a16.91,16.91,0,0,0,1.61-9c-2.48,2.88-5.05,5.68-7.4,8.66-8.69,11-17.22,22.06-26,33-4.46,5.57-9,5.71-14.4,1.22-3.4-2.8-4.06-6.12-2.1-9.74a56.93,56.93,0,0,1,5.76-8.12q29.51-37.18,59.07-74.32c6-7.59,8.36-8.3,15.65-4.16,7.58,4.3,9,8.13,5.77,16.48-5.88,15.2-11.9,30.35-17.83,45.53-.94,2.41-1.74,4.88-2.61,7.31Z" transform="translate(1649.26 124.49)"/><path d="M-1565.11,525.24c-12.68,11.16-30.65,12.68-47.7,16.66-5.62,1.31-8.48-1.28-9.76-7.16-1-4.81.74-8,6.25-9.62,8.25-2.5,16.56-4.81,24.93-6.85,17.82-4.33,19.91-7.82,14.21-24.75-.73-2.19-1.57-4.35-2.76-7.64a94.53,94.53,0,0,0-10.16,1.63c-12.2,3.23-24.32,6.78-36.52,10-3.9,1-7.79,1.56-10.21-3.31-3.71-7.47-2-11.81,6.32-14q49.58-13.2,99.23-26.15c9-2.35,9.34-2,12,6.65,2.08,6.66,4.37,13.25,6.31,19.94,7.62,26.22-5.52,42-30.94,45.61C-1550.27,527.1-1557,525.68-1565.11,525.24Zm31.48-49.95a44.5,44.5,0,0,0-27,7.66c.53,2.75,1,5,1.39,7.29,3.07,18.45,9,21.49,25.77,13.74,4.1-1.9,5.81-4.71,5-8.54C-1529.79,488.7-1531.84,482.1-1533.63,475.29Z" transform="translate(1649.26 124.49)"/><path d="M-1067.68,829.7l26.22-6.29c-2.29-12.15-4.36-23.18-6.45-34.2-.68-3.59-1.33-7.18-2.13-10.75-1-4.54,1.18-7.42,5.23-8.07,9.39-1.49,12.75-1.6,14.79,9.19,3.59,18.93,7.35,37.83,11,56.75,2.43,12.73,4.76,25.48,7.09,38.22a52.25,52.25,0,0,1,.85,6.93c.34,7.08-1.06,8.6-8.3,9.33-5.77.59-8.63-1.44-9.79-7.22-2-10.09-3.9-20.22-6-30.3-.72-3.5-1.85-6.91-3.09-11.43l-27.42,5.77c2,10.51,3.73,19.89,5.43,29.3.88,4.9,1.55,9.85,2.42,14.75.72,4,.34,7.25-4.44,8.45-6.76,1.69-12,.22-13.46-4.53a107.83,107.83,0,0,1-2.84-12.63q-8.75-46-17.39-92.07c-1.27-6.76.14-9.51,5.37-10.63,6.42-1.38,12.07,1.49,13.24,7.15,2.23,10.73,4.09,21.54,6.31,32.27C-1070.41,822.82-1069,825.8-1067.68,829.7Z" transform="translate(1649.26 124.49)"/><path d="M-675.33,577.5c5.8,4.25,10.59,7.72,15.35,11.26a106.64,106.64,0,0,1,9.44,7.32,10.18,10.18,0,0,1,1.24,14.27c-2.24,2.95-5.07,4.26-8.67,2.24-.87-.49-1.75-1-2.56-1.54-29.24-20.26-58.53-40.43-87.65-60.87-9.15-6.42-8.94-6.76-4.46-17.06.93-2.13,2.08-4.17,3-6.3,2.16-4.93,5.93-6.93,11.18-6.23,28,3.72,55.94,7.57,84,11.1,6.87.87,13.88.58,20.8,1.1,7.19.54,9.28,2.32,8.79,6.8-.72,6.68-4.85,10.26-11.25,9.61s-12.6-1.08-18.8-2.2c-5.13-.93-8.11.4-10,5.46C-667.94,560.5-671.5,568.34-675.33,577.5Zm-14-9.56c6.11-7,6.89-14.7,8.14-23.22-14-1.64-27.08-3.22-40.22-4.72a46.63,46.63,0,0,0-5.42,0l-.7,1.92Z" transform="translate(1649.26 124.49)"/><path d="M-1387.71-32.94c6-3.41,10.87-6.13,15.69-9s9-1.72,12.64,1.88c20,19.49,39.92,39.1,60,58.51,5.17,5,10.89,9.43,16.34,14.14,5.17,4.46,6.11,7.59,3.27,10.72-4,4.43-9.82,5.3-14,1.67-5.27-4.58-10.35-9.39-15.33-14.29-3.33-3.29-6.4-3.94-10.54-1.16-4.67,3.14-9.86,5.49-14.7,8.41-8.82,5.32-9,5.94-5.94,16,1.91,6.35,3.91,12.67,5.66,19.06,1.33,4.85-.75,8.35-4.88,10.91-5,3.08-9,2.17-11.24-3.31-2.13-5.22-3.49-10.74-5.28-16.09Q-1369.91,23-1383.81-18.6C-1385.26-23-1386.24-27.49-1387.71-32.94Zm59.6,47.17c-10.83-11.9-22.29-22-33.37-32.45l-2.07,1.43c5,14.6,10,29.2,15.16,44.3C-1339.79,25-1334.43,19.72-1328.11,14.23Z" transform="translate(1649.26 124.49)"/><path d="M-618.71,445.82l-26.56-6c-2,3.41-3.52,6.31-5.32,9-3.32,5-5.42,5.46-10.9,3.6-5-1.68-5.69-4.77-4.33-9.35,1.71-5.72,3-11.56,4.57-17.32,1.26-4.57,4.28-6.62,9-5.61,14.31,3.05,28.57,6.34,42.92,9.17,5.13,1,7.81,3.88,8,8.66.31,8,1,16.11-.18,23.93-2.16,14.76-22.12,29.78-37,27.29-23-3.83-45.74-8.73-68.49-13.67-8.86-1.93-16.16-12-17.05-21.42-1.74-18.65,14.47-38.06,33.28-39.67,3.57-.31,7.65-1,9.18,3.74,1.13,3.52-2.12,10.14-5.71,11.51-2.79,1.06-5.8,1.53-8.62,2.53-8,2.82-12.84,15.41-8.1,22.39,1.63,2.4,5.29,4.05,8.32,4.76,16.19,3.78,32.46,7.19,48.72,10.63a76.65,76.65,0,0,0,12.78,2.07c10.16.39,14.81-4,15.49-14C-618.51,454.49-618.71,450.85-618.71,445.82Z" transform="translate(1649.26 124.49)"/><path d="M-1601.83,411.16c1.5-4.42,2.18-7,3.23-9.43,2.27-5.25,4.79-6.45,10.21-5.64,5.26.78,6.22,4.18,5.79,8.67-.57,5.95-.93,11.93-1.67,17.86-.63,5.11-3.6,7.38-9,7.07-13.3-.79-26.62-1.21-39.92-1.93-9.38-.5-11.31-2.22-13.3-11.61-.82-3.9-.9-8-2-11.79-4.85-16.17,13.53-41.29,31.86-40.69,11.65.38,23.31.42,35,.81,10.31.34,20.62,1,30.94,1.4,13.28.48,22.49,8.66,24.31,21.83,2.56,18.49-9.54,36.84-27.18,41.19-3.2.79-6.63,2.23-8.88-1.62-2-3.36-.35-10.57,2.89-12.56,2.53-1.56,5.44-2.51,8.07-3.93,8.19-4.43,11-15.79,5.17-23.1-1.59-2-5-3.3-7.72-3.57-11.25-1.1-22.56-1.75-33.85-2.42-7.31-.43-14.64-.61-22-.87a52.78,52.78,0,0,0-7-.06,16.91,16.91,0,0,0-12.76,26,7.19,7.19,0,0,0,4.78,2.95C-1617.3,410.45-1609.73,410.72-1601.83,411.16Z" transform="translate(1649.26 124.49)"/><path d="M-900,714.53c1.64,4.07,3.43,7.58,4.49,11.29,9.09,31.61,18,63.27,27.07,94.88,1.31,4.55,3.64,9.7-1,12.85-5,3.46-11.06,5.63-16.91,7.6-1.32.44-4-2-5.56-3.6q-36.86-37.26-73.56-74.68c-4-4.13-5-8.88-2.83-11.4s10.48-2.71,14,.06a58.79,58.79,0,0,1,4.94,4.92q27,27.34,54.06,54.66a44.59,44.59,0,0,0,4.18,3.14c-.39-3.44-.35-5.61-.91-7.61-6.83-24.31-13.79-48.58-20.62-72.88C-916.31,720.79-915.07,718.82-900,714.53Z" transform="translate(1649.26 124.49)"/><path d="M-833.9,89.09c5.5-3.42,9.12-5.54,12.61-7.85C-801,67.84-780.71,54.52-760.6,40.9c6.41-4.34,10.4-3.52,16.09,3.37,2.57,3.1,2.53,6-.86,8.57-1.86,1.39-3.76,2.74-5.7,4l-82.21,54.86c-3.56,2.38-7,5.75-11.74,3.47-6.27-3-10.44-8.23-13.19-14.42-.61-1.38.48-3.84,1.35-5.51Q-832.14,48-807.32.71c1.87-3.58,4.54-6.41,8.43-5.67,4.54.86,6,5.27,5.9,9.31-.11,3.12-1.47,6.38-2.94,9.24-11.76,22.74-23.7,45.39-35.52,68.1C-832.28,83.3-832.62,85.16-833.9,89.09Z" transform="translate(1649.26 124.49)"/><path d="M-710.15,117.64l-28,19c2.25,3.51,3.93,6.2,5.68,8.85,2.37,3.61,5,7.1,7.16,10.81,6,10,4.89,12.53-7.81,17.3l-9.72-13.27-9.42-12.9c-12.23,4.35-21.22,12.12-31.38,20.07l11.39,17.72c.72,1.12,1.45,2.23,2.16,3.35,6.82,10.83,6.06,12.88-7.38,17.84-4.35-6.25-8.88-12.71-13.37-19.21-4-5.74-8-11.44-11.77-17.32s-3.29-9.35,2.17-13.7c3.89-3.1,8-5.93,12.19-8.63q36.84-23.85,73.77-47.55c9-5.76,9.6-5.58,15.63,3.48q9.39,14.11,18.63,28.33c1.26,1.94,3.14,4,3.16,6.08a14.05,14.05,0,0,1-2.5,7.87c-2.09,2.88-5.45,2.51-7.94.29a77.34,77.34,0,0,1-9.64-9.94C-701.44,130.61-705.2,124.74-710.15,117.64Z" transform="translate(1649.26 124.49)"/><path d="M-1507,561.37l-30.1,15.57c2,4.14,3.54,7.29,5.06,10.46,2.28,4.8,4.91,9.48,6.73,14.46,2,5.54.78,7.92-4.23,10.57s-6.88,2.25-9.72-2.63c-2.68-4.59-4.91-9.45-7.45-14.13-1.73-3.18-3.64-6.27-5.64-9.68-12.54,2.23-22.16,9.39-33.5,15.48,1.46,3.5,2.59,6.49,3.95,9.37,2.14,4.51,4.51,8.91,6.66,13.42,5.47,11.41,4.68,13-9.4,17.52-3.53-6.86-7.16-13.9-10.79-20.93-3.21-6.21-6.55-12.36-9.61-18.64-3.29-6.75-2.22-10.21,4.28-14,4.3-2.51,8.73-4.84,13.22-7q39.12-18.88,78.28-37.64c9.94-4.75,10-4.71,15.1,5.19s9.88,19.62,14.76,29.47a67.16,67.16,0,0,1,2.7,6.43c1.35,3.67.3,7.12-3.11,8.39-2.34.88-6.32.65-8-.84a44.15,44.15,0,0,1-8.55-10.87C-1500,575.37-1503,569.06-1507,561.37Z" transform="translate(1649.26 124.49)"/><path d="M-1504.73,667.4c-11.18,4.51-18.52,12.33-26.46,19.32-2.82,2.5-2.39,5.15-.18,7.88,4,4.91,8,9.82,11.82,14.84,7.87,10.28,7.44,12-6.31,19.7a56.28,56.28,0,0,0-3.88-6.15c-7.29-9.09-14.75-18-22.08-27.11-6.5-8-6.47-11,1.48-17.38,16.85-13.56,33.93-26.85,51-40.17q14.56-11.37,29.32-22.49c6.74-5.05,7.88-4.94,13.06,1.43,7.76,9.56,15.33,19.28,22.93,29,1.23,1.56,3,3.28,3.08,5a14.31,14.31,0,0,1-1.59,8c-1.72,2.81-5,3.4-7.85,1.15a101.81,101.81,0,0,1-11.16-9.76c-4.72-5-8.94-10.53-14.07-16.66l-26.15,21.25c2.67,3.53,4.78,6.39,7,9.18,2.46,3.15,5.13,6.14,7.44,9.39,6.78,9.55,5.84,12.38-6.48,17.88C-1490.55,684-1497.41,676-1504.73,667.4Z" transform="translate(1649.26 124.49)"/><path d="M-702.56,365.65c5.73,0,10.36.28,14.94-.07,5.9-.47,11.75-1.45,17.9-2.24,0-5.94.07-11.16,0-16.37,0-2.32-.54-4.63-.56-7-.09-10.87,2.39-12.8,15.39-10.86q1.75,15.56,3.65,32.27c12.63,1.82,24.35.68,36.87-2.28,0-3,.09-5.87,0-8.74-.2-5.32-.58-10.63-.75-15.95-.41-12.67.25-13.24,14.14-12.13.47,1.24,1.4,2.69,1.52,4.21,1.06,13.27,2.11,26.53,2.89,39.82.48,8.19-1.85,10.92-10,11.5-20.57,1.47-41.15,2.74-61.74,4-13.61.81-27.24,1.57-40.87,2-8.37.29-9.25-.67-9.83-8.74-.84-11.95-1.56-23.9-2.27-35.86-.14-2.31-.74-5,.21-6.88,1.21-2.34,3.5-4.92,5.85-5.61,1.8-.53,5.53,1.12,6.45,2.84a38.42,38.42,0,0,1,3.8,12.18C-703.9,349.32-703.42,356.94-702.56,365.65Z" transform="translate(1649.26 124.49)"/><path d="M-1169.59,857.09c0,5.32.14,10.65,0,16-.41,12.52,6.23,19.51,18.71,18.68,12.86-.85,15.6-5.34,16-14.79.34-7.66,2-9.35,6.35-9.15,5.34.25,9,3.79,9.44,9.69.72,10.76-.93,20.59-11,27.16-8,5.24-16.8,4.14-25.16,2.64C-1175,903.74-1189,888.11-1187.1,868c1.86-19.53,2.59-39.17,3.91-58.75.46-6.82,2.45-13.17,7.65-17.91a24,24,0,0,1,7.52-4.76c14-5.21,34.19.2,44.11,11.28a29,29,0,0,1,7.37,19.13c.07,2.18-1.18,5.78-2.72,6.35-3.2,1.2-7.41,2-9.72-2.17-1.76-3.19-3.15-6.59-4.71-9.89-4.77-10.08-17.44-14.11-26.79-8-2.34,1.54-4.2,5.2-4.58,8.11-2,15.15-3.39,30.37-5,45.57Z" transform="translate(1649.26 124.49)"/><path d="M-1044.72-79.47c-.53.81-1.63,4.46-3.93,5.53-3.44,1.61-7.07,0-9.24-3.71-2.49-4.32-4.69-9-8-12.62-2.15-2.42-6-4.75-9-4.63-4.41.17-5.93,4.57-6.78,8.72-1.09,5.33.61,9.87,3.68,14,6.34,8.55,12.85,17,19.18,25.54,5.19,7,9.32,14.51,10.76,23.32a32.3,32.3,0,0,1-6.26,25.41c-6.16,8.2-14.34,11.23-24.67,8.37-14.91-4.13-28.83-20.25-29.72-35.29-.23-3.91-.93-8.36,4.71-9.45,4.72-.91,8.26,1,10.29,5.72,1.16,2.74,1.63,5.78,2.85,8.49,1.34,3,2.65,6.27,4.9,8.51,7.55,7.5,18.42,4.49,20.35-5.88a24.07,24.07,0,0,0-1.62-13.49c-2.54-5.66-6.5-10.75-10.3-15.75-4-5.29-8.7-10.07-12.86-15.26-9.38-11.71-10.22-24.94-6.05-38.73,2.59-8.54,9.06-13,17.85-13.34C-1062.87-114.51-1044.94-97.49-1044.72-79.47Z" transform="translate(1649.26 124.49)"/><path d="M-1493.36,202.07a34,34,0,0,0,7.16,1c3.24-.08,6.81-.35,9.62-1.75,9.17-4.57,10.07-13.53,2.21-20.08-6.4-5.33-14.07-5.94-21.77-4.26-9.41,2.05-18.72,4.61-28,7.31-13.8,4-25.66-.19-36.43-8.45-11-8.47-12.14-21.28-2.36-31.14,10.36-10.43,23.09-14.15,37.53-10.45,3.48.9,7.43,2.51,7.06,7.14s-3.58,6.73-8.18,7.07-9.29.89-13.89,1.64c-4.11.67-8.54,2.35-8.39,7,.1,3.1,2.46,6.77,4.88,9,3.8,3.5,8.81,4.3,14.06,3.11,9.73-2.19,19.44-4.6,29.28-6.15a107.8,107.8,0,0,1,21.82-1.27,31.64,31.64,0,0,1,13.16,4c9.59,5.23,16.33,13.21,16.25,24.55-.07,11.57-7.56,18.89-17.39,23.59-10.81,5.17-22.06,7.56-33.71,2.49-3.31-1.43-7.27-2.51-6.13-7.57,1-4.43,4.4-6.91,9.47-7C-1496.42,201.87-1495.76,201.94-1493.36,202.07Z" transform="translate(1649.26 124.49)"/><path d="M-928.16-79.31c1.61.23,2.89.33,4.13.6,8.84,1.92,10.69,5,7.34,13.12C-920.22-57-924-48.46-928-40.07-936.13-23-944.53-6-952.8,11.05c-1.29,2.65-2.4,5.39-3.52,7.92,2.49,5.53,7.88,6.27,12.11,8.68,4.58,2.61,9.38,5,13.63,8,4.07,3,4.08,7.2,2,11.64-1.91,4-4.47,5.52-8.74,3.39q-17.83-8.86-35.76-17.57c-4.48-2.17-5.26-5.82-4-10a83.45,83.45,0,0,1,4.6-12.08Q-952-31.63-931.34-74.22A58.07,58.07,0,0,1-928.16-79.31Z" transform="translate(1649.26 124.49)"/><path d="M-713.27,669.47c3.7-4.69,6.79-8.86,10.15-12.8A115.6,115.6,0,0,1-693,645.82c3.07-2.78,6.71-2.21,10.18-.1,4.6,2.79,5.82,5.47,2.71,9.81-7.75,10.81-16,21.27-24,31.87-3,3.88-6.89,4.08-10.72,2.07a90.72,90.72,0,0,1-11.67-7.64Q-763,654.68-799.36,627.4c-6.45-4.82-7.45-8.44-3.54-13.86,3-4.13,7.24-4.54,13-.32,22.07,16.07,44,32.34,66,48.53C-720.71,664.08-717.52,666.38-713.27,669.47Z" transform="translate(1649.26 124.49)"/><path d="M-772.77,738.63c4.71-4.17,8.54-7.7,12.52-11a110,110,0,0,1,10.93-8.5c4.25-2.72,8.29-1.28,11.72,2,3.12,3,3.66,6.28.23,9.46q-14.6,13.56-29.28,27c-3.87,3.56-7.75,3.2-11.57-.07a53,53,0,0,1-4.44-4c-24.09-25.67-48.15-51.37-72.54-77.42A31.54,31.54,0,0,1-853,670.9c4.26-6.65,8.67-7.33,14.38-1.63q18,18,35.48,36.42C-793.33,716-783.79,726.65-772.77,738.63Z" transform="translate(1649.26 124.49)"/><path d="M-1252.09,33.21c-4.63-.16-7.3-2.42-8.7-6.2-1.84-5-3.52-10-5-15.12q-12.13-43.11-24.09-86.28c-2-7-.92-9.39,5.08-11.58,5.26-1.91,9.25,0,11.17,6.5,7.54,25.45,14.79,51,22.09,76.51,4.38,15.31.62,17.9,21.1,11.28a45.73,45.73,0,0,1,12.66-2.11c5.59-.16,8.49,2.61,10,7.82,1,3.49-.11,6.34-3.29,7.31C-1224.65,25.5-1238.39,29.29-1252.09,33.21Z" transform="translate(1649.26 124.49)"/><path d="M-1194.75-107a50.76,50.76,0,0,1,6.51-2.66c5.1-1.3,8.55.47,9.76,5.65a106.25,106.25,0,0,1,1.9,14.83c1.94,22.21,4,44.42,5.61,66.65,1.27,17.91,1.13,17.92,18.64,15.72a58.84,58.84,0,0,1,13.77.35c5.2.6,7,4.53,7.47,9.21.38,3.89-1.13,6.65-5.28,7-13.6,1-27.21,1.9-40.82,2.78-4.84.32-7.55-2.23-8.15-6.86-1.2-9.23-2.46-18.47-3.26-27.74-2.17-25.2-4.14-50.42-6.12-75.64C-1194.95-100.68-1194.75-103.64-1194.75-107Z" transform="translate(1649.26 124.49)"/><path d="M-835.12-29.73C-854.66,2-873.74,33.15-893,64.18c-3.83,6.18-5.63,6.43-11.25,3.36-5.46-3-6.54-6.14-3.41-12.41s6.47-12.35,10.16-18.25q22.18-35.47,44.67-70.75c4.5-7.1,8.49-7.49,14.1-1.44C-837.42-33.9-836.59-32-835.12-29.73Z" transform="translate(1649.26 124.49)"/><path d="M-874.67,689.79c2.74,2.6,5.27,4.55,7.23,7q23.63,29.07,47.06,58.31c5.63,7,11.23,14.05,16.68,21.2,4.63,6.08,4.41,8.13-.7,12.55-4.72,4.09-7.56,4-12.68-1.58-6.51-7.12-12.83-14.44-18.81-22-15.49-19.59-30.68-39.42-46.16-59-2.5-3.16-4.52-6.64-2.23-9.86C-882.37,693.65-878.55,692.31-874.67,689.79Z" transform="translate(1649.26 124.49)"/><path d="M-1223.66,893.93a40.36,40.36,0,0,1-5.59.59c-8.15-.42-10.28-2.37-9.5-10.42.92-9.58,2.35-19.14,4.1-28.61,4.53-24.51,9.35-49,14.08-73.43,1.3-6.73,3.86-9.13,8.82-8.48,6.46.85,9.59,4.54,8.48,10.84q-9.09,51.54-18.45,103.05A60.93,60.93,0,0,1-1223.66,893.93Z" transform="translate(1649.26 124.49)"/><path d="M-1124.11,371.32c-4,5.65-8.76,8.21-14.55,10.51-6.21,2.47-13.11,6.46-14.72,14.67-.24,1.19-.89,2.8-1.83,3.26-4.77,2.4-5.6,7.13-7.39,11.39-2.34,5.58-6.9,7.65-11.81,4.48-3.38-2.19-7.09-5.55-8.22-9.15-1.6-5.07,2.73-8.56,7-10.81,4-2.11,6.12-5.35,8.45-9.11,4.16-6.7,9.4-12.68,17.87-14.74,2.71-.66,4.94-3.19,7.5-4.68,5.64-3.28,11.18-5.47,17.7-1.36,2,1.28,5.52.22,8.34.19,3.21,0,5.17,1.28,4.82,4.75-.38,3.74-3,4-5.84,3.28C-1119,373.43-1121.1,372.45-1124.11,371.32Z" transform="translate(1649.26 124.49)"/><path d="M-1074.39,368.21c-2.39.19-6.92,1.85-8.31.44-4.45-4.52-13.16,5.65-15.21-5.39,7.72-4,16-4.58,24.54-3.47,4.51.59,9,1,13.52,1.77,4.88.8,9.76,1.69,14.56,2.86,3.76.91,7.41,2.3,11.09,3.51s5.63,3.55,4,7.5c-2.59,6.14-5.87,11.77-12.08,14.78-5.37-4.54-10-9.1-15.27-12.72S-1068.49,371.41-1074.39,368.21Z" transform="translate(1649.26 124.49)"/><path d="M-1121.39,321.47c.14,2.93.28,5.82.44,9.17l-33.28,4.91c1.43,3.24,2.25,5.12,3.07,7-9,6.61-19.65,4.42-25.64-5.62,1.18-1.32,2.25-3,3.76-4.13,4.8-3.47,9.9-6.54,14.63-10.09,6.47-4.87,13.16-7.05,21.29-4.39C-1132.17,319.93-1126.86,320.41-1121.39,321.47Z" transform="translate(1649.26 124.49)"/><path d="M-1238.94,316.65c-2-5.28.1-7.75,3-9.62,15-9.58,30-19,48.77-19,6.43,0,12.85-.31,18.76-.46,2.24,3.94,1.77,6.31-1.12,7.62-2.66,1.21-5.58,2.61-8.4,2.63-17.13.15-31.63,8.08-46.59,14.91C-1229,314.79-1234.17,315.4-1238.94,316.65Z" transform="translate(1649.26 124.49)"/><path d="M-1035.72,259.73c1.36,4.26.21,6.17-3.79,6.6-14.39,1.54-28.82,2.89-43.12,5.09-3.5.53-6.74,3.76-9.76,6.19-2.31,1.86-4.75,3.61-6.67.71-1.16-1.75-1.42-5.53-.28-7.06,2.26-3.06,5.37-6.15,8.82-7.54,13.3-5.36,26.77-10,41.53-5C-1045.11,260-1040.58,259.42-1035.72,259.73Z" transform="translate(1649.26 124.49)"/><path d="M-1068.32,417.75c-14,13.21-46.74,18.49-58,10.44,1.3-6.08,6.5-7.4,11.25-7.63,12.29-.6,24.59-.36,36.57-4.13C-1076,415.66-1072.87,417.08-1068.32,417.75Z" transform="translate(1649.26 124.49)"/><path d="M-1243.13,255.72c7.88-3.26,15.25-6.28,22.6-9.33,1.82-.76,4.28-1.12,5.29-2.5,5.75-7.9,13.47-6.48,21.57-5.21.51,2.64,1,5.17,1.65,8.51l-12.69,1c-.69,1.35-1.46,3.08-2.44,4.66-.86,1.38-1.91,3.66-3,3.72-10.3.63-20.19,5.85-30.74,2.93C-1241.89,259.26-1242.38,257.06-1243.13,255.72Z" transform="translate(1649.26 124.49)"/><path d="M-1114.33,329.5c-3.14-12,3.42-21.23,14.9-23.18,10.75-1.82,18.73,4.81,20,17.9C-1091.63,322.3-1103.77,321.08-1114.33,329.5Z" transform="translate(1649.26 124.49)"/><path d="M-1287.51,418.38c-1-.65-2.84-1.16-3-2-2-11-3.77-22-5.72-33.79,10.06-1,14.23,6.53,21.06,9.75-.59,1.92-1,3.43-1.54,4.94-3.41,10.52-4.14,10.8-14.35,4,1.32,6.43,2.41,11.74,3.46,17.11C-1287.63,418.46-1287.51,418.38-1287.51,418.38Z" transform="translate(1649.26 124.49)"/><path d="M-1256.76,412.16c-3.09,17.38,8.15,30.37,13.17,47.64l-4.3-4.8c-2.39,2.22-4.59,5.95-7.36,6.43-3.5.61-7.47-1.42-11-3.52h13c-.37-2.86-.15-5.25-1-7.13-5-11-5.25-23-7.85-34.49C-1263.08,412.27-1261.51,411.65-1256.76,412.16Z" transform="translate(1649.26 124.49)"/><path d="M-1259.65,297.36c-2.68-15.08,7.53-34.57,19.59-35-1.46,3.36-2.27,6.42-4,8.89-4.49,6.54-9,12.89-9.72,21.22C-1254,295.51-1255.85,298-1259.65,297.36Z" transform="translate(1649.26 124.49)"/><path d="M-1298.59,121.92c9.56-6.69,19.66-13,32.65-10.76,4.27.73,9-1.46,13.59-2.34,3.71-.72,7.43-1.64,10.62,2.36-10.52.89-21.1,1.37-31.55,2.82-6.15.86-12.12,3.17-18.13,5C-1293.87,119.75-1296.2,120.94-1298.59,121.92Z" transform="translate(1649.26 124.49)"/><path d="M-926.94,146.77c16,11.58,31.85,36.07,34.64,52.49C-901.2,180-911.53,161.76-926.94,146.77Z" transform="translate(1649.26 124.49)"/><path d="M-1264.77,387.85c1.27,5.41,2.2,9.42,3.13,13.38l-6.15,7.47C-1275.95,401.47-1275.25,396.37-1264.77,387.85Z" transform="translate(1649.26 124.49)"/><path d="M-881.5,265.61c0-8.21.71-17.77-.2-27.17-.87-9.09-3.41-18-5.4-27.94C-878.48,222.63-876,254-881.5,265.61Z" transform="translate(1649.26 124.49)"/><path d="M-1363.08,171.94c7-15.43,18.57-26.75,32.42-36.38.45,1.13.9,1.88.78,2-9.27,8.33-19.54,15.62-25.56,27.16-1.53,2.92-5.18,4.74-7.86,7.07Z" transform="translate(1649.26 124.49)"/><path d="M-998.7,618.25c-4.15,12.84-8.1,25.75-12.59,38.47-1,2.72-3.86,4.74-5.87,7.08l.19.17c4.93-14.55,9.83-29.11,14.87-43.62.37-1.06,1.83-1.75,2.78-2.61Z" transform="translate(1649.26 124.49)"/><path d="M-1374.83,198.17c-1.19-6.23,1-11.51,5.28-17.72.56,3.92-.68,7.41,3.17,9.25,2.29,1.09,3.61,4.2,5.37,6.4l.16-.28c-4.23,4-8,1.15-10-.43l-4.27,2.51Z" transform="translate(1649.26 124.49)"/><path d="M-962.12,388.85c-1,5.83-2,11-2.85,16.18-1.23,7.41-2.4,14.82-3.87,23.89-1.36-2.27-1.87-2.73-1.82-3.1,1.4-10.7,4-21.24,3.6-32.17C-967.16,390.57-965.15,388.4-962.12,388.85Z" transform="translate(1649.26 124.49)"/><path d="M-982.58,528c-2.76-12.18-2.19-28.18,0-34.17Z" transform="translate(1649.26 124.49)"/><path d="M-1098.8,99.88c11.86,1.22,23.87,1.21,35.31,5.83l-35.82-3.53Z" transform="translate(1649.26 124.49)"/><path d="M-1115.91,722.21c9-6.36,18.06-7.88,30-4.56Z" transform="translate(1649.26 124.49)"/><path d="M-1148.3,99.44a101.49,101.49,0,0,1,38,0Z" transform="translate(1649.26 124.49)"/><path d="M-1017.16,663.8c-2.22,8.44-9.85,11.19-16.07,15.43,3.34-7.31,10.56-10.47,16.26-15.26Z" transform="translate(1649.26 124.49)"/><path d="M-891.3,288.94l-10.18,19.57C-900.49,298.2-899,295.14-891.3,288.94Z" transform="translate(1649.26 124.49)"/><path d="M-920.15,230.86l-5.22-3.27,7.32-10.76c4.12,6.88-.78,10.13-2.3,14.12Z" transform="translate(1649.26 124.49)"/><path d="M-1100,364.17c-1.49,1.63-2.82,4.32-4.5,4.57-1.4.2-3.21-2.48-6.6-5.41l9.28-1.5Z" transform="translate(1649.26 124.49)"/><path d="M-938.52,206.51c-1.16-8.33-1.16-8.33,6.65-7.81-.45,4.39-2.23,7.24-7,7.45Z" transform="translate(1649.26 124.49)"/><path d="M-950.73,362.63c-1.18,7.28-1.94,12-2.7,16.7C-955.42,374.05-956.58,368.88-950.73,362.63Z" transform="translate(1649.26 124.49)"/><path d="M-1285.25,432.3l11,11.32-2,1.59c-4.25-3.32-8-7-8.83-13.08Z" transform="translate(1649.26 124.49)"/><path d="M-1125.19,706.16q2,6,4,12l-2.26.77-4-11.41Z" transform="translate(1649.26 124.49)"/><path d="M-1144.27,348.38c-2.91-3.31-4.45-4.42-4.89-5.86-.19-.61,2.24-2.92,3-2.71a6.62,6.62,0,0,1,4.09,3.22C-1141.64,344.05-1143.15,345.87-1144.27,348.38Z" transform="translate(1649.26 124.49)"/><path d="M-999.32,617.74c.75-5.18.82-10.72,6.77-13.24l-.21-.2-5.94,14Z" transform="translate(1649.26 124.49)"/><path d="M-1055.22,106.47l10.67,4-.57,1.75-10.84-3.35C-1055.72,108.09-1055.47,107.28-1055.22,106.47Z" transform="translate(1649.26 124.49)"/><path d="M-1047.23,691.89l5.25-7.65,1.71,1.11L-1045,693Z" transform="translate(1649.26 124.49)"/><path d="M-948.95,352.12l-1.35,7-2.15-.42,1.49-6.85Z" transform="translate(1649.26 124.49)"/><path d="M-1232.72,469.35c-4.67,1.34-6.14-2.35-7.66-6,2.47,2.11,4.93,4.21,7.39,6.33Z" transform="translate(1649.26 124.49)"/><path d="M-1167.48,683.34q2.22,3.35,4.45,6.69l-1.27.85-4.32-6.77Z" transform="translate(1649.26 124.49)"/><path d="M-916.87,324.14l6.33-7.47,1.5,1.68-8,5.58Z" transform="translate(1649.26 124.49)"/><path d="M-1221.46,472.59c-4.73,2.34-8.59,1.64-11.27-3.22l-.26.32c3.79,1,7.57,2.07,11.4,3.07A1,1,0,0,0-1221.46,472.59Z" transform="translate(1649.26 124.49)"/><path d="M-1285.06,432.13c-3.13-4.13-5.22-8.46-2.49-13.71,0,0-.08,0,0,0,.81,4.59,1.58,9.23,2.35,13.88Z" transform="translate(1649.26 124.49)"/><path d="M-992.55,604.5c.48-3.15.95-6.3,1.43-9.45,2.66,3.9.23,6.49-1.65,9.24Z" transform="translate(1649.26 124.49)"/><path d="M-1071.06,722.54l-5.48,1.44c-.18-.45-.36-.91-.53-1.37l5-2.63Z" transform="translate(1649.26 124.49)"/><path d="M-1363.3,171.78c1.4,2.91,1.55,5.54-2.12,7.95-1.95-3.73-.41-5.91,2.34-7.79Z" transform="translate(1649.26 124.49)"/><path d="M-925,329.38l-.12-.79,8.26-4.45-.19-.21C-918.38,327.69-921,329.6-925,329.38Z" transform="translate(1649.26 124.49)"/><path class="cls-1" d="M382.35,132.47c-15.28,1.51-30.55,4.85-46.18,2.84-9.4-1.21-10.65-3.6-8.39-12.44,7.78-30.53,15.41-61.09,23.18-91.61,1-3.71,2.36-7.29,3.8-11.65C361,27.92,383.05,119,382.35,132.47Z" transform="translate(1649.26 124.49)"/></svg>