<?xml version="1.0" encoding="UTF-8"?>
<!DOCTYPE svg PUBLIC "-//W3C//DTD SVG 1.1//EN" "http://www.w3.org/Graphics/SVG/1.1/DTD/svg11.dtd">
<!-- Creator: CorelDRAW X7 -->
<svg xmlns="http://www.w3.org/2000/svg" xml:space="preserve" width="48mm" height="48mm" version="1.1" style="shape-rendering:geometricPrecision; text-rendering:geometricPrecision; image-rendering:optimizeQuality; fill-rule:evenodd; clip-rule:evenodd"
viewBox="0 0 4800 4800"
 xmlns:xlink="http://www.w3.org/1999/xlink">
 <defs>
  <style type="text/css">
   <![CDATA[
    .fil0 {fill:#D21435}
    .fil1 {fill:#D21435;fill-rule:nonzero}
   ]]>
  </style>
 </defs>
 <g id="Layer_x0020_1">
  <metadata id="CorelCorpID_0Corel-Layer"/>
  <g id="_737399776">
   <path class="fil0" d="M3614 2526c100,0 180,81 180,179l0 188 187 0c100,0 181,81 180,180 1,100 -80,181 -180,181l-187 0 0 186c0,100 -80,181 -180,181 -100,0 -180,-81 -180,-181l0 -186 -187 0c-100,0 -180,-81 -180,-181 0,-99 80,-180 180,-180l187 0 0 -188c0,-98 80,-179 180,-179zm-721 972l0 0c36,60 79,116 129,167 327,326 857,326 1184,0 284,-284 321,-722 112,-1045 -32,-50 -69,-96 -112,-138 -327,-328 -857,-328 -1184,0 -275,275 -318,695 -129,1016z"/>
   <path class="fil1" d="M2401 3056c0,-652 529,-1181 1181,-1181 307,0 586,118 797,310 79,-155 121,-327 121,-507 0,-298 -116,-578 -327,-788 -210,-212 -490,-327 -788,-327 -298,0 -578,115 -789,327 -79,79 -144,166 -195,262 -52,-96 -117,-183 -196,-262 -211,-212 -491,-327 -789,-327 -299,0 -578,115 -788,327 -211,210 -328,490 -328,788 0,299 117,579 328,790l1580 1686c49,53 119,83 193,83 72,0 142,-30 192,-83l203 -216c-243,-217 -395,-531 -395,-882z"/>
  </g>
 </g>
</svg>
