<?xml version="1.0" encoding="UTF-8"?>
<!DOCTYPE svg PUBLIC "-//W3C//DTD SVG 1.1//EN" "http://www.w3.org/Graphics/SVG/1.1/DTD/svg11.dtd">
<!-- Creator: CorelDRAW X7 -->
<svg xmlns="http://www.w3.org/2000/svg" xml:space="preserve" width="48mm" height="48mm" version="1.1" style="shape-rendering:geometricPrecision; text-rendering:geometricPrecision; image-rendering:optimizeQuality; fill-rule:evenodd; clip-rule:evenodd"
viewBox="0 0 4800 4800"
 xmlns:xlink="http://www.w3.org/1999/xlink">
 <defs>
  <style type="text/css">
   <![CDATA[
    .fil0 {fill:#D21435;fill-rule:nonzero}
   ]]>
  </style>
 </defs>
 <g id="__x0023_Layer_x0020_1">
  <metadata id="CorelCorpID_0Corel-Layer"/>
  <path class="fil0" d="M3744 400l-1438 0c-362,0 -656,294 -656,656l0 438 0 1240c-114,-54 -241,-84 -375,-84 -483,0 -875,392 -875,875 0,483 392,875 875,875 483,0 875,-392 875,-875l0 -1344 0 -781 1750 0 0 781 0 553c-114,-54 -241,-84 -375,-84 -483,0 -875,392 -875,875 0,483 392,875 875,875 483,0 875,-392 875,-875l0 -2031 0 -438c0,-362 -294,-656 -656,-656z"/>
 </g>
</svg>
