<?xml version="1.0" encoding="UTF-8"?>
<!DOCTYPE svg PUBLIC "-//W3C//DTD SVG 1.1//EN" "http://www.w3.org/Graphics/SVG/1.1/DTD/svg11.dtd">
<!-- Creator: CorelDRAW X7 -->
<svg xmlns="http://www.w3.org/2000/svg" xml:space="preserve" width="48mm" height="48mm" version="1.1" style="shape-rendering:geometricPrecision; text-rendering:geometricPrecision; image-rendering:optimizeQuality; fill-rule:evenodd; clip-rule:evenodd"
viewBox="0 0 4800 4800"
 xmlns:xlink="http://www.w3.org/1999/xlink">
 <defs>
  <style type="text/css">
   <![CDATA[
    .fil0 {fill:#D21435;fill-rule:nonzero}
   ]]>
  </style>
 </defs>
 <g id="Layer_x0020_1">
  <metadata id="CorelCorpID_0Corel-Layer"/>
  <path class="fil0" d="M4487 1925c-30,-93 -112,-163 -209,-178l-1110 -175 -531 -1122c-44,-92 -135,-150 -237,-150 -101,0 -193,58 -238,150l-531 1122 -1109 175c-98,15 -179,85 -209,178 -8,27 -13,54 -13,81 0,68 27,136 78,185l819 820 -235 1175c-20,99 20,203 103,263 45,34 100,51 154,51 43,0 88,-11 127,-33l1054 -586 1054 586c39,22 83,33 127,33 54,0 109,-17 155,-51 82,-60 122,-164 102,-263l-235 -1175 819 -820c51,-49 78,-117 78,-185 0,-27 -5,-54 -13,-81z"/>
 </g>
</svg>
