<?xml version="1.0" encoding="utf-8"?>
<!-- Generator: Adobe Illustrator 14.0.0, SVG Export Plug-In  -->
<!DOCTYPE svg PUBLIC "-//W3C//DTD SVG 1.1//EN" "http://www.w3.org/Graphics/SVG/1.1/DTD/svg11.dtd" [
	<!ENTITY ns_flows "http://ns.adobe.com/Flows/1.0/">
]>
<svg version="1.1"
	 xmlns="http://www.w3.org/2000/svg" xmlns:xlink="http://www.w3.org/1999/xlink" xmlns:a="http://ns.adobe.com/AdobeSVGViewerExtensions/3.0/"
	 x="0px" y="0px" width="270px" height="270px" viewBox="0 0 270 270" enable-background="new 0 0 270 270" xml:space="preserve">
<defs>
</defs>
<rect width="270" height="270"/>
<path fill="#939598" d="M201.019,81.027H69.38c-4.519,0-8.195,3.743-8.195,8.343v75.552c0,4.601,3.677,8.342,8.195,8.342h131.639
	c4.518,0,8.195-3.741,8.195-8.342V89.37C209.214,84.77,205.537,81.027,201.019,81.027z M202.728,166.778H67.671V86.996h135.057
	V166.778z"/>
<path fill="#939598" d="M148.6,176.163v2.03c0,1.217-1.042,2.202-2.329,2.202h-22.603c-1.286,0-2.329-0.985-2.329-2.202v-2.03
	H44.203v1.423c0,4.601,4.836,8.344,10.781,8.344h160.434c5.943,0,10.781-3.743,10.781-8.344v-1.423H148.6z"/>
<path fill="#FFFFFF" d="M151.778,120.181v22.868c0,4.406-3.788,7.996-8.444,7.996h-3.506v-0.672h-8.694v0.672h-3.507
	c-4.66,0-8.443-3.59-8.443-7.996v-22.868h-3.477v22.868c0,6.323,5.348,11.472,11.92,11.472h3.507v5.517h1.086v6.74h6.522v-6.74
	h1.086v-5.517h3.506c6.572,0,11.924-5.148,11.924-11.472v-22.868H151.778z"/>
<rect x="112.606" y="121.389" fill="#FFFFFF" width="2.257" height="4.671"/>
<rect x="156.041" y="121.389" fill="#FFFFFF" width="2.253" height="4.671"/>
<path fill="#FFFFFF" d="M141.447,135.331c-0.55,0-0.996-0.445-0.996-0.991c0-0.553,0.446-0.998,0.996-0.998h7.743v-2.431h-7.743
	c-0.55,0-0.996-0.447-0.996-0.995c0-0.552,0.446-0.996,0.996-0.996h7.743v-2.433h-7.743c-0.55,0-0.996-0.443-0.996-0.995
	c0-0.548,0.446-0.994,0.996-0.994h7.743v-2.433h-7.743c-0.55,0-0.996-0.443-0.996-0.995c0-0.551,0.446-0.993,0.996-0.993h7.743
	v-2.436h-7.743c-0.55,0-0.996-0.444-0.996-0.991c0-0.555,0.446-0.997,0.996-0.997h7.743v-2.432h-7.743
	c-0.55,0-0.996-0.446-0.996-0.993c0-0.55,0.446-0.996,0.996-0.996h7.743v-4.755c0-3.164-1.899-5.883-4.627-7.083v7.674
	c0,0.547-0.446,0.994-0.989,0.994c-0.549,0-0.994-0.447-0.994-0.994V98.82c-0.367-0.054-0.746-0.08-1.131-0.08h-1.01v8.328
	c0,0.547-0.441,0.994-0.992,0.994s-0.996-0.447-0.996-0.994V98.74h-2.137v8.328c0,0.547-0.448,0.994-0.994,0.994
	c-0.555,0-0.999-0.447-0.999-0.994V98.74h-2.142v8.328c0,0.547-0.44,0.994-0.992,0.994c-0.545,0-0.99-0.447-0.99-0.994V98.74h-0.686
	c-0.5,0-0.986,0.046-1.453,0.137v8.191c0,0.547-0.446,0.994-0.994,0.994c-0.553,0-0.992-0.447-0.992-0.994v-7.522
	c-2.549,1.271-4.298,3.896-4.298,6.932v4.755h7.353c0.553,0,0.996,0.446,0.996,0.996c0,0.547-0.443,0.993-0.996,0.993h-7.353v2.432
	h7.353c0.553,0,0.996,0.442,0.996,0.997c0,0.547-0.443,0.991-0.996,0.991h-7.353v2.436h7.353c0.553,0,0.996,0.442,0.996,0.993
	c0,0.552-0.443,0.995-0.996,0.995h-7.353v2.433h7.353c0.553,0,0.996,0.446,0.996,0.994c0,0.552-0.443,0.995-0.996,0.995h-7.353
	v2.433h7.353c0.553,0,0.996,0.444,0.996,0.996c0,0.548-0.443,0.995-0.996,0.995h-7.353v2.431h7.353c0.553,0,0.996,0.445,0.996,0.998
	c0,0.546-0.443,0.991-0.996,0.991h-7.353v3.869c0,3.038,1.749,5.664,4.298,6.929v-6.633c0-0.551,0.439-0.996,0.992-0.996
	c0.548,0,0.994,0.445,0.994,0.996v7.303c0.467,0.093,0.953,0.139,1.453,0.139h0.686v-7.441c0-0.551,0.445-0.996,0.99-0.996
	c0.552,0,0.992,0.445,0.992,0.996v7.441h2.142v-7.441c0-0.551,0.444-0.996,0.999-0.996c0.546,0,0.994,0.445,0.994,0.996v7.441h2.137
	v-7.441c0-0.551,0.445-0.996,0.996-0.996s0.992,0.445,0.992,0.996v7.441h1.01c0.385,0,0.764-0.03,1.131-0.082v-7.359
	c0-0.551,0.445-0.996,0.994-0.996c0.543,0,0.989,0.445,0.989,0.996v6.79c2.728-1.201,4.627-3.924,4.627-7.086v-3.869H141.447z"/>
<path fill="#FFFFFF" d="M163.376,134.016c-0.262,0-0.526-0.062-0.772-0.192c-0.811-0.428-1.121-1.431-0.693-2.241
	c1.659-3.145,2.535-6.699,2.535-10.279c0-3.57-0.824-6.976-2.449-10.123c-0.421-0.814-0.102-1.814,0.712-2.235
	c0.814-0.422,1.813-0.103,2.235,0.712c1.871,3.622,2.82,7.54,2.82,11.645c0,4.117-1.01,8.207-2.92,11.827
	C164.547,133.694,163.971,134.016,163.376,134.016L163.376,134.016z"/>
<path fill="#FFFFFF" d="M170.151,136.408c-0.259,0-0.521-0.061-0.766-0.188c-0.812-0.423-1.128-1.424-0.704-2.237
	c2.053-3.941,3.093-8.207,3.093-12.678c0-4.411-1.012-8.623-3.009-12.519c-0.417-0.815-0.095-1.815,0.72-2.232
	c0.815-0.417,1.815-0.096,2.233,0.72c2.238,4.369,3.374,9.09,3.374,14.032c0,4.94-1.2,9.854-3.47,14.21
	C171.328,136.083,170.75,136.408,170.151,136.408L170.151,136.408z"/>
<path fill="#FFFFFF" d="M176.926,138.797c-0.257,0-0.517-0.06-0.761-0.186c-0.813-0.42-1.133-1.421-0.712-2.235
	c2.422-4.688,3.649-9.759,3.649-15.072c0-5.25-1.199-10.268-3.564-14.912c-0.415-0.816-0.091-1.815,0.726-2.231
	c0.814-0.416,1.815-0.092,2.231,0.725c2.604,5.116,3.926,10.639,3.926,16.418c0,5.766-1.391,11.504-4.021,16.596
	C178.106,138.47,177.527,138.797,176.926,138.797L176.926,138.797z"/>
<path fill="#FFFFFF" d="M107.258,134.016c-0.595,0-1.171-0.321-1.468-0.885c-1.911-3.619-2.921-7.708-2.921-11.827
	c0-4.105,0.949-8.023,2.822-11.646c0.421-0.813,1.421-1.132,2.235-0.712c0.814,0.421,1.132,1.421,0.712,2.235
	c-1.627,3.147-2.452,6.552-2.452,10.122c0,3.581,0.877,7.135,2.538,10.278c0.428,0.81,0.118,1.813-0.692,2.241
	C107.784,133.954,107.519,134.016,107.258,134.016L107.258,134.016z"/>
<path fill="#FFFFFF" d="M100.481,136.408c-0.599,0-1.177-0.325-1.473-0.893c-2.269-4.355-3.468-9.27-3.468-14.21
	c0-4.944,1.136-9.666,3.375-14.032c0.418-0.815,1.418-1.136,2.233-0.719c0.815,0.418,1.137,1.418,0.719,2.233
	c-1.997,3.894-3.01,8.105-3.01,12.519c0,4.473,1.041,8.738,3.093,12.678c0.423,0.812,0.107,1.814-0.705,2.237
	C101.001,136.347,100.739,136.408,100.481,136.408L100.481,136.408z"/>
<path fill="#FFFFFF" d="M93.707,138.797c-0.601,0-1.181-0.327-1.475-0.897c-2.63-5.091-4.02-10.83-4.02-16.596
	c0-5.779,1.321-11.303,3.927-16.418c0.416-0.816,1.415-1.141,2.231-0.725c0.816,0.416,1.141,1.415,0.725,2.231
	c-2.366,4.644-3.565,9.661-3.565,14.912c0,5.313,1.228,10.384,3.65,15.072c0.42,0.814,0.102,1.815-0.712,2.235
	C94.224,138.738,93.963,138.797,93.707,138.797L93.707,138.797z"/>
</svg>
