<svg id="Layer_1" data-name="Layer 1" xmlns="http://www.w3.org/2000/svg" viewBox="0 0 307.98 307.98"><title>downloadicon</title><path d="M156.35,68.73a9.63,9.63,0,0,0-9.62,9.63v67.37H-122.75V78.36a9.63,9.63,0,0,0-9.63-9.63A9.63,9.63,0,0,0-142,78.36v77a9.63,9.63,0,0,0,9.62,9.63H156.35a9.64,9.64,0,0,0,9.63-9.63v-77a9.63,9.63,0,0,0-9.63-9.63Zm0,0" transform="translate(142 143)"/><path d="M5,85.16a9.85,9.85,0,0,0,13.75,0L86.07,18.75a9.54,9.54,0,0,0,0-13.61,9.78,9.78,0,0,0-13.74,0L21.56,55.19V-133.38A9.67,9.67,0,0,0,11.84-143a9.67,9.67,0,0,0-9.72,9.62V55.19l-50.77-50a9.78,9.78,0,0,0-13.74,0,9.55,9.55,0,0,0,0,13.61Zm0,0" transform="translate(142 143)"/></svg>