<?xml version="1.0" encoding="utf-8"?>
<!-- Generator: Adobe Illustrator 19.0.0, SVG Export Plug-In . SVG Version: 6.00 Build 0)  -->
<svg version="1.1" id="Layer_1" xmlns="http://www.w3.org/2000/svg" xmlns:xlink="http://www.w3.org/1999/xlink" x="0px" y="0px"
	 viewBox="-103 104.2 75 75.2" style="enable-background:new -103 104.2 75 75.2;" xml:space="preserve">
<style type="text/css">
	.st0{fill:#D21535;}
	.st1{fill:#040504;}
	.st2{fill:none;}
</style>
<circle class="st0" cx="-65.7" cy="141.7" r="27.4"/>
<g>
	<g>
		<path class="st1" d="M-48,131.6v0.8c-0.2,1.1-0.8,2-1.3,3c-0.6,1.2-1.3,2-2.4,2.5c0.4-0.2,0.6-0.6,1-0.7c0.5-0.5,1-1,1.2-1.8
			c0.2-0.2,0.2-0.6,0.5-0.7c0-0.3,0.3-0.4,0.2-0.7c0.8-0.9,0.6-2.3,0.4-3.8c0-0.2-0.1-0.2-0.2-0.3c0-1.2-0.8-1.6-0.9-2.6
			c-0.6-0.8-1-1.8-1.8-2.3c-0.7-1.2-2.1-1.7-3.6-2.1c-0.3-0.3-1-0.3-1.5-0.5c-0.6,0.2-1.3-0.5-1.8,0c0.2,0.6,1.3,0.3,1.6,0.8
			c0.4,0,0.9,0.3,1.1,0.7c0.3-0.1,0.2,0.2,0.4,0.2h0.4c0.1,0.3-0.1,0.6,0.2,0.7c0.2,0,0.2-0.2,0.4,0c0.1,0.1,0,0.4-0.1,0.5
			c0,0.1,0.2,0.1,0.3,0.1c0,0.3,0,0.6,0.2,0.8c0.1,0,0.1-0.3,0.2-0.3c0.2,0,0.2,0.1,0.3,0.1c0,0.3-0.2,0.4-0.3,0.6
			c0.1,0.1,0.1,0.2,0.2,0.2c0.1,0,0.1-0.3,0.2-0.4c0.1,0,0.3,0,0.4,0c0,0.3-0.5,0.7-0.2,1c0.2,0,0.1-0.2,0.2-0.3c0.1,0,0.3,0,0.4,0
			c0,0.4-0.4,0.5-0.4,0.9c0,0.2,0.4,0,0.5,0.1c0,0.3-0.3,0.3-0.3,0.5c0,0.3,0.3,0.1,0.4,0.2c0.1,0.2,0,0.3-0.1,0.5
			c0.3,0,0.5-0.2,0.6-0.4c0.2,0,0.3,0,0.4,0.1c-0.4,0.3-0.5,0.8-1,1c0.5,0.3,0.8-0.7,1.4-0.7v0.4c-0.4,0.2-0.6,0.5-0.9,0.8
			c0.2,0.2,0.5-0.3,0.7-0.1c0,0.2-0.2,0.2-0.2,0.5c-0.1,0.1-0.3,0.1-0.4,0.2c0.5,0.6,0.8-0.4,1.2-0.4c0.1,0,0-0.3,0.1-0.3h0.4v0.3
			c-0.1,0-0.1,0.1-0.3,0.1c-0.2,0.6-0.9,0.7-1.2,1.3c0.5-0.2,0.7-0.7,1.3-0.8c0,0.2,0,0.2,0,0.4c0.2,0,0.2-0.2,0.5-0.1
			c0.1,0.6-0.6,0.8-0.8,1.3c0.2,0.3,0.4-0.1,0.4-0.3c0.1,0,0.3,0,0.4,0c-0.2,0.6-0.6,1-1.1,1.4c0,0.1,0.1,0.2,0.2,0.2
			c0.2-0.4,0.6-0.6,0.7-1c0.3,0,0.3-0.4,0.5-0.4c0.1,0.1,0.1,0.2,0.1,0.3c-0.3,0.3-0.4,0.7-0.6,1.1c0.1,0.1,0.2-0.1,0.4,0
			c0,0.2,0.1,0.2,0.1,0.4c-0.3,0.1-0.4,0.3-0.7,0.4c0.1,0.1,0.1,0.3,0.2,0.4c-0.1,0.2-0.2,0.2-0.2,0.5c-0.4,0.2-0.4,0.6-0.5,0.9
			c-0.1,0.1-0.3,0.3-0.4,0.4c-0.2,0.5-0.8,0.8-1.3,1.2h-0.4c-0.1,1.1-0.4,2-0.5,3c-0.1-0.2-0.1-0.7,0-0.9c0-0.2,0.2-0.3,0.2-0.5
			c0-0.1-0.1-0.2,0-0.3c0.1-0.4,0.3-0.7,0.2-1.1c-0.3-0.2-0.1-1-0.3-1.3c-0.3,0.1-1,0.2-1.1-0.2c0.2-0.4,0.5-0.7,0.6-1.2
			c-0.5-0.2-1.5,0.4-1.9-0.2c-0.1-1-0.7-1.8-1.1-2.7v-0.3c-0.6-1.1-1.5-1.8-2.4-2.5c-0.4,0.1-0.4-0.3-0.7-0.4c-0.1,0-0.2,0-0.3,0
			c-0.1,0-0.1-0.2-0.2-0.2c-0.5-0.1-1.2,0-1.5-0.5c-0.8,0.4-1.2-0.4-1.7-0.7c-0.2,0-0.4,0.1-0.6,0c-0.2-0.2-0.6-0.2-1-0.2
			c-0.6,0.3-2,0.4-2.3-0.2c-0.5,0.1-0.9,0.4-1.6,0.4c-0.8,0.3-1.6,0.6-2.5,0.9c0.1,0.4-0.3,0.5-0.5,0.8c-0.1,0-0.2-0.1-0.3-0.1
			c-0.2,0.1-0.3,0.1-0.4,0.3c-1.1,0.1-1.4,1-2.1,1.3c-0.6,0.7-1.4,1.2-1.8,2c-0.2,0-0.2,0.2-0.4,0.2c-0.5,0.4-0.3,1.3-0.5,2.1
			c0.1,0.2,0.2,0.4,0.3,0.5c-0.1,0.6,0.2,1.4,0.5,1.8c0.3,0,0.4,0.2,0.6,0.3c-0.3,1,0.5,1.4,0.4,1.9c-0.2,0-0.2-0.2-0.4-0.2
			c-0.3,0.1-0.3,0.4-0.3,0.7c-0.3,0.1-0.5,0-0.6-0.2c-0.2,0-0.2,0.1-0.3,0.2c-0.1-0.1,0.1-0.2,0.1-0.4c-0.2-0.3-0.4-0.7-0.6-1.1
			c0.3,0.2,0.2,0.7,0.6,0.8c-0.3-1.2-1.1-2.5-0.9-3.9c0-0.1-0.1-0.2-0.2-0.2c0.4-0.2-0.3-0.7,0.1-0.9c-0.3-0.2,0-0.4,0-0.6
			c-0.1-0.3-0.5-0.3-0.5-0.6c0.1-0.1,0.4,0,0.5-0.1c0-0.8,0-1.6-0.5-2c0-0.4,0-0.9,0-1.3c-0.1-0.1-0.2-0.1-0.2-0.1
			c-0.1-0.5,0.3-0.6,0.2-1.1c0.1,0,0.2-0.1,0.3-0.1c0-0.2-0.2-0.2-0.3-0.4c0-0.8,0.9-0.8,0.5-1.5c0.1-0.1,0.3-0.1,0.4-0.1
			c0-0.2,0-0.1,0-0.3c0.3,0,0.6-0.3,0.7-0.6c0.3,0,0.4,0.1,0.6,0.2c0.2,0,0-0.5,0.2-0.6c0.3-0.1,0.3,0.1,0.4,0.2
			c0.1-0.3,0-0.7,0.4-0.8c0,0.1-0.2,0-0.2,0.1c0.3,0,0.2,0.4,0.4,0.6c0.4-0.1,0-0.6,0.1-0.9c0.2-0.2,0.7-0.2,1-0.1
			c0.1,0.2,0.1,0.3,0.1,0.5c0.2,0,0.5,0.2,0.6,0.6c0.3,0,0.4-0.1,0.4-0.3c0-0.2-0.2-0.2-0.4-0.2c0-0.2,0-0.4,0.1-0.4
			c0.2-0.1,0.2,0.1,0.2,0.2c0.1,0,0.2-0.1,0.3,0c0,0.2,0,0.4,0,0.5c0.1,0,0.1-0.2,0.3-0.2c0-0.2-0.2-0.2-0.1-0.4c0.1,0,0.3,0,0.4,0
			c0.1,0.2-0.1,0.3,0,0.6c-0.1,0.1-0.3,0.1-0.5,0.1c0,0.3,0.3,0.2,0.3,0.4c0.1-0.1,0.1-0.2,0-0.4c0.3,0.1,0.5,0.2,0.9,0.1
			c0.1,0.1,0.1,0.3,0.1,0.5c0.5-0.1,1-0.4,1.5-0.5c0.1,0,0.2,0,0.3,0c0.3-0.1,0.8-0.3,1.1-0.4c1.3-0.4,2.6-0.4,4-0.4
			c0.2,0,0.5,0.1,0.6-0.1c0-0.3-0.1-0.4-0.2-0.5c-0.1,0.1,0,0.4-0.1,0.4c-0.2,0-0.2-0.2-0.2-0.3c0.2-0.2,0.1-0.4,0.3-0.5
			c0.3,0.2,0.5,0.6,0.7,0.9c0.2,0,0.3-0.2,0.5-0.1c0.1-0.2,0.1-0.5,0-0.6c0-0.2,0.2-0.2,0-0.4c-0.3,0-0.2,0.4-0.5,0.4
			c0.1-0.3,0.1-0.6,0.2-0.8c0.4,0,0.7,0,0.9-0.2c0-0.3-0.2-0.4,0-0.7c0.2-0.1,0.4,0,0.6,0c0.1,0.4,0.2,0.9,0.8,0.9
			c0,0.1,0,0.3,0.1,0.3c0.2-0.1,0-0.2,0-0.4c0.2,0.1,0.4,0.2,0.5,0.4c0.2,0,0.3-0.4,0.5-0.3c0.2,0.1-0.1,0.6,0.2,0.7
			c0.2-0.1,0.1-0.3,0.4-0.4c0.2,0,0.1,0.2,0.3,0.2c0.1-0.3,0-0.6,0.3-0.8h0.2v0.3c0,0-0.1,0.1-0.2,0c0.3,0.2,0.1,0.8,0.3,1
			c0.2-0.1,0-0.5,0-0.8c0-0.2,0.2-0.2,0.2-0.4c0.2,0,0.4,0,0.4,0.1c0,0.2-0.2,0.1-0.2,0.3c0,0.1,0.1,0.2,0.1,0.3
			c0.2-0.1,0.3-0.2,0.5-0.2c0.1,0.1,0.1,0.3,0.2,0.4c0.1,0,0.1-0.1,0.2-0.1c0.1-0.1,0-0.3,0-0.4c-0.3,0-0.6,0-0.7-0.1
			c0.2-0.8-0.4-1.2-1.2-1.2c-0.4-0.7-1.6-0.5-2.1-1.1c0.7,0.3,1.7,0.7,2.6,0.9c0-0.2-0.2-0.2-0.2-0.4c0.3-0.5,1.2-0.2,2,0
			c0.8,0.1,1.7,0.5,2.5,0.8c1.4,0.5,2.2,1.2,3.1,2.2c0.6,0.7,1.1,1.4,1.5,2.4c0.4,0.8,0.8,1.5,1,2.5
			C-48.1,130.6-48.2,131.2-48,131.6 M-50.4,131.8c-0.2,0-0.2,0.1-0.4,0c-0.1,0.4-0.7,0.4-0.7,0.9h0.3
			C-51,132.2-50.6,132.1-50.4,131.8 M-61.7,124.9c0-0.2,0.3-0.3,0.2-0.5c0,0,0-0.1-0.1,0c-0.2,0.2-0.2,0.7-0.3,1.1
			C-61.5,125.4-61.6,125.1-61.7,124.9"/>
		<path class="st1" d="M-50.7,129.8c0.1,0.1,0,0.2,0,0.3c-0.1,0-0.1,0.1-0.2,0c0,0.2,0.1,0.2,0,0.4c-0.2,0-0.3,0-0.4-0.1
			C-51.1,130.2-51.1,129.8-50.7,129.8"/>
		<path class="st1" d="M-52.3,128.3c0.2,0,0.4-0.1,0.5,0.1c0,0.2-0.2,0.2-0.2,0.4C-52.4,128.9-52.4,128.6-52.3,128.3"/>
		<path class="st1" d="M-53.5,141.7c0.1,0.1-0.1,0.2-0.1,0.3C-53.8,141.9-53.5,141.8-53.5,141.7"/>
		<path class="st1" d="M-53.8,142C-53.8,142-53.8,142-53.8,142C-53.8,142-53.8,142-53.8,142"/>
		<path class="st1" d="M-53.8,142c-0.1,0-0.1,0.1-0.4,0.1c0.1,1.9-0.5,3.3-1.4,4.3c0,0.2,0.2,0.1,0.2,0.3c-0.6,1.4-1.6,2.3-2.5,3.4
			c0,0.4-0.2,0.7-0.4,0.7c0.1,0.4-0.1,0.7,0,1.2c-0.2,0.1-0.3,0.3-0.5,0.3c-0.4-0.5-0.9-1-1.3-1.4c-0.3,0.1-0.5,0.4-0.7,0.5
			c0,0.3-0.2,0.4-0.3,0.6c-0.1,1.3-1,1.6-1.8,2.2c-0.9-0.3-1.4,0.3-1.9,0.3c-0.1,0-0.3-0.1-0.4-0.1c-0.4-0.1-0.8,0-1.3,0
			c-0.1-0.1-0.4-0.3-0.7-0.2c-0.1,0.7,0.7,1.1,1.3,1c0.8,0.6,2,0.6,3,0.4c0.1,0,0.2,0.1,0.2,0.2c0.2,0,0.1-0.2,0.3-0.1
			c0.3,0.3,0.7,0.4,1,0.7c0,0.3,0.2,0.4,0.2,0.6c0.1,0.1,0.3-0.1,0.4,0.1c0.1,0.1,0,0.3,0,0.5c0.2,0.1,0.4,0.2,0.5,0.4
			c-0.2,0.1-0.4,0.3-0.4,0.6c0.4,0.1,0.5-0.2,0.9-0.2c0-0.2-0.1-0.2,0-0.4c0.1,0,0,0.3,0.1,0.3c0.9-0.2,1.7-0.7,2.2-1.4
			c0.1-0.1,0.2-0.3,0.3-0.4c0.1-0.1,0.2-0.1,0.3-0.2c0.1-0.2,0.1-0.5,0.2-0.7c0.1-0.2,0.4-0.3,0.5-0.5c0.1-0.1,0-0.3,0-0.4
			c0.1-0.2,0.3-0.3,0.3-0.4c0-0.1,0-0.5,0-0.8c0.1-0.2,0.2-0.3,0-0.5c0.1-0.1,0.2-0.2,0.2-0.3c-0.1-0.6-0.1-1.4,0-2.1
			c0-0.4-0.1-0.8,0.1-1.1c-0.1,1.7,0,3.3-0.2,4.9c0.1,0.1,0.2-0.1,0.3,0c-0.8,1.9-1.9,3.5-3.7,4.4c-0.4,0-0.7,0-0.9,0.2
			c-1,0.1-1.2,1.1-2.1,1.3c0,0.2-0.2,0.3-0.4,0.4c0.3,0.5,0.8,0.8,1.1,1.3c0,0.1,0,0.2,0,0.3c0.1,0.3,0.4,0.5,0.5,0.8
			c0.1,0.3,0.2,0.5,0.3,0.8c0,0.1-0.1,0.2-0.1,0.4c0.3-0.2,0.5-0.5,0.6-0.9c0.7-0.4,1.1-1.1,1.8-1.4c0.5-1,1-2,1.2-3.3
			c0-0.1,0.1-0.1,0.2-0.2c-0.1-0.3,0.2-0.3,0.2-0.7c0.4-0.4,0.4-1.1,0.8-1.5c-0.3,0.9-0.8,1.8-1.1,2.8c-0.3,0.9-0.6,2-1.1,2.7
			c-0.5,0.7-1.2,1-1.8,1.6c-0.1,0.2-0.3,0.4-0.4,0.6c-0.1,0.1-0.2,0.1-0.3,0.2c-0.1,0.1-0.2,0.1-0.3,0.2c-0.5,0-0.8,0.4-0.9,0.8
			c-0.2,0.2-0.2,0.4-0.2,0.7c0,0-0.1,0.1-0.1,0.1c0,0,0-0.1,0-0.1c-0.1,0-0.4,0-0.5-0.1h0.5c0.3-0.3,0.1-1,0.3-1.3
			c-0.2-0.1-0.1-0.3-0.1-0.5c-0.4-0.6-0.3-1.3-0.5-1.9c-0.2-0.1-0.4-0.3-0.4-0.6c-0.2-0.2-0.5-0.4-0.8-0.5c-0.1,0.1-0.3,0.2-0.6,0.1
			c-0.3,0.3-0.5,0.7-0.9,0.9c-0.4,0.3-1.1,0.9-1.2,1.4c-0.2,0.9,0.9,1.4,0.7,2.5c-0.2-0.8-0.5-1.4-0.8-2.1c-0.2,0-0.3-0.1-0.5,0
			c-0.1,0.3-0.1,0.7-0.2,0.9c0-1.6,0.8-2.5,1.7-3.2c-0.1-0.4,0.3-0.2,0.2-0.5c-0.6-0.4-1.1-0.9-1.5-1.3c-0.2-0.2-0.3-0.5-0.4-0.7
			c-0.4-0.4-1.1-0.6-1.3-1.2c-0.6-0.6-1.3-1-1.9-1.6c-0.4-0.4-0.6-1-1-1.4c0-0.2-0.1-0.3-0.3-0.4c0.5,1.8,0.8,3.9,1.6,5.6
			c0.1,0.8,0.5,1.5,0.5,2.2c-0.6-2.2-1.4-4.2-1.9-6.5c-0.1-0.1,0-0.1-0.2,0c0.2-0.3-0.1-0.8-0.1-1.1c0,0,0,0,0,0c0,0,0-0.1-0.1-0.1
			c0-0.2,0-0.3-0.1-0.5c0,0,0,0,0,0c0-0.2,0-0.4-0.1-0.6c0-0.1,0-0.2-0.1-0.3c0-0.2,0-0.4-0.1-0.5c0,0,0,0,0-0.1
			c0-0.2,0-0.3-0.1-0.5c0-0.2,0-0.4-0.1-0.6c0-0.1,0-0.3,0-0.4c0,0,0-0.1,0-0.1c0-0.2,0-0.4-0.1-0.6c0,0,0-0.1,0-0.1
			c0-0.6,0.1-1.2,0.1-1.7c-0.7-0.2-1.5-0.4-1.8-1c0.2,0.2,0.4,0.5,0.8,0.7c0.1,0,0.2,0,0.4,0c0.1,0,0.1,0.2,0.2,0.2
			c0.4,0.2,0.7,0.1,1.1,0.1c0.4,0,0.7,0.4,1.1,0.6c0.1,0,0.3,0,0.4,0c0.2,0.1,0.3,0.3,0.5,0.2c0,0.1,0.1,0.1,0.2,0.2
			c0.5-0.1,0.9,0.4,1.3,0.4c0.4,0.6,1.5,0.3,2.6,0.4c0.4-0.2,0.9-0.5,1.5-0.4c0.3-0.4,0.8-0.1,1.3-0.1c1,0,2.3-0.3,3.1-0.5
			c0.1-0.1-0.1-0.1,0-0.1h0.5c0.3-0.1,0.5-0.4,0.9-0.4c0.4-0.2,0.7-0.5,1-0.8c0.3-0.2,0.6-0.4,0.9-0.6c0.4-0.3,1.3-1.1,1.5-1.8
			c0.1-0.3,0.1-0.4,0.2-0.5c0-0.2,0-0.4,0-0.6c0-0.2,0.2-0.3,0.2-0.4c0.1-0.6-0.2-1.3,0.3-1.7C-53.9,141.8-53.9,142-53.8,142"/>
		<path class="st1" d="M-55.2,154c0,0.4-0.3,1.3-0.4,1.9C-55.7,155.3-55.3,154.7-55.2,154"/>
		<path class="st1" d="M-55.3,146.8c0.1,0.6-0.1,1.5,0,2.3C-55.6,148.4-55.3,147.6-55.3,146.8"/>
		<path class="st1" d="M-58.7,140.7c-0.2,0.5-0.5,0.9-0.9,1.2c-0.4-0.2-0.6-1-1.2-0.9c-0.3-0.2-0.8-0.3-1-0.7
			c-0.4-0.1-0.3,0.3-0.7,0.2c-0.1-0.1,0-0.2-0.1-0.2c-0.3,0-0.3,0.2-0.6,0.2c-0.1-0.2-0.3-0.1-0.4-0.3c0-0.1,0.1-0.1,0-0.2
			c0.2-0.1,0.2,0,0.4,0c0.2-0.3,0.8-0.1,1.3-0.2c0.1,0.1,0.2,0.2,0.4,0.2c0.7-0.2,1.7,0.1,2.2,0.5c0.1,0,0.1-0.2,0.2-0.1
			C-58.9,140.4-58.8,140.6-58.7,140.7"/>
		<path class="st1" d="M-59.1,132.7c0,0.2,0,0.4-0.1,0.5c-1.1-0.1-1.6,0.2-2.5,0.2c-0.2,0-0.2,0.2-0.3,0.2c-0.2,0-0.4,0-0.4-0.1
			c-0.3,0.2-0.6,0.4-0.8,0.7c-0.2,0-0.2-0.1-0.3,0c-0.2-0.6,0.3-0.8,0.5-1c0.8-0.2,1.5-0.6,2.2-0.5c0.4,0.1,0.8,0.2,1.3,0.2
			C-59.5,132.7-59.3,132.6-59.1,132.7"/>
		<path class="st1" d="M-60.8,121.7c-0.8,0-1.7-0.2-2.8-0.2c-0.1-0.1-0.2-0.1-0.3-0.2c-1.5-0.1-3.5-0.2-4.4,0.3
			c-0.7,0.1-1.7,0.1-2.2,0.4c-1.3-0.1-1.7,0.6-2.6,0.9c-0.2,0-0.4,0.1-0.5,0c-0.3,0.2-0.5,0.5-0.9,0.5c-0.6,0.5-1.4,0.8-1.7,1.5
			c-0.6,0.3-0.9,0.9-1.5,1.2c-0.1,0.4-0.5,0.7-0.6,1.2c-0.1,0.2-0.1,0.5-0.2,0.7c-0.1,0.2-0.3,0.4-0.4,0.8c0,0.3,0.1,0.7-0.2,0.9
			c0.2,0.5,0.1,1,0.1,1.5c0.1,0.6,0.5,1.1,0.5,1.5c0,0.2-0.1,0.6-0.1,0.9c0,0.1-0.2,0.2-0.2,0.4c0,0.3,0.5,0.7,0,1
			c0.2,0.6,0.1,1.4,0.2,2.4c0.3,0.7,0.6,1.3,0.7,2.1c-0.3-0.7-0.5-1.4-0.8-2.1c-0.8-0.1-1.1-0.2-1.9-0.1c-0.5-0.6-0.8-1.4-1.3-2.1
			c0-0.1,0-0.2,0-0.3c-0.5-0.5-0.5-1.4-0.3-2.2c-0.1-0.1-0.2-0.2-0.2-0.3c-0.1,0-0.2,0.2-0.1,0.2c-0.1,0.1-0.2-0.2-0.3-0.3
			c0.1-0.2,0.3,0,0.4,0c-0.1-0.5,0.1-1-0.4-1.1c0.1-0.4-0.2-0.3-0.2-0.6c0.3-0.1,0.6,0,0.7,0.2c0,0.2-0.2,0.3-0.1,0.4
			c0.1,0.1,0.3-0.1,0.4,0c0.1-0.5,0.3-1.3-0.5-1.2c-0.2-0.1-0.2-0.2-0.3-0.4c0.4-0.2,0.7,0.1,1.1,0.2c0.2-0.1-0.1-0.4,0-0.5h0.3
			c0.1,0.1,0,0.3,0.1,0.4c0.1,0,0.1-0.2,0.2-0.3c0.1,0,0.1,0.1,0.2,0.1c0.1-0.2,0.1-0.5,0-0.7c-0.1,0.1-0.1,0.4-0.2,0.5
			c-0.3-0.2-0.4-1.1-0.3-1.5c0.2,0,0.2,0.1,0.2,0.3c0.3,0,0.2-0.4,0.3-0.5c0.2,0,0.2,0.1,0.3,0.2c0.1-0.2,0.3-0.3,0.6-0.2
			c0.1-0.1-0.1-0.1,0-0.3c0.1,0,0.2-0.1,0.3,0c0.1,0.1,0,0.4,0.2,0.4c0.1-0.2,0-0.5,0.2-0.6c0-0.2-0.3-0.2-0.1-0.4
			c0.2-0.1,0.1,0.2,0.2,0.2c0.2,0,0.3-0.2,0.3-0.5c0.2-0.4,0.6-0.6,0.7-1c0.2-0.2,0.4-0.3,0.5-0.5c0.1,0,0.2,0,0.3,0
			c1-1,2.3-1.7,3.3-2.6c0.1,0-0.1,0.2-0.1,0.3c0,0.1,0.1,0.2,0.2,0.3c1,0.1,1.6-0.6,2.5-0.9c1.4-0.4,3.1-0.3,4.5-0.9h2.2
			C-63.6,121.5-62,121.4-60.8,121.7 M-81.4,135.6c0.2,0.7,0.6,1.2,1,1.6c-0.3-0.5-0.6-1-0.9-1.6C-81.3,135.6-81.4,135.6-81.4,135.6z
			"/>
		<path class="st1" d="M-63.2,144.1c0.6-0.1,1.2-0.4,1.7-0.1c-0.3,0.4-1.1,0.4-1.5,0.7c-0.2,0-0.4,0.1-0.7,0.1
			c-0.2,0-0.1,0.2-0.3,0.2c-0.6-0.1-1.2,0.1-1.5-0.4C-65.3,143.9-64.2,144.2-63.2,144.1"/>
		<path class="st1" d="M-61.9,129.4c-0.1,0.3-0.5,0-0.7,0.1c0,0.2,0.3,0.1,0.3,0.2c0,0.2-0.1,0.3-0.1,0.4c-0.3-0.2-0.8,0.3-1.1,0.1
			c0-0.5,0.6-0.4,0.9-0.7c-0.3-0.3-0.9,0-0.9,0.4c-0.2,0-0.3,0-0.4-0.1c0.1-0.2,0.4-0.3,0.5-0.6c0.4,0.1,0.3,0,0.6-0.1
			C-62.7,129.6-62.2,129.1-61.9,129.4"/>
		<path class="st1" d="M-63.2,136.1c0.5,0.1,1,0.6,0.9,1.2c-1-0.3-1.7-0.2-2.4,0.3c-0.3-0.2,0-0.5,0-0.9
			C-64.4,136.3-63.9,135.9-63.2,136.1"/>
		<path class="st1" d="M-63,124.7c0,0.1,0.1,0.2,0.1,0.3c-0.1,0.1-0.3,0-0.4,0C-63.4,124.8-63.3,124.6-63,124.7"/>
		<path class="st1" d="M-62.6,165.4c-0.8-0.3-1.9,0-2.6,0.4C-64.7,165.3-63.4,164.8-62.6,165.4"/>
		<path class="st1" d="M-63.8,140c0.1,0.3-0.1,0.4-0.4,0.4c-0.1-0.1-0.2-0.2-0.1-0.4C-64.2,139.9-63.9,139.9-63.8,140"/>
		<path class="st1" d="M-63.9,123.6c0.1,0.2,0,0.5,0,0.7c-0.3,0.1-0.3-0.2-0.5-0.2c-0.2,0.2,0.2,0.3,0.2,0.5c-0.2,0.1-0.3-0.2-0.7,0
			c0-0.1-0.1-0.1-0.1-0.2c-0.1,0-0.2,0-0.3,0.1c-0.1-0.1-0.2-0.2-0.2-0.4c0.2-0.1,0.4,0.1,0.5,0.2
			C-64.5,124.1-64.3,123.8-63.9,123.6"/>
		<path class="st1" d="M-64.4,125v0.2c-0.2,0.1-0.5,0-0.4-0.3C-64.6,124.9-64.5,124.9-64.4,125"/>
		<path class="st1" d="M-64.5,140.4c0,0.2,0,0.3-0.1,0.4c-0.3,0-0.5-0.1-0.7-0.3c-0.5,0.1-0.4,0.9-1,0.7c-0.3,0.1-0.6,0.3-0.7,0.6
			c-0.4,0-0.5,0.4-0.5,0.8c-0.6,0-0.5,0.9-0.9,1.2H-69c-0.2-0.3-0.6-0.3-0.6-0.7c-0.1-0.5,0.5-0.8,1-1c0.1-0.7,0.7-0.9,1.1-1.4h0.4
			c0.3-0.4,1.5-1,1.8-0.3C-65.1,140.3-64.8,140.2-64.5,140.4"/>
		<path class="st1" d="M-65.3,137c0,0.3,0,0.5,0.1,0.6c-0.1,0-0.1,0.1-0.2,0.2c-1-0.1-1.7,0.1-2.4,0.4c0,0.1,0.3,0.1,0.4,0.2
			c0,0.2,0.1,0.2,0,0.3c-0.6,0.2-1.6,0.1-1.7-0.5c0.1-0.3,0.4-0.3,0.6-0.5c0.6-0.4,1.3-1.4,2.3-0.7c0.2-0.1,0.5,0,0.7,0.1
			C-65.4,137.2-65.4,137-65.3,137"/>
		<path class="st1" d="M-67.2,138.8c-0.2-0.5,0.6-0.5,0.5,0C-66.8,138.8-67.1,138.7-67.2,138.8"/>
		<path class="st1" d="M-69.1,162.1c0.6,0.6,1.1,1.8,1.8,2.5C-68,164.1-68.4,162.9-69.1,162.1"/>
		<path class="st1" d="M-68.5,134.8c0.1,0.2,0,0.3-0.1,0.4c-0.1-0.1-0.3,0-0.4,0c0,0,0,0.1,0.1,0.1c-0.1,0-0.1,0-0.2,0
			c-0.1,0-0.2,0-0.3,0c-0.5-0.2-1.3,0.4-1.6,0.3c-0.4,0.4-1.3,0.4-1.7,0.9c-0.4-0.2-0.5,0.2-0.9,0.1c-0.2-0.6,0.6-0.6,0.8-1
			c0.8-0.1,1.1-0.9,2-0.7c0.1,0,0.2-0.1,0.3-0.2c0.3,0.1,0.9,0.1,1.1-0.1C-69.3,134.8-68.8,134.7-68.5,134.8"/>
		<path class="st1" d="M-70.3,131.8h-1c0,0.3-0.1,0.5-0.3,0.7c-0.1,0.1-0.2-0.1-0.4-0.1c-0.3,0.2-0.7,0.2-1,0.4
			c-0.2-0.3-0.5-0.1-0.9-0.1c-0.1-0.1-0.1-0.2-0.1-0.4c0.2-0.1,0.5-0.1,0.9-0.1c0.1-0.1,0.1-0.2,0.1-0.3c0.6-0.1,1.2-0.2,1.3-0.8
			c0.6-0.1,0.8,0.1,1.1,0C-70.4,131.4-70.3,131.5-70.3,131.8"/>
		<path class="st1" d="M-74.1,132.9c0.1-0.1,0.3,0,0.4,0c-0.1,0.6-0.7,0.8-0.8,1.5c-0.1,0-0.2,0.1-0.2,0.2c0.1,0.4,0,0.8-0.4,0.8
			c-0.2-0.8,0.3-1.6,0.6-2.2c0.1,0,0.2-0.1,0.4,0C-74,133.1-74.4,133-74.1,132.9"/>
		<path class="st1" d="M-74.4,122c0.2,0,0.6-0.1,0.7,0.2c-0.3,0-0.8-0.3-1,0.1c-1.2-0.2-2.3,0.1-3,0.5h-0.3
			c-1.4,0.5-2.6,1.4-3.7,2.6c-0.1,0.5-0.5,0.7-0.8,1c0,0.2,0.1,0.6-0.3,0.5c0.2-0.7,0.6-1,1-1.6c0.9-1.2,2.4-2,4-2.6
			c0.4-0.2,0.8-0.4,1.2-0.5c0.5-0.1,1,0,1.4,0C-74.9,122.1-74.6,122-74.4,122"/>
		<path class="st1" d="M-73.9,147c-0.2-0.2-0.3-0.4-0.4-0.7c-0.1,0.2-0.1,0.6-0.4,0.7c-0.9,0-1.3-0.5-1.6-1.2
			c-1.1-0.8-1.1-2.8-1.4-4.4c0.1,0,0.1,0,0.1-0.1c0.5,0.1,0.8,0.6,1.3,0.8c-0.2,0.3-0.2,0.7-0.4,0.9c-0.5,0.1-0.3-0.4-0.7-0.4
			c0.1,1.2,0.2,2.5,1.1,3.1c0.1,0.8,0.8,1.5,1.6,1.1c0-0.8-0.6-1.4-0.4-2.3c0-0.2-0.2,0-0.2-0.2c0.1-0.1,0-0.3,0.1-0.3
			c0.3,0.2,0.1,0.7,0.3,1C-74.5,145.6-74.2,146.3-73.9,147"/>
		<path class="st1" d="M-74.9,143.5c0,0.2,0,0.2-0.1,0.3c-0.2,0-0.3-0.1-0.3-0.2C-75.3,143.5-75,143.4-74.9,143.5"/>
		<path class="st1" d="M-75.4,142.6c0,0.1,0.3,0.1,0.2,0.3c-0.4-0.1-0.3,0.4-0.6,0.4c-0.3-0.2-0.2-0.5-0.3-0.9
			c0.3,0,0.3-0.3,0.4-0.4C-75.3,141.9-75.3,142.3-75.4,142.6"/>
		<path class="st1" d="M-81.3,128.7c-0.1,0-0.1,0.1-0.2,0.1c-0.2-0.1-0.5-0.3-0.7-0.3c-0.1-0.1-0.2-0.3,0-0.4
			C-81.7,128.1-81.4,128.3-81.3,128.7"/>
		<path class="st1" d="M-82.5,127.8c0.1,0.1,0.1,0.2,0.1,0.4c-0.1,0.1-0.2,0.1-0.4,0.1c0-0.2-0.2-0.3-0.3-0.4
			c-0.2,0.4-0.5,1.3,0,1.7c0,0.3-0.1,0.3-0.3,0.4c0,0.2,0,0.4,0.1,0.6c0.1,0,0.1-0.1,0.3,0c0,0.1,0.1,0.4,0,0.4
			c-0.1,0.1-0.1-0.1-0.2-0.1c-0.2,0.3,0.1,0.8,0.2,1c0.2,0,0.4,0,0.4,0.1c0,0.2-0.1,0.2-0.2,0.3c-0.2-0.1-0.1-0.1,0-0.3
			c-0.1,0-0.2-0.1-0.3,0c-0.2-0.3-0.2-0.7-0.3-1.1v-1c0.1-1.1,0-2.3,0.6-2.9c0.1,0.2-0.2,0.3-0.2,0.5c0.1,0.1,0.4-0.1,0.4,0.3
			C-82.6,127.9-82.6,127.8-82.5,127.8"/>
		<rect x="-83.4" y="121.2" class="st2" width="35.4" height="44.6"/>
	</g>
</g>
<path class="st0" d="M-95.1,119.6c0.4-0.2,0.9-0.2,1.3,0c0.1,0.1,0.2,0.2,0.1,0.4c0,0.1-0.1,0.2-0.2,0.3c-0.1,0.1-0.4,0.2-1,0.4
	c-0.4,0.1-0.6,0.3-0.7,0.6c0,0.1-0.3,0.9,0.5,1.2c0.2,0.1,1.5,0,2.3-0.1c0.7-0.2,1.3-0.3,1.7-0.3c0.6,0,1.1,0.1,1.5,0.3
	c0.4,0.2,0.7,0.6,1,1c0.2,0.5,0.2,1.3,0,1.7c-0.3,0.8-1.1,1.3-2.3,1.6c-0.5,0.1-1,0-1.5-0.3c-0.1-0.1,0-0.3,0-0.4
	c0.1-0.1,0.1-0.2,0.3-0.3c0.1,0,0.4,0,1,0c0.4,0,0.9-0.1,1.1-0.3c0.1-0.1,0.2-0.3,0.3-0.4c0.1-0.2,0.2-0.6,0-1
	c-0.1-0.3-0.4-0.5-0.6-0.6c-0.1,0-0.1-0.1-0.2-0.1c-0.4-0.2-1-0.2-1.6,0c-0.6,0.2-1.2,0.3-1.7,0.4c-0.8,0.1-1.5-0.1-2-0.3
	c-0.7-0.4-1-0.8-1.1-1.4c0-0.2,0-0.4,0.1-0.6c0.1-0.3,0.3-0.7,0.6-1C-96,119.9-95.6,119.7-95.1,119.6"/>
<path class="st0" d="M-62.3,104.7c0.4,0.2,0.7,0.6,0.8,1c0,0.2-0.1,0.3-0.2,0.4c-0.1,0-0.2,0.1-0.3,0.1c-0.1,0-0.4-0.2-0.9-0.5
	c-0.4-0.2-0.7-0.3-0.9-0.2c-0.1,0-0.8,0.3-0.6,1.2c0,0.2,0.9,1.2,1.5,1.7c0.6,0.5,1,0.8,1.3,1.1c0.4,0.4,0.6,0.9,0.7,1.4
	c0.1,0.5,0,0.9-0.2,1.4c-0.2,0.5-0.9,0.9-1.4,1.1c-0.8,0.3-1.7,0-2.7-0.8c-0.4-0.4-0.6-0.8-0.7-1.4c0.1-0.1,0.2-0.2,0.4-0.3
	c0.1,0,0.3,0,0.4,0c0.1,0.1,0.3,0.3,0.6,0.8c0.2,0.3,0.6,0.6,0.9,0.6c0.2,0,0.3,0,0.5,0c0.2-0.1,0.6-0.2,0.8-0.6
	c0.2-0.3,0.1-0.7,0.1-0.9c0-0.1,0-0.1,0-0.2c-0.1-0.4-0.5-0.9-1-1.3c-0.5-0.3-1-0.7-1.4-1.1c-0.6-0.5-0.9-1.2-1.1-1.7
	c-0.1-0.8,0-1.3,0.4-1.7c0.1-0.1,0.3-0.2,0.5-0.3c0.3-0.1,0.7-0.2,1.1-0.1S-62.7,104.4-62.3,104.7"/>
<path class="st0" d="M-91.6,115.5c0.4,0.2,1.2,0.7,2.4,1.5c1,0.7,1.8,1.1,2.4,1.4l0.1-0.1c-0.2-0.6-0.6-1.5-1.2-2.6
	c-0.6-1.1-1-2-1.2-2.6c-0.1-0.2,0-0.3,0.1-0.4c0.1-0.1,0.2-0.1,0.4-0.3c0.2-0.1,0.3-0.2,0.3-0.3c0.1,0,0.2,0,0.3,0
	c1.2,1.3,3,3.3,5.3,5.9c0.1,0.2-0.1,0.4-0.4,0.7c-0.2,0.1-0.4,0-0.6-0.1c-0.1-0.1-0.2-0.3-0.4-0.4c-0.3-0.3-0.6-0.7-1.1-1.2
	c-0.6-0.7-1-1-1.1-1.2c0,0-0.1,0-0.1,0c0,0,0,0.1,0,0.2c0.1,0.1,0.1,0.2,0.1,0.2c0,0.1,0.3,0.7,0.9,1.8c0.4,0.7,0.6,1.3,0.7,1.8
	c0,0.1-0.1,0.2-0.2,0.3c-0.2,0.2-0.4,0.3-0.7,0.2c-0.4-0.2-1-0.6-1.8-1.1c-0.8-0.5-1.4-0.9-1.8-1.1c0,0,0,0.1,0,0.1l0.1,0.1
	c0.3,0.3,0.6,0.6,1,1.1c0.5,0.6,0.8,0.9,1,1.1c0.2,0.2,0.3,0.3,0.5,0.5c0.1,0.1,0.1,0.3-0.1,0.4c-0.3,0.2-0.4,0.4-0.3,0.3
	c-0.1,0-0.2,0-0.4,0c-0.6-0.6-1.5-1.6-2.7-2.9c-1.2-1.3-2.1-2.2-2.7-2.9c0-0.2,0.1-0.5,0.3-0.7C-92.1,115.5-91.9,115.5-91.6,115.5"
	/>
<path class="st0" d="M-76.7,115c0,0-0.1,0-0.1,0.1c0,0-0.1,0.1-0.2,0.1c-0.1,0-0.1,0.1-0.2,0.1c-0.1,0.1-0.3,0.1-0.4,0l-1.4-1.5
	c-0.1,0-0.1,0-0.2,0c-0.2,0.1-0.5,0.3-1,0.5c-0.4,0.2-0.8,0.4-1,0.5c0,0.3,0,0.7,0.2,1.3c0.2,0.6,0.2,1,0.2,1.3
	c-0.3,0.2-0.4,0.3-0.4,0.3c-0.2,0.1-0.3,0.1-0.5,0c-0.1-0.1-0.2-0.2-0.2-0.3c-0.2-0.8-0.5-2.1-1-4.1c-0.4-1.7-0.8-3.1-0.9-4.1
	c0.2-0.2,0.7-0.4,1.4-0.7c0.1,0,0.3,0,0.4,0.1c0.4,0.5,1.1,1.3,2,2.3s1.6,1.8,2,2.3c0,0.1,0,0.1,0,0.1c0,0,0.1,0.1,0.2,0.2
	c0.1,0.1,0.2,0.1,0.3,0.2c0,0.1,0.2,0.3,0.4,0.5c0.2,0.2,0.4,0.4,0.4,0.5C-76.6,114.7-76.6,114.8-76.7,115 M-79.9,112.7
	c-0.3-0.4-0.6-0.8-1.1-1.3l-1.2-1.3c0,0-0.1,0-0.1,0c0,0-0.1,0-0.1,0c0.1,0.4,0.2,1,0.4,1.7c0.2,0.9,0.4,1.5,0.4,1.6
	c0,0.1,0.1,0.2,0.2,0.2c0.1,0,0.3-0.1,0.4-0.1c0.1-0.1,0.3-0.2,0.6-0.3C-80.2,112.9-80,112.8-79.9,112.7"/>
<path class="st0" d="M-76.7,106.2c0.3,0.9,0.7,2.1,1,3.4c0.3,1.1,0.6,2.2,0.9,3.4l0.2,0.1c0.2,0,0.4-0.1,0.6-0.1
	c0.1,0,0.2-0.1,0.3-0.1c0.1,0,0.2-0.1,0.3-0.1c0.4-0.1,0.8-0.1,1.2,0c0.1,0.2,0.2,0.4,0.2,0.4c0.1,0.2,0,0.3-0.1,0.4
	c-0.3,0.1-0.6,0.2-0.9,0.3c-0.8,0.2-1.5,0.4-2.3,0.6c-0.2-0.1-0.3-0.2-0.4-0.4c-0.1-0.3-0.2-0.5-0.2-0.5c-0.3-1.2-0.6-2.3-0.9-3.5
	c-0.4-1.4-0.7-2.5-1-3.5c0-0.1,0-0.2,0.1-0.3c0.2-0.1,0.3-0.1,0.3-0.2C-77.1,105.9-76.9,106-76.7,106.2"/>
<path class="st0" d="M-70,104.8c0.1,1,0.3,2.1,0.4,3.5c0.1,1.2,0.2,2.3,0.2,3.5l0.2,0.2c0.2,0,0.4,0,0.6,0c0.1,0,0.2,0,0.3,0
	c0.1,0,0.3,0,0.3,0c0.5-0.1,0.8,0,1.1,0.2c0.1,0.2,0.1,0.4,0.1,0.5c0,0.2,0,0.3-0.2,0.4c-0.3,0-0.6,0.1-0.9,0.1
	c-0.8,0.1-1.6,0.1-2.4,0.1c-0.2-0.1-0.3-0.3-0.3-0.5c-0.1-0.4-0.1-0.5-0.1-0.6c-0.1-1.2-0.2-2.4-0.3-3.6c-0.1-1.4-0.2-2.6-0.3-3.6
	c0-0.1,0-0.2,0.2-0.2c0.2,0,0.3-0.1,0.3-0.1C-70.4,104.4-70.2,104.5-70,104.8"/>
<path class="st0" d="M-49.6,108.2c-0.4,0.9-0.9,2-1.6,3.1c-0.6,1-1.1,2-1.6,3.1l0.1,0.2c0.1,0.1,0.3,0.2,0.5,0.3
	c0.1,0,0.2,0.1,0.3,0.1c0.1,0.1,0.2,0.1,0.3,0.1c0.4,0.2,0.7,0.5,0.8,0.8c-0.1,0.3-0.1,0.4-0.1,0.5c-0.1,0.2-0.2,0.2-0.4,0.3
	c-0.3-0.1-0.6-0.3-0.9-0.4c-0.7-0.3-1.4-0.7-2.1-1.2c-0.1-0.2-0.1-0.4,0-0.6c0.1-0.3,0.2-0.5,0.2-0.5c0.6-1.1,1.1-2.1,1.7-3.2
	c0.7-1.2,1.2-2.3,1.7-3.2c0.1-0.1,0.2-0.2,0.3-0.1c0.2,0.1,0.3,0.1,0.3,0.1C-49.7,107.7-49.6,107.9-49.6,108.2"/>
<path class="st0" d="M-44,111.3c-0.2,0.3-0.4,0.7-0.7,1.1c-0.3,0.5-0.8,1.3-1.5,2.4c-0.6,1.1-1.1,1.9-1.5,2.4
	c-0.2,0.4-0.5,0.8-0.7,1.1c-0.1,0.1-0.2,0.1-0.3,0c-0.1-0.1-0.3-0.1-0.4-0.2c-0.1-0.1-0.2-0.3-0.1-0.4c0-0.1,0.1-0.2,0.1-0.3
	c0.1-0.1,0.1-0.3,0.2-0.3c0.4-0.7,1-1.8,1.9-3.1c0.9-1.4,1.5-2.4,1.9-3.1c0.1,0,0.2-0.1,0.3-0.1c0.1,0,0.2,0,0.3,0
	c0.1,0.1,0.2,0.2,0.3,0.3C-44.1,111-44.1,111.2-44,111.3"/>
<path class="st0" d="M-40.8,113.9c-0.4,0.5-0.9,1.4-1.7,2.7c-0.7,1.2-1.3,2.1-1.7,2.7c0,0.2,0.1,0.2,0.1,0.2
	c0.7-0.3,1.6-0.9,2.8-1.6c1.3-0.7,2.2-1.3,2.8-1.6c0.2-0.1,0.4-0.1,0.6,0.2c0,0,0.1,0.1,0.2,0.2c0.1,0.1,0.1,0.2,0.2,0.2
	c0,0.1,0,0.2-0.1,0.3c0,0-0.1,0.1-0.1,0.1c-0.1,0-0.1,0.1-0.1,0.1c-1.5,0.8-3.8,2.1-6.8,3.9c-0.2,0.1-0.5,0-0.8-0.3
	c-0.1-0.1-0.3-0.4-0.5-0.7c0-0.1,0-0.2,0-0.2c1-1.6,2.4-3.9,4.3-6.9c0.1,0,0.2-0.1,0.2-0.1c0.1,0,0.2,0,0.2,0c0,0,0.1,0,0.1,0.1
	C-40.9,113.3-40.9,113.5-40.8,113.9"/>
<path class="st0" d="M-33.8,121.7c0.1,0.2,0,0.4-0.3,0.6c-0.1,0-0.1,0.1-0.2,0.1c-0.3-0.1-0.7-0.4-1-0.9c-0.5-0.7-0.8-1.1-0.9-1.2
	c-0.7,0.4-1.4,0.8-2,1.3l0,0.2c0.1,0.1,0.2,0.3,0.4,0.6c0.2,0.3,0.3,0.5,0.4,0.6c0.2,0.2,0.3,0.5,0.3,0.7c-0.1,0.2-0.3,0.4-0.6,0.6
	c0,0-0.1,0-0.2,0c-0.1-0.1-0.3-0.5-0.7-0.9c-0.3-0.4-0.5-0.7-0.7-0.9c-0.3,0.1-0.6,0.2-0.9,0.5c-0.2,0.1-0.6,0.4-1.3,0.9
	c0,0.1,0,0.1,0,0.3c0.7,1,1.1,1.6,1.2,1.9c0,0.2,0,0.4-0.2,0.5c0,0-0.1,0-0.1,0.1c-0.1,0-0.1,0.1-0.1,0.1c-0.1,0-0.1,0.1-0.2,0.2
	c0,0-0.1,0-0.2,0l-1.9-2.8c0-0.3,0.1-0.5,0.4-0.7c0,0,0.1,0,0.1-0.1c0.1,0,0.1-0.1,0.1-0.1c0.1-0.1,0.2-0.1,0.3-0.2l6-3.8
	c0.1,0,0.2,0,0.3,0c0.3,0.5,0.6,1,1,1.4C-34.3,120.9-34,121.3-33.8,121.7"/>
<path class="st0" d="M-95.4,144.2c-0.4,0.3-0.8,0.5-1.3,0.5c-0.1,0-0.2-0.2-0.2-0.4c0-0.1,0-0.2,0-0.3c0-0.1,0-0.2,0-0.2
	c0.1-0.1,0.3-0.2,0.5-0.3c0.3-0.1,0.4-0.2,0.5-0.3c0.2-0.1,0.2-0.3,0.3-0.5c0-0.6-0.1-1-0.3-1.2c-0.6-0.1-1.5-0.2-2.5-0.2
	c-0.9,0-1.7,0-2.6-0.1c-0.2,0.1-0.3,0.1-0.5,0.2c-0.2,0.1-0.3,0.2-0.3,0.4c-0.1,0.2-0.1,0.4-0.1,0.6c0,0.1,0.1,0.4,0.2,0.9
	c0.4,0.2,1.1,0.2,2,0.2c0.1-0.1,0.1-0.3,0.2-0.6c0.1-0.2,0.2-0.4,0.3-0.5c0.3,0,0.4,0,0.4,0c0.2,0,0.3,0.1,0.4,0.2
	c0,0.9-0.1,1.5-0.2,1.9c-0.1,0.2-0.2,0.2-0.4,0.2c0,0-0.1,0-0.3,0c-0.3,0-0.9-0.1-1.7-0.1c-0.7,0-1.3,0-1.6-0.1
	c-0.2-0.2-0.3-0.4-0.3-0.8c0-0.3-0.1-0.6-0.1-0.9c0-0.1,0-0.2,0-0.4c0-0.6,0.4-1.2,1.1-1.9c0.3-0.2,0.7-0.4,1.3-0.4
	c0.5,0,1.3,0,2.4,0.1c1.1,0.1,1.9,0.1,2.4,0.1c0.3,0.1,0.7,0.2,0.9,0.5c0.3,0.3,0.4,0.5,0.5,0.9c0,0.2,0,0.3,0,0.5
	C-94.3,142.9-94.7,143.7-95.4,144.2"/>
<path class="st0" d="M-93.9,150.8c-0.5,0.4-1,0.7-1.6,0.8c-0.6,0.1-1.2,0.1-1.7-0.2c-0.5,0.5-1.1,0.8-2,1c-0.1,0-0.3,0.1-0.5,0.1
	c-0.2,0-0.4,0.1-0.5,0.1c-0.3,0.1-0.6,0.1-0.8,0.2c-0.1,0-0.3-0.1-0.3-0.3c0,0-0.1-0.2-0.1-0.5c0.1-0.3,0.2-0.4,0.5-0.5
	c0.4-0.1,0.6-0.1,0.6-0.2c0.2-0.1,0.4-0.2,0.7-0.2c0.1,0,0.2,0,0.3-0.1c0.1,0,0.2-0.1,0.3-0.1c0.4-0.1,0.8-0.3,1.1-0.5
	c0.1-0.2,0.1-0.4,0-0.7c0-0.1-0.1-0.3-0.2-0.5c-0.1-0.2-0.1-0.4-0.2-0.5c-0.1-0.1-0.2-0.1-0.3-0.1c-0.3,0.1-0.9,0.2-1.7,0.5
	c-0.7,0.2-1.3,0.4-1.7,0.4c-0.1,0-0.3-0.1-0.3-0.2c-0.1-0.2-0.1-0.3-0.2-0.5c0-0.2,0.2-0.4,0.3-0.4c0.2,0,0.3-0.1,0.5-0.1
	c1-0.3,3.4-0.9,7.2-1.9c0.1,0,0.2,0,0.2,0c0.1,0,0.1,0.1,0.1,0.1c0,0.3,0.1,0.6,0.3,1.1c0.2,0.5,0.3,0.8,0.3,1.1
	C-93.4,149.5-93.5,150.2-93.9,150.8 M-94.7,150c0.1-0.2,0.1-0.5,0-0.8c0-0.1-0.1-0.3-0.2-0.6c-0.1-0.3-0.2-0.5-0.2-0.6
	c-0.2,0-0.5,0-0.7,0.1c-0.4,0.1-0.8,0.2-1.3,0.5c0,0.1,0.1,0.3,0.1,0.5c0,0.3,0.1,0.4,0.1,0.5c0.1,0.3,0.2,0.5,0.3,0.7
	c0.2,0.2,0.5,0.3,0.8,0.2C-95.7,150.4-95.3,150.3-94.7,150"/>
<path class="st0" d="M-90.8,155.9c0,0.2-0.1,0.4-0.3,0.5c-0.1,0-0.1,0-0.2,0.1c-0.3-0.1-0.6-0.4-0.9-1c-0.4-0.8-0.6-1.2-0.7-1.3
	c-0.8,0.3-1.5,0.7-2.1,1.1l0,0.2c0.1,0.2,0.2,0.4,0.3,0.6c0.2,0.3,0.3,0.5,0.3,0.6c0.1,0.3,0.2,0.5,0.3,0.7
	c-0.1,0.2-0.3,0.4-0.7,0.5c0,0-0.1,0-0.2,0c-0.1-0.2-0.3-0.5-0.5-1c-0.2-0.5-0.4-0.8-0.6-1c-0.3,0.1-0.6,0.2-1,0.3
	c-0.2,0.1-0.6,0.3-1.4,0.7c0,0.1,0,0.1-0.1,0.3c0.6,1.1,0.9,1.8,1,2c0,0.2,0,0.4-0.2,0.4c0,0-0.1,0-0.1,0.1c-0.1,0-0.1,0-0.1,0.1
	c-0.1,0-0.1,0.1-0.2,0.1c0,0-0.1,0-0.2,0l-1.6-3c0-0.3,0.1-0.5,0.5-0.7c0,0,0.1,0,0.1-0.1c0.1,0,0.1,0,0.1-0.1
	c0.1-0.1,0.2-0.1,0.3-0.2l6.4-3.1c0.1,0,0.2,0,0.3,0.1c0.3,0.5,0.5,1,0.8,1.6C-91.2,154.9-91,155.4-90.8,155.9"/>
<path class="st0" d="M-87.2,160.8c0.1,0.2,0,0.4-0.2,0.6c-0.1,0-0.1,0.1-0.2,0.1c-0.3,0-0.7-0.3-1.1-0.8c-0.5-0.7-0.9-1.1-1-1.2
	c-0.7,0.4-1.3,0.9-1.9,1.5l0,0.2c0.1,0.1,0.3,0.3,0.4,0.6c0.2,0.3,0.4,0.4,0.4,0.5c0.2,0.2,0.3,0.5,0.4,0.7c0,0.2-0.2,0.4-0.6,0.6
	c0,0-0.1,0-0.2,0c-0.1-0.1-0.4-0.4-0.7-0.9c-0.3-0.4-0.6-0.7-0.8-0.9c-0.3,0.1-0.6,0.3-0.9,0.5c-0.2,0.1-0.5,0.5-1.2,1
	c0,0.1,0,0.1,0,0.3c0.8,1,1.2,1.5,1.4,1.7c0.1,0.2,0,0.4-0.1,0.5c0,0-0.1,0-0.1,0.1c-0.1,0-0.1,0.1-0.1,0.1
	c-0.1,0.1-0.1,0.1-0.1,0.2c0,0-0.1,0-0.2,0l-2.2-2.6c-0.1-0.3,0-0.5,0.3-0.8c0,0,0.1,0,0.1-0.1c0,0,0.1-0.1,0.1-0.1
	c0.1-0.1,0.2-0.2,0.2-0.2l5.6-4.3c0.1,0,0.2,0,0.3,0c0.4,0.5,0.7,0.9,1.1,1.4C-87.9,160-87.5,160.4-87.2,160.8"/>
<path class="st0" d="M-84.7,163.6c-0.5,1-1.3,2.4-2.2,4.3c0.1,0,0.1,0,0.1,0c0,0,0,0,0.1-0.1c0,0,0.1-0.1,0.1-0.1c0,0,0,0,0,0
	c0.3-0.2,0.6-0.5,0.9-0.8c0.3-0.3,1-1,2.1-2.3c0.3-0.2,0.6-0.1,0.8,0.1c0,0,0.1,0.1,0.1,0.2c0.1,0.2,0.1,0.5-0.2,0.8
	c-1.2,1.2-2.9,3.1-5.3,5.5c-0.2,0.2-0.4,0.2-0.6-0.1c-0.2-0.2-0.4-0.4-0.6-0.6c-0.1-0.3,0-0.6,0.2-1c0.2-0.3,0.3-0.5,0.5-0.8
	c0.3-0.5,0.7-1.3,1.2-2.4c0-0.1,0-0.1-0.1-0.1c0,0-0.1,0-0.2,0c0,0-0.1,0.1-0.2,0.2c-0.1,0.1-0.1,0.1-0.1,0.1
	c-0.6,0.6-1.4,1.5-2.5,2.7c-0.2,0.1-0.5,0-0.7-0.3c-0.1-0.1-0.1-0.1-0.1-0.2c-0.1-0.1-0.1-0.2,0-0.4c0,0,0.1-0.1,0.2-0.3
	c2-2,3.8-3.8,5.4-5.6c0.4-0.1,0.7,0.1,1.1,0.6C-84.7,163.3-84.7,163.4-84.7,163.6"/>
<path class="st0" d="M-74.6,170.1c-0.6,0.9-1.3,2-2.2,3.3c-0.8,1.1-1.6,2.1-2.3,3.2c-0.2,0.2-0.4,0.2-0.6,0c-0.1,0-0.2-0.1-0.4-0.2
	c-0.2-0.1-0.3-0.2-0.4-0.2c-0.1-0.1-0.2-0.2-0.2-0.4c0.3-1,0.7-2.5,1.3-4.5c0-0.1,0-0.2-0.1-0.2c-0.1-0.1-0.2,0-0.2,0.1
	c-0.1,0.2-0.2,0.4-0.5,0.7c-0.2,0.3-0.4,0.6-0.5,0.8c-0.2,0.2-0.5,0.6-0.9,1.1c-0.4,0.6-0.7,1-0.9,1.2s-0.4,0.2-0.7,0.1
	c-0.1,0-0.2-0.1-0.3-0.2c-0.1-0.1-0.3-0.2-0.3-0.2c-0.1,0-0.1-0.1-0.2-0.1c-0.1-0.1-0.2-0.3-0.2-0.4c0.4-1.3,0.8-2.6,1.3-3.9
	c0.5-1.6,0.9-2.8,1.3-3.8c0.2-0.1,0.4,0,0.7,0.1c0.1,0.1,0.1,0.2,0.2,0.3c0,0.1,0.1,0.3,0,0.4c-0.4,0.9-0.9,2.5-1.6,4.8
	c0,0.1,0,0.1,0.1,0.1c0,0,0.1,0,0.2-0.1c0.7-0.9,1.7-2.2,3-4.1c0.2-0.2,0.4-0.3,0.7-0.1c0,0,0.1,0.1,0.3,0.1
	c0.1,0.1,0.2,0.1,0.3,0.1c0,0.1,0.1,0.2,0.2,0.4c-0.3,1.2-0.8,2.8-1.4,5c0,0,0,0.1,0,0.2c0,0.1,0,0.1,0.1,0.1c0.4-0.5,1-1.2,1.7-2.2
	c0.7-1,1.3-1.7,1.7-2.2c0.1-0.1,0.3-0.2,0.4-0.1C-74.9,169.6-74.7,169.8-74.6,170.1"/>
<path class="st0" d="M-71.7,170.5c-0.1,0.4-0.2,0.8-0.2,1.3c-0.1,0.6-0.3,1.5-0.5,2.7c-0.2,1.2-0.4,2.1-0.5,2.7
	c-0.1,0.5-0.2,0.9-0.3,1.3c-0.1,0.1-0.2,0.1-0.3,0.1s-0.3,0-0.4,0c-0.2-0.1-0.3-0.2-0.3-0.3c0-0.1,0-0.2,0-0.4c0-0.2,0-0.3,0-0.4
	c0.1-0.8,0.3-2,0.7-3.6c0.3-1.6,0.6-2.8,0.7-3.6c0.1-0.1,0.1-0.1,0.2-0.2s0.2-0.1,0.2-0.1c0.1,0,0.2,0.1,0.4,0.1
	C-71.9,170.3-71.8,170.4-71.7,170.5"/>
<path class="st0" d="M-65.8,171.8c0.2,0.2,0.3,0.4,0.3,0.7c0,0.1,0.1,0.3,0.1,0.7c0,0.1-0.1,0.2-0.3,0.2s-0.3,0-0.5,0
	c-0.1-0.1-0.3-0.4-0.5-0.9c-0.2-0.4-0.4-0.6-0.7-0.7c-0.1,0-0.3,0-0.4-0.1c-0.4,0-0.8,0.1-1.1,0.3c-0.2,0.6-0.3,1.5-0.3,2.5
	c0,0.2,0,0.6,0,1.1c0,0.5,0,0.8,0,1.1c0,0.3,0,0.5,0,0.7c0,0.2,0.1,0.4,0.3,0.6c0.2,0.2,0.3,0.3,0.5,0.3c0.1,0,0.3,0,0.4,0.1
	c0.5,0,0.9-0.1,1.1-0.3c0.1-0.1,0.2-0.4,0.2-0.8c0-0.4,0.1-0.6,0.3-0.6c0.1,0,0.3,0.1,0.5,0.2c0.2,0.2,0.2,0.4,0.2,0.6
	c0,0.1,0,0.2,0,0.3c0,0.1,0,0.2,0,0.3c0,0.1,0,0.1,0,0.2c-0.1,0.3-0.2,0.6-0.4,0.8c-0.2,0.2-0.5,0.4-0.8,0.5c-0.3,0-0.5,0-0.7,0
	c-0.9,0-1.6-0.4-2.2-1c-0.4-0.4-0.6-1-0.6-1.6c0-0.1,0-0.3,0-0.6c0-0.3,0-0.5,0-0.6c0-0.2,0-0.4,0-0.5c0.1-0.2,0.1-0.6,0.1-1
	c0-0.1,0-0.3,0-0.6c0-0.3,0-0.5,0-0.6c0-0.6,0.1-1.1,0.3-1.4c0.2-0.4,0.6-0.7,1.2-0.8c0.3,0,0.6,0,0.8,0
	C-67,170.8-66.3,171.1-65.8,171.8"/>
<path class="st0" d="M-62.2,171.2c0-0.1,0,0.5,0.2,1.6c0.1,0.6,0.2,1.2,0.3,1.6l0.2,0.1c0,0,0.4-0.1,1-0.1c0.4-0.1,0.7-0.1,0.9-0.2
	c0-0.4-0.1-0.9-0.2-1.7c-0.1-0.7-0.2-1.3-0.2-1.7c0-0.2,0.2-0.3,0.4-0.4c0.1,0,0.2,0,0.3,0c0.1,0,0.2,0,0.3,0c0.2,0,0.3,0.3,0.4,0.6
	c0,0.4,0.1,0.9,0.1,1.3c0.1,0.5,0.2,1.3,0.3,2.3c0.2,1,0.3,1.8,0.3,2.3c0.1,0.7,0.1,1.3,0.1,1.8c0,0.1-0.1,0.2-0.3,0.2
	c-0.1,0-0.3,0-0.4,0.1c-0.3-0.1-0.4-0.2-0.5-0.5c0-0.1,0-0.1,0-0.2c-0.1-0.6-0.2-1.5-0.4-2.8c0,0-0.1,0-0.1-0.1
	c-0.1,0-0.1,0-0.1-0.1l-1.7,0.3c-0.1,0.1-0.2,0.2-0.2,0.3c0,0.1,0.1,0.6,0.2,1.6c0.1,0.7,0.1,1.2,0.1,1.6c-0.1,0.1-0.2,0.2-0.3,0.2
	c0.1,0-0.1,0-0.5,0c-0.2,0-0.3-0.1-0.4-0.2c-0.1-1-0.3-2.3-0.5-4c-0.2-1.9-0.4-3.2-0.5-3.9c0-0.3,0.1-0.4,0.4-0.5
	C-62.7,170.9-62.5,170.9-62.2,171.2"/>
<path class="st0" d="M-52.7,168.4c0.4,0.5,1.2,1.2,2.2,2.3c1,1,1.7,1.7,2.2,2.3c0.2,0,0.3,0,0.3,0c-0.2-0.7-0.5-1.8-0.9-3.1
	c-0.4-1.4-0.7-2.5-0.9-3.1c-0.1-0.2,0-0.4,0.3-0.6c0.1,0,0.1-0.1,0.2-0.1c0.1-0.1,0.2-0.1,0.2-0.1c0.1,0,0.2,0,0.3,0.1
	c0,0,0,0.1,0.1,0.2c0,0.1,0,0.1,0.1,0.2c0.5,1.7,1.2,4.2,2.2,7.5c0,0.2-0.1,0.5-0.5,0.7c-0.2,0.1-0.4,0.2-0.8,0.3
	c-0.1,0-0.2,0-0.2,0c-1.3-1.3-3.2-3.3-5.7-5.8c0-0.1,0-0.2,0-0.3c0-0.1,0-0.2,0-0.2c0,0,0.1,0,0.1-0.1
	C-53.3,168.4-53.1,168.4-52.7,168.4"/>
<path class="st0" d="M-46.8,164.3c0.2,0.3,0.5,0.7,0.8,1c0.4,0.5,1,1.2,1.8,2.2c0.8,1,1.4,1.7,1.8,2.2c0.3,0.4,0.5,0.7,0.8,1
	c0,0.1,0,0.2-0.1,0.3c-0.1,0.1-0.2,0.2-0.3,0.3c-0.2,0.1-0.3,0.1-0.4,0c-0.1,0-0.2-0.1-0.3-0.3c-0.1-0.1-0.2-0.2-0.3-0.3
	c-0.5-0.6-1.3-1.6-2.3-2.9c-1-1.3-1.7-2.2-2.3-2.9c0-0.1,0-0.2,0-0.3c0-0.1,0-0.2,0.1-0.2c0.1-0.1,0.2-0.1,0.3-0.2
	C-47.1,164.3-47,164.3-46.8,164.3"/>
<path class="st0" d="M-44.5,162c0.7,0.7,1.6,1.5,2.6,2.4c0.8,0.8,1.7,1.6,2.5,2.4l0.2,0c0.2-0.1,0.3-0.2,0.5-0.4
	c0.1-0.1,0.1-0.1,0.2-0.2c0.1-0.1,0.2-0.2,0.2-0.2c0.3-0.3,0.6-0.5,1-0.6c0.2,0.1,0.4,0.2,0.4,0.3c0.1,0.1,0.2,0.3,0.2,0.4
	c-0.2,0.2-0.4,0.5-0.6,0.7c-0.5,0.6-1.1,1.1-1.7,1.7c-0.2,0-0.4,0-0.5-0.2c-0.3-0.2-0.4-0.3-0.4-0.4c-0.9-0.9-1.7-1.7-2.6-2.5
	c-1-1-1.9-1.8-2.6-2.5c-0.1-0.1-0.1-0.2,0-0.3c0.1-0.1,0.2-0.3,0.2-0.3C-45.1,162-44.9,162-44.5,162"/>
<path class="st0" d="M-41.4,158.4c0.8,0.6,1.8,1.2,2.9,2c0.9,0.7,1.8,1.4,2.8,2.1l0.2,0c0.1-0.1,0.3-0.3,0.4-0.5
	c0-0.1,0.1-0.2,0.2-0.3c0.1-0.1,0.1-0.2,0.2-0.3c0.3-0.4,0.6-0.6,0.9-0.7c0.2,0.1,0.4,0.2,0.4,0.2c0.1,0.1,0.2,0.2,0.2,0.4
	c-0.2,0.2-0.3,0.5-0.5,0.8c-0.5,0.7-1,1.3-1.5,1.9c-0.2,0.1-0.4,0-0.6-0.1c-0.3-0.2-0.5-0.3-0.5-0.3c-1-0.7-1.9-1.5-2.9-2.2
	c-1.1-0.9-2.1-1.6-2.9-2.2c-0.1-0.1-0.1-0.2-0.1-0.3c0.1-0.2,0.1-0.3,0.1-0.3C-41.9,158.4-41.7,158.4-41.4,158.4"/>
<path class="st0" d="M-29.8,154c0,0,0,0.1-0.1,0.1c0,0-0.1,0.1-0.1,0.2c0,0.1-0.1,0.1-0.1,0.2c-0.1,0.1-0.2,0.2-0.3,0.2l-2-0.3
	c-0.1,0-0.1,0.1-0.2,0.1c-0.1,0.2-0.2,0.6-0.5,1c-0.2,0.4-0.4,0.8-0.4,1c0.1,0.2,0.5,0.5,1,0.9c0.5,0.3,0.8,0.6,0.9,0.9
	c-0.1,0.3-0.1,0.5-0.1,0.5c-0.1,0.2-0.2,0.3-0.4,0.3c-0.2,0-0.3-0.1-0.3-0.1c-0.6-0.5-1.7-1.4-3.4-2.6c-1.4-1.1-2.5-1.9-3.3-2.6
	c0.1-0.3,0.3-0.7,0.7-1.4c0.1-0.1,0.2-0.1,0.4-0.2c0.7,0.1,1.7,0.3,3,0.5s2.4,0.4,3.1,0.5c0,0.1,0,0.1,0.1,0.1c0,0,0.1,0,0.3,0
	c0.1,0,0.2-0.1,0.3,0c0.1,0.1,0.3,0.1,0.6,0.1c0.3,0,0.5,0,0.6,0.1C-29.9,153.7-29.8,153.8-29.8,154 M-33.7,154.2
	c-0.4-0.1-1-0.2-1.7-0.3l-1.8-0.3c0,0,0,0-0.1,0c0,0-0.1,0-0.1,0c0.3,0.3,0.8,0.6,1.3,1.1c0.8,0.6,1.2,0.9,1.4,1
	c0.1,0.1,0.2,0.1,0.3,0.1c0.1-0.1,0.2-0.2,0.2-0.4c0.1-0.1,0.1-0.4,0.2-0.6C-33.8,154.5-33.8,154.3-33.7,154.2"/>
<path class="st0" d="M-35.7,146.3c0.4-0.2,0.9-0.3,1.4-0.3c0.1,0.1,0.2,0.2,0.1,0.4c0,0.1,0,0.1-0.1,0.3c0,0.1-0.1,0.2-0.1,0.2
	c-0.1,0.1-0.3,0.1-0.6,0.2c-0.3,0.1-0.5,0.1-0.6,0.2c-0.2,0.1-0.3,0.3-0.3,0.5c-0.1,0.6-0.1,1,0.1,1.2c0.6,0.2,1.4,0.5,2.4,0.7
	c0.8,0.2,1.7,0.3,2.5,0.5c0.2,0,0.3-0.1,0.5-0.1c0.2,0,0.3-0.1,0.4-0.3c0.1-0.2,0.2-0.3,0.2-0.5c0-0.1,0-0.4,0-1
	c-0.4-0.2-1-0.4-2-0.5c-0.1,0.1-0.2,0.2-0.3,0.5c-0.1,0.2-0.2,0.4-0.4,0.4c-0.2-0.1-0.4-0.1-0.4-0.1c-0.1,0-0.3-0.1-0.3-0.2
	c0.2-0.9,0.3-1.5,0.5-1.8c0.1-0.2,0.2-0.2,0.4-0.2c0,0,0.1,0,0.3,0.1c0.3,0.1,0.8,0.2,1.6,0.3c0.7,0.1,1.2,0.2,1.6,0.4
	c0.1,0.2,0.2,0.5,0.2,0.8c0,0.3,0,0.6,0,0.9c0,0.1,0,0.2,0,0.4c-0.1,0.6-0.6,1.2-1.4,1.7c-0.3,0.2-0.8,0.2-1.3,0.2
	c-0.5-0.1-1.3-0.2-2.4-0.5c-1-0.2-1.8-0.4-2.4-0.5c-0.3-0.1-0.6-0.3-0.8-0.6c-0.2-0.3-0.3-0.6-0.3-1c0-0.2,0-0.3,0-0.5
	C-37,147.4-36.5,146.7-35.7,146.3"/>
<path class="st0" d="M-36.7,140.5c0.1-0.2,0.2-0.3,0.5-0.3c0.1,0,0.1,0,0.2,0c0.2,0.2,0.4,0.7,0.4,1.3c0,0.9,0,1.4,0.1,1.5
	c0.8,0.1,1.6,0.1,2.4,0l0.1-0.1c0-0.2,0-0.4,0-0.7c0-0.3,0-0.6,0-0.7c0-0.3,0-0.6,0.1-0.8c0.2-0.1,0.4-0.2,0.8-0.1
	c0,0,0.1,0.1,0.1,0.1c0,0.2,0,0.6,0,1.1c0,0.5,0,0.9,0.1,1.1c0.3,0.1,0.6,0.1,1,0.1c0.2,0,0.7,0,1.5-0.1c0,0,0.1-0.1,0.2-0.2
	c0-1.2,0-2,0-2.2c0.1-0.2,0.2-0.3,0.4-0.3c0,0,0.1,0,0.2,0s0.1,0,0.2,0c0.1,0,0.2,0,0.2,0c0,0,0.1,0.1,0.1,0.1l0.1,3.4
	c-0.1,0.3-0.4,0.4-0.7,0.4c0,0-0.1,0-0.1,0c-0.1,0-0.1,0-0.1,0c-0.1,0-0.2,0-0.3,0l-7.1,0c-0.1,0-0.2-0.1-0.3-0.2c0-0.6,0-1.2,0-1.7
	C-36.7,141.6-36.7,141-36.7,140.5"/>
</svg>
