<?xml version="1.0" encoding="utf-8"?>
<!-- Generator: Adobe Illustrator 15.1.0, SVG Export Plug-In . SVG Version: 6.00 Build 0)  -->
<!DOCTYPE svg PUBLIC "-//W3C//DTD SVG 1.1//EN" "http://www.w3.org/Graphics/SVG/1.1/DTD/svg11.dtd">
<svg version="1.1" id="Layer_1" xmlns="http://www.w3.org/2000/svg" xmlns:xlink="http://www.w3.org/1999/xlink" x="0px" y="0px"
	 width="75.011px" height="75.246px" viewBox="0 0 75.011 75.246" enable-background="new 0 0 75.011 75.246" xml:space="preserve">
<circle fill="#FFFFFF" cx="37.283" cy="37.487" r="27.362"/>
<g>
	<g>
		<path fill="#040504" d="M54.979,27.355v0.809c-0.186,1.144-0.758,1.992-1.259,3.006c-0.591,1.206-1.294,1.956-2.376,2.534
			c0.356-0.218,0.559-0.591,0.989-0.737c0.485-0.533,1.046-0.99,1.209-1.842c0.25-0.156,0.207-0.602,0.541-0.671
			c0.005-0.312,0.277-0.357,0.221-0.718c0.761-0.921,0.589-2.339,0.364-3.813c-0.006-0.163-0.127-0.202-0.18-0.313
			c0.04-1.209-0.784-1.551-0.945-2.558c-0.583-0.808-1.001-1.782-1.838-2.333c-0.672-1.244-2.138-1.694-3.637-2.11
			c-0.338-0.332-1-0.341-1.48-0.538c-0.647,0.246-1.275-0.542-1.795,0c0.228,0.583,1.317,0.3,1.572,0.85
			c0.428,0.015,0.87,0.347,1.078,0.72c0.263-0.069,0.234,0.154,0.356,0.227h0.403c0.079,0.265-0.069,0.57,0.184,0.715
			c0.171,0.036,0.229-0.163,0.357-0.045c0.101,0.148,0.009,0.405-0.092,0.497c0.043,0.109,0.184,0.116,0.315,0.133
			c-0.019,0.347,0.024,0.636,0.18,0.809c0.141-0.042,0.111-0.251,0.225-0.317c0.163-0.024,0.218,0.054,0.315,0.09
			c-0.025,0.292-0.195,0.437-0.315,0.63c0.066,0.065,0.081,0.189,0.178,0.223c0.141-0.039,0.079-0.281,0.18-0.358
			c0.127,0.004,0.292-0.026,0.36,0.045c-0.013,0.347-0.491,0.658-0.227,0.986c0.18,0.015,0.098-0.234,0.18-0.315
			c0.141,0.011,0.33-0.028,0.403,0.045c-0.045,0.388-0.351,0.52-0.448,0.855c0.034,0.191,0.439,0.009,0.54,0.131
			c0,0.283-0.258,0.309-0.315,0.538c0.022,0.287,0.281,0.083,0.403,0.227c0.105,0.244-0.033,0.344-0.088,0.537
			c0.306-0.036,0.492-0.193,0.583-0.446c0.18-0.02,0.327,0,0.356,0.133c-0.394,0.277-0.537,0.805-1.032,0.988
			c0.52,0.334,0.76-0.686,1.351-0.718v0.403c-0.379,0.193-0.598,0.54-0.943,0.763c0.176,0.244,0.458-0.315,0.714-0.137
			c-0.019,0.204-0.227,0.221-0.174,0.495c-0.107,0.088-0.317,0.075-0.409,0.178c0.463,0.559,0.765-0.411,1.213-0.448
			c0.107-0.026-0.007-0.276,0.09-0.313h0.399v0.313c-0.135-0.004-0.125,0.143-0.311,0.09c-0.186,0.625-0.91,0.706-1.163,1.257
			c0.477-0.225,0.717-0.687,1.3-0.809c0.024,0.167,0.04,0.164,0.043,0.403c0.23,0.022,0.229-0.193,0.493-0.133
			c0.083,0.601-0.582,0.814-0.809,1.253c0.169,0.326,0.364-0.145,0.446-0.312c0.131,0.007,0.296-0.024,0.362,0.045
			c-0.186,0.638-0.644,0.998-1.077,1.392c0.024,0.111,0.111,0.16,0.18,0.223c0.199-0.367,0.585-0.551,0.671-1.03
			c0.345,0.015,0.308-0.354,0.538-0.448c0.064,0.073,0.118,0.15,0.09,0.312c-0.296,0.261-0.434,0.671-0.583,1.077
			c0.145,0.139,0.188-0.073,0.358-0.045c0.011,0.153,0.116,0.216,0.092,0.405c-0.263,0.108-0.433,0.314-0.671,0.448
			c0.069,0.141,0.131,0.287,0.221,0.403c-0.051,0.19-0.25,0.228-0.182,0.539c-0.413,0.174-0.375,0.611-0.534,0.941
			c-0.058,0.126-0.296,0.267-0.356,0.407c-0.236,0.52-0.846,0.801-1.259,1.211h-0.448c-0.097,1.069-0.373,1.96-0.45,3.048
			c-0.133-0.195-0.098-0.656-0.045-0.94c0.034-0.189,0.201-0.333,0.224-0.538c0.011-0.098-0.062-0.212-0.043-0.315
			c0.064-0.353,0.315-0.685,0.223-1.122c-0.326-0.195-0.145-0.988-0.268-1.257c-0.336,0.096-0.962,0.184-1.079-0.178
			c0.169-0.416,0.495-0.673,0.587-1.167c-0.533-0.172-1.474,0.362-1.887-0.227c-0.088-0.99-0.677-1.81-1.12-2.691v-0.312
			c-0.587-1.059-1.508-1.784-2.425-2.513c-0.351,0.079-0.426-0.255-0.671-0.358c-0.103-0.043-0.23-0.001-0.313-0.044
			c-0.064-0.036-0.09-0.154-0.18-0.183c-0.461-0.142-1.17-0.001-1.527-0.491c-0.833,0.446-1.163-0.418-1.703-0.676
			c-0.171,0.038-0.36,0.058-0.583,0.045c-0.186-0.205-0.589-0.191-0.989-0.178c-0.564,0.315-2.003,0.379-2.333-0.178
			c-0.526,0.114-0.872,0.413-1.571,0.356c-0.829,0.309-1.636,0.634-2.467,0.943c0.062,0.353-0.322,0.545-0.536,0.763
			c-0.107-0.015-0.188-0.056-0.272-0.092c-0.178,0.058-0.332,0.144-0.448,0.27c-1.101,0.05-1.353,0.953-2.149,1.3
			c-0.606,0.687-1.384,1.189-1.844,2.02c-0.152,0.028-0.197,0.161-0.36,0.182c-0.518,0.429-0.328,1.309-0.493,2.063
			c0.069,0.216,0.191,0.377,0.317,0.539c-0.131,0.623,0.175,1.382,0.492,1.838c0.315-0.002,0.414,0.212,0.628,0.313
			c-0.272,1.009,0.54,1.358,0.403,1.932c-0.188-0.005-0.225-0.165-0.356-0.227c-0.277,0.069-0.261,0.43-0.317,0.717
			c-0.319,0.054-0.491-0.043-0.625-0.177c-0.197-0.032-0.25,0.081-0.315,0.177c-0.077-0.062,0.111-0.244,0.135-0.356
			c-0.222-0.334-0.435-0.671-0.583-1.077c0.264,0.197,0.244,0.681,0.583,0.809c-0.315-1.203-1.09-2.525-0.854-3.948
			c-0.035-0.119-0.106-0.191-0.221-0.227c0.353-0.218-0.261-0.688,0.131-0.942c-0.281-0.159-0.022-0.388,0.043-0.581
			c-0.083-0.293-0.458-0.293-0.493-0.63c0.139-0.069,0.385-0.038,0.493-0.133c-0.013-0.801,0.034-1.561-0.538-2.018
			c0.021-0.435-0.038-0.938,0.045-1.302c-0.054-0.063-0.168-0.069-0.221-0.137c-0.105-0.537,0.272-0.589,0.176-1.12
			c0.114-0.019,0.208-0.062,0.27-0.135c0.004-0.212-0.217-0.199-0.27-0.36c-0.004-0.772,0.873-0.79,0.538-1.523
			c0.081-0.101,0.272-0.09,0.407-0.137c-0.028-0.176-0.028-0.133,0-0.311c0.341-0.017,0.57-0.259,0.716-0.585
			c0.313-0.032,0.372,0.083,0.628,0.18c0.24-0.028,0.043-0.495,0.224-0.585c0.275-0.064,0.328,0.09,0.448,0.182
			c0.051-0.332-0.021-0.723,0.403-0.762c-0.003,0.083-0.152,0.026-0.176,0.088c0.284,0.043,0.216,0.444,0.401,0.582
			c0.388-0.096-0.038-0.603,0.094-0.852c0.212-0.154,0.732-0.238,0.985-0.09c0.056,0.152,0.081,0.341,0.133,0.493
			c0.235,0.043,0.539,0.225,0.584,0.585c0.251,0.026,0.351-0.1,0.405-0.27c-0.005-0.206-0.232-0.188-0.405-0.227
			c-0.021-0.214,0.031-0.353,0.137-0.446c0.197-0.051,0.161,0.139,0.221,0.225c0.108-0.015,0.168-0.069,0.317-0.045
			c-0.021,0.214,0.011,0.374,0.045,0.537c0.107-0.038,0.098-0.195,0.267-0.176c-0.032-0.165-0.212-0.208-0.09-0.403
			c0.131,0.004,0.296-0.028,0.362,0.043c0.063,0.238-0.062,0.319,0,0.627c-0.131,0.081-0.336,0.086-0.497,0.137
			c-0.026,0.283,0.312,0.197,0.315,0.448c0.141-0.077,0.058-0.208,0.049-0.358c0.304,0.06,0.512,0.165,0.85,0.088
			c0.062,0.146,0.107,0.315,0.09,0.538c0.507-0.141,0.97-0.415,1.482-0.538c0.111-0.024,0.21,0.032,0.312,0
			c0.259-0.073,0.775-0.267,1.078-0.36c1.281-0.385,2.615-0.443,4.039-0.449c0.244,0,0.458,0.113,0.626-0.088
			c0.036-0.291-0.068-0.441-0.224-0.539c-0.114,0.068,0.03,0.39-0.131,0.405c-0.203,0.015-0.16-0.207-0.229-0.315
			c0.201-0.169,0.083-0.418,0.313-0.494c0.333,0.191,0.476,0.572,0.718,0.854c0.207-0.041,0.287-0.165,0.453-0.137
			c0.122-0.152,0.118-0.49-0.049-0.582c0.036-0.167,0.229-0.219,0.049-0.362c-0.278,0.009-0.222,0.353-0.453,0.405
			c0.068-0.263,0.079-0.58,0.229-0.764c0.403,0.037,0.677,0.047,0.852-0.223c0.043-0.293-0.186-0.422-0.047-0.673
			c0.154-0.067,0.407-0.041,0.627-0.043c0.11,0.443,0.184,0.921,0.763,0.895c0,0.122-0.024,0.264,0.092,0.271
			c0.189-0.062-0.006-0.225,0.045-0.405c0.199,0.113,0.441,0.188,0.495,0.45c0.208-0.032,0.315-0.399,0.535-0.272
			c0.165,0.116-0.112,0.632,0.18,0.72c0.189-0.051,0.148-0.332,0.36-0.362c0.199-0.034,0.088,0.242,0.268,0.227
			c0.128-0.27,0.03-0.579,0.269-0.808h0.223v0.313c-0.049,0.038-0.12,0.058-0.223,0.047c0.292,0.204,0.104,0.79,0.268,1.029
			c0.242-0.084-0.012-0.48,0.047-0.763c0.049-0.214,0.238-0.203,0.223-0.403c0.189-0.006,0.375-0.015,0.449,0.09
			c0.009,0.162-0.21,0.09-0.181,0.269c0,0.137,0.098,0.174,0.135,0.271c0.17-0.073,0.292-0.187,0.54-0.182
			c0.098,0.083,0.081,0.277,0.18,0.36c0.066-0.024,0.113-0.07,0.18-0.088c0.1-0.064,0.015-0.315,0.045-0.448
			c-0.292,0.007-0.583,0.009-0.716-0.135c0.191-0.828-0.422-1.184-1.213-1.169c-0.362-0.698-1.626-0.497-2.108-1.077
			c0.731,0.283,1.746,0.677,2.646,0.942c-0.034-0.177-0.174-0.242-0.227-0.403c0.3-0.518,1.195-0.161,1.975-0.045
			c0.81,0.124,1.658,0.469,2.468,0.763c1.417,0.512,2.209,1.208,3.14,2.245c0.642,0.713,1.084,1.429,1.527,2.375
			c0.372,0.799,0.76,1.475,0.987,2.468C54.876,26.41,54.833,26.944,54.979,27.355 M52.556,27.537
			c-0.165-0.034-0.193,0.076-0.358,0.045c-0.109,0.403-0.662,0.353-0.673,0.853h0.313C51.959,28.015,52.376,27.895,52.556,27.537
			 M41.338,20.672c0-0.212,0.326-0.283,0.18-0.495c-0.01-0.034-0.038-0.052-0.09-0.045c-0.225,0.222-0.23,0.668-0.268,1.077
			C41.475,21.212,41.445,20.854,41.338,20.672"/>
		<path fill="#040504" d="M52.288,25.563c0.06,0.055,0.045,0.195,0.045,0.312c-0.053,0.038-0.122,0.06-0.225,0.047
			c0.017,0.16,0.069,0.216,0,0.356c-0.178,0.047-0.329,0.026-0.403-0.133C51.928,25.979,51.884,25.547,52.288,25.563"/>
		<path fill="#040504" d="M50.718,24.125c0.168-0.032,0.448-0.11,0.495,0.09c-0.034,0.176-0.248,0.176-0.229,0.403
			C50.621,24.703,50.648,24.356,50.718,24.125"/>
		<path fill="#040504" d="M49.459,37.453c0.114,0.086-0.113,0.208-0.133,0.313C49.201,37.669,49.467,37.583,49.459,37.453"/>
		<path fill="#040504" d="M49.238,37.812c-0.015,0.006-0.026,0.007-0.038,0.006C49.212,37.813,49.225,37.813,49.238,37.812"/>
		<path fill="#040504" d="M49.201,37.817c-0.135,0.021-0.133,0.084-0.366,0.084c0.06,1.943-0.471,3.299-1.351,4.305
			c-0.006,0.159,0.153,0.148,0.18,0.27c-0.552,1.407-1.607,2.311-2.469,3.41c-0.024,0.366-0.161,0.72-0.358,0.673
			c0.071,0.352-0.107,0.729-0.045,1.212c-0.219,0.062-0.311,0.254-0.536,0.314c-0.368-0.547-0.865-0.957-1.304-1.437
			c-0.257,0.145-0.452,0.354-0.714,0.493c-0.024,0.261-0.165,0.407-0.272,0.583c-0.053,1.294-1.045,1.645-1.84,2.198
			c-0.861-0.285-1.401,0.312-1.926,0.313c-0.146,0.002-0.312-0.112-0.45-0.131c-0.375-0.054-0.752,0.038-1.255,0
			c-0.124-0.146-0.409-0.326-0.675-0.182c-0.145,0.694,0.696,1.138,1.259,0.989c0.761,0.585,1.988,0.594,3.005,0.403
			c0.094,0.043,0.213,0.056,0.225,0.178c0.165,0.017,0.116-0.18,0.315-0.131c0.263,0.285,0.731,0.368,0.984,0.673
			c0.013,0.255,0.15,0.382,0.223,0.582c0.13,0.103,0.261-0.058,0.364,0.088c0.101,0.122,0.005,0.308,0,0.45
			c0.161,0.146,0.422,0.203,0.536,0.401c-0.216,0.1-0.351,0.282-0.362,0.585c0.351,0.063,0.458-0.244,0.857-0.227
			c-0.005-0.205-0.092-0.223,0.043-0.358c0.116,0.036-0.034,0.336,0.133,0.317c0.877-0.242,1.652-0.743,2.245-1.437
			c0.122-0.137,0.161-0.326,0.268-0.45c0.094-0.106,0.248-0.131,0.315-0.221c0.133-0.197,0.107-0.486,0.225-0.675
			c0.122-0.203,0.388-0.326,0.491-0.536c0.055-0.111-0.004-0.265,0.043-0.406c0.063-0.168,0.274-0.306,0.315-0.448
			c0.041-0.145-0.007-0.508,0.045-0.764c0.053-0.248,0.156-0.324,0-0.538c0.098-0.084,0.201-0.159,0.223-0.313
			c-0.105-0.613-0.073-1.365-0.043-2.063c0.019-0.392-0.107-0.85,0.133-1.124c-0.139,1.651,0.017,3.331-0.222,4.89
			c0.128,0.063,0.225-0.12,0.269,0c-0.77,1.938-1.898,3.515-3.678,4.443c-0.392-0.034-0.694,0.024-0.898,0.178
			c-1.003,0.148-1.23,1.075-2.108,1.349c-0.028,0.223-0.247,0.259-0.36,0.401c0.268,0.504,0.833,0.758,1.12,1.258
			c0.049,0.079,0.009,0.179,0.045,0.267c0.126,0.272,0.417,0.486,0.539,0.808c0.131,0.341,0.189,0.542,0.317,0.807
			c0,0.148-0.127,0.172-0.092,0.36c0.302-0.193,0.516-0.471,0.632-0.854c0.696-0.38,1.081-1.069,1.792-1.433
			c0.547-0.951,0.972-2.02,1.213-3.276c0.03-0.09,0.133-0.102,0.18-0.182c-0.067-0.345,0.229-0.336,0.177-0.669
			c0.394-0.354,0.409-1.09,0.763-1.48c-0.283,0.908-0.782,1.78-1.075,2.781c-0.278,0.94-0.585,2.048-1.12,2.735
			c-0.51,0.651-1.244,0.979-1.799,1.568c-0.054,0.231-0.296,0.396-0.424,0.614c-0.107,0.063-0.189,0.146-0.257,0.242
			c-0.122,0.054-0.219,0.131-0.302,0.225c-0.527,0.017-0.816,0.39-0.865,0.807c-0.161,0.172-0.244,0.413-0.244,0.656
			c-0.034,0.028-0.06,0.064-0.088,0.1c-0.013-0.036-0.019-0.077-0.019-0.128c-0.143,0.049-0.396-0.009-0.536-0.09h0.536
			c0.293-0.261,0.12-0.986,0.315-1.345c-0.168-0.057-0.131-0.319-0.137-0.538c-0.354-0.566-0.277-1.285-0.535-1.93
			c-0.208-0.141-0.351-0.338-0.407-0.628c-0.206-0.225-0.469-0.396-0.808-0.493c-0.135,0.103-0.298,0.176-0.583,0.133
			c-0.313,0.347-0.536,0.673-0.896,0.945c-0.434,0.325-1.071,0.852-1.163,1.431c-0.154,0.942,0.926,1.417,0.716,2.47
			c-0.152-0.808-0.52-1.394-0.763-2.11c-0.199,0.038-0.269-0.056-0.45-0.043c-0.06,0.325-0.073,0.705-0.223,0.941
			c0.036-1.61,0.795-2.492,1.748-3.188c-0.113-0.366,0.293-0.216,0.227-0.537c-0.561-0.371-1.064-0.853-1.529-1.253
			c-0.21-0.186-0.255-0.478-0.446-0.673c-0.399-0.409-1.058-0.563-1.255-1.167c-0.587-0.596-1.294-1.028-1.932-1.57
			c-0.443-0.377-0.593-0.996-1.032-1.394c0.04-0.248-0.126-0.291-0.268-0.356c0.461,1.772,0.834,3.873,1.613,5.561
			c0.088,0.784,0.473,1.504,0.493,2.202c-0.611-2.185-1.438-4.158-1.881-6.508c-0.088-0.083-0.034-0.081-0.18-0.045
			c0.195-0.3-0.062-0.801-0.135-1.12c-0.017,0-0.034-0.009-0.05-0.009c-0.015-0.049-0.032-0.092-0.057-0.133
			c0-0.167-0.042-0.337-0.118-0.484c-0.002-0.009-0.002-0.021-0.005-0.032c0.028-0.216-0.004-0.441-0.104-0.63
			c-0.013-0.103-0.039-0.2-0.081-0.296c0.011-0.189-0.03-0.383-0.122-0.542c-0.002-0.021-0.006-0.04-0.01-0.059
			c0.004-0.163-0.03-0.319-0.095-0.463c0.024-0.216-0.017-0.436-0.118-0.619c-0.019-0.146-0.032-0.293-0.038-0.444
			c0-0.047-0.001-0.094-0.009-0.135c0.024-0.191-0.002-0.392-0.083-0.566c0-0.026-0.01-0.055-0.014-0.083
			c0.021-0.602,0.062-1.193,0.143-1.745c-0.743-0.184-1.48-0.377-1.754-1.03c0.234,0.184,0.448,0.535,0.763,0.671
			c0.098,0.042,0.246-0.035,0.36,0c0.062,0.023,0.124,0.16,0.176,0.179c0.418,0.167,0.741,0.095,1.122,0.137
			c0.415,0.043,0.743,0.399,1.124,0.585c0.086,0.04,0.259,0.002,0.358,0.045c0.187,0.069,0.255,0.283,0.538,0.174
			c0,0.124,0.124,0.119,0.182,0.184c0.467-0.071,0.872,0.445,1.343,0.358c0.413,0.604,1.534,0.349,2.56,0.403
			c0.379-0.217,0.855-0.531,1.479-0.358c0.316-0.379,0.846-0.134,1.346-0.137c1.013,0,2.316-0.327,3.097-0.494
			c0.141-0.09-0.127-0.088,0-0.131h0.45c0.281-0.15,0.491-0.379,0.895-0.405c0.387-0.238,0.681-0.508,0.988-0.763
			c0.297-0.25,0.589-0.377,0.852-0.582c0.428-0.341,1.332-1.125,1.526-1.797c0.079-0.279,0.137-0.351,0.18-0.537
			c0.043-0.189-0.005-0.399,0.045-0.585c0.043-0.16,0.154-0.283,0.178-0.45c0.083-0.561-0.227-1.317,0.269-1.66
			C49.141,37.624,49.124,37.806,49.201,37.817"/>
		<path fill="#040504" d="M47.799,49.834c0.024,0.432-0.298,1.283-0.403,1.887C47.342,51.08,47.691,50.455,47.799,49.834"/>
		<path fill="#040504" d="M47.711,42.566c0.106,0.589-0.107,1.481,0,2.288C47.404,44.229,47.665,43.431,47.711,42.566"/>
		<path fill="#040504" d="M44.256,36.508c-0.199,0.506-0.461,0.945-0.898,1.212c-0.429-0.154-0.551-0.985-1.163-0.943
			c-0.323-0.25-0.816-0.321-0.989-0.716c-0.36-0.057-0.31,0.29-0.72,0.182c-0.062-0.06-0.019-0.219-0.131-0.227
			c-0.296-0.026-0.345,0.193-0.583,0.227c-0.068-0.162-0.319-0.133-0.36-0.317c-0.008-0.083,0.055-0.092,0.045-0.177
			c0.16-0.088,0.239,0.021,0.449,0c0.247-0.326,0.776-0.094,1.254-0.182c0.102,0.1,0.212,0.182,0.358,0.227
			c0.681-0.201,1.731,0.067,2.198,0.493c0.105-0.017,0.084-0.157,0.225-0.135C44.101,36.223,44.176,36.366,44.256,36.508"/>
		<path fill="#040504" d="M43.853,28.479c0.034,0.232-0.034,0.353-0.137,0.45c-1.094-0.126-1.624,0.24-2.51,0.176
			c-0.174-0.005-0.174,0.158-0.315,0.182c-0.184-0.011-0.381-0.009-0.448-0.137c-0.272,0.238-0.608,0.413-0.811,0.718
			c-0.154,0.038-0.172-0.067-0.313-0.045c-0.242-0.587,0.269-0.767,0.495-1.03c0.778-0.15,1.474-0.613,2.243-0.495
			c0.424,0.066,0.837,0.184,1.3,0.225C43.51,28.473,43.698,28.405,43.853,28.479"/>
		<path fill="#040504" d="M42.195,17.487c-0.818,0.043-1.718-0.25-2.784-0.182c-0.096-0.055-0.189-0.109-0.272-0.179
			C37.65,17,35.661,16.923,34.7,17.442c-0.749,0.131-1.669,0.096-2.245,0.403c-1.261-0.064-1.746,0.643-2.645,0.941
			c-0.227-0.028-0.364,0.058-0.495,0c-0.263,0.248-0.499,0.549-0.897,0.538c-0.568,0.496-1.354,0.771-1.707,1.48
			c-0.647,0.251-0.934,0.863-1.521,1.168c-0.124,0.399-0.465,0.741-0.632,1.167c-0.086,0.216-0.06,0.508-0.18,0.719
			c-0.107,0.191-0.304,0.409-0.356,0.759c-0.045,0.295,0.06,0.653-0.18,0.901c0.184,0.514,0.063,1.037,0.135,1.522
			c0.088,0.604,0.514,1.056,0.537,1.523c0.01,0.199-0.056,0.645-0.135,0.855c-0.041,0.118-0.213,0.189-0.225,0.358
			c-0.009,0.325,0.492,0.726,0.045,0.986c0.249,0.61,0.118,1.435,0.225,2.423c0.265,0.679,0.574,1.313,0.72,2.112
			c-0.309-0.65-0.502-1.416-0.81-2.066c-0.765-0.053-1.144-0.224-1.883-0.135c-0.523-0.615-0.846-1.427-1.301-2.106
			c-0.024-0.148,0.03-0.21,0.045-0.315c-0.508-0.544-0.516-1.446-0.271-2.153c-0.063-0.118-0.151-0.208-0.221-0.315
			c-0.066,0.015-0.195,0.189-0.09,0.227c-0.094,0.071-0.191-0.229-0.315-0.271c0.098-0.207,0.324,0.034,0.405-0.043
			c-0.073-0.475,0.06-0.974-0.36-1.079c0.094-0.364-0.205-0.332-0.18-0.626c0.28-0.144,0.589,0.03,0.671,0.224
			c0.043,0.214-0.236,0.27-0.088,0.448c0.112,0.139,0.274-0.055,0.448,0c0.112-0.463,0.279-1.319-0.491-1.165
			c-0.164-0.079-0.25-0.23-0.315-0.403c0.391-0.164,0.737,0.127,1.12,0.221c0.239-0.111-0.063-0.399,0.045-0.536h0.317
			c0.058,0.088,0.042,0.257,0.088,0.36c0.114-0.04,0.114-0.186,0.18-0.271c0.139-0.021,0.118,0.122,0.225,0.135
			c0.124-0.174,0.062-0.454,0-0.672c-0.146,0.079-0.055,0.396-0.182,0.494c-0.322-0.25-0.42-1.075-0.27-1.482
			c0.196-0.032,0.18,0.15,0.18,0.313c0.269,0,0.169-0.368,0.317-0.491c0.191-0.042,0.224,0.071,0.27,0.178
			c0.092-0.174,0.255-0.281,0.58-0.223c0.105-0.104-0.083-0.145-0.043-0.315c0.103-0.015,0.168-0.069,0.313-0.043
			c0.086,0.107-0.038,0.427,0.178,0.403c0.084-0.171,0.024-0.488,0.18-0.585c-0.011-0.159-0.306-0.197-0.135-0.403
			c0.221-0.069,0.135,0.165,0.227,0.225c0.218-0.048,0.323-0.216,0.312-0.493c0.218-0.366,0.611-0.555,0.718-1.033
			c0.195-0.15,0.368-0.323,0.495-0.537c0.111,0.003,0.216,0.005,0.269-0.045c1.013-0.962,2.254-1.695,3.319-2.603
			c0.087,0.047-0.11,0.182-0.133,0.268c0.049,0.102,0.148,0.15,0.178,0.272c0.958,0.148,1.645-0.613,2.468-0.853
			c1.367-0.398,3.097-0.336,4.484-0.852h2.157C39.421,17.27,40.999,17.186,42.195,17.487 M21.552,31.395
			c0.197,0.671,0.572,1.163,1.032,1.572c-0.287-0.534-0.649-0.998-0.896-1.572H21.552z"/>
		<path fill="#040504" d="M39.772,39.875c0.607-0.094,1.206-0.443,1.656-0.088c-0.313,0.431-1.067,0.424-1.522,0.714
			c-0.222-0.013-0.387,0.109-0.721,0.09c-0.157-0.009-0.122,0.18-0.264,0.182c-0.623-0.105-1.238,0.062-1.527-0.362
			C37.729,39.676,38.823,40.019,39.772,39.875"/>
		<path fill="#040504" d="M41.072,25.204c-0.098,0.31-0.529-0.015-0.675,0.088c0.007,0.172,0.251,0.108,0.315,0.227
			c0.034,0.212-0.063,0.293-0.135,0.403c-0.308-0.219-0.75,0.279-1.12,0.135c0.038-0.471,0.617-0.399,0.852-0.675
			c-0.283-0.325-0.881,0.034-0.94,0.358c-0.184,0.017-0.335,0.003-0.409-0.088c0.119-0.246,0.379-0.339,0.497-0.582
			c0.354,0.055,0.315-0.034,0.583-0.092C40.257,25.365,40.815,24.883,41.072,25.204"/>
		<path fill="#040504" d="M39.815,31.843c0.503,0.105,1,0.623,0.852,1.209c-0.996-0.275-1.692-0.191-2.421,0.317
			c-0.259-0.212,0.009-0.512,0-0.855C38.59,32.123,39.057,31.686,39.815,31.843"/>
		<path fill="#040504" d="M39.995,20.447c0.039,0.098,0.118,0.152,0.088,0.314c-0.073,0.074-0.263,0.036-0.403,0.043
			C39.611,20.635,39.699,20.387,39.995,20.447"/>
		<path fill="#040504" d="M40.396,61.188c-0.788-0.347-1.943-0.019-2.6,0.403C38.339,61.081,39.631,60.555,40.396,61.188"/>
		<path fill="#040504" d="M39.185,35.793c0.053,0.319-0.127,0.407-0.356,0.448c-0.088-0.108-0.169-0.223-0.137-0.448
			C38.785,35.724,39.097,35.724,39.185,35.793"/>
		<path fill="#040504" d="M39.14,19.416c0.122,0.188-0.009,0.452,0,0.671c-0.336,0.101-0.302-0.172-0.538-0.176
			c-0.186,0.234,0.208,0.266,0.18,0.492c-0.23,0.075-0.322-0.166-0.673-0.043c-0.015-0.086-0.127-0.084-0.088-0.227
			c-0.131-0.007-0.229,0.013-0.27,0.092c-0.135-0.06-0.214-0.178-0.18-0.403c0.232-0.105,0.422,0.084,0.538,0.221
			C38.468,19.851,38.731,19.556,39.14,19.416"/>
		<path fill="#040504" d="M38.648,20.762v0.225c-0.186,0.116-0.492,0.03-0.403-0.271C38.419,20.676,38.522,20.661,38.648,20.762"/>
		<path fill="#040504" d="M38.468,36.151c0.019,0.199-0.032,0.327-0.092,0.448c-0.341,0.013-0.521-0.135-0.714-0.27
			c-0.459,0.09-0.448,0.857-1.032,0.673c-0.33,0.107-0.568,0.302-0.72,0.58c-0.401,0.037-0.518,0.356-0.494,0.81
			c-0.641,0.045-0.491,0.88-0.852,1.212h-0.54c-0.18-0.321-0.583-0.313-0.628-0.673c-0.062-0.54,0.549-0.816,0.986-1.03
			c0.075-0.748,0.712-0.936,1.078-1.394h0.403c0.349-0.435,1.477-1.048,1.75-0.266C37.865,36.078,38.187,35.938,38.468,36.151"/>
		<path fill="#040504" d="M37.705,32.785c-0.013,0.251-0.009,0.488,0.092,0.63c-0.079,0.04-0.141,0.1-0.182,0.176
			c-0.964-0.088-1.692,0.073-2.423,0.405c0.036,0.145,0.251,0.107,0.358,0.18c0.011,0.165,0.062,0.172,0,0.315
			c-0.617,0.159-1.561,0.094-1.705-0.495c0.055-0.325,0.364-0.323,0.634-0.493c0.593-0.385,1.271-1.366,2.328-0.719
			c0.227-0.092,0.545-0.007,0.675,0.137C37.646,32.969,37.553,32.753,37.705,32.785"/>
		<path fill="#040504" d="M35.775,34.537c-0.169-0.543,0.582-0.489,0.494-0.045C36.176,34.572,35.94,34.521,35.775,34.537"/>
		<path fill="#040504" d="M33.935,57.913c0.643,0.596,1.065,1.806,1.794,2.466C34.972,59.894,34.562,58.68,33.935,57.913"/>
		<path fill="#040504" d="M34.479,30.543c0.083,0.164-0.032,0.306-0.096,0.448c-0.148-0.077-0.306-0.013-0.448,0.043
			c0.011,0.047,0.03,0.084,0.054,0.118c-0.051-0.009-0.101-0.013-0.161-0.013c-0.09,0-0.176,0.013-0.257,0.034
			c-0.542-0.25-1.254,0.396-1.607,0.265c-0.418,0.437-1.348,0.358-1.662,0.898c-0.409-0.153-0.5,0.192-0.941,0.135
			c-0.191-0.636,0.611-0.638,0.808-1.033c0.809-0.088,1.097-0.88,2.019-0.719c0.141-0.024,0.221-0.105,0.268-0.221
			c0.325,0.063,0.927,0.068,1.122-0.139C33.725,30.575,34.216,30.442,34.479,30.543"/>
		<path fill="#040504" d="M32.725,27.582h-1.032c0.017,0.277-0.092,0.482-0.27,0.671c-0.096,0.081-0.23-0.069-0.36-0.09
			c-0.251,0.209-0.745,0.184-0.985,0.401c-0.197-0.253-0.512-0.141-0.854-0.086c-0.052-0.1-0.114-0.184-0.09-0.358
			c0.23-0.084,0.527-0.101,0.854-0.09c0.075-0.075,0.056-0.246,0.133-0.313c0.576-0.129,1.169-0.238,1.347-0.765
			c0.551-0.086,0.758,0.098,1.125,0C32.575,27.205,32.672,27.306,32.725,27.582"/>
		<path fill="#040504" d="M28.867,28.657c0.105-0.092,0.345-0.045,0.403,0.045c-0.124,0.625-0.679,0.82-0.762,1.482
			c-0.089,0.045-0.193,0.079-0.225,0.176c0.065,0.426,0.049,0.763-0.358,0.81c-0.199-0.773,0.321-1.553,0.583-2.153
			c0.107-0.026,0.203-0.065,0.358-0.045C28.985,28.85,28.644,28.774,28.867,28.657"/>
		<path fill="#040504" d="M28.597,17.755c0.184-0.021,0.576-0.133,0.673,0.178c-0.291-0.024-0.782-0.281-0.986,0.135
			c-1.189-0.174-2.258,0.094-2.963,0.538h-0.267c-1.395,0.533-2.646,1.446-3.682,2.559c-0.096,0.499-0.502,0.69-0.76,1.031
			c-0.047,0.167,0.094,0.623-0.315,0.541c0.246-0.653,0.578-1.022,1.029-1.617c0.917-1.189,2.36-2.042,3.994-2.649
			c0.424-0.153,0.811-0.411,1.168-0.493c0.452-0.104,0.971,0.001,1.437-0.045C28.13,17.913,28.377,17.782,28.597,17.755"/>
		<path fill="#040504" d="M29.09,42.746c-0.177-0.184-0.274-0.44-0.405-0.673c-0.146,0.209-0.124,0.592-0.356,0.718
			c-0.91-0.003-1.345-0.482-1.57-1.168c-1.094-0.837-1.101-2.759-1.394-4.396c0.079,0.001,0.116-0.032,0.137-0.09
			c0.544,0.148,0.81,0.566,1.299,0.765c-0.168,0.278-0.172,0.724-0.403,0.94c-0.489,0.101-0.333-0.443-0.716-0.448
			c0.065,1.151,0.236,2.489,1.12,3.053c0.105,0.799,0.779,1.461,1.617,1.12c0.045-0.788-0.641-1.396-0.446-2.332
			c0.042-0.163-0.206-0.037-0.184-0.182c0.054-0.096,0.011-0.291,0.137-0.313c0.338,0.208,0.107,0.651,0.269,0.987
			C28.501,41.372,28.833,42.079,29.09,42.746"/>
		<path fill="#040504" d="M28.105,39.334c0.026,0.165-0.032,0.242-0.09,0.315c-0.197,0.032-0.251-0.08-0.317-0.178
			C27.727,39.256,27.966,39.203,28.105,39.334"/>
		<path fill="#040504" d="M27.608,38.348c0.038,0.128,0.259,0.072,0.225,0.272c-0.356-0.141-0.291,0.386-0.628,0.403
			c-0.261-0.227-0.16-0.547-0.267-0.943c0.255-0.041,0.337-0.257,0.446-0.45C27.661,37.665,27.698,38.093,27.608,38.348"/>
		<path fill="#040504" d="M21.732,24.528c-0.086,0.002-0.054,0.125-0.18,0.09c-0.234-0.086-0.504-0.3-0.719-0.266
			c-0.082-0.145-0.187-0.251-0.041-0.405C21.269,23.925,21.601,24.101,21.732,24.528"/>
		<path fill="#040504" d="M20.522,23.589c0.051,0.1,0.116,0.182,0.09,0.358c-0.073,0.091-0.225,0.104-0.405,0.09
			c-0.049-0.191-0.186-0.295-0.267-0.448c-0.188,0.437-0.504,1.299-0.047,1.748c0.032,0.274-0.141,0.339-0.272,0.448
			c0.034,0.208,0.039,0.442,0.09,0.63c0.139,0.03,0.133-0.079,0.272-0.045c0.049,0.055,0.088,0.351,0,0.403
			c-0.118,0.118-0.096-0.133-0.227-0.135c-0.204,0.277,0.053,0.758,0.227,1.033c0.186-0.008,0.372-0.017,0.448,0.088
			c0.017,0.186-0.098,0.234-0.18,0.315c-0.178-0.077-0.094-0.122-0.045-0.27c-0.141,0.021-0.16-0.081-0.313-0.045
			c-0.186-0.277-0.24-0.684-0.315-1.076v-0.987c0.063-1.088,0.039-2.262,0.583-2.872c0.131,0.208-0.206,0.328-0.221,0.536
			c0.09,0.051,0.426-0.052,0.356,0.272C20.404,23.653,20.395,23.549,20.522,23.589"/>
		<rect x="19.579" y="16.949" fill="none" width="35.4" height="44.642"/>
	</g>
</g>
<path fill="#FFFFFF" d="M7.863,15.34c0.439-0.152,0.856-0.15,1.252,0.008c0.132,0.099,0.173,0.235,0.125,0.408
	c-0.029,0.101-0.085,0.202-0.169,0.303c-0.087,0.053-0.414,0.175-0.979,0.366c-0.408,0.142-0.644,0.328-0.709,0.559
	c-0.026,0.094-0.26,0.859,0.541,1.175c0.173,0.1,1.506,0.047,2.28-0.138c0.742-0.176,1.301-0.274,1.675-0.292
	c0.598-0.035,1.114,0.072,1.548,0.323c0.427,0.246,0.745,0.581,0.955,1.004c0.221,0.465,0.154,1.317-0.018,1.741
	c-0.319,0.802-1.08,1.328-2.279,1.579c-0.54,0.055-1.038-0.048-1.493-0.311c-0.054-0.135-0.042-0.283,0.037-0.446
	c0.059-0.121,0.146-0.23,0.26-0.324c0.109-0.031,0.44-0.025,0.992,0.017c0.398,0.026,0.871-0.097,1.085-0.311
	c0.124-0.132,0.219-0.265,0.284-0.4c0.102-0.21,0.204-0.633,0.045-1.018c-0.137-0.333-0.437-0.524-0.617-0.628
	c-0.054-0.03-0.108-0.058-0.166-0.082c-0.424-0.175-0.958-0.188-1.604-0.04c-0.553,0.158-1.163,0.334-1.728,0.411
	c-0.774,0.104-1.527-0.089-2.012-0.271c-0.741-0.427-1.041-0.825-1.097-1.424c-0.019-0.192,0-0.381,0.052-0.569
	c0.097-0.346,0.301-0.667,0.613-0.965C7.048,15.718,7.424,15.493,7.863,15.34"/>
<path fill="#FFFFFF" d="M40.692,0.474c0.395,0.246,0.656,0.572,0.781,0.979c0.006,0.165-0.074,0.283-0.238,0.354
	c-0.097,0.041-0.211,0.061-0.342,0.058c-0.096-0.033-0.396-0.21-0.901-0.531c-0.367-0.227-0.66-0.294-0.88-0.199
	c-0.09,0.039-0.831,0.338-0.574,1.159c0.032,0.198,0.911,1.201,1.541,1.686c0.604,0.466,1.031,0.838,1.281,1.119
	c0.404,0.443,0.645,0.912,0.723,1.407c0.077,0.486,0.018,0.944-0.18,1.373c-0.222,0.464-0.927,0.948-1.364,1.082
	c-0.825,0.256-1.712-0.004-2.662-0.778c-0.382-0.386-0.615-0.837-0.697-1.356c0.07-0.127,0.193-0.211,0.369-0.252
	c0.131-0.031,0.271-0.032,0.417-0.002c0.092,0.065,0.296,0.326,0.611,0.783C38.807,7.68,39.2,7.97,39.5,8.002
	c0.181,0.013,0.345,0.003,0.491-0.031c0.227-0.053,0.62-0.24,0.819-0.604c0.172-0.316,0.132-0.669,0.1-0.875
	c-0.01-0.061-0.023-0.121-0.04-0.18c-0.13-0.439-0.457-0.864-0.979-1.272c-0.471-0.331-0.991-0.694-1.406-1.085
	c-0.568-0.535-0.892-1.243-1.055-1.735c-0.134-0.845-0.013-1.329,0.417-1.749c0.137-0.135,0.296-0.24,0.475-0.317
	c0.33-0.142,0.708-0.185,1.136-0.13S40.297,0.229,40.692,0.474"/>
<path fill="#FFFFFF" d="M11.407,11.326c0.414,0.235,1.205,0.745,2.371,1.531c0.96,0.652,1.767,1.131,2.422,1.436l0.074-0.069
	c-0.198-0.627-0.597-1.493-1.2-2.595c-0.634-1.138-1.047-1.996-1.24-2.575c-0.056-0.158-0.013-0.304,0.129-0.437
	c0.06-0.056,0.185-0.142,0.375-0.257c0.168-0.104,0.283-0.19,0.343-0.258c0.07-0.002,0.169-0.005,0.298-0.01
	c1.2,1.304,2.981,3.266,5.342,5.887c0.072,0.175-0.056,0.417-0.384,0.724c-0.221,0.07-0.417,0.031-0.585-0.117
	c-0.121-0.129-0.245-0.261-0.372-0.396c-0.268-0.309-0.631-0.696-1.089-1.164c-0.648-0.659-1.024-1.045-1.13-1.157
	c-0.038,0.014-0.065,0.029-0.081,0.044c-0.044,0.041-0.04,0.11,0.012,0.209c0.062,0.143,0.096,0.222,0.101,0.238
	c0.042,0.099,0.339,0.695,0.896,1.79c0.363,0.726,0.596,1.34,0.701,1.844c-0.05,0.099-0.115,0.187-0.197,0.263
	c-0.195,0.184-0.419,0.266-0.67,0.248c-0.387-0.207-0.997-0.575-1.83-1.104c-0.784-0.5-1.381-0.854-1.79-1.062
	c-0.038,0.036-0.041,0.081-0.01,0.137l0.102,0.141c0.269,0.266,0.608,0.633,1.019,1.104c0.483,0.56,0.812,0.933,0.985,1.118
	c0.164,0.174,0.319,0.34,0.466,0.498c0.089,0.139,0.058,0.279-0.094,0.42c-0.265,0.249-0.381,0.352-0.349,0.311
	c-0.085,0.005-0.208,0-0.368-0.02c-0.557-0.639-1.455-1.608-2.692-2.908c-1.195-1.254-2.09-2.227-2.684-2.916
	c-0.001-0.231,0.113-0.455,0.343-0.669C10.868,11.325,11.129,11.249,11.407,11.326"/>
<path fill="#FFFFFF" d="M26.286,10.76c-0.041,0.019-0.081,0.038-0.122,0.058c-0.047,0.022-0.109,0.052-0.187,0.088
	c-0.078,0.037-0.134,0.063-0.167,0.08c-0.128,0.061-0.263,0.056-0.403-0.015L24.03,9.438c-0.061-0.005-0.143-0.021-0.247-0.049
	c-0.18,0.128-0.52,0.294-1.02,0.497c-0.439,0.191-0.768,0.373-0.985,0.544c-0.029,0.27,0.041,0.697,0.21,1.281
	c0.157,0.556,0.209,0.992,0.159,1.305c-0.271,0.197-0.417,0.3-0.437,0.31c-0.169,0.081-0.336,0.079-0.5-0.005
	c-0.123-0.138-0.181-0.225-0.174-0.262c-0.154-0.762-0.49-2.133-1.007-4.113c-0.448-1.731-0.752-3.104-0.911-4.12
	c0.214-0.162,0.672-0.383,1.375-0.666c0.111,0.008,0.259,0.048,0.443,0.123c0.429,0.521,1.103,1.294,2.021,2.321
	c0.918,1.027,1.596,1.807,2.032,2.341c-0.018,0.051-0.016,0.097,0.004,0.139c0.023,0.049,0.103,0.103,0.238,0.162
	c0.135,0.059,0.224,0.113,0.264,0.163c0.032,0.138,0.162,0.307,0.389,0.506c0.25,0.213,0.399,0.369,0.445,0.466
	C26.388,10.506,26.374,10.633,26.286,10.76 M23.083,8.494c-0.262-0.361-0.635-0.807-1.119-1.336L20.77,5.82
	c-0.027,0.013-0.058,0.004-0.093-0.026c-0.035-0.03-0.059-0.034-0.073-0.01c0.074,0.435,0.195,0.987,0.363,1.656
	c0.244,0.933,0.384,1.48,0.419,1.643c-0.021,0.129,0.05,0.21,0.215,0.243c0.132-0.037,0.262-0.085,0.39-0.147
	c0.148-0.071,0.34-0.187,0.574-0.349C22.798,8.667,22.971,8.556,23.083,8.494"/>
<path fill="#FFFFFF" d="M26.333,1.996c0.315,0.942,0.656,2.062,1.022,3.36C27.658,6.48,27.96,7.6,28.261,8.717l0.224,0.111
	c0.185-0.011,0.392-0.052,0.62-0.125c0.071-0.023,0.178-0.057,0.321-0.103c0.143-0.045,0.246-0.078,0.31-0.099
	c0.449-0.143,0.834-0.144,1.154-0.004c0.126,0.226,0.201,0.373,0.222,0.438c0.054,0.169,0.029,0.314-0.074,0.436
	c-0.278,0.089-0.582,0.185-0.909,0.29c-0.756,0.241-1.536,0.433-2.34,0.575c-0.18-0.072-0.306-0.209-0.378-0.413
	c-0.125-0.34-0.192-0.517-0.204-0.529c-0.317-1.168-0.633-2.333-0.948-3.494c-0.364-1.363-0.7-2.529-1.008-3.498
	c-0.04-0.125,0.006-0.216,0.137-0.274c0.174-0.071,0.271-0.135,0.293-0.19C25.86,1.734,26.077,1.786,26.333,1.996"/>
<path fill="#FFFFFF" d="M32.987,0.547c0.131,0.985,0.253,2.149,0.366,3.493c0.084,1.162,0.167,2.319,0.25,3.472l0.199,0.151
	c0.184,0.024,0.395,0.023,0.633-0.005c0.074-0.009,0.186-0.022,0.335-0.04c0.148-0.018,0.257-0.03,0.323-0.038
	c0.469-0.055,0.847,0.017,1.134,0.215c0.082,0.247,0.127,0.404,0.135,0.473c0.021,0.176-0.031,0.314-0.155,0.414
	c-0.29,0.034-0.606,0.071-0.948,0.112c-0.788,0.092-1.59,0.133-2.406,0.12c-0.163-0.105-0.261-0.264-0.293-0.477
	c-0.057-0.357-0.09-0.544-0.1-0.558c-0.089-1.208-0.178-2.411-0.267-3.61c-0.098-1.408-0.206-2.616-0.325-3.626
	c-0.015-0.13,0.047-0.211,0.187-0.243c0.184-0.037,0.292-0.081,0.324-0.131C32.573,0.201,32.776,0.293,32.987,0.547"/>
<path fill="#FFFFFF" d="M53.424,3.978c-0.417,0.902-0.938,1.951-1.562,3.146c-0.552,1.026-1.101,2.047-1.648,3.066l0.086,0.234
	c0.142,0.12,0.321,0.231,0.537,0.335c0.067,0.033,0.168,0.081,0.304,0.146c0.134,0.065,0.232,0.112,0.293,0.141
	c0.425,0.204,0.706,0.467,0.842,0.789c-0.063,0.252-0.109,0.409-0.139,0.471c-0.077,0.16-0.194,0.249-0.352,0.267
	c-0.264-0.126-0.551-0.264-0.861-0.414c-0.715-0.344-1.414-0.739-2.096-1.187c-0.082-0.176-0.079-0.363,0.007-0.56
	c0.144-0.333,0.215-0.508,0.215-0.525c0.571-1.066,1.141-2.13,1.708-3.19c0.671-1.241,1.228-2.32,1.668-3.236
	c0.057-0.118,0.153-0.153,0.287-0.105c0.175,0.067,0.29,0.088,0.344,0.063C53.26,3.463,53.382,3.65,53.424,3.978"/>
<path fill="#FFFFFF" d="M58.957,7.094c-0.214,0.339-0.442,0.7-0.686,1.084c-0.329,0.521-0.812,1.313-1.45,2.377
	c-0.637,1.064-1.121,1.856-1.45,2.377c-0.247,0.391-0.481,0.753-0.701,1.088c-0.096,0.067-0.211,0.067-0.345,0
	c-0.135-0.068-0.27-0.134-0.405-0.202c-0.117-0.138-0.166-0.277-0.146-0.42c0.005-0.079,0.054-0.191,0.147-0.337
	c0.092-0.146,0.146-0.26,0.163-0.342c0.402-0.72,1.048-1.756,1.938-3.107c0.889-1.351,1.535-2.387,1.938-3.108
	c0.081-0.03,0.166-0.061,0.256-0.091c0.089-0.03,0.173-0.024,0.252,0.017c0.094,0.087,0.188,0.174,0.283,0.261
	C58.873,6.804,58.941,6.938,58.957,7.094"/>
<path fill="#FFFFFF" d="M62.154,9.659c-0.362,0.539-0.92,1.438-1.675,2.697c-0.723,1.205-1.29,2.103-1.699,2.693
	c0.044,0.165,0.078,0.247,0.099,0.248c0.675-0.348,1.612-0.865,2.811-1.554c1.297-0.741,2.236-1.269,2.817-1.583
	c0.216-0.118,0.428-0.065,0.636,0.161c0.041,0.043,0.093,0.107,0.159,0.189c0.08,0.11,0.135,0.181,0.166,0.214
	c0.036,0.13,0.014,0.231-0.066,0.304c-0.028,0.026-0.073,0.058-0.134,0.094c-0.061,0.036-0.105,0.067-0.134,0.093
	c-1.519,0.841-3.791,2.128-6.814,3.859c-0.235,0.075-0.488-0.034-0.756-0.325c-0.122-0.132-0.279-0.354-0.473-0.666
	c-0.028-0.076-0.04-0.156-0.035-0.242c0.984-1.602,2.416-3.906,4.293-6.914c0.077-0.03,0.158-0.064,0.244-0.103
	c0.085-0.038,0.168-0.042,0.248-0.013c0.031,0.023,0.059,0.048,0.085,0.075C62.069,9.042,62.145,9.299,62.154,9.659"/>
<path fill="#FFFFFF" d="M69.212,17.517c0.078,0.225-0.013,0.419-0.274,0.584c-0.059,0.037-0.111,0.062-0.158,0.074
	c-0.322-0.062-0.659-0.359-1.012-0.889c-0.479-0.716-0.777-1.13-0.893-1.243c-0.712,0.388-1.369,0.833-1.971,1.336l-0.017,0.169
	c0.092,0.146,0.224,0.341,0.397,0.586c0.188,0.271,0.321,0.466,0.397,0.586c0.156,0.247,0.271,0.48,0.345,0.699
	c-0.057,0.213-0.266,0.402-0.626,0.567c-0.038-0.002-0.098-0.004-0.181-0.005c-0.12-0.146-0.339-0.459-0.66-0.938
	c-0.274-0.42-0.504-0.727-0.689-0.919c-0.288,0.093-0.597,0.244-0.93,0.454c-0.163,0.103-0.581,0.407-1.255,0.911
	c-0.008,0.059-0.021,0.146-0.039,0.264c0.694,1.014,1.098,1.632,1.21,1.853c0.049,0.208-0.001,0.359-0.151,0.454
	c-0.026,0.017-0.071,0.04-0.133,0.071c-0.062,0.03-0.107,0.054-0.133,0.07c-0.072,0.045-0.125,0.097-0.162,0.155
	c-0.039-0.003-0.103-0.011-0.193-0.024l-1.929-2.82c-0.05-0.296,0.071-0.537,0.364-0.722c0.026-0.016,0.065-0.041,0.118-0.074
	c0.052-0.032,0.091-0.057,0.117-0.074c0.117-0.074,0.203-0.146,0.259-0.216l5.954-3.835c0.081-0.016,0.197-0.005,0.349,0.032
	c0.324,0.486,0.647,0.968,0.968,1.448C68.676,16.646,68.985,17.128,69.212,17.517"/>
<path fill="#FFFFFF" d="M7.625,40.016c-0.372,0.305-0.812,0.47-1.32,0.497c-0.138-0.038-0.207-0.158-0.206-0.359
	c0-0.06,0.01-0.153,0.031-0.279c0.021-0.127,0.031-0.209,0.031-0.247c0.101-0.082,0.278-0.175,0.531-0.282
	c0.253-0.106,0.43-0.201,0.532-0.282c0.164-0.141,0.25-0.316,0.259-0.524c0.035-0.582-0.063-0.982-0.293-1.2
	c-0.64-0.138-1.476-0.221-2.51-0.25c-0.856-0.02-1.713-0.04-2.569-0.06c-0.163,0.059-0.333,0.121-0.511,0.187
	c-0.178,0.066-0.286,0.185-0.326,0.356c-0.079,0.178-0.118,0.368-0.119,0.569c-0.001,0.089,0.051,0.402,0.156,0.939
	c0.407,0.151,1.088,0.205,2.044,0.158c0.054-0.082,0.121-0.269,0.2-0.561c0.063-0.232,0.171-0.399,0.326-0.503
	c0.254,0.009,0.396,0.018,0.427,0.025c0.154,0.023,0.273,0.087,0.357,0.193c-0.005,0.914-0.067,1.535-0.184,1.864
	C4.427,40.42,4.299,40.501,4.099,40.5c0.007,0-0.089-0.008-0.289-0.024c-0.308-0.032-0.858-0.058-1.651-0.077
	c-0.708-0.012-1.255-0.045-1.64-0.1c-0.161-0.166-0.271-0.428-0.331-0.788c-0.044-0.308-0.093-0.611-0.145-0.91
	c-0.03-0.12-0.045-0.24-0.043-0.36c0.003-0.599,0.373-1.249,1.109-1.948c0.302-0.23,0.722-0.37,1.262-0.419
	c0.531-0.004,1.344,0.026,2.437,0.093c1.055,0.059,1.863,0.086,2.426,0.082c0.346,0.077,0.653,0.241,0.921,0.494
	s0.428,0.548,0.48,0.885c0.03,0.165,0.044,0.326,0.043,0.483C8.673,38.734,8.322,39.436,7.625,40.016"/>
<path fill="#FFFFFF" d="M9.059,46.612c-0.493,0.409-1.014,0.675-1.562,0.797c-0.609,0.135-1.17,0.08-1.682-0.167
	c-0.489,0.462-1.147,0.785-1.974,0.969c-0.105,0.023-0.263,0.059-0.473,0.105c-0.211,0.047-0.368,0.082-0.474,0.105
	C2.6,48.488,2.341,48.55,2.117,48.607c-0.145-0.013-0.259-0.101-0.343-0.263c-0.014-0.027-0.063-0.178-0.148-0.453
	c0.073-0.272,0.232-0.428,0.476-0.468c0.371-0.067,0.584-0.119,0.64-0.154c0.178-0.085,0.399-0.156,0.663-0.215
	c0.06-0.013,0.157-0.035,0.292-0.065c0.128-0.028,0.226-0.05,0.293-0.065c0.443-0.099,0.801-0.263,1.074-0.494
	c0.072-0.208,0.078-0.445,0.019-0.709c-0.026-0.118-0.082-0.296-0.167-0.536S4.78,44.763,4.76,44.636
	c-0.087-0.073-0.19-0.108-0.308-0.105c-0.299,0.074-0.875,0.237-1.726,0.488c-0.719,0.206-1.294,0.354-1.724,0.441
	c-0.149,0.003-0.256-0.077-0.32-0.239c-0.063-0.163-0.122-0.326-0.174-0.491c0.041-0.208,0.154-0.352,0.342-0.433
	c0.165-0.037,0.33-0.078,0.494-0.122c1.048-0.287,3.44-0.92,7.176-1.898c0.1,0.024,0.158,0.038,0.175,0.042
	c0.068,0.023,0.116,0.059,0.143,0.106c0.04,0.252,0.142,0.605,0.307,1.059c0.171,0.484,0.281,0.835,0.33,1.054
	C9.647,45.322,9.509,46.013,9.059,46.612 M8.308,45.79c0.095-0.244,0.111-0.508,0.047-0.793c-0.026-0.117-0.088-0.309-0.187-0.574
	s-0.161-0.473-0.185-0.62c-0.218-0.028-0.466-0.012-0.743,0.05c-0.352,0.078-0.776,0.234-1.273,0.468
	c0.034,0.115,0.067,0.28,0.099,0.496c0.042,0.259,0.072,0.429,0.09,0.509c0.067,0.3,0.168,0.523,0.303,0.669
	c0.203,0.208,0.473,0.274,0.81,0.2C7.335,46.179,7.682,46.044,8.308,45.79"/>
<path fill="#FFFFFF" d="M12.218,51.64c0.049,0.233-0.065,0.415-0.344,0.546c-0.063,0.029-0.118,0.046-0.167,0.053
	c-0.312-0.102-0.609-0.438-0.894-1.007c-0.387-0.77-0.631-1.217-0.733-1.343c-0.754,0.296-1.461,0.657-2.121,1.083l-0.037,0.167
	c0.073,0.155,0.18,0.366,0.321,0.63c0.154,0.292,0.261,0.502,0.322,0.631c0.124,0.264,0.209,0.509,0.255,0.736
	c-0.083,0.204-0.313,0.366-0.691,0.485c-0.037-0.007-0.097-0.016-0.178-0.027c-0.101-0.16-0.281-0.497-0.54-1.012
	c-0.22-0.451-0.411-0.784-0.57-0.998c-0.297,0.057-0.623,0.168-0.979,0.335C5.69,52,5.237,52.25,4.506,52.667
	c-0.016,0.057-0.04,0.142-0.071,0.257c0.563,1.092,0.887,1.754,0.971,1.988c0.023,0.212-0.045,0.356-0.206,0.431
	c-0.028,0.013-0.075,0.031-0.141,0.054c-0.066,0.022-0.113,0.041-0.141,0.054c-0.077,0.036-0.137,0.081-0.18,0.134
	c-0.037-0.007-0.1-0.023-0.188-0.048L2.986,52.5c-0.014-0.3,0.137-0.523,0.451-0.67c0.028-0.013,0.07-0.033,0.125-0.059
	c0.056-0.026,0.098-0.046,0.125-0.059c0.125-0.059,0.22-0.12,0.284-0.183l6.382-3.071c0.082-0.006,0.196,0.02,0.342,0.075
	c0.262,0.522,0.522,1.041,0.782,1.556C11.793,50.71,12.041,51.227,12.218,51.64"/>
<path fill="#FFFFFF" d="M15.751,56.593c0.097,0.218,0.023,0.419-0.223,0.605c-0.055,0.042-0.105,0.071-0.151,0.087
	c-0.326-0.035-0.687-0.302-1.083-0.8c-0.539-0.672-0.871-1.06-0.996-1.162c-0.676,0.447-1.293,0.946-1.85,1.5l-0.001,0.17
	c0.104,0.137,0.252,0.321,0.446,0.55c0.211,0.253,0.359,0.437,0.445,0.55c0.176,0.232,0.311,0.455,0.404,0.667
	c-0.039,0.217-0.23,0.423-0.575,0.619c-0.038,0-0.099,0.003-0.181,0.01c-0.131-0.135-0.377-0.428-0.738-0.878
	c-0.31-0.395-0.564-0.681-0.766-0.857c-0.279,0.117-0.574,0.294-0.887,0.531C9.441,58.302,9.05,58.64,8.421,59.2
	c-0.003,0.06-0.009,0.148-0.016,0.266c0.778,0.951,1.232,1.532,1.363,1.743c0.067,0.203,0.03,0.358-0.111,0.465
	c-0.025,0.019-0.066,0.045-0.126,0.082s-0.102,0.063-0.126,0.082c-0.068,0.051-0.117,0.107-0.148,0.168
	c-0.038,0.001-0.103-0.002-0.194-0.007l-2.163-2.646c-0.075-0.29,0.025-0.54,0.302-0.75c0.024-0.019,0.061-0.046,0.11-0.083
	s0.086-0.065,0.111-0.083c0.11-0.084,0.19-0.164,0.24-0.239l5.604-4.33c0.079-0.023,0.196-0.022,0.35,0.002
	c0.365,0.457,0.728,0.91,1.088,1.36C15.143,55.772,15.492,56.226,15.751,56.593"/>
<path fill="#FFFFFF" d="M18.337,59.381c-0.526,0.98-1.264,2.427-2.213,4.339c0.054,0.043,0.102,0.043,0.146,0
	c0.017-0.016,0.039-0.048,0.067-0.097c0.028-0.049,0.05-0.081,0.066-0.098c0.017-0.016,0.032-0.027,0.047-0.035
	c0.275-0.237,0.564-0.503,0.866-0.801c0.279-0.275,0.991-1.04,2.135-2.294c0.288-0.157,0.555-0.111,0.802,0.14
	c0.047,0.047,0.092,0.104,0.134,0.168c0.135,0.214,0.062,0.464-0.218,0.75c-1.17,1.227-2.943,3.06-5.321,5.497
	c-0.165,0.173-0.374,0.153-0.627-0.06c-0.206-0.187-0.408-0.376-0.608-0.568c-0.084-0.316-0.029-0.639,0.166-0.967
	c0.172-0.264,0.347-0.531,0.525-0.801c0.269-0.527,0.678-1.325,1.227-2.392c-0.019-0.052-0.038-0.088-0.058-0.108
	c-0.045-0.045-0.106-0.03-0.183,0.046c-0.016,0.016-0.071,0.07-0.165,0.162c-0.066,0.076-0.115,0.125-0.148,0.146
	c-0.567,0.58-1.413,1.466-2.536,2.657c-0.228,0.088-0.473-0.001-0.736-0.268c-0.053-0.053-0.103-0.11-0.149-0.168
	c-0.068-0.112-0.067-0.239,0-0.379c0.011-0.021,0.078-0.119,0.2-0.292c1.983-1.976,3.778-3.835,5.386-5.577
	c0.356-0.067,0.733,0.134,1.131,0.604C18.303,59.073,18.324,59.204,18.337,59.381"/>
<path fill="#FFFFFF" d="M28.363,65.916c-0.553,0.922-1.293,2.017-2.221,3.287c-0.777,1.052-1.552,2.108-2.326,3.17
	c-0.153,0.156-0.354,0.172-0.602,0.048c-0.06-0.03-0.196-0.111-0.406-0.242c-0.167-0.118-0.297-0.191-0.392-0.222
	c-0.1-0.084-0.156-0.215-0.167-0.394c0.28-0.997,0.708-2.5,1.285-4.511c0.011-0.106-0.01-0.174-0.063-0.2
	c-0.1-0.05-0.178-0.02-0.233,0.09c-0.086,0.172-0.25,0.411-0.49,0.717c-0.241,0.306-0.405,0.562-0.491,0.768
	c-0.249,0.247-0.546,0.614-0.891,1.105c-0.407,0.58-0.693,0.966-0.857,1.16c-0.164,0.194-0.382,0.222-0.657,0.084
	c-0.074-0.036-0.183-0.104-0.326-0.202c-0.144-0.097-0.252-0.165-0.326-0.202c-0.067-0.033-0.132-0.054-0.196-0.059
	c-0.109-0.132-0.162-0.262-0.157-0.389c0.423-1.297,0.844-2.591,1.264-3.882c0.5-1.552,0.948-2.807,1.343-3.765
	c0.152-0.087,0.386-0.043,0.701,0.131c0.076,0.132,0.128,0.236,0.158,0.312c0.049,0.136,0.062,0.254,0.037,0.354
	c-0.408,0.933-0.926,2.53-1.554,4.791c0.016,0.051,0.034,0.082,0.055,0.092c0.02,0.01,0.075-0.023,0.163-0.1
	c0.681-0.893,1.685-2.247,3.01-4.061c0.161-0.222,0.386-0.26,0.673-0.116c0.047,0.024,0.131,0.072,0.254,0.146
	c0.122,0.074,0.214,0.124,0.278,0.146c0.036,0.079,0.092,0.21,0.167,0.395c-0.341,1.167-0.809,2.84-1.405,5.019
	c0.017,0.017,0.016,0.085-0.002,0.206c-0.008,0.082,0.031,0.132,0.114,0.148c0.407-0.479,0.968-1.207,1.684-2.187
	c0.743-1,1.303-1.726,1.679-2.176c0.123-0.145,0.269-0.176,0.436-0.092C28.135,65.4,28.289,65.611,28.363,65.916"/>
<path fill="#FFFFFF" d="M31.304,66.282c-0.075,0.394-0.155,0.813-0.24,1.26c-0.116,0.605-0.275,1.52-0.478,2.743
	c-0.203,1.224-0.362,2.138-0.478,2.743c-0.086,0.454-0.171,0.877-0.253,1.269c-0.064,0.098-0.172,0.14-0.322,0.127
	s-0.3-0.026-0.45-0.039c-0.159-0.085-0.255-0.197-0.29-0.337c-0.023-0.075-0.019-0.198,0.014-0.368
	c0.032-0.17,0.041-0.296,0.026-0.377c0.111-0.818,0.332-2.019,0.665-3.602c0.333-1.583,0.554-2.784,0.664-3.602
	c0.064-0.059,0.132-0.118,0.204-0.179s0.152-0.087,0.241-0.078c0.12,0.046,0.239,0.093,0.358,0.139
	C31.12,66.043,31.232,66.143,31.304,66.282"/>
<path fill="#FFFFFF" d="M37.156,67.565c0.158,0.16,0.272,0.389,0.342,0.684c0.026,0.093,0.069,0.334,0.128,0.722
	c-0.013,0.146-0.099,0.225-0.256,0.238s-0.312,0.024-0.462,0.034c-0.123-0.112-0.283-0.419-0.481-0.92
	c-0.156-0.399-0.395-0.632-0.714-0.699c-0.133-0.029-0.264-0.045-0.391-0.05c-0.449-0.018-0.817,0.087-1.103,0.315
	c-0.183,0.64-0.294,1.464-0.334,2.473c-0.009,0.238-0.023,0.595-0.042,1.067c-0.019,0.474-0.033,0.83-0.042,1.068
	c-0.01,0.254-0.019,0.485-0.027,0.693c0.045,0.195,0.145,0.379,0.299,0.556c0.154,0.175,0.325,0.283,0.512,0.32
	c0.142,0.029,0.28,0.046,0.415,0.051c0.48,0.019,0.86-0.085,1.14-0.313c0.109-0.088,0.176-0.367,0.202-0.836
	c0.016-0.393,0.128-0.585,0.338-0.577c0.128,0.005,0.298,0.065,0.512,0.183c0.151,0.16,0.222,0.371,0.211,0.632
	c-0.002,0.062-0.01,0.152-0.022,0.271c-0.012,0.12-0.019,0.206-0.021,0.259c-0.003,0.069-0.002,0.131,0.003,0.186
	c-0.064,0.298-0.21,0.564-0.439,0.797c-0.229,0.234-0.495,0.391-0.796,0.472c-0.262,0.021-0.504,0.026-0.728,0.018
	c-0.908-0.036-1.641-0.366-2.198-0.989c-0.4-0.447-0.587-0.986-0.563-1.617c0.005-0.123,0.013-0.315,0.023-0.577
	s0.018-0.455,0.023-0.578c0.007-0.184,0.014-0.35,0.02-0.497c0.054-0.244,0.089-0.562,0.105-0.955
	c0.005-0.131,0.013-0.329,0.023-0.595s0.018-0.463,0.023-0.594c0.025-0.639,0.123-1.121,0.292-1.446
	c0.226-0.438,0.613-0.708,1.162-0.81c0.307-0.018,0.561-0.024,0.762-0.016C35.979,66.57,36.674,66.914,37.156,67.565"/>
<path fill="#FFFFFF" d="M40.772,66.95c-0.014-0.06,0.043,0.476,0.172,1.609c0.073,0.642,0.177,1.185,0.31,1.627l0.157,0.087
	c0.044-0.005,0.367-0.054,0.966-0.145c0.401-0.053,0.701-0.134,0.899-0.242c-0.05-0.374-0.123-0.936-0.22-1.684
	c-0.096-0.749-0.169-1.306-0.218-1.673c0.013-0.211,0.158-0.332,0.433-0.363c0.074-0.009,0.174-0.012,0.299-0.011
	c0.124,0.001,0.208,0,0.253-0.005c0.187,0.049,0.307,0.252,0.363,0.61c0.024,0.408,0.063,0.853,0.118,1.334
	c0.058,0.514,0.166,1.28,0.324,2.301c0.157,1.021,0.265,1.784,0.323,2.289c0.076,0.673,0.119,1.281,0.128,1.822
	c-0.032,0.12-0.141,0.194-0.325,0.223c-0.149,0.017-0.298,0.034-0.446,0.051c-0.28-0.077-0.436-0.249-0.466-0.517
	c-0.006-0.054-0.001-0.107,0.015-0.164c-0.062-0.613-0.197-1.536-0.405-2.768c-0.024-0.013-0.063-0.034-0.114-0.063
	c-0.053-0.029-0.091-0.049-0.115-0.062l-1.701,0.251c-0.137,0.054-0.19,0.153-0.158,0.297c0.009,0.077,0.082,0.619,0.219,1.626
	c0.083,0.665,0.13,1.206,0.14,1.624c-0.06,0.139-0.171,0.217-0.334,0.236c0.067-0.008-0.088-0.006-0.463,0.006
	c-0.192-0.032-0.328-0.102-0.408-0.209c-0.139-0.961-0.308-2.279-0.506-3.954c-0.219-1.859-0.384-3.173-0.494-3.944
	c-0.031-0.275,0.102-0.43,0.399-0.464C40.258,66.637,40.544,66.728,40.772,66.95"/>
<path fill="#FFFFFF" d="M50.276,64.229c0.439,0.479,1.183,1.232,2.23,2.261c1.001,0.985,1.741,1.747,2.219,2.283
	c0.17-0.004,0.258-0.018,0.264-0.039c-0.179-0.737-0.463-1.77-0.851-3.096c-0.417-1.435-0.71-2.472-0.878-3.11
	c-0.064-0.238,0.038-0.432,0.305-0.581c0.052-0.029,0.126-0.065,0.221-0.11c0.125-0.052,0.208-0.088,0.246-0.11
	c0.135-0.004,0.228,0.04,0.281,0.134c0.019,0.034,0.039,0.084,0.059,0.152s0.041,0.119,0.059,0.152
	c0.462,1.674,1.18,4.184,2.155,7.529c0.017,0.246-0.148,0.466-0.494,0.659c-0.157,0.087-0.409,0.188-0.757,0.303
	c-0.081,0.01-0.162,0.002-0.244-0.023c-1.327-1.333-3.231-3.264-5.715-5.794c-0.011-0.082-0.025-0.169-0.042-0.261
	c-0.017-0.092-0.002-0.173,0.045-0.243c0.029-0.025,0.06-0.046,0.093-0.065C49.655,64.167,49.924,64.153,50.276,64.229"/>
<path fill="#FFFFFF" d="M56.157,60.08c0.247,0.315,0.51,0.652,0.79,1.01c0.38,0.485,0.964,1.207,1.751,2.165
	s1.372,1.679,1.751,2.165c0.285,0.364,0.547,0.706,0.789,1.026c0.031,0.113-0.007,0.222-0.116,0.326
	c-0.108,0.104-0.217,0.209-0.325,0.313c-0.168,0.064-0.317,0.062-0.445-0.004c-0.072-0.031-0.162-0.115-0.269-0.252
	c-0.107-0.137-0.196-0.226-0.267-0.268c-0.543-0.621-1.301-1.578-2.275-2.87c-0.973-1.292-1.731-2.249-2.275-2.87
	c-0.001-0.086-0.001-0.177,0-0.271c0.002-0.094,0.035-0.172,0.101-0.232c0.113-0.06,0.227-0.119,0.341-0.179
	C55.855,60.062,56.005,60.042,56.157,60.08"/>
<path fill="#FFFFFF" d="M58.463,57.789c0.747,0.655,1.605,1.452,2.575,2.388c0.828,0.819,1.652,1.635,2.474,2.449l0.249-0.017
	c0.155-0.103,0.313-0.242,0.474-0.42c0.05-0.055,0.125-0.139,0.226-0.25c0.101-0.11,0.174-0.191,0.218-0.241
	c0.316-0.35,0.648-0.544,0.995-0.584c0.224,0.132,0.361,0.221,0.413,0.268c0.132,0.119,0.184,0.256,0.156,0.413
	c-0.196,0.216-0.41,0.453-0.64,0.708c-0.532,0.589-1.11,1.146-1.731,1.674c-0.192,0.029-0.371-0.027-0.536-0.167
	c-0.279-0.231-0.426-0.349-0.442-0.354c-0.862-0.85-1.721-1.697-2.578-2.542c-1-0.995-1.877-1.833-2.631-2.516
	c-0.097-0.088-0.104-0.189-0.02-0.305c0.114-0.149,0.167-0.253,0.158-0.312C57.923,57.8,58.137,57.736,58.463,57.789"/>
<path fill="#FFFFFF" d="M61.605,54.154c0.825,0.553,1.779,1.232,2.862,2.037c0.926,0.705,1.85,1.408,2.77,2.109l0.245-0.049
	c0.14-0.121,0.278-0.28,0.415-0.478c0.042-0.062,0.106-0.154,0.192-0.277c0.085-0.123,0.147-0.212,0.185-0.268
	c0.269-0.388,0.573-0.624,0.912-0.708c0.239,0.102,0.387,0.172,0.444,0.211c0.146,0.102,0.215,0.231,0.208,0.39
	c-0.166,0.24-0.347,0.501-0.543,0.785c-0.452,0.652-0.952,1.28-1.501,1.884c-0.186,0.053-0.371,0.021-0.552-0.096
	c-0.306-0.193-0.468-0.292-0.485-0.294c-0.964-0.731-1.925-1.461-2.883-2.188c-1.12-0.858-2.099-1.576-2.934-2.155
	c-0.107-0.074-0.127-0.174-0.059-0.3c0.094-0.162,0.132-0.272,0.116-0.33C61.072,54.235,61.275,54.144,61.605,54.154"/>
<path fill="#FFFFFF" d="M73.177,49.756c-0.02,0.041-0.039,0.081-0.058,0.121c-0.023,0.047-0.053,0.109-0.09,0.187
	c-0.038,0.078-0.064,0.133-0.081,0.167c-0.061,0.127-0.169,0.208-0.323,0.242l-2.033-0.33c-0.051,0.034-0.125,0.073-0.223,0.117
	c-0.06,0.212-0.221,0.555-0.482,1.027c-0.223,0.425-0.364,0.772-0.426,1.042c0.146,0.229,0.469,0.517,0.967,0.866
	c0.471,0.336,0.786,0.641,0.943,0.917c-0.088,0.323-0.137,0.495-0.146,0.515c-0.081,0.169-0.212,0.272-0.393,0.31
	c-0.183-0.03-0.283-0.062-0.301-0.096c-0.598-0.497-1.72-1.354-3.364-2.571c-1.435-1.066-2.533-1.945-3.294-2.637
	c0.065-0.259,0.283-0.719,0.653-1.38c0.091-0.064,0.231-0.125,0.422-0.184c0.662,0.136,1.671,0.316,3.03,0.54
	s2.376,0.406,3.051,0.549c0.018,0.05,0.048,0.086,0.09,0.106c0.048,0.023,0.144,0.015,0.287-0.024
	c0.143-0.039,0.246-0.052,0.308-0.039c0.112,0.087,0.319,0.137,0.62,0.149c0.329,0.009,0.542,0.037,0.639,0.084
	C73.099,49.494,73.166,49.602,73.177,49.756 M69.263,50c-0.432-0.116-1.001-0.229-1.71-0.338l-1.77-0.292
	c-0.013,0.026-0.042,0.039-0.088,0.037c-0.046-0.001-0.067,0.012-0.063,0.039c0.329,0.292,0.77,0.646,1.322,1.062
	c0.775,0.573,1.228,0.913,1.357,1.016c0.064,0.114,0.171,0.132,0.32,0.055c0.079-0.111,0.15-0.231,0.212-0.359
	c0.071-0.148,0.147-0.359,0.228-0.632S69.214,50.118,69.263,50"/>
<path fill="#FFFFFF" d="M67.279,42.059c0.416-0.241,0.876-0.333,1.383-0.278c0.13,0.06,0.179,0.189,0.145,0.388
	c-0.01,0.059-0.035,0.149-0.076,0.271s-0.063,0.201-0.07,0.238c-0.113,0.064-0.303,0.128-0.57,0.192
	c-0.267,0.065-0.457,0.128-0.571,0.193c-0.184,0.112-0.298,0.271-0.341,0.476c-0.127,0.569-0.096,0.979,0.096,1.231
	c0.609,0.24,1.421,0.457,2.437,0.652c0.842,0.158,1.684,0.316,2.525,0.475c0.17-0.031,0.348-0.066,0.534-0.102
	s0.312-0.136,0.379-0.298c0.106-0.163,0.176-0.344,0.209-0.542c0.015-0.088,0.014-0.405-0.002-0.952
	c-0.377-0.216-1.041-0.377-1.992-0.486c-0.067,0.073-0.163,0.246-0.287,0.521c-0.1,0.218-0.234,0.367-0.404,0.444
	c-0.25-0.05-0.389-0.081-0.417-0.093c-0.148-0.048-0.255-0.131-0.321-0.248c0.153-0.901,0.313-1.504,0.483-1.81
	c0.081-0.153,0.22-0.213,0.417-0.18c-0.008-0.001,0.086,0.022,0.28,0.07c0.299,0.081,0.838,0.195,1.618,0.343
	c0.697,0.126,1.232,0.248,1.602,0.364c0.132,0.189,0.199,0.466,0.199,0.831c-0.006,0.311-0.007,0.618-0.004,0.922
	c0.01,0.123,0.005,0.244-0.015,0.362c-0.1,0.591-0.57,1.172-1.409,1.743c-0.335,0.179-0.772,0.249-1.313,0.21
	c-0.525-0.082-1.322-0.243-2.39-0.485c-1.032-0.228-1.825-0.386-2.381-0.473c-0.329-0.132-0.605-0.344-0.83-0.636
	c-0.224-0.292-0.334-0.609-0.331-0.951c-0.003-0.167,0.009-0.329,0.035-0.484C66.038,43.154,66.497,42.519,67.279,42.059"/>
<path fill="#FFFFFF" d="M66.34,36.325c0.058-0.231,0.24-0.344,0.548-0.34c0.069,0.001,0.127,0.01,0.173,0.025
	c0.235,0.229,0.355,0.661,0.36,1.297c0.01,0.862,0.033,1.372,0.068,1.529c0.808,0.065,1.602,0.052,2.381-0.041l0.106-0.133
	c0.003-0.172-0.001-0.408-0.012-0.708c-0.01-0.33-0.014-0.565-0.011-0.708c0.004-0.292,0.035-0.55,0.093-0.773
	c0.164-0.147,0.442-0.191,0.834-0.132c0.03,0.022,0.08,0.057,0.148,0.103c0.02,0.188,0.033,0.57,0.04,1.146
	c0,0.502,0.024,0.884,0.074,1.147c0.292,0.08,0.634,0.123,1.026,0.129c0.192,0.002,0.709-0.022,1.549-0.077
	c0.04-0.044,0.099-0.11,0.176-0.199c-0.026-1.229-0.026-1.966,0.001-2.213c0.073-0.201,0.197-0.3,0.375-0.297
	c0.031,0,0.081,0.005,0.15,0.014c0.069,0.009,0.12,0.013,0.15,0.014c0.084,0.001,0.158-0.013,0.22-0.042
	c0.03,0.023,0.08,0.065,0.148,0.126l0.072,3.416c-0.12,0.275-0.353,0.41-0.7,0.404c-0.03,0-0.077,0-0.139-0.002
	c-0.062,0-0.108-0.001-0.139-0.002c-0.138-0.002-0.25,0.011-0.336,0.04l-7.082-0.045c-0.076-0.031-0.167-0.104-0.274-0.218
	c-0.006-0.584-0.012-1.165-0.018-1.742C66.312,37.347,66.318,36.773,66.34,36.325"/>
</svg>
