<svg id="Layer_1" data-name="Layer 1" xmlns="http://www.w3.org/2000/svg" viewBox="0 0 1407.96 1404.5"><defs><style>.cls-1{fill:#fff;}</style></defs><title>new_logo_white</title><path d="M1322.4,433.37c.29-.05.65-.22.86-.11.7.35,1.34.82,2,1.23.13.07.43.09.46,0,.14-.26.35-.59.29-.83-.65-2.31-1.27-4.63-2-6.89-1.87-5.44-3.85-10.84-5.74-16.28a180.05,180.05,0,0,1-5.51-18.35,86.33,86.33,0,0,1-2.13-16.14c-.09-2.39.21-4.79.34-7.18.06-1,.15-1.92.24-2.87a4.2,4.2,0,0,0-1.3-3.47,10.73,10.73,0,0,0-1.09-.91c-.58-1.36.15-2,.35-2.7a7.16,7.16,0,0,0-.07-3.79,37.92,37.92,0,0,0-1.15-3.66,6.52,6.52,0,0,1,.94-6.78c.09-.1.09-.28.13-.42-1.9-3.52-1.9-3.52-.14-7,.21-.43.42-.86.67-1.27,1.28-2.14.86-3.38-.89-5.1a47.39,47.39,0,0,0-3.71-3,7.72,7.72,0,0,1-2.8-3.8,1.54,1.54,0,0,1,1-1.85c.93-.2,1.89-.29,2.82-.5,1.09-.23,2.17-.52,3.24-.84a1.56,1.56,0,0,0,1.1-1.41,13.6,13.6,0,0,0,.11-1.91c-.07-4-.12-8-.27-12a40.38,40.38,0,0,0-1.6-9.44,22.84,22.84,0,0,0-5.56-9.93,9.51,9.51,0,0,1-1.3-1.4A3.45,3.45,0,0,1,1301,283c.1-6.55-.59-13.11.36-19.65a7.58,7.58,0,0,0,.08-1.43,1.74,1.74,0,0,0-.86-1.59,14.11,14.11,0,0,1-2-1.27,2.15,2.15,0,0,1-.74-1.17,12,12,0,0,1,.38-6.61c.38-1.05.85-2.07,1.31-3.09a16.94,16.94,0,0,0,1.75-7.88,6.85,6.85,0,0,1,.25-1.42c1.12-.64,2.23-1.25,3.29-1.92a2.09,2.09,0,0,0,.43-2.6,5.77,5.77,0,0,0-.89-1.12c-.72-.64-1.51-1.18-2.22-1.83a3.41,3.41,0,0,1-1.12-3,15.24,15.24,0,0,1,3.07-7.94c.88-1.13,1.84-2.21,2.78-3.3s2-2.11,2.82-3.26c1.92-2.55,2.85-5.34,1.79-8.54a16.93,16.93,0,0,1-.44-1.87,1.64,1.64,0,0,1,1.19-1.83c1.38-.41,2.77-.74,4.16-1.1a1.59,1.59,0,0,0,1.15-1.36c0-.64,0-1.28,0-1.92.12-1.95.39-2.41,2.47-2.93a14,14,0,0,0,8.3-6.1c.81-1.18,1.54-2.42,2.32-3.65a8.62,8.62,0,0,1,6.1.53c1.45.66,2.89,1.36,4.35,2a2,2,0,0,0,2.58-1.47c.21-1.1.28-2.21.44-3.32a36.55,36.55,0,0,1,.61-3.77,2.3,2.3,0,0,1,2.11-1.68,5.39,5.39,0,0,1,4.1.91,17.51,17.51,0,0,0,2,1.34c.15.09.66-.12.76-.31a8.89,8.89,0,0,0,.61-3.75,12.18,12.18,0,0,1,1-4.65,10.41,10.41,0,0,1,1-1.61,1.73,1.73,0,0,1,2.49-.36,7.44,7.44,0,0,1,2.93,3.69c.45,1.2.81,2.43,1.28,3.62a10.81,10.81,0,0,0,.91,1.67,1.62,1.62,0,0,0,2.45.45,2.87,2.87,0,0,0,1.38-2.39,26.77,26.77,0,0,0-.4-3.79c-.3-1.57-.78-3.1-1.1-4.66a6.12,6.12,0,0,1-.08-1.91,2.43,2.43,0,0,1,1.14-2c5-2.62,10.21-3.54,15.71-1.69a2.38,2.38,0,0,1,1.49,1.75c.57,2,1,4,1.58,6a2.43,2.43,0,0,0,1.55,1.7c.15.05.31.08.46.14,4.36,1.51,7.39,4.31,8.65,8.87a1.76,1.76,0,0,0,1.91,1.1c2.74-.18,4.36-1.74,5.24-4.22a2.11,2.11,0,0,0-.43-2.24,5.52,5.52,0,0,0-1.89-1.38c-1.19-.44-2.47-.62-3.7-1a1.79,1.79,0,0,1-1-1.48,8.61,8.61,0,0,1,1.34-5,5,5,0,0,1,1-1,2,2,0,0,1,2.61.21,6.86,6.86,0,0,1,.69,1.24c.83,2,1.21,2.12,3.28,1.55a11.66,11.66,0,0,1,1.88-.27,1.31,1.31,0,0,1,1.08.8c.09,1.11.13,2.22.25,3.33s.32,2.52.53,3.78a.92.92,0,0,0,1.44.63c1-.83,1.9-1.68,2.89-2.56.3-.61-.07-1.14-.35-1.71-.41-.85-.85-1.71-1.17-2.59a2,2,0,0,1,1.4-2.21,8.52,8.52,0,0,1,1.42-.2c4.39-.12,4.72.91,4.44,4.73-.09,1.27-.3,2.54-.49,3.8-.16,1.09.49,2.26-.19,3.27-.92,1.36-2.54,1.18-3.88,1.6-.92.28-1.88.4-2.81.62a1.8,1.8,0,0,0-1,3,4.69,4.69,0,0,0,.63.7c1.52,1.16,3.28,2,4.41,3.64,0,.06.33,0,.44-.07s.64-.38.65-.59a26.91,26.91,0,0,0,0-2.84c0-1,.45-1.5,1.41-1.33a7.11,7.11,0,0,1,.94.19,30.82,30.82,0,0,0,11.38,1.18,1.93,1.93,0,0,1,1.7,1.45c.39,1.71.72,3.44,1.06,5.16.12.61.18,1.23.28,2a4.41,4.41,0,0,0,1.41.08c1.68-.51,3.36-1,5-1.68,3.27-1.29,6.5-2.67,9.76-4q2.45-1,4.94-1.85c2.73-.94,5.48-1.75,8.44-1.32a7.06,7.06,0,0,0,3.29-.49c3.48-1.19,7-2.25,10.45-3.5a154.52,154.52,0,0,1,31.12-7.66c5.86-.83,11.74-1.42,17.64-1.9,8.46-.7,16.93-.82,25.4-.87,3.36,0,6.71.19,10.07.24a23.06,23.06,0,0,0,3.81-.19,3.58,3.58,0,0,0,2.83-3.42,8.67,8.67,0,0,0-2.14-6.18,9.66,9.66,0,0,0-1.1-.91,1,1,0,0,0-1.51.56c-.12,1.27-.19,2.54-.32,3.81-.1,1-1,2-1.83,1.92a2.55,2.55,0,0,1-2.28-1.51c-.49-1.17-.79-2.41-1.18-3.62.59-1.07,1.19-2,1.63-3s.65-2.15,1.07-3.18a10.5,10.5,0,0,1,1.2-2,2,2,0,0,1,2.2-.4,13.53,13.53,0,0,1,3.94,3.47c1.4,1.74,2.66,3.59,4,5.4,1.12,1.56,2.19,3.15,3.33,4.69a1.9,1.9,0,0,0,2.16.65c.91-.27,1.76-.73,2.67-1,1.2-.42,2.44-.73,3.62-1.18a2.05,2.05,0,0,0,1-.94,7.93,7.93,0,0,0-.62-8.6,2,2,0,0,1,0-2.25c.22-.42.49-.82.73-1.23a4.88,4.88,0,0,0,.42-.86,1.68,1.68,0,0,0-.35-1.77,1.79,1.79,0,0,0-1.71-.62,3.35,3.35,0,0,0-2.34,1.53c-.71,1.05-1.3,2.2-2,3.24a6.73,6.73,0,0,1-1.4,1.25c-.09.07-.33,0-.46,0s-.3-.22-.29-.33a34.08,34.08,0,0,1,2.28-10.2,2.79,2.79,0,0,1,2.91-2c2.08.07,4.16.12,6.23,0a8.8,8.8,0,0,0,6.34-3,3.39,3.39,0,0,0,1-2.61,26.26,26.26,0,0,0-.55-3.29c-.25-1.08-.64-2.14-.94-3.22a4.38,4.38,0,0,1,.21-2.81,1.89,1.89,0,0,1,1.22-1.37,24.29,24.29,0,0,1,3.75-.71c1.59-.11,3.2,0,4.8,0a1.88,1.88,0,0,1,2.11,1.55c.32,1.07.56,2.16.9,3.23.49,1.52,1,3,1.58,4.52a10.15,10.15,0,0,0,8.15,6.63c.77.13,1.62,0,2.39.72a28.48,28.48,0,0,0,.68,3.06c.12.37.67.67,1.08.87s1.34-.63,1.38-1.1a7.45,7.45,0,0,0,.07-1.41c-.11-.95-.32-1.88-.46-2.83-.08-.62.73-1.1,1.36-.84a14,14,0,0,1,7.48,6.39,1,1,0,0,0,1.28.24,13.18,13.18,0,0,0,1.56-1.09c.84-.74,1.59-1.58,2.44-2.31a8.36,8.36,0,0,1,1.62-1,2.47,2.47,0,0,1,3.41,1.65,7.83,7.83,0,0,1,.22,2.37c0,1.28-.26,2.54-.35,3.82a6.82,6.82,0,0,0,.79,3.7,1.93,1.93,0,0,0,3.18.49c.59-.74,1.07-1.57,1.61-2.36a22.12,22.12,0,0,1,1.35-2,2.53,2.53,0,0,1,4.34.34c.16.27.27.58.42.86a1.84,1.84,0,0,0,1.39,1.15c.59.06,1.12-.51,1.4-1.69s.41-2.19.62-3.29c.27-1.41.5-2.83.84-4.23a10.7,10.7,0,0,1,.85-2.22c1-2,1.93-2.49,4.24-2.29a1.57,1.57,0,0,1,1.48,1.56c0,.48,0,1,0,1.44.07,1.56-.24,2.85-2,3.3a.86.86,0,0,0-.55,1.16c1.61,3.09,1.79,6.42,1.86,9.8a36.26,36.26,0,0,0,.42,4.28,6.9,6.9,0,0,0,.58,1.82,1.29,1.29,0,0,0,.67.53.94.94,0,0,0,1.13-.62,9.41,9.41,0,0,0,.51-2.3,12.81,12.81,0,0,0-.35-2.36c-.21-1.27-.39-2.53-.64-3.79a7.46,7.46,0,0,1,2-7.08,8.74,8.74,0,0,0,1.71-2.27,2.45,2.45,0,0,1,2.64-1.6,28.16,28.16,0,0,1,3.79.41,3.4,3.4,0,0,1,1.49,1.1.94.94,0,0,1,0,.89,8.41,8.41,0,0,1-1.29,1.38c-1.48,1.3-1.9,2.55-1.17,4.16a4.5,4.5,0,0,0,2.65,2.81c1.18-.56,2.44-1.24,3.77-1.75a9.6,9.6,0,0,1,4.17-1,1.78,1.78,0,0,1,1.6.87c.47,1,.83,2.07,1.27,3.09a7.6,7.6,0,0,0,.65,1.27,1.19,1.19,0,0,0,1.19.62,5,5,0,0,0,2.89-1.56,2.41,2.41,0,0,0,.63-1.25,12.59,12.59,0,0,0-.33-5.22,1.5,1.5,0,0,0-1.07-.79,28.79,28.79,0,0,0-3.35-.15,19.28,19.28,0,0,1-5.64-1,2.56,2.56,0,0,1-2-2.87c.07-1.28.22-2.55.22-3.83a13.53,13.53,0,0,0-7.42-12.52,22.66,22.66,0,0,0-9.11-2.76c-1.74-.16-3.49-.29-5-.41-.31-.2-.49-.25-.58-.37a24.27,24.27,0,0,0-8-6.74c-.68-.36-.68-1-.75-1.61h0a5.31,5.31,0,0,0,1.16.77q7.7,2.56,15.44,5a.93.93,0,0,0,.81-.23,1,1,0,0,0,.15-.85,10.77,10.77,0,0,0-.92-1.66c-.6-.94-1.26-1.84-1.84-2.79a2,2,0,0,1,.3-2.22,9.33,9.33,0,0,1,6.13-3.36,36,36,0,0,1,11.9.54c4.86.89,9.69,1.92,14.54,2.88,3.44.68,6.9,1.24,10.31,2a164.57,164.57,0,0,1,19.17,5.92c6.29,2.3,12.58,4.58,18.86,6.91a109.89,109.89,0,0,1,16,7.41c1.11.63,2.19,1.31,3.25,2a1.34,1.34,0,0,1,.39,1.7h0a3.17,3.17,0,0,0-1.75-1.53,130.28,130.28,0,0,0-18.61-7.62c-5.32-1.73-10.69-3.3-16-4.89a18.29,18.29,0,0,1-6.49-2.92,17,17,0,0,0-6.05-2.83c-3.38-.94-6.79-1.81-10.19-2.7-1.08-.29-2.18-.52-3.24-.86-2.76-.88-5.45-1.48-8.43-.79-2.51.57-5.08-.21-7.55-.92-1.84-.53-3.66-1.17-5.49-1.72-1.53-.46-3.06-1-4.62-1.29a10.66,10.66,0,0,0-9.45,2.21,1.85,1.85,0,0,0-.29,2.56,9.91,9.91,0,0,0,3.91,3.44,24.33,24.33,0,0,0,5.86,2.07c2.49.58,5,1.14,7.47,1.74.93.23,1.85.5,2.76.8a12,12,0,0,1,6.31,4.14,4.13,4.13,0,0,0,2.8,1.66c6.33,1.07,11.14,4.58,15.12,9.41.71.87,1.37,1.77,2.12,2.75.57.11,1.18.25,1.8.33a3.34,3.34,0,0,1,2.42,1.38c.37.52.74,1.05,1.1,1.58a2.45,2.45,0,0,0,2,1.12c1.6.06,3.2.06,4.8.11a1.84,1.84,0,0,1,1.8,1.86c.09,1.92.12,3.84.18,5.76a6.28,6.28,0,0,0,1.18,3.58,3,3,0,0,0,3.35,1.25c.92-.27,1.79-.69,2.7-1a2,2,0,0,1,2.24,1.38,7.69,7.69,0,0,1-.29,5.16c-.29.75-.72,1.43-1.07,2.15a1.45,1.45,0,0,0,.82,1.94c.29.13.57.28.85.43,1,.52,2.47,0,2.94,1.23a11.53,11.53,0,0,1,.37,3.3c.16,2.56.29,5.13,1.4,7.5a17.53,17.53,0,0,0,1.23,2,1.05,1.05,0,0,0,1.65.06c.63-1.1,1.21-2.24,1.81-3.35a2.59,2.59,0,0,1,3.23-1.36,23.31,23.31,0,0,1,2.59,1.2,1.72,1.72,0,0,1,.73,1.66,15.35,15.35,0,0,1-2.47,5.68c-.91,1.31-1.78,2.64-2.74,4.06.56,1,1.07,2,1.63,2.94.31.53,1.25,1,1.62.76a2.72,2.72,0,0,0,1-.94,9.93,9.93,0,0,0,.59-1.82c.87-3.05,1-3.27,4.3-3.24,3,0,3.83,1.22,2.68,3.89-.62,1.46-1.46,2.83-2.19,4.26-.66,1.27-1.35,2.54-1.94,3.85a6.23,6.23,0,0,0-.26,4.23,5,5,0,0,0,1,1.6c.29.38,1.45.2,1.71-.19a9.44,9.44,0,0,0,1-3.17,1.7,1.7,0,0,1,1.6-1.51,28.66,28.66,0,0,1,3.82,0c2.24.21,2.42,1.16,1.87,2.92a15.34,15.34,0,0,1-2.4,4.67c-.76,1-1.57,2-2.28,3.09a37.1,37.1,0,0,0-2.21,3.69c-.79,1.55-.33,3.05,2.08,3.2.79.06,1.59,0,2.39,0s1.6,0,2.4,0c1.8.08,2.48,1.28,1.63,3a15.16,15.16,0,0,1-1.54,2.41c-.59.75-1.36,1.36-2,2.1a10.54,10.54,0,0,0-1.28,2,2.6,2.6,0,0,0,1.61,3.48c1.24.27,2.52.36,3.77.59a2.27,2.27,0,0,1,1.69,1.55,6.27,6.27,0,0,1,.06,4.23c-.23.76-.6,1.48-.9,2.22-.46,1.19-.46,1.66,0,1.72a4.24,4.24,0,0,0,1.37,0,10.3,10.3,0,0,0,6.3-4.07,16.38,16.38,0,0,0,1.25-2,2.83,2.83,0,0,1,3.29-1.36,5.28,5.28,0,0,1,2.64,1c.47.39.72,1.31.31,1.68-3.35,3-5.93,6.7-8.71,10.21a24.15,24.15,0,0,1-7.13,6.33c-.32.19-.46.7-.69,1.06a6.37,6.37,0,0,0,1.23.66,5.29,5.29,0,0,0,4.56-.85,25.57,25.57,0,0,0,3.32-2.74c1.26-1.23,2.37-2.61,3.6-3.86s2.51-2.46,3.84-3.61a11.34,11.34,0,0,1,4.66-2.37,1.2,1.2,0,0,1,1.47.8,40.4,40.4,0,0,1,.07,5.34c-.6,1.34-1.6,1.61-2.33,2.2-1.49,1.21-3.06,2.32-4.49,3.6-3.09,2.77-6.11,5.62-9.17,8.44.74,1.1,1.36,1.42,2.18,1,1.26-.68,2.5-1.43,3.71-2.18a10,10,0,0,1,3.47-1.58,2.63,2.63,0,0,1,1.84.32,1,1,0,0,1,.49,1.21,7.67,7.67,0,0,1-.86,1.69,10.45,10.45,0,0,0-2.24,5.71,1.5,1.5,0,0,1-.22.47,10,10,0,0,1-3.45,1.48,23.09,23.09,0,0,0-2.19.92,1,1,0,0,0-.11,1.61,6.72,6.72,0,0,0,2.76,1.84,4,4,0,0,0,2.81,0A10,10,0,0,0,1787,272q2.1-2,4.12-4a16.63,16.63,0,0,1,6.68-4.53,2.15,2.15,0,0,0,1.47-2.22c0-.64.08-1.27.16-1.91a1.55,1.55,0,0,1,1.21-1.32c1.75,0,3.5,0,5.25,0a1.5,1.5,0,0,1,1.22,1.3c.21,3.8.25,3.66-3.17,5.58a10.52,10.52,0,0,1-2.38.65c-1.94,5-5.74,8.35-10,11.29-1.72,1.17-3.38,2.42-5,3.72a16.94,16.94,0,0,0-4.48,4.94c-.07.13-.12.43-.08.45.27.13.65.37.83.27a25.33,25.33,0,0,0,3.23-2c2-1.57,4-3.24,6-4.86a30.87,30.87,0,0,1,8.1-5.08,24.85,24.85,0,0,1,2.75-.79,1.31,1.31,0,0,1,1.41,1c.2,1.42.34,2.85.54,4.27a1.72,1.72,0,0,0,.37.86,1.14,1.14,0,0,0,.8.42,3.49,3.49,0,0,0,1.37-.36c.86-.42,1.66-1,2.52-1.38a8.46,8.46,0,0,1,1.8-.6,1.65,1.65,0,0,1,2,1.55,10.84,10.84,0,0,1-1.88,6.81,37.79,37.79,0,0,1-3.71,4.39c-1.44,1.5-3,2.84-4.53,4.29a19.63,19.63,0,0,0-3.66,4.41,1.85,1.85,0,0,0,.31,2.2,2,2,0,0,0,2.62.13,11.57,11.57,0,0,0,1.61-1.75c.55-.78,1-1.65,1.44-2.49.39-.69.79-1.37,1.24-2.17a8.71,8.71,0,0,1,5.57.05,1,1,0,0,1,.46.72,5.84,5.84,0,0,1-.3,1.86,35.55,35.55,0,0,1-5.09,9.2,69.89,69.89,0,0,1-8.22,8.72c-1.41,1.3-2.82,2.59-4.22,3.91a1.69,1.69,0,0,0-.11,2.19,11,11,0,0,0,1.73,1.61c.18.14.58,0,.87,0a.73.73,0,0,0,.38-.28c2.17-2.55,4.34-5.12,6.52-7.67a22.2,22.2,0,0,0,4.38-7.38c.2-.6.46-1.18.72-1.82.62-.22,1.2-.47,1.81-.63a5.26,5.26,0,0,0,3-2.24c.72-1.05,1.35-2.17,2.08-3.22a10.58,10.58,0,0,1,1.3-1.38,1.37,1.37,0,0,1,1.74.07,4.44,4.44,0,0,1,1.1,3.55,3,3,0,0,1-.24.92,2.76,2.76,0,0,1-.53.78c-4.81,5-7.09,11.32-9.26,17.7a1,1,0,0,0,.48,1.23,2.06,2.06,0,0,0,1.32.26c1.06-.33,2.05-.86,3.09-1.23a.93.93,0,0,1,.84.29c.82,1.73,1.75,3.44,1.76,5.42a1.74,1.74,0,0,1-.8,1.64c-3.8,2.09-7,5.07-10.19,7.22a2,2,0,0,0,0,2.21c.93,1.86,1.88,3.7,2.91,5.7a10.16,10.16,0,0,1-1,2,9.58,9.58,0,0,0-2.36,6.9c-.35.42-.5.74-.76.89-3.24,1.93-4.87,5-5.89,8.45-.5,1.68-1,3.38-1.45,5.07a11.35,11.35,0,0,1-3.5,5.62,19.77,19.77,0,0,0-5,6.35,18,18,0,0,1-3.78,4.93c-1.49,1.45-3,2.9-4.62,4.19-4.36,3.5-8.79,6.92-13.35,10.48l-6.06.12a1.58,1.58,0,0,0-1.7,1.36c-.19,1.1-.34,2.21-.57,3.71a26.34,26.34,0,0,0-1.2-2.76c-.39-.68-1.05-1.2-1.47-1.88a11.41,11.41,0,0,1-1.71-5.43c-.17-2.4-.21-4.8-.29-7.19a23.28,23.28,0,0,0-.77-6.65,1.34,1.34,0,0,0-1.49-.89c-.31.06-.61.18-.93.23l-5.69.84a18,18,0,0,1-6.66-.54,7.23,7.23,0,0,1-3-1.55c-1.51-1.22-1.89-2.55-1-4.21,1.42-2.5,2.92-5,4.45-7.39a38.54,38.54,0,0,0,4-7.61c.31-.9.53-1.84.75-2.77a1.33,1.33,0,0,0-.87-1.49,12.63,12.63,0,0,0-5.22-.42c-2.86.33-5.72.65-8.57,1.06a46.44,46.44,0,0,1-9.57.39,12.31,12.31,0,0,1-6.65-2.49,6.06,6.06,0,0,1-2.6-4.4,50.27,50.27,0,0,0-2-9.37,80.89,80.89,0,0,0-5.57-13.76c-2.25-4.42-4.63-8.76-7-13.14q-1.92-3.6-3.87-7.18a7.57,7.57,0,0,1-1.2-4.55,10.2,10.2,0,0,0-1.93-6.75,108.75,108.75,0,0,0-15.23-19.1,186.46,186.46,0,0,0-14.23-12.87c-3.09-2.54-6.26-5-9.31-7.57a7.13,7.13,0,0,0-4.73-1.92,6.78,6.78,0,0,1-4.66-2.22c-.8-.79-1.61-1.56-2.4-2.35a8,8,0,0,0-5.11-2.38l-1.44-.09a3.46,3.46,0,0,1-2.88-1.45,6.24,6.24,0,0,0-4.85-2.7c-2.38-.27-4.76-.58-7.14-.91s-4.76-.57-7.11-1.06a17.13,17.13,0,0,1-8.5-4.18c-.35-.33-.68-.68-1.05-1a1.84,1.84,0,0,0-1.78-.4c-1.07.33-2.12.7-3.18,1.06a11.94,11.94,0,0,1-10.15-1.25,36.47,36.47,0,0,1-5-3.66c-1.6-1.32-3-2.85-4.61-4.19s-3.28-2.55-4.93-3.8a3.36,3.36,0,0,0-2.74-.58,32.33,32.33,0,0,1-7.15.67,4.55,4.55,0,0,1-2.69-.83,13.28,13.28,0,0,0-6.25-2.23,46.2,46.2,0,0,0-8.14-.36,9.92,9.92,0,0,0-3.73.78c-6.75,2.89-13.84,3.76-21.11,3.65a41.46,41.46,0,0,1-9.47-1.35,17.16,17.16,0,0,1-9.06-5.09,4.91,4.91,0,0,0-.76-.58,2.91,2.91,0,0,0-2.31.23q-3.64,1.19-7.25,2.48a56,56,0,0,1-8.7,2.65,28.72,28.72,0,0,1-7.15.68,13.8,13.8,0,0,0-6.05,1.18l-28.19,10.85-9,3.43c-.89.34-1.76.74-2.54,1.06-.2.41-.45.68-.47,1a11.26,11.26,0,0,1-4.19,7.83c-1.43,1.27-2.92,2.48-4.34,3.77a3.06,3.06,0,0,1-3.1.74c-.62-.17-1.21-.42-1.81-.65a4.07,4.07,0,0,0-3.24.23,18.57,18.57,0,0,0-4.88,3,5,5,0,0,1-3,1.23,28.84,28.84,0,0,0-16.49,7.05c-2,1.64-3.81,3.41-5.69,5.15-1.65,1.52-3.25,3.09-4.9,4.6a32.91,32.91,0,0,1-7,5,16.73,16.73,0,0,0-4.17,3.17c-3.49,3.52-7.07,7-10.63,10.4-2.76,2.67-5.59,5.27-8.3,8a71,71,0,0,0-10.79,13.44,7.24,7.24,0,0,1-3.05,2.93c-1.28.64-2.4,1.6-3.7,2.2a9.09,9.09,0,0,0-3.55,3.12,20.75,20.75,0,0,0-3.5,8.85,63.36,63.36,0,0,0-1,8.57,139.93,139.93,0,0,1-1.28,14.33,7.84,7.84,0,0,0,1,5.52c1,1.63,2,3.26,3.11,4.83a3.89,3.89,0,0,1,.84,2.66c0,.32,0,.64-.07,1a41.45,41.45,0,0,0,3.65,20.56,44.88,44.88,0,0,0,5.2,9.5,6.89,6.89,0,0,0,1.06.42,14,14,0,0,1,6.84,3.27c.73.62,1.53,1.15,2.29,1.73a2,2,0,0,1,.9,2.06c-.06.31-.12.63-.19.94a23.57,23.57,0,0,0,2.06,15.4c1,2.16,2.19,4.27,3.34,6.37a21.67,21.67,0,0,1,2.32,5.77,12.29,12.29,0,0,1,.22,2.84,2.56,2.56,0,0,1-.58,1.25c-.26.36-1.19.27-1.77-.18-1-.78-2-1.61-3-2.43a2.3,2.3,0,0,0-3.4.27,8.44,8.44,0,0,0-1.6,2.35,18.58,18.58,0,0,0-1,3.68,25.74,25.74,0,0,1-1.18,5.26,10.27,10.27,0,0,1-7.39-.47,9.44,9.44,0,0,1-2.06-1.21,4,4,0,0,0-5.63,0,1.08,1.08,0,0,1-.41.24.5.5,0,0,1-.37-.13c-.1-.1-.2-.31-.15-.4.58-1.3,1.18-2.58,1.8-3.92-1-2.55-3.08-4.51-4-7.1Zm469.52-135.75c1.65-3.93,4.42-6.75,7.45-9.38a44.65,44.65,0,0,0,3.39-3.35,10.14,10.14,0,0,0,1.34-2c.1-.18-.1-.56-.22-.82a.51.51,0,0,0-.4-.22c-1.55.32-3.09.67-4.51,1-2.88,3.81-2.88,3.81-6.94,6.6-.66.45-1.32.9-1.94,1.4a10.71,10.71,0,0,0-1.4,1.29,7.08,7.08,0,0,0-2,5.17C1788.31,298.09,1789.89,297.81,1791.92,297.62Zm-190-132.36c.11,1.2.17,2.14.33,3.07,0,.17.48.42.7.39a3.29,3.29,0,0,0,3-2.68,8.74,8.74,0,0,0-.53-5.61,3.32,3.32,0,0,1,.59-3.56c.77-1,1.63-2,2.32-3a2.57,2.57,0,0,0-.23-3.11,1.33,1.33,0,0,0-2-.21,12.81,12.81,0,0,0-2.88,6.46C1602.58,159.8,1602.27,162.65,1601.9,165.26Z" transform="translate(-827.23 252.15)"/><path d="M1632.23,852.17c-.44.16-1,.19-1.28.5-1.91,2.63-5,3.88-7.24,6.08a2.75,2.75,0,0,1-1.3.52c-1.08.24-2.19.35-3.25.64-5.13,1.42-8.43,4.81-10.28,9.71a16.42,16.42,0,0,0-.64,2.28,9.93,9.93,0,0,1-3.13,5.15c-.1.08-.31.05-.47.07l-.1.08c.15-1.27.35-2.53.45-3.8.37-4.62.53-9.25,1.87-13.53-1.86-3.56-1.92-3.56-1.95-7a11.08,11.08,0,0,0-1.27-5.51,36,36,0,0,1-3.53-10.91c-.68-3.61-1.21-7.26-2-10.85-.58-2.82-1.35-5.59-2.1-8.37a5.22,5.22,0,0,0-1.82-2.76,16.3,16.3,0,0,1-5.84-9.12,5,5,0,0,0-1.46-2.43,28.53,28.53,0,0,0-13.2-7.5c-3.23,2.25-6.86,2.62-10.66,2.52l-3.5,4c-1.78,2.05-3.54,4.13-5.35,6.16a53,53,0,0,1-7.8,7.09,79.88,79.88,0,0,0-10.51,9.1,65.7,65.7,0,0,0-4.94,5.86,22,22,0,0,0-4.69,14.3c0,.32,0,.64-.06,1a1.32,1.32,0,0,1-1.23,1.18,12.68,12.68,0,0,1-3.78-.51,17.62,17.62,0,0,0-1.9-.24,1.55,1.55,0,0,0-1.74,1.27c-.33,1.88-.6,3.79-1,5.67q-.58,3.06-1.3,6.09a1.3,1.3,0,0,1-1.24,1.13,3.58,3.58,0,0,1-.19-.93,72.58,72.58,0,0,1,4.17-20.61,62.58,62.58,0,0,1,13.84-21.68,86.31,86.31,0,0,1,10.81-9.49c1.24-.93,2.08-1.88,1.9-3.56a3.22,3.22,0,0,1,1.52-2.84c.63-.49,1.31-.92,1.9-1.46a4.71,4.71,0,0,0,.8-1.18,2.13,2.13,0,0,0-.26-2.24,15.59,15.59,0,0,0-1.47-1.22,184.88,184.88,0,0,1-15.73-12.59c-2.9-2.52-5.75-5.09-8.66-7.59a18.13,18.13,0,0,1-4.45-5.59c-.51-1-1.07-2-1.56-3a18.09,18.09,0,0,0-5.47-6.58c-1.79-1.34-3.65-2.6-5.49-3.86s-4-2.62-6-4a22.26,22.26,0,0,1-8-9.42,8.15,8.15,0,0,0-2.28-3c-2.75-2.44-5.45-5-8.31-7.26-4-3.21-8.1-6.25-12.15-9.39q-5.31-4.1-10.6-8.25a34.15,34.15,0,0,1-7.94-8.92c-1.43-2.31-2.8-4.66-4.2-7a47.59,47.59,0,0,0-6.47-8.91,4.72,4.72,0,0,1-1.26-3,4.38,4.38,0,0,0-2.76-3.64,1.66,1.66,0,0,0-.92-.16,1,1,0,0,0-.64.52,1.91,1.91,0,0,0,.06.94c3.74,15.38,7.41,30.77,11.24,46.12a325,325,0,0,0,11.33,37.13c1.43,3.73,3,7.42,4.51,11.11a20.39,20.39,0,0,1,1.46,5,103.69,103.69,0,0,0,3.37,14c1.22,4.14,2.28,8.32,3.51,12.46a18.14,18.14,0,0,1,.63,6.63l.2.06c-.48-1.35-1-2.67-1.45-4-4.58-15.3-9.65-30.45-14.56-45.65-4.52-14-8.87-28-12.31-42.31-1.28-5.28-2.39-10.6-3.58-15.9-.25-1.09-.53-2.17-.73-3.27a3.27,3.27,0,0,0-1.92-2.56c-.26-.12-.44-.41-.78-.74a14.55,14.55,0,0,0-.2-8.85c-.8-2.76-1.56-5.54-2.52-8.25-.53-1.48-1.62-2.76-2.13-4.25a36.08,36.08,0,0,1-.86-4.7,6.77,6.77,0,0,0-.54-1.83,9,9,0,0,1-.8-4.67A19.49,19.49,0,0,0,1427,662a38.16,38.16,0,0,1-2.44-10.7,4.47,4.47,0,0,0-.33-1.87c-2.09-4.07-1.54-8.79-3.23-13a6.22,6.22,0,0,1-.2-2.37,17.4,17.4,0,0,0-1.41-7.48,14.07,14.07,0,0,1-.94-3.7,57.7,57.7,0,0,1-.58-9.56,18.4,18.4,0,0,0-1.07-7.54,12.55,12.55,0,0,1-.67-5.66c.62-8.77.94-17.56,2.25-26.27.19-1.29-.24-1.88-1.7-2.45a6,6,0,0,0-.93-.23c-.81-.16-.75-.91-1-1.45h0a4,4,0,0,0,1.25.59c2.86.27,5.73.49,8.6.68,1.43.1,2.88.14,4.31.14a17.56,17.56,0,0,1,8.67,2.47c2,1.1,3.81,2.35,5.69,3.55s3.48,2.29,5.23,3.4A7.58,7.58,0,0,0,1453,582a9.85,9.85,0,0,1,7.06,2.47,5.64,5.64,0,0,0,3,1.44,14.65,14.65,0,0,1,3.28.38c.84.3,1.44,1.24,2.25,1.71a4.9,4.9,0,0,0,2.25.67,21.32,21.32,0,0,1,8.7,2.44c.87.41,1.73.83,2.58,1.27,3.59,1.84,7.26,3.35,11.22,3.07a5.22,5.22,0,0,1,1,.67c3.39,3.83,7.86,5.34,12.74,5.93a90.72,90.72,0,0,0,13.89.55q8.14-.24,16.3-.28a8.78,8.78,0,0,0,4.54-1.24c1.79-1,3.64-2,5.5-2.92a27.11,27.11,0,0,1,16.3-2.64c.32.05.63.14,1,.16s.63,0,.93,0a3.64,3.64,0,0,0,.89-.4,12.22,12.22,0,0,1,9.35-2.92,51.1,51.1,0,0,1,5.25.41c7,1.2,14,.87,21,.11,12.42-1.34,24.59-4,36.76-6.72,2-.45,4-1,5.92-1.4a5.32,5.32,0,0,0,.58-1,1.38,1.38,0,0,1,1.35-1.1c1.43-.07,2.87-.13,4.31-.11a6.62,6.62,0,0,0,3.64-1c1.22-.76,2.42-1.55,3.62-2.34a23,23,0,0,1,9.23-3.83,9.49,9.49,0,0,0,3.92-1.68,105.29,105.29,0,0,0,11-8.52,92.19,92.19,0,0,1,14.32-10.44,57.58,57.58,0,0,0,7.76-5.62,128.51,128.51,0,0,0,17.06-16.82c.48-.58.94-1.33,1.92-1l-.11-.12c-1.51,3.21-3.8,5.9-5.91,8.7-.77,1-1.58,2-2.36,3a1.56,1.56,0,0,0,0,1.8,2.33,2.33,0,0,0,.27.4c3.31,2.63,2.24,3.73,1,6.63A110.39,110.39,0,0,1,1704,572.46c-4,5.43-8.26,10.59-12.67,15.67q-6.12,7.07-12.26,14.13c-.84,1-1.6,2-2.46,2.94-2,2.18-3.46,4.56-3.56,7.63a9.16,9.16,0,0,1-.54,2.33c-1,3.37-1.57,4.05-4.73,6.32-.57.86-.26,1.84-.33,2.77-.16,2.07-.15,4.17-.49,6.21a53.57,53.57,0,0,0-.71,10c0,.48,0,1-.08,1.61-2,1.44-4,3-6.08,4.42-2.77,1.83-2.95,1.81-5-.85a79.52,79.52,0,0,0-5.5-6.65c-5-5.21-10-10.32-15.07-15.46a1.79,1.79,0,0,0-2.2-.22c-1.19.8-2.38,1.62-3.54,2.46-2.45,1.79-4.88,3.6-7.56,5.58a9.34,9.34,0,0,0-.59,1.51,14.24,14.24,0,0,1-2.56,5.63,12.54,12.54,0,0,0-2.4,6.66,36.23,36.23,0,0,1-.71,4.25,31.38,31.38,0,0,1-8,14.52,50.82,50.82,0,0,1-8.86,7.31c-4.55,3-9.16,5.86-13.72,8.81a3.23,3.23,0,0,1-2.74.34,27.68,27.68,0,0,0-16.5.9c-2.4.87-4.75,1.89-7.15,2.77-2,.71-3.92,1.35-5.91,2a8.4,8.4,0,0,1-6.1-.27c-4.67-2.16-9.59-2.23-14.57-1.89-1.28.09-2.55.23-3.83.28-1.92.08-3.83.11-5.75.15a6.39,6.39,0,0,1-4.85-1.65,11.1,11.1,0,0,0-4.62-2.45,7.6,7.6,0,0,0-3.79-.11,2.78,2.78,0,0,0-2.34,2.65,13.29,13.29,0,0,0,4.13,10.36,19.81,19.81,0,0,0,8.16,4.88,18.58,18.58,0,0,0,8,.94,6.46,6.46,0,0,1,4.53,1c6,3.93,12.69,5.9,19.74,6.9a82.09,82.09,0,0,0,22.47.12c2.37-.31,4.75-.58,7.11-1a6.16,6.16,0,0,1,5.35,1.4c.48.41.93.85,1.31,1.19,1.25,0,1.78-.94,2.54-1.49a2.19,2.19,0,0,1,2.7-.15c3.35,2.79,7.24,4.66,11,6.72A36.63,36.63,0,0,1,1607,716a6.91,6.91,0,0,1,3.06,4.64c.52,2.85,2.2,5.29,3.6,7.8a2.28,2.28,0,0,0,2,1.09c.64,0,1.28-.07,1.92,0a3.27,3.27,0,0,1,3.35,3.31,15.85,15.85,0,0,1-.23,2.37c-.11.79-.31,1.58-.35,2.37a1.79,1.79,0,0,0,.79,1.65c1.2.78,2.46,1.49,3.65,2.29s2.36,1.63,3.5,2.49a2,2,0,0,1,.75,1.84c-.53.4-1.16.88-1.77,1.38a10.92,10.92,0,0,0-3.88,7.46,1.49,1.49,0,0,0,1.49,1.51,18.31,18.31,0,0,0,3.71-.82c1.63-.64,3.11-1.67,4.73-2.31s3.34-1,5.09-1.52c-.1-1.21-.24-2.32-.25-3.43a2.62,2.62,0,0,1,.48-1.31c.12-.18.53-.22.81-.25.13,0,.38.13.4.23.2,1.09.36,2.18.54,3.27a1.47,1.47,0,0,0,1.41,1,16.53,16.53,0,0,0,2.35-.45,81.18,81.18,0,0,0,36.54-23.75,19.06,19.06,0,0,0,3.23-4.73c.33-.73.72-1.43,1.07-2.15a8.9,8.9,0,0,1,3.92-4.08c.56-.29,1.12-.62,1.66-1A5.44,5.44,0,0,0,1693,712c.48-1.35.83-2.75,1.2-4.13.29-1.08.54-2.17.79-3.26a10.51,10.51,0,0,1,3.11-5.3c.92-.89,1.88-1.73,2.81-2.61s1.64-1.53,2.41-2.34a7.13,7.13,0,0,0,2-4.74,13.83,13.83,0,0,0,0-1.44,9,9,0,0,1,2.74-6.91c3.76-4.1,3.43-4.37,3.48-9.48,0-.48,0-1,0-1.44A28.2,28.2,0,0,1,1713,660a6.31,6.31,0,0,0-.2-5.12,1.68,1.68,0,0,1,.45-2.15,23.64,23.64,0,0,1,1.79-1.55c.16-.12.54.08.82.13a4.36,4.36,0,0,1,.14.94c-.45,6.06-.51,12.14-1.32,18.18-.3,2.21-.49,4.45-.71,6.67-.11,1.12.58,1.62,1.84,1.35.46-.1.91-.24,1.38-.35s1,.47.88.85a4.64,4.64,0,0,1-.18.93c-6.49,16.09-14.56,31.29-25.41,44.92a123.06,123.06,0,0,1-34.92,30.34c-.69.4-1.39.78-2.07,1.21a7.49,7.49,0,0,1-5,1.26,24,24,0,0,0-2.4,0,19.8,19.8,0,0,0-9.69,2.34,14.84,14.84,0,0,1-4,1.48,27.45,27.45,0,0,0-11.5,5.68c-1.75,1.4-3.4,2.92-5,4.43-1.41,1.3-2.76,2.67-4.13,4a38.55,38.55,0,0,1-13.83,9.26,26,26,0,0,1-2.13,3.19,19.88,19.88,0,0,1-2.58,2.13,8.25,8.25,0,0,0-1.42,1.27,1.74,1.74,0,0,0-.29,1.32,5.78,5.78,0,0,0,.87,1.69,40.21,40.21,0,0,0,6.07,6.77c2.12,2,4.27,3.87,6.36,5.84a35,35,0,0,1,5,5.79,7.47,7.47,0,0,1,1.64,4.42,7.16,7.16,0,0,0,1.64,4.41c1.13,1.55,2.27,3.1,3.5,4.56a31.49,31.49,0,0,1,5.67,9.94c1.32,3.77,2.87,7.45,4.33,11.17a3.08,3.08,0,0,1,0,2.33c-.39,1-.8,2.06-1.18,3.11a.44.44,0,0,0,.14.4c.25.16.59.41.79.34a6.07,6.07,0,0,0,1.69-.84c.73-.54,1.53-.27,2.29-.35Z" transform="translate(-827.23 252.15)"/><path d="M1349.42-80.56c-.07-1.69-.1-3.12-.2-4.55-.48-6.7-1-13.4-1.45-20.1q-.91-13.16-1.77-26.32c-.45-6.71-.84-13.41-1.29-20.11-.48-7.18-1-14.36-1.49-21.54-.09-1.28-.19-2.55-.27-3.83q-.89-12.92-1.75-25.84-.65-9.83-1.24-19.64a19.52,19.52,0,0,1,.07-2.86,1.35,1.35,0,0,1,.52-.76,2.64,2.64,0,0,1,.88-.36l19.32-5.66a9.43,9.43,0,0,1,1-.14,1.48,1.48,0,0,1,1.56.82c.44,1.2.9,2.39,1.28,3.61q7.34,23.58,14.66,47.15l35.13,113.1c.47,1.51.9,3,1.37,4.62-.44.34-.75.77-1.16.89-5.35,1.61-10.72,3.17-16.08,4.74-.15,0-.31.06-.47.09a1.35,1.35,0,0,1-1.56-.79c-.33-.9-.65-1.8-.93-2.71q-14.82-48.12-29.62-96.23-2.82-9.17-5.7-18.3c-.08-.26-.36-.45-.58-.64,0,0-.31,0-.32.11a6.25,6.25,0,0,0-.21,1.41c.1,3,.2,6.07.36,9.11q.87,16.53,1.79,33c.46,8.31,1,16.61,1.45,24.91,0,.8.1,1.6.14,2.4.44,8.94.85,17.89,1.33,26.83.44,8.14.95,16.28,1.43,24.43.06,1.11.13,2.23.16,3.35.07,2.16-.2,2.62-2.07,3.17-3.37,1-6.75,2-10.13,2.92a1.73,1.73,0,0,1-1.71-.58c-.81-1.38-1.61-2.76-2.4-4.16q-23.42-41.85-46.85-83.7l-11.25-20.09c-.47-.83-.93-1.67-1.41-2.51-.31-.54-1-1-1.05-.78a1.54,1.54,0,0,0-.09.87c.79,3.09,1.57,6.19,2.41,9.27l29,105.89a40.22,40.22,0,0,1,1,4.18,1.35,1.35,0,0,1-.72,1.12c-5.65,1.71-11.33,3.35-17,5a1.58,1.58,0,0,1-1.6-.78c-.42-1.38-.82-2.76-1.2-4.15l-38.22-141.14q-2.82-10.41-5.62-20.83c-.37-1.38-.7-2.78-1-4.07a2.67,2.67,0,0,1,1.89-1.52l13.81-4,5.06-1.45c2.3-.65,2.5-.58,3.73,1.67q8.25,15.17,16.47,30.35Q1321.38-130.33,1346-85c.68,1.26,1.37,2.53,2.14,3.74C1348.29-80.95,1348.82-80.87,1349.42-80.56Z" transform="translate(-827.23 252.15)"/><path d="M1255.54,360.07c-.27-.13-.66-.19-.79-.41-.77-1.21-1.48-2.46-2.21-3.7-2.11-3.58-4.12-7.22-6.36-10.72a6.13,6.13,0,0,1-.87-5.45c.18-.6.26-1.23.38-1.85-.4-.59-.73-1.14-1.12-1.64-4.19-5.38-5.91-11.62-6.3-18.29a46.34,46.34,0,0,1,1.48-14.26c.35-1.39.71-2.78,1-4.12-1.55-3.1-1.55-3.1-3.92-5.37a2.74,2.74,0,0,0-1.71,1.5c-1.06,1.81-1.18,1.81-2.5.14-.7-.87-1.38-1.76-2.05-2.65-.33-.44.18-1.38.79-1.45a5.67,5.67,0,0,1,1.41-.11c1,.12,1.89.35,2.83.51.51.08,1.22-.67,1.21-1.22,0-.16,0-.32,0-.48q-.24-4.06-.5-8.14c0-.79-.08-1.6-.2-2.38-.46-2.8-1.49-5.23-4.23-6.57a4.57,4.57,0,0,1-.9-.82c0-.42-.13-1-.14-1.64a6.52,6.52,0,0,0-1.39-4,13.36,13.36,0,0,1-1.55-2.41,4.14,4.14,0,0,1-.29-1.86,1.21,1.21,0,0,1,.76-1.12,8.84,8.84,0,0,1,10.24,3.11,3.56,3.56,0,0,1,.31,3.65c-.46,1-1.13,1.93-1.6,2.94a2.64,2.64,0,0,0,2.39,3.38,8.36,8.36,0,0,0,1.42-.18c1.39-.34,2.77-.71,4.22-1.08a2.09,2.09,0,0,0,.84-1.58c.49-2.83,1-5.67,1.33-8.52a13.42,13.42,0,0,0-.68-5.68,6.48,6.48,0,0,0-5.91-4.83c-1.11-.09-2.24,0-3.36,0a3.39,3.39,0,0,1-2.55-1.13,15.26,15.26,0,0,1-1.83-2.2,27.77,27.77,0,0,1-1.4-2.86,2.41,2.41,0,0,1,2-1.42,11.41,11.41,0,0,1,5.23.24c1.83.58,3.63,1.22,5.43,1.88,2,.71,3.87,1.52,5.83,2.21a2.05,2.05,0,0,0,2.63-2,10.82,10.82,0,0,0-.2-1.89c-.24-1.09-.58-2.16-.84-3.25a1.62,1.62,0,0,1,1.41-2.07c.8,0,1.6-.08,2.39-.07,2,0,2.35.28,2.85,2.41.11.46.19.94.3,1.4.37,1.5.67,1.88,1.22,1.73.71-.2,1-.74,1.28-1.3s.56-1.16.88-1.71a1.42,1.42,0,0,1,2.07-.36c.52.36,1,.82,1.49,1.2a1,1,0,0,0,1.22-.33,7,7,0,0,0,.72-1.75,14.39,14.39,0,0,0-1.1-8.38c-.75.27-1.25.67-1.36,1.36-.2,1.1-.25,2.23-.5,3.31a25.16,25.16,0,0,1-1,2.74c-.6-.25-1.18-.31-1.43-.63a16.48,16.48,0,0,1-2.12-3.16,32.87,32.87,0,0,1-2.4-19.22,8.58,8.58,0,0,1,.56-1.83,1.19,1.19,0,0,1,1-.86,1.72,1.72,0,0,1,1.62.79,4.42,4.42,0,0,1,.54,1.31c.19.78.29,1.57.46,2.35.12.54,1.14.73,1.59.27a5.17,5.17,0,0,0,1.21-1.45,31.18,31.18,0,0,0,1-3.19c.18-.61.32-1.24.54-1.84a2.6,2.6,0,0,1,4.31-.95c.56.51,1.09,1,1.65,1.59a12.75,12.75,0,0,0,1.22-1,8,8,0,0,1,6.07-2.38c.8,0,1.6,0,2.39,0,.41,0,1-.64.87-1a4.74,4.74,0,0,0-.26-.91c-1.71-3.26-.12-3.71,2.25-4.07.31,0,.63-.07,1-.09a2,2,0,0,1,2,1.63c.16,1.26.24,2.54.46,3.79a2.94,2.94,0,0,0,.77,1.17,1.07,1.07,0,0,0,1.6-.3c.29-1.08.61-2.15.79-3.24.39-2.36.46-4.79,2.3-6.64-1.11-1.41-2-2.49-2.83-3.66a2.15,2.15,0,0,1,0-2.28,1.79,1.79,0,0,1,2.83-.28,15.12,15.12,0,0,1,.85,1.71c.68,1.42,1.29,1.61,2.56,1a6.41,6.41,0,0,0,3.29-3.92,4.06,4.06,0,0,0,.27-1.41c-.1-2.81,1.45-4.82,3.2-6.74q1.79-1.95,3.59-3.87c2.52-2.71,4.77-5.6,5.87-9.22a5,5,0,0,1,1.58-2.35c1.44-1.27,2.85-2.58,4.16-4s2.23-2.7,3.45-4.19a14.33,14.33,0,0,1,1.74-.32,6.82,6.82,0,0,0,4.24-2,204.58,204.58,0,0,1,16.54-13.86c5.22-4,10.5-7.85,15.79-11.73,8-5.86,16-11.67,23.64-18a6.26,6.26,0,0,1,1.22-.73.5.5,0,0,1,.4.08c.1.07.22.28.19.34-.5.81-1,1.61-1.52,2.42a1.49,1.49,0,0,0,0,1.77c.84,1.16,1.64,2.37,2.58,3.44a2.78,2.78,0,0,0,1.66.83,28.92,28.92,0,0,0,11.82-1.31,50.26,50.26,0,0,0,8.85-3.65c2.84-1.46,5.7-2.91,8.44-4.54a71.29,71.29,0,0,1,23.81-8.48c6.6-1.21,13.23-2.2,19.9-3,9-1.14,18.08-2.2,27.06-3.76,1.11-.19,2.19-.48,3.29-.66a7.66,7.66,0,0,1,1.63.15,33.92,33.92,0,0,1-13.88,4.41c-5.73.52-11.44,1.21-17.17,1.82a49.43,49.43,0,0,0-14.37,3.52,10.71,10.71,0,0,1-4.21.76,53.76,53.76,0,0,0-10.94,1.21A48.51,48.51,0,0,0,1420.8,115c-3.24,1.75-6.42,3.59-9.61,5.41a72.58,72.58,0,0,1-9,4.47,12.24,12.24,0,0,1-4.64,1c-2.4,0-4.79.21-7.22.33-1.52,1.44-3,2.88-4.54,4.29-2.88,2.65-6.08,4.67-10.11,5a3.77,3.77,0,0,0-2.17.91c-4.1,3.35-8.6,6.12-13,9.07q-2.79,1.88-5.47,3.9a37.2,37.2,0,0,0-10,10.85,5.09,5.09,0,0,1-2.36,2.27,38.51,38.51,0,0,0-10.49,7.49c-.93.88-1.85,1.77-2.75,2.67-3.74,3.75-7.53,7.41-12.23,10-1.76,4.58-4.41,8.57-7,12.61-.77,1.21-1.49,2.46-2.22,3.7a24.92,24.92,0,0,0-3.5,10.37,20.12,20.12,0,0,1-3.64,9.77,36.14,36.14,0,0,0-2.21,3.7,22.13,22.13,0,0,0-2.69,10.1c0,1.12-.06,2.24,0,3.36a14.61,14.61,0,0,1-2.64,9.58c.11.63.19,1.25.35,1.85a44.48,44.48,0,0,1,1.29,11.89c0,2.56,0,5.12,0,7.68a36.93,36.93,0,0,0,3.23,14.89c1.31,2.92,2.74,5.77,4.07,8.68a26,26,0,0,1,2.53,7.72,19.53,19.53,0,0,1,.21,3.81,63.37,63.37,0,0,1-1.59,10.42,10.26,10.26,0,0,1-2.58,5.06c-.23.22-.42.48-.63.71a5.51,5.51,0,0,0-1,6.24c.72,1.78,1.56,3.51,2.32,5.27a10.82,10.82,0,0,1,1.08,3.66,5.13,5.13,0,0,1-1.2,4c-.54.58-1.05,1.18-1.66,1.87.14.6.23,1.22.41,1.81a62.23,62.23,0,0,1,2.22,16.11c.15,4.31.08,8.64.24,12.95.12,3.35.45,6.7.65,10.05a14.47,14.47,0,0,0,1.16,4.62q2.64,6.43,5.21,12.89a139.39,139.39,0,0,1,4.91,14.53,9.81,9.81,0,0,1,.17,4.72l.2.07c-2.51-6.71-5-13.43-7.53-20.13-1.59-4.17-3.28-8.29-4.95-12.43a2.18,2.18,0,0,0-1.76-1.45c-5.53-.73-11.07-1.39-16.59-2.18a55.23,55.23,0,0,0-14.3-.39,2.35,2.35,0,0,1-2.19-.7,63,63,0,0,1-8.24-12.27c-.12-.24,0-.62,0-.93l-.1.08c.93,0,1.29.8,1.75,1.4a48.18,48.18,0,0,0,7.65,8.3l.2-.06-.34.1c0-.45.27-1,.09-1.34-1.33-2.35-2.72-4.68-4.14-7a149.89,149.89,0,0,1-9.16-16.19,2.68,2.68,0,0,0-.85-1.12,2.17,2.17,0,0,0-1.34-.18c-.17,0-.39.51-.39.78A3.83,3.83,0,0,0,1253,353c.68,1.79,1.42,3.55,2.08,5.34a12.23,12.23,0,0,1,.37,1.84Z" transform="translate(-827.23 252.15)"/><path d="M1444.07,1061.52c.19-5.6.36-11.19.58-16.79q.72-18.95,1.5-37.89c.14-3.51.23-7,.37-10.55q.4-10.54.85-21.1a3.89,3.89,0,0,1,.21-1.41,1.79,1.79,0,0,1,.91-1,6,6,0,0,1,1.89-.14q4.32.11,8.64.27c6.07.23,12.15.44,18.22.72,5.59.26,11.2.46,16.77,1a64.75,64.75,0,0,1,19,4.6,34.68,34.68,0,0,1,19.59,20,60.85,60.85,0,0,1,4.06,18.68c.21,3.19.28,6.4.2,9.59-.17,7.2-.47,14.39-.72,21.59,0,.8-.09,1.6-.12,2.39-.44,12.32-.83,24.63-1.32,36.94-.22,5.59-.48,11.19-1,16.76a78.72,78.72,0,0,1-3.83,18.27,58.29,58.29,0,0,1-3.62,8.36,35.85,35.85,0,0,1-22.43,18.25,49,49,0,0,1-12.73,2.19c-3.36.08-6.72.19-10.07.09-12.16-.37-24.31-.81-36.46-1.23-.8,0-1.59-.1-2.39-.18a1.65,1.65,0,0,1-1.45-1.61c.1-4.16.2-8.32.34-12.48.16-4.47.39-9,.56-13.42q.83-20.62,1.61-41.25c.14-3.67.25-7.35.36-11l.3-9.6Zm24.87,1.47h-.08q-.67,18.93-1.35,37.85c-.1,2.88-.29,5.75-.39,8.62q-.39,11-.74,22c0,.32,0,.64,0,1a1.51,1.51,0,0,0,1.54,1.48c3.83.2,7.66.34,11.49.61a47.5,47.5,0,0,0,11-.67,18.82,18.82,0,0,0,14.21-10.25,25.3,25.3,0,0,0,2.38-6.76,99.28,99.28,0,0,0,1.75-13.29c.46-6.7.76-13.4,1-20.11.48-12.3.88-24.6,1.32-36.89.06-1.6.18-3.19.27-4.79q.59-11,.42-22a59.15,59.15,0,0,0-1.1-10.48c-1.46-7.53-5.68-12.71-13.24-14.88a36.71,36.71,0,0,0-8-1.54c-5.11-.3-10.22-.53-15.33-.78a9.7,9.7,0,0,0-1.42.11,1.18,1.18,0,0,0-1,.9,8.52,8.52,0,0,0-.25,1.89c-.27,6.23-.55,12.45-.78,18.68Q1469.81,1038.31,1468.94,1063Z" transform="translate(-827.23 252.15)"/><path d="M953.73,198.37c-.28-.32-.52-.81-.91-1-1.14-.58-2.33-1-3.51-1.55l-59.92-25.7c-1.62-.69-3.22-1.4-4.83-2.12a1.58,1.58,0,0,1-.69-1.64,3.45,3.45,0,0,1,.12-.46q4.26-9.91,8.53-19.82a1.44,1.44,0,0,1,2-.83c1,.41,2.08.84,3.11,1.28q77.34,33.14,154.67,66.27c1.32.56,2.6,1.21,3.89,1.83a1.34,1.34,0,0,1,.42,1.28,8.74,8.74,0,0,1-.33.9q-4,9.48-8.12,19a4,4,0,0,1-.79,1.17,1.07,1.07,0,0,1-.86.3c-1.2-.4-2.4-.85-3.57-1.35q-17.87-7.62-35.7-15.28L975.47,207c-1.17-.51-2.36-1-3.55-1.43a1.58,1.58,0,0,0-2,.88c-.35.72-.68,1.45-1,2.18q-7.56,17.64-15.1,35.27c-.19.44-.4.87-.57,1.32a1.64,1.64,0,0,0,.79,2.39c1,.47,2,.89,3.08,1.33q33.5,14.35,67,28.73c1.59.68,3.36,1.08,4.56,2.35a3.16,3.16,0,0,1,0,1q-4.31,10.15-8.66,20.29a1.4,1.4,0,0,1-1.95.81l-1.33-.56q-8.37-3.57-16.75-7.16L860.3,234.56c-1-.44-2.06-.86-3.08-1.32a1.68,1.68,0,0,1-1.09-2.28c.11-.3.21-.61.33-.9L864,212.42a6.61,6.61,0,0,1,.9-1.68,1.58,1.58,0,0,1,1.23-.52,21,21,0,0,1,3.14,1.12q16.32,7,32.62,14,15.2,6.51,30.42,13c.87.37,1.78.7,2.68,1a1.6,1.6,0,0,0,1.61-.74c.15-.28.29-.57.41-.86q8.22-19.18,16.42-38.36A10.13,10.13,0,0,0,953.73,198.37Z" transform="translate(-827.23 252.15)"/><path d="M2061.31,757.8c1.25.7,2.52,1.38,3.75,2.12l94.21,57.36c1.09.66,2.19,1.31,3.24,2a5.8,5.8,0,0,1,1,1.21c-1.49,2.46-3,4.92-4.45,7.38s-3.15,5.19-4.75,7.77c-1.45,2.34-1.56,2.35-4.1.84-.55-.32-1.1-.65-1.64-1q-72.09-43.89-144.18-87.78c-1.08-.66-2.12-1.41-3.13-2.17-.2-.15-.22-.57-.26-.88a.84.84,0,0,1,.17-.44q3.72-6.15,7.46-12.29a1.91,1.91,0,0,1,2-1c7.27,1.06,14.54,2.14,21.82,3.19,5.37.78,10.76,1.52,16.14,2.28l16.13,2.3,17.56,2.53,16.6,2.44,15.66,2.26,18.5,2.68a14.27,14.27,0,0,0,1.63,0c-.33-.51-.48-1-.8-1.19-1.18-.81-2.41-1.56-3.64-2.31l-89.7-54.62c-1.09-.66-2.18-1.32-3.26-2-1.35-.87-1.47-1.33-.62-2.72q4.35-7.18,8.74-14.33c.8-1.31,1.3-1.39,2.74-.55l1.64,1,15.57,9.48,128.19,78.06c1.5.91,2.94,1.92,4.37,2.93.19.13.25.57.23.85a2,2,0,0,1-.31.89c-2.07,3.42-4.19,6.81-6.21,10.26a2.85,2.85,0,0,1-3.22,1.46c-3.32-.49-6.64-.94-10-1.44L2162.3,772l-16.59-2.48-15.65-2.33-16.59-2.49-15.65-2.32q-8.06-1.2-16.12-2.4c-5-.76-10.1-1.58-15.17-2.28-1.71-.24-3.48-.73-5.15.26.19-.39.27-.4.25,0Z" transform="translate(-827.23 252.15)"/><path d="M1340.23,1064c.72-.22.82-.87,1-1.43.79-2.6,1.58-5.2,2.34-7.81q14-48.33,28.07-96.68c.35-1.22.73-2.44,1.13-3.66a1.64,1.64,0,0,1,2-1c.47.1.94.19,1.4.32l13.34,3.88c.77.23,1.52.49,2.28.76a1.37,1.37,0,0,1,.88,1.51c-.31,1.24-.63,2.48-1,3.7q-19.8,68.13-39.61,136.26-3.62,12.44-7.24,24.86c-.4,1.38-.83,2.75-1.26,4.12a1.44,1.44,0,0,1-1.58.75c-4.15-1.18-8.3-2.35-12.44-3.56a2.35,2.35,0,0,1-1.71-2.1q-.51-4-1-8.09c-.76-6.67-1.5-13.35-2.27-20s-1.62-13.65-2.42-20.47c-.44-3.66-.86-7.31-1.29-11q-1.8-15.48-3.62-31c-.77-6.67-1.48-13.35-2.27-20-.64-5.39-1.37-10.77-2.06-16.16a.39.39,0,0,0-.28-.23c-.15,0-.38.07-.42.17a24.07,24.07,0,0,0-1,2.66q-11.52,39.58-23,79.18-4.29,14.73-8.59,29.45a5.73,5.73,0,0,1-.7,1.75,2.15,2.15,0,0,1-1.2.6,1.84,1.84,0,0,1-.94-.12l-16.56-4.83a2.11,2.11,0,0,1-.8-.48c-.22-.21-.53-.55-.49-.78.29-1.4.63-2.79,1-4.16q23.33-80.34,46.65-160.68c.45-1.53,1-3,1.48-4.55a1.31,1.31,0,0,1,1.55-.78c4.6,1.34,9.2,2.68,13.79,4a1.74,1.74,0,0,1,1.21,1.37c.28,1.58.53,3.16.72,4.74.79,6.51,1.52,13,2.31,19.53s1.64,13,2.44,19.51c.74,6,1.46,12.06,2.2,18.09q1.3,10.71,2.62,21.42,1.1,9,2.18,18.09c.76,6.35,1.48,12.71,2.26,19A7.58,7.58,0,0,0,1340.23,1064Z" transform="translate(-827.23 252.15)"/><path d="M1075.32,773.85a33.46,33.46,0,0,1,14.83,3.24,50.37,50.37,0,0,1,10.24,6.18,80.7,80.7,0,0,1,15.51,15.6,49.58,49.58,0,0,1,5.65,9.44,34.77,34.77,0,0,1,1.86,24.79,57.76,57.76,0,0,1-6.46,14.38,82.09,82.09,0,0,1-8.63,11.51c-1.8,2-3.67,4-5.58,5.94q-22.62,22.83-45.3,45.63-4.56,4.58-9.41,8.88a72.8,72.8,0,0,1-13.73,9.61,53.86,53.86,0,0,1-14.78,5.46,34.75,34.75,0,0,1-19.77-1.72,46.26,46.26,0,0,1-10.89-6,76.09,76.09,0,0,1-17.14-17.31,48.56,48.56,0,0,1-4.58-7.86A34.85,34.85,0,0,1,965,876.85a57.68,57.68,0,0,1,5.82-13.64A86.8,86.8,0,0,1,981.37,849c1.92-2.14,3.92-4.22,5.94-6.26q22.8-23,45.63-46a112.28,112.28,0,0,1,13.3-11.73,59.58,59.58,0,0,1,18.19-9.47A34.55,34.55,0,0,1,1075.32,773.85Zm-65.73,139.34a16.36,16.36,0,0,0,6.94-1.63,40.13,40.13,0,0,0,10.11-6.37c2.68-2.27,5.29-4.65,7.77-7.13,9.51-9.5,18.95-19.06,28.42-28.59q12.84-12.94,25.69-25.88a81.35,81.35,0,0,0,8.19-9.4,40.07,40.07,0,0,0,4.91-8.76,15,15,0,0,0-.85-13.41,35.58,35.58,0,0,0-14.48-14.29A15.61,15.61,0,0,0,1077,796a18.61,18.61,0,0,0-5.47,1.7,36.11,36.11,0,0,0-8.9,5.6c-2.69,2.27-5.33,4.61-7.81,7.1q-27.25,27.36-54.44,54.8a86.93,86.93,0,0,0-7.32,8.26,49.21,49.21,0,0,0-4.44,6.82,27,27,0,0,0-2.52,6.72,12.34,12.34,0,0,0,0,5.7,21.2,21.2,0,0,0,3.33,7.39,36.87,36.87,0,0,0,9.44,9.45,33.82,33.82,0,0,0,4.61,2.53A12.8,12.8,0,0,0,1009.59,913.19Z" transform="translate(-827.23 252.15)"/><path d="M2076.31,915.32a34.66,34.66,0,0,1-3.15,14.13,46,46,0,0,1-5,8.73,76.41,76.41,0,0,1-17.54,17.58,48.84,48.84,0,0,1-8.3,4.78,34.6,34.6,0,0,1-23.86,2,56.67,56.67,0,0,1-12.43-5,80.38,80.38,0,0,1-11.56-7.7,121.34,121.34,0,0,1-9.68-8.6q-23.28-22.86-46.58-45.7a125.17,125.17,0,0,1-11-12,70.61,70.61,0,0,1-8-12.51,44.89,44.89,0,0,1-4.45-14.6,34.94,34.94,0,0,1,2.66-17.81,47,47,0,0,1,4.6-8.41,77.91,77.91,0,0,1,19-19.41,46.4,46.4,0,0,1,9.65-5.29,34.31,34.31,0,0,1,22.09-1.36,57,57,0,0,1,15.31,6.69A94.26,94.26,0,0,1,2003.58,823c1.63,1.54,3.21,3.12,4.81,4.69l44.86,44a108.78,108.78,0,0,1,11.41,12.94,68.78,68.78,0,0,1,6.34,10.16,51,51,0,0,1,4.7,13.54A38.28,38.28,0,0,1,2076.31,915.32Zm-22,3.35a16.11,16.11,0,0,0-1.66-7.79,42.52,42.52,0,0,0-6.09-9.73,101.83,101.83,0,0,0-8.49-9.13l-31.52-30.91-22.26-21.84a79.7,79.7,0,0,0-9.83-8.42,40.91,40.91,0,0,0-8.39-4.59,15.08,15.08,0,0,0-13.41.86,35.62,35.62,0,0,0-14.24,14.52,13,13,0,0,0-.76,1.76,13.62,13.62,0,0,0-.66,8.92,39.46,39.46,0,0,0,1.81,4.94,34.75,34.75,0,0,0,4,6.51,77.8,77.8,0,0,0,8,8.94l21.56,21.19,33.91,33.26a80.73,80.73,0,0,0,10.23,8.69,42.19,42.19,0,0,0,8.41,4.56,15.58,15.58,0,0,0,13.85-.93,26.72,26.72,0,0,0,3.23-2.06,38,38,0,0,0,8.39-8.5,23.9,23.9,0,0,0,3-5.47A13.78,13.78,0,0,0,2054.3,918.67Z" transform="translate(-827.23 252.15)"/><path d="M1198.47,872.64a5.77,5.77,0,0,1-.37,1.28c-.84,1.54-1.73,3.06-2.61,4.58q-28.17,48.27-56.36,96.54a135,135,0,0,0-6.87,13.18,77.05,77.05,0,0,0-3.64,9.89,43.77,43.77,0,0,0-1.26,6.59,15.73,15.73,0,0,0,2.55,11,17.22,17.22,0,0,0,2.4,3,30.13,30.13,0,0,0,15,8.12,15.64,15.64,0,0,0,11.1-1.83,29.42,29.42,0,0,0,4.64-3.38,54.79,54.79,0,0,0,7.82-8.43,128,128,0,0,0,9.28-14q23.22-39.76,46.45-79.54,5.93-10.15,11.85-20.3a5.84,5.84,0,0,1,1.8-2.32,6.05,6.05,0,0,1,1.29.4q8.51,4.92,17,9.9a4.31,4.31,0,0,1,1.11.88,1,1,0,0,1,.28.83c-.64,1.28-1.31,2.56-2,3.8q-28.3,48.48-56.6,97a165.15,165.15,0,0,1-10.49,16.06A84.62,84.62,0,0,1,1181,1037a52.66,52.66,0,0,1-5.52,4.61c-9.76,6.89-20.4,8.74-31.9,5.35a48,48,0,0,1-5-1.69,75.78,75.78,0,0,1-20.12-12,48.89,48.89,0,0,1-5.83-5.68c-7.27-8.54-9.91-18.43-8.26-29.5a71.77,71.77,0,0,1,4.7-16.07,152.77,152.77,0,0,1,10.12-20.13q15.12-25.89,30.25-51.78l26.13-44.74c.73-1.24,1.48-2.47,2.24-3.69a1.52,1.52,0,0,1,1.72-.44,4.07,4.07,0,0,1,.44.18q8.89,5.2,17.78,10.44A3.8,3.8,0,0,1,1198.47,872.64Z" transform="translate(-827.23 252.15)"/><path d="M1547.81-75a13,13,0,0,1-1.77.26q-9.36.28-18.7.51a3.49,3.49,0,0,1-1.41-.18,2.49,2.49,0,0,1-1-.89,4.11,4.11,0,0,1-.45-1.36q-3.93-18.75-7.86-37.53c-.29-1.4-.67-2.78-1-4.26a10.84,10.84,0,0,0-1.93-.33q-6,.09-12,.26c-6.08.18-12.15.39-18.22.58-1,0-1.92.09-2.87.15a1.42,1.42,0,0,0-1.33,1.16c-.35,1.88-.71,3.77-1,5.66q-3,18.21-5.93,36.43c0,.16-.09.31-.13.46a1.68,1.68,0,0,1-1.29,1.24c-.31,0-.63.11-.94.12q-9.11.33-18.22.63a5.41,5.41,0,0,1-1.89-.14c-.36-.13-.85-.7-.82-1,.17-1.74.45-3.48.76-5.21q3.24-17.67,6.5-35.35c2.41-13,4.86-26.08,7.26-39.12,2.08-11.31,4.1-22.64,6.18-33.95,2.4-13,4.85-26.08,7.26-39.12q2.08-11.31,4.13-22.63c.09-.47.19-.94.29-1.41a1.71,1.71,0,0,1,1.29-1.25c.31,0,.62-.12.94-.13l19.18-.68a6.26,6.26,0,0,1,1.89.14,1.68,1.68,0,0,1,1,.86,33.48,33.48,0,0,1,1.07,3.67q8.76,36.1,17.49,72.2,8.91,36.81,17.84,73.6Q1545-89.56,1548-77.45A3,3,0,0,1,1547.81-75ZM1495.1-214a6,6,0,0,0-.93,1.37,21.83,21.83,0,0,0-.56,2.81c-1.13,7.26-2.23,14.52-3.36,21.78-1.1,7.1-2.24,14.19-3.35,21.29q-1.77,11.36-3.53,22.72c-.36,2.37-.64,4.74-.9,7.12,0,.2.3.58.53.65a6.93,6.93,0,0,0,1.86.28q11.51-.21,23-.48,1,0,1.92-.12a5.81,5.81,0,0,0,.91-.24,1.27,1.27,0,0,0,.77-1.09c-.82-3.9-1.63-7.81-2.46-11.71q-6-27.87-11.91-55.74C1496.49-208.18,1495.81-211,1495.1-214Z" transform="translate(-827.23 252.15)"/><path d="M1641.08,966.06c.72,1.57,1.35,2.86,1.91,4.17q34,79.34,68,158.66c.44,1,.85,2.07,1.25,3.11a1.34,1.34,0,0,1-1.09,1.76l-8,1.59-11.29,2.26a7.45,7.45,0,0,1-1,.08,1.62,1.62,0,0,1-1.53-.91c-.68-1.62-1.35-3.24-2-4.88q-6.32-16.07-12.61-32.14c-.35-.89-.68-1.8-1.09-2.66-.56-1.17-1-1.57-2.22-1.32q-12.7,2.49-25.39,5c-2.66.53-5.32,1.09-8.09,1.66a9,9,0,0,0-.47,1.85c-.07,1.6,0,3.2,0,4.8q.08,17,.14,34.07a15.89,15.89,0,0,1-.32,4.83,15.42,15.42,0,0,1-1.81.61q-8.93,1.8-17.86,3.54a5.93,5.93,0,0,1-1.88,0,1.25,1.25,0,0,1-.67-.58,1.9,1.9,0,0,1-.25-.9c0-1.28,0-2.56,0-3.84q.39-27.35.79-54.7.55-38.14,1.12-76.29.3-20.62.64-41.26c0-.32,0-.64,0-1,.07-3.07.24-3.28,3-3.83l2.82-.57,16-3.15A11.38,11.38,0,0,1,1641.08,966.06Zm-3,117.87a27.26,27.26,0,0,0,2.75-.25c2.82-.52,5.64-1.11,8.46-1.67l15.51-3.09a1.3,1.3,0,0,0,1-1.79c-.26-.76-.53-1.51-.82-2.25q-13.21-33.18-26.44-66.36a21.19,21.19,0,0,0-1-2.14c0-.1-.24-.13-.38-.16-.38-.08-.6.1-.61.52,0,1.12-.1,2.23-.09,3.35q.22,23.75.48,47.49c.09,7.67.28,15.35.45,23C1637.33,1081.7,1637.17,1082.85,1638,1083.93Z" transform="translate(-827.23 252.15)"/><path d="M1839.07-48.36c0,1.4-.76,2.28-1.29,3.25a91.44,91.44,0,0,0-4.75,9.94,63.54,63.54,0,0,0-3,9.61,31.56,31.56,0,0,0-.67,7.63,15.76,15.76,0,0,0,2.68,8.59,24.77,24.77,0,0,0,15.84,10.77,14.43,14.43,0,0,0,8.88-1.12,18.63,18.63,0,0,0,6.23-4.4,37.92,37.92,0,0,0,9.25-16,29.07,29.07,0,0,0,.83-8.57,73.9,73.9,0,0,0-1.81-14.74c-1.53-6.7-3.17-13.37-4.79-20.05-1.85-7.61-3.7-15.22-5.61-22.82a58.17,58.17,0,0,1-1.71-15.21,39.42,39.42,0,0,1,2.6-13.59,62.31,62.31,0,0,1,14.23-22,36.09,36.09,0,0,1,12.71-8.42,35.38,35.38,0,0,1,22.61-.82,45.4,45.4,0,0,1,5.86,2.09,63.75,63.75,0,0,1,19.69,13.46,39.55,39.55,0,0,1,6.17,7.93,32.24,32.24,0,0,1,4.2,21.24,56.66,56.66,0,0,1-3.32,13,76.62,76.62,0,0,1-5.72,12.12,1.55,1.55,0,0,1-1.65.65c-.46-.14-.9-.33-1.35-.49l-14.93-5.24a23.24,23.24,0,0,1-2.48-1.1,3.3,3.3,0,0,1,.59-2.44,77.42,77.42,0,0,0,4.75-9.94,42.61,42.61,0,0,0,2.76-10.65,15,15,0,0,0-3.91-12.4,29.11,29.11,0,0,0-16-9,14.13,14.13,0,0,0-9.28,1.57,16.5,16.5,0,0,0-4.25,3.11,33.25,33.25,0,0,0-8.06,12.91c-1.49,4.35-1.3,8.82-.65,13.29a123.37,123.37,0,0,0,2.72,12.16c2.35,9.46,4.77,18.91,7.17,28.36a103.62,103.62,0,0,1,3.18,30.42,50.61,50.61,0,0,1-2.51,13.64,57.47,57.47,0,0,1-13.37,21.94,38.24,38.24,0,0,1-16,10.16,38.08,38.08,0,0,1-25.41-.59A55.25,55.25,0,0,1,1815.3,2.29,36.31,36.31,0,0,1,1808-13.17a30.78,30.78,0,0,1-.52-3.31,51.62,51.62,0,0,1,1.93-20.41,77.7,77.7,0,0,1,8.07-17.87,1.9,1.9,0,0,1,2.07-.84c.31.08.63.13.93.24q8.58,3.06,17.14,6.15A8.91,8.91,0,0,1,1839.07-48.36Z" transform="translate(-827.23 252.15)"/><path d="M1201.55-122.06c-2.21,2.87-9.58,10.8-13.69,14.78a5.79,5.79,0,0,1-1.13.71c-1.31-.62-1.86-1.83-2.64-2.82a78,78,0,0,0-7.67-8.57,45.2,45.2,0,0,0-6.4-5,15.66,15.66,0,0,0-15.11-1.4,30.2,30.2,0,0,0-11.33,7.88c-4.33,4.82-5.51,10.34-3.34,16.47a32.07,32.07,0,0,0,9,13.37,23.9,23.9,0,0,0,7.44,4.28,51.21,51.21,0,0,0,9.69,2.68c9.75,1.76,19.52,3.38,29.27,5.12,6.92,1.23,13.85,2.41,20.56,4.59A86.87,86.87,0,0,1,1233-62.86a53.48,53.48,0,0,1,25,31.54c4,13,1.3,25-7.2,35.6a37.33,37.33,0,0,1-4.29,4.51,56.89,56.89,0,0,1-23.34,12.75,37.25,37.25,0,0,1-24.42-1.61,50.18,50.18,0,0,1-12-7,74.45,74.45,0,0,1-15.26-16.48,5.81,5.81,0,0,1-.49-1.24,4.7,4.7,0,0,1,.47-.93q6.76-7.12,13.56-14.24a2,2,0,0,1,.77-.56c.27-.09.72-.11.87.05a21.6,21.6,0,0,1,1.86,2.18,83.85,83.85,0,0,0,8.82,10.1,51.49,51.49,0,0,0,8.24,6.56A24.67,24.67,0,0,0,1211.25,1,17.36,17.36,0,0,0,1222.57.8a26.37,26.37,0,0,0,10.82-6.87c3.86-4.14,5.4-9,4.11-14.58a12.39,12.39,0,0,0-.29-1.4c-3.21-9.26-8.53-16.77-17.65-21.07A68.43,68.43,0,0,0,1205-47.84c-4.84-1-9.71-2-14.57-2.86q-12.26-2.27-24.53-4.45c-3.61-.65-7.24-1.21-10.8-2.19a55.85,55.85,0,0,1-8.55-3.08,41,41,0,0,1-12.5-8.75,63.63,63.63,0,0,1-13.5-20.78,38.09,38.09,0,0,1-2.62-11.16,34,34,0,0,1,4.62-20.24,35.88,35.88,0,0,1,5.13-6.92,59.44,59.44,0,0,1,28.46-16.94,31,31,0,0,1,22,2.11,49.16,49.16,0,0,1,5.83,3.31C1190.88-135,1196.46-128.94,1201.55-122.06Z" transform="translate(-827.23 252.15)"/><path d="M2029.09,255.71a7.07,7.07,0,0,1-1.54,0,2.19,2.19,0,0,1-1.14-.72,4.07,4.07,0,0,1-.65-1.28q-3-8.35-5.88-16.73a1.77,1.77,0,0,1,.6-2.13c1.2-.79,2.41-1.57,3.63-2.33l100.47-62.72,44.74-27.94c1.08-.68,2.16-1.36,3.26-2,1.32-.78,2-.55,2.55.89q3.3,9.27,6.55,18.53a1.71,1.71,0,0,1-.66,2.11c-1.48.95-3,1.89-4.46,2.81L2073.92,227c-1.36.83-2.66,1.76-4,2.66-.09.06-.11.3-.08.45a.41.41,0,0,0,.28.25,3.32,3.32,0,0,0,.94.08l16.14-2.23,17.57-2.44q9-1.26,18-2.5c5.7-.79,11.41-1.55,17.1-2.33l17.1-2.34,17.09-2.39q9.27-1.29,18.52-2.56c2.22-.3,4.45-.54,6.67-.79a1.86,1.86,0,0,1,1.52,1c.62,1.64,1.25,3.28,1.83,4.94,1.48,4.22,2.94,8.45,4.41,12.68.16.45.28.91.41,1.37a1.15,1.15,0,0,1-1,1.36c-2.54.33-5.07.69-7.61,1-9.21,1.09-18.42,2.13-27.62,3.25s-18.39,2.34-27.59,3.46-18.41,2.13-27.61,3.25-18.39,2.34-27.6,3.45-18.41,2.14-27.61,3.26c-9,1.09-18.08,2.26-27.12,3.39C2032.49,255.4,2031.21,255.5,2029.09,255.71Z" transform="translate(-827.23 252.15)"/><path d="M976.86,12A108.16,108.16,0,0,1,991,22.62c-.12,1.35-1.13,2.22-1.88,3.2Q978.58,39.8,968,53.74c-.77,1-1.52,2.06-2.26,3.1a1.42,1.42,0,0,0,.12,1.76c.61.52,1.22,1,1.85,1.52L1009,91.41l.39.29c2.43,1.79,2.45,1.79,4.15-.4.78-1,1.55-2,2.32-3l14.2-18.74c.68-.89,1.34-1.79,2-2.67,1.22-1.56,1.66-1.65,3.12-.57,1.81,1.32,3.59,2.68,5.37,4,6.08,4.59,6.62,5,6.4,5.54-1.07,2.54-3,4.49-4.63,6.65-4.7,6.27-9.46,12.49-14.18,18.75a7.17,7.17,0,0,0-1.73,2.84c.3,1,1.19,1.43,1.93,2q11.27,8.57,22.55,17.11l22.94,17.38c1,.77,2.05,1.53,3.09,2.27a1.38,1.38,0,0,0,1.75-.14c.7-.87,1.4-1.75,2.08-2.64q10.57-14,21.16-27.9c.87-1.14,1.82-2.22,2.79-3.27.15-.17.59-.17.87-.12a2.21,2.21,0,0,1,.85.43q5.74,4.33,11.47,8.7c1,.75,1,1.33.23,2.42-1.72,2.31-3.46,4.6-5.2,6.9l-32.75,43.2c-.78,1-1.54,2.05-2.41,3a1.37,1.37,0,0,1-1.28.25c-1.22-.75-2.38-1.61-3.53-2.48q-23.9-18.09-47.79-36.22Q982.36,102.51,939.53,70c-1.27-1-2.47-2-3.67-3.06a.94.94,0,0,1-.16-.87,12.32,12.32,0,0,1,1.21-2c2.69-3.58,5.41-7.14,8.11-10.71Q959.66,34,974.31,14.74C975.06,13.75,975.6,12.53,976.86,12Z" transform="translate(-827.23 252.15)"/><path d="M2224,309a7.85,7.85,0,0,1,1.08,0,1.14,1.14,0,0,1,1.09.78,24.52,24.52,0,0,1,.65,2.79c1.09,8.24,2.13,16.49,3.24,24.72s2.29,16.47,3.41,24.7c.61,4.44,1.16,8.88,1.73,13.32.16,1.31-.21,1.91-1.34,2.07-4.42.64-8.86,1.27-13.29,1.87a8.65,8.65,0,0,1-2.38.06,1.82,1.82,0,0,1-1-.85,3.47,3.47,0,0,1-.4-1.36c-.75-5.55-1.47-11.09-2.22-16.64q-1.51-11.4-3.08-22.81a1.82,1.82,0,0,0-.36-.86,1.23,1.23,0,0,0-.73-.52,14.28,14.28,0,0,0-2.85,0c-5.7.76-11.4,1.6-17.1,2.37-5.86.79-11.72,1.54-17.58,2.32-5.39.71-10.78,1.41-16.16,2.14a22.75,22.75,0,0,0-2.8.66,1.08,1.08,0,0,0-.77,1.07,21.14,21.14,0,0,0,.14,2.87c.77,5.7,1.67,11.39,2.34,17.1.52,4.44,1.49,8.83,1.56,13.33a1,1,0,0,1-.76,1.08,145.81,145.81,0,0,1-14.71,2.08c-.15,0-.31,0-.47,0a1.52,1.52,0,0,1-1.32-1.18c-.39-2.69-.78-5.38-1.14-8.07q-1.59-11.88-3.16-23.77c0-.16-.07-.31-.1-.47a1.64,1.64,0,0,0-1.64-1.42c-1.91.18-3.83.34-5.73.59q-10.21,1.35-20.43,2.75L2083,353.14c-3.64.5-7.29,1-10.93,1.45a1.54,1.54,0,0,0-1.38,1.65q.57,4.75,1.2,9.51,1.2,8.79,2.43,17.57.84,6.18,1.67,12.36c.08.63.14,1.27.18,1.91a1.56,1.56,0,0,1-1.32,1.69q-4,.59-8.07,1.14l-6.66.84a1.4,1.4,0,0,1-1.46-1,13.41,13.41,0,0,1-.34-1.39c-.75-5.71-1.47-11.41-2.24-17.12s-1.62-11.71-2.42-17.57q-1.11-8.08-2.18-16.16-.87-6.42-1.73-12.83c-.06-.47-.08-.95-.11-1.43a1.34,1.34,0,0,1,1.08-1.36c1.89-.32,3.77-.66,5.67-.92q13.78-1.89,27.56-3.72c5.86-.78,11.73-1.5,17.59-2.28s11.71-1.64,17.57-2.44c5.71-.77,11.41-1.51,17.11-2.26q8.8-1.17,17.59-2.36t17.57-2.4l19-2.57c5.86-.78,11.72-1.53,17.58-2.31l10.45-1.43C2220.12,309.49,2221.86,309.28,2224,309Z" transform="translate(-827.23 252.15)"/><path d="M1012.9,692a11.55,11.55,0,0,0-1.68.73Q987.91,707,964.61,721.28c-.41.25-.78.55-1.17.83a1.11,1.11,0,0,0-.29,1.29c.64,1.11,1.27,2.22,1.93,3.31q6.39,10.44,12.79,20.86c.74,1.21,1.41,2.47,2.17,3.82a11.68,11.68,0,0,1-1.47,1.34q-5.7,3.54-11.45,7c-1.54.93-2,.81-3-.9q-4.15-6.74-8.28-13.49c-2.17-3.54-4.34-7.09-6.53-10.62a10.4,10.4,0,0,0-1.4-1.92,1.44,1.44,0,0,0-1.28-.3,22.52,22.52,0,0,0-2.93,1.6q-20.46,12.52-40.89,25.07l-23.72,14.53a14.63,14.63,0,0,1-2.13,1.07,1.25,1.25,0,0,1-.88-.23,2.12,2.12,0,0,1-.64-.69q-5.65-9.2-11.28-18.41a1.37,1.37,0,0,1,.48-2.05c.26-.18.51-.38.78-.55l2.05-1.24,143.11-87.74c1.36-.84,2.77-1.59,4.18-2.32a1,1,0,0,1,.88.17,7.78,7.78,0,0,1,1.2,1.48c1.61,2.57,3.19,5.17,4.77,7.76l27.34,44.57c.5.82,1,1.64,1.48,2.47.79,1.35.68,1.9-.67,2.73q-6.12,3.76-12.29,7.48c-.82.5-1.41.31-2-.54-.27-.4-.53-.8-.79-1.21l-2-3.27q-8.64-14.1-17.3-28.21C1014.69,693.92,1014.23,692.66,1012.9,692Z" transform="translate(-827.23 252.15)"/><path d="M1706,954.78c.12-.29.16-.71.37-.83a30.68,30.68,0,0,1,3-1.51l27.77-11.86,45-19.18c1.32-.57,2.66-1.08,4-1.59a1.46,1.46,0,0,1,1.62.7c.15.28.33.55.45.84,1.88,4.41,3.77,8.82,5.63,13.23a1.6,1.6,0,0,1-.94,2.33q-6.83,3-13.65,5.87l-10.15,4.3c-.73.31-1.46.65-2.18,1a1.6,1.6,0,0,0-.73,1.62c.52,1.34,1,2.68,1.59,4l44,103.17q7.15,16.76,14.29,33.51c.56,1.33,1.09,2.66,1.62,4a1.55,1.55,0,0,1-.55,1.69c-.28.15-.55.31-.84.44l-19.39,8.29a1.49,1.49,0,0,1-2-.69c-.46-1-.9-2-1.34-3.08q-29.27-68.55-58.55-137.11c-2.62-6.14-1.69-5.8-7.68-3.27-6.77,2.85-13.52,5.76-20.28,8.65a30.92,30.92,0,0,1-3.11,1.23,1.63,1.63,0,0,1-1.27-.39,3.09,3.09,0,0,1-.72-1.22q-2.82-6.61-5.62-13.24C1706.2,955.39,1706.13,955.08,1706,954.78Z" transform="translate(-827.23 252.15)"/><path d="M858.2,311.41c-.41,2.84-.86,6.17-1.37,9.48-.78,5.05-1.61,10.1-2.41,15.15-.12.79-.17,1.59-.23,2.38a1.43,1.43,0,0,0,1.36,1.62c3.15.54,6.3,1.1,9.46,1.58,7.26,1.11,14.53,2.16,21.8,3.27s14.51,2.29,21.78,3.4,14.53,2.17,21.79,3.28,14.52,2.27,21.78,3.39l14.69,2.25q11.61,1.79,23.21,3.57c5.21.79,10.43,1.54,15.64,2.33,1.58.24,3.14.56,4.71.87a1.47,1.47,0,0,1,1.22,1.73c0,.64-.09,1.28-.19,1.91q-1.44,9.48-2.91,18.95c0,.16-.07.31-.1.47a1.64,1.64,0,0,1-1.68,1.37c-1.9-.23-3.8-.46-5.7-.75q-11.61-1.76-23.21-3.57l-21.78-3.38c-4.89-.76-9.79-1.5-14.68-2.25q-11.61-1.79-23.21-3.57c-7.27-1.1-14.54-2.17-21.8-3.28s-14.52-2.27-21.78-3.38c-5.37-.83-10.74-1.61-16.12-2.41-2.21-.33-4.42-.66-6.63-.94-1.11-.13-1.75.44-2,1.58-.07.31-.15.62-.2.94-.1.63-.16,1.27-.26,1.9q-1.92,12.56-3.86,25.11c0,.31-.15.62-.22.93s-.71.9-1,.86c-5.39-.6-10.76-1.36-16.08-2.46a1.16,1.16,0,0,1-.88-1,2.81,2.81,0,0,1,0-1c.12-1.11.23-2.22.4-3.33q1.8-11.84,3.62-23.69c1.45-9.31,2.93-18.62,4.36-27.94,1.11-7.26,2.18-14.53,3.28-21.8.38-2.52.81-5,1.23-7.56a1.73,1.73,0,0,1,1.37-1.18c1,.06,1.92.08,2.86.22,4.11.62,8.21,1.28,12.31,1.93a1.71,1.71,0,0,1,1.57,2Z" transform="translate(-827.23 252.15)"/><path d="M2026.85-60.21c.49.44,1,.82,1.43,1.28q6.79,7.45,13.55,14.92a8.73,8.73,0,0,1,.86,1.14,1,1,0,0,1-.12,1.32c-1,1-2,2-3.07,3q-17.41,15.81-34.83,31.59-38,34.49-76,69c-1.28,1.16-2.78,2.16-3.68,3.91.92,1.08,1.83,2.18,2.79,3.23l25.12,27.74c.72.8,1.65,1.5,1.82,2.65a130.58,130.58,0,0,1-12.49,11.35,4.56,4.56,0,0,1-1.2-.62c-.92-.89-1.77-1.85-2.63-2.79q-20.31-22.4-40.61-44.78c-1-1.06-1.85-2.18-2.71-3.21.21-.45.27-.8.48-1q65-59,130-118A7,7,0,0,1,2026.85-60.21Z" transform="translate(-827.23 252.15)"/><path d="M1653.7-61.34c-2-.37-4.17-.77-6.37-1.2l-38.58-7.53L1589-73.94c-.32-.07-.62-.17-.93-.25a1.65,1.65,0,0,1-1.3-1.74c.06-.47.1-1,.19-1.42q6.46-32.94,12.94-65.88,6-30.6,11.88-61.2,3.9-20,7.82-40c.25-1.26.54-2.5.83-3.75a1.52,1.52,0,0,1,1.84-1.1c.31,0,.63.09.94.15,6.28,1.23,12.55,2.44,18.82,3.69a10.64,10.64,0,0,1,2.23.81,1.09,1.09,0,0,1,.5.76,5.76,5.76,0,0,1-.18,1.42q-1.8,9.42-3.62,18.84-3.12,16-6.26,32-3.59,18.36-7.16,36.72t-7.2,36.7q-2.73,13.89-5.42,27.77a12.62,12.62,0,0,0-.24,2.37,1,1,0,0,0,.51.74,16.73,16.73,0,0,0,2.75.83q15.52,3,31.06,6c2.83.55,5.64,1.15,8.45,1.77a1.37,1.37,0,0,1,1.23,1.72q-.43,2.61-1,5.19c-.58,3-1.22,6-1.79,8.93C1655.66-61.48,1654.9-61.26,1653.7-61.34Z" transform="translate(-827.23 252.15)"/><path d="M1762-217.28a3,3,0,0,1,1,0q10.21,4.14,20.42,8.33a1.53,1.53,0,0,1,.91,1.95c-.46,1.19-.94,2.37-1.43,3.56q-28.25,69-56.5,138a21.86,21.86,0,0,0-1.88,5.31,7.76,7.76,0,0,0,3.42,1.91l32.82,13.44c1.33.55,2.65,1.12,4,1.7,1.12.5,1.32,1,.8,2.29q-2.7,6.68-5.44,13.31a1.44,1.44,0,0,1-2,.87c-1.21-.44-2.41-.88-3.59-1.36l-55.88-22.89c-1-.43-2.08-.84-3.07-1.36-.39-.2-.66-.66-1.1-1.12q33.38-81.39,66.76-162.79A6.44,6.44,0,0,1,1762-217.28Z" transform="translate(-827.23 252.15)"/><path d="M1829,898.18c.86-.69,1.32-1.11,1.85-1.46q8-5.34,16-10.63c.4-.27.82-.5,1.24-.73a1.43,1.43,0,0,1,1.73.29c.84,1.16,1.68,2.33,2.48,3.52q25.1,37.73,50.18,75.46,21.24,31.93,42.46,63.89c.88,1.32,1.74,2.67,2.64,4-.26.45-.39,1-.73,1.23q-9.33,6.3-18.71,12.53a5.34,5.34,0,0,1-1.27-.89c-.77-1-1.46-2.1-2.17-3.17l-93.18-140.13C1830.69,900.94,1830,899.7,1829,898.18Z" transform="translate(-827.23 252.15)"/><path d="M1980.75,163.93a3.37,3.37,0,0,1-.71-.64q-5.64-9.19-11.25-18.41a1.36,1.36,0,0,1,.43-2c.27-.18.52-.37.79-.54.69-.41,1.38-.81,2.06-1.23l144.2-87.79c1.21-.74,2.47-1.41,3.59-2.05.33.14.49.18.63.26a1.08,1.08,0,0,1,.36.31q5.54,9,11.05,18a18.23,18.23,0,0,1,.86,1.85,11.38,11.38,0,0,1-1.14.93q-75,45.61-150,91.21A2.82,2.82,0,0,1,1980.75,163.93Z" transform="translate(-827.23 252.15)"/><path d="M1538.82,436.61c2.72-1.34,5-2.52,7.54-3a9.22,9.22,0,0,1,6,1,2.48,2.48,0,0,1,1.44,2.3,13,13,0,0,1-1.14,5.1,2.25,2.25,0,0,1-2.3,1.37,16.7,16.7,0,0,1-7.23-2.3c-1.09-.68-2.15-1.39-3.26-2a2.16,2.16,0,0,0-1.86,0,8.35,8.35,0,0,0-3.44,2.51c-.91,1.11-1.74,2.29-2.6,3.43s-1.67,2.35-2.62,3.42a6.79,6.79,0,0,1-6.85,2.5,5.84,5.84,0,0,0-3.7.49,20.9,20.9,0,0,0-9,6.94l-1.68,2.26-2.78,1a8.19,8.19,0,0,0-5.11,5.34,16.2,16.2,0,0,0-1,5.16c0,.95-.1,1.89-.16,2.88-1,.4-1.86.77-2.74,1.09a8.7,8.7,0,0,0-4.84,4.41,39.44,39.44,0,0,0-1.86,4.4c-.71,1.95-1.27,3.95-1.93,5.92a16.91,16.91,0,0,1-2.35,4.69,3.08,3.08,0,0,1-2.4,1.39c-2.07.06-4.15,0-6.23.07a3.83,3.83,0,0,1-3.35-1.47,16.44,16.44,0,0,0-4-3.34c-1.07-.71-2.14-1.41-3.15-2.19a7.62,7.62,0,0,1-2.91-7.2,11.41,11.41,0,0,1,2.8-6.5,19.8,19.8,0,0,1,4.68-4.08c2-1.26,4.13-2.42,6.21-3.6,1.24-.7,2.49-1.37,3.7-2,.25-1.09.43-2,.67-2.94a21,21,0,0,1,5.68-9.84c1.6-1.56,3.32-3,5-4.47l8.28-7.26c.47,0,1.41-.16,2.35-.21,1.43-.06,2.86-.07,4.39-.1.93-.87,1.83-1.75,2.78-2.59a35,35,0,0,1,15.45-8.29,17,17,0,0,1,4.26-.44,8.89,8.89,0,0,1,7.4,3.76C1537.53,434.86,1538.09,435.61,1538.82,436.61Z" transform="translate(-827.23 252.15)"/><path d="M1602,425.47c1,.71,2.18,1.56,3.4,2.32a6,6,0,0,0,4.56.77,48.06,48.06,0,0,1,24.1,2.06,40.33,40.33,0,0,1,11.52,5.78c.51.38,1.06.7,1.44,1,1.14.19,1.59-.55,2.17-1.05,1.38-1.18,2.23-.91,3.45-.08a12.21,12.21,0,0,1,3.62,4.41,2.57,2.57,0,0,1,.19,2.3,55.48,55.48,0,0,1-5,9.8,52.17,52.17,0,0,1-3.14,4.24,27.7,27.7,0,0,1-5.23,4.91c-1.86,1.37-2.74,1.62-4.66,0a26.31,26.31,0,0,1-3.26-3.49c-1.1-1.37-2-2.87-3.09-4.27a45.26,45.26,0,0,0-3-3.72,10.87,10.87,0,0,0-7.5-3.81,5.87,5.87,0,0,1-2.68-.91c-1.94-1.11-3.93-2.13-5.9-3.17-1-.53-2-1-3-1.56a16.78,16.78,0,0,1-6.81-5.88,2.53,2.53,0,0,0-2.9-1.14,8.32,8.32,0,0,0-2.23.78,16.46,16.46,0,0,0-2,1.35,6,6,0,0,1-6.4.64c-.37-.84-.74-1.72-1.15-2.59a1.79,1.79,0,0,0-1.53-1,6.42,6.42,0,0,0-4.14.9q-2,1.25-4.09,2.48a1.53,1.53,0,0,1-1.8,0,31.6,31.6,0,0,0-4.45-2.79,5.49,5.49,0,0,1-1.36-1.32,1.94,1.94,0,0,1-.41-1.79,8.87,8.87,0,0,1,.7-1.79,2.13,2.13,0,0,1,2-1.14c1.11.06,2.2.3,3.3.47a3.94,3.94,0,0,0,3.58-.86,8.67,8.67,0,0,1,5.72-2.12c1-.05,1.92-.11,2.87-.09Z" transform="translate(-827.23 252.15)"/><path d="M1541.26,386.47a14.66,14.66,0,0,1-3.25,3.18c-1.14,0-2.4-.09-3.67-.17a79.34,79.34,0,0,0-36.86,6.55c-.29.13-.56.32-.84.46-.59.31-.89.73-.66,1.05a3.11,3.11,0,0,0,1,1,14.51,14.51,0,0,0,2.23.82c.46.15,1,.18,1.39.37a2,2,0,0,1,1.2,1.4,19.29,19.29,0,0,1,.38,2.82,2.12,2.12,0,0,1-1.61,2.11c-.93.2-1.88.34-2.82.52a37.08,37.08,0,0,1-15.2-.39,19.66,19.66,0,0,1-5.76-2.29,11.68,11.68,0,0,1-4.79-5.19,4.14,4.14,0,0,1,.26-4.1,7,7,0,0,1,2.69-2.65,37.32,37.32,0,0,1,3.88-1.86,26.34,26.34,0,0,0,7-4.16c1.74-1.4,3.43-2.87,5.19-4.24,2.26-1.78,4.53-3.53,6.85-5.22a28.3,28.3,0,0,1,5.87-3.2,20.33,20.33,0,0,1,16.27,0c1,.43,2,.93,3,1.4a3.46,3.46,0,0,0,2.3.35,12.51,12.51,0,0,1,10,2,4.54,4.54,0,0,0,.83.47,1.52,1.52,0,0,0,1.74-.36c.34-.33.66-.67,1-1,.11-.1.37-.19.43-.13.23.18.53.41.55.65.11,1.11.11,2.23.22,3.34s.24,2.22.44,3.32S1541,385.44,1541.26,386.47Z" transform="translate(-827.23 252.15)"/><path d="M1446.64,335l6.84.26c4.52.16,8.92-.32,12.83-2.6,3.84,1.65,3.84,1.67,8,1.84a37.23,37.23,0,0,1,7.14.69,2.15,2.15,0,0,1,1.59,2.11,7.7,7.7,0,0,1-1.66,4.89,1.86,1.86,0,0,1-1.17.7c-1.27.12-2.56,0-3.82.16-1.09.15-2.41.41-2.89,1.45a2.23,2.23,0,0,1-2.13,1.49,28.55,28.55,0,0,0-3.33.4,6.26,6.26,0,0,1-2.82-.18,15.29,15.29,0,0,0-9,.24c-2.28.74-4.54,1.53-6.79,2.33-1.8.64-3.58,1.36-5.38,2a14.24,14.24,0,0,1-2.29.66,27.39,27.39,0,0,0-7.84,2.8,64.91,64.91,0,0,1-6.58,2.84c-1.78.69-3.64,1.18-5.46,1.77-1.07.34-2.13.69-3.17,1.08-5.07,1.87-6.45,2.77-10.29,6.7-.3.09-.62.3-.9.26a14.41,14.41,0,0,0-8.79,1.61,10.45,10.45,0,0,1-6,1.29,2,2,0,0,1-1.68-1.45,7.44,7.44,0,0,1,2.4-7.37,25.45,25.45,0,0,1,3-2.31c1.07-.7,2.19-1.31,3.3-2a17.48,17.48,0,0,0,5.86-5c.72-.22,1.46-.51,2.23-.67a31.16,31.16,0,0,0,10.45-4.63c2.15-1.39,4.25-2.84,6.41-4.2a26,26,0,0,1,6.48-3.07,20.56,20.56,0,0,1,7.56-1c1,.07,1.91.16,2.86.15a4.28,4.28,0,0,0,3.06-1.18C1445.41,336.47,1446,335.72,1446.64,335Z" transform="translate(-827.23 252.15)"/><path d="M1568.87,322a9.28,9.28,0,0,1-.43-7.8,10.66,10.66,0,0,1,2.66-3.94c2-1.85,4-3.66,6.11-5.4a5.25,5.25,0,0,1,2.15-1c6-1.3,11.6-3.59,17.36-5.49a73.31,73.31,0,0,1,11.6-2.95,27.79,27.79,0,0,1,9.54,0c4.71.91,9.42,1.78,14.14,2.65,1.41.26,2.85.4,4.25.72a14.88,14.88,0,0,0,8-.32,11.06,11.06,0,0,1,3.3-.39,2.29,2.29,0,0,1,2.33,2.47,7.74,7.74,0,0,1-1.65,4.9,2,2,0,0,1-1.6.9c-1,0-1.92,0-2.88,0a83.13,83.13,0,0,0-21,1.6,93,93,0,0,1-12.33,1.79c-2.39.17-4.79.15-7.19.16a4.76,4.76,0,0,0-3.88,1.49c-.11.12-.25.21-.36.33a4.52,4.52,0,0,1-4,1.27,12,12,0,0,1-5.49-1.51,1.49,1.49,0,0,0-1.78.15q-4,3-8,6.12a22.31,22.31,0,0,0-2.8,2.61C1573.48,324.23,1574.32,324.17,1568.87,322Z" transform="translate(-827.23 252.15)"/><path d="M1563.1,502.33h7.66a47.19,47.19,0,0,0,11.33-1.64c3.71-.95,7.43-1.85,11.14-2.78a21.06,21.06,0,0,1,5.71-.44,12.55,12.55,0,0,1,5.91,1.69,1.39,1.39,0,0,1,.51,2.32,14.37,14.37,0,0,1-4.61,3.36,55.79,55.79,0,0,1-5.32,2.15c-2.1.73-4.27,1.29-6.39,2a51,51,0,0,0-5.42,1.88,30.49,30.49,0,0,1-8.14,2.56c-2.83.42-5.59,1.34-8.5,1.22a3.07,3.07,0,0,0-2.86,1.41c-.09.14-.21.24-.3.37a2.64,2.64,0,0,1-2.46,1.2c-5.58-.34-11.15-.67-16.72-1.07a16,16,0,0,1-6-1.68,9.73,9.73,0,0,1-3.34-2.67,1.75,1.75,0,0,1-.21-1.78,16.93,16.93,0,0,1,1-1.63c2.45-3.25,5.91-4.82,9.78-5.47a82.78,82.78,0,0,1,9-.86c2.71-.14,5.42,0,8.14,0Z" transform="translate(-827.23 252.15)"/><path d="M1572.58,358.11A20.73,20.73,0,0,1,1588.7,365a16.2,16.2,0,0,1,4.62,12.65c0,.32-.09.63-.14.95a1.48,1.48,0,0,1-1.39,1.07c-3-.56-6-1.17-8.93-1.67a42.12,42.12,0,0,0-29.06,5.2c-1.1.64-2.2,1.29-3.31,1.92a1.54,1.54,0,0,1-1.7-.53,4.65,4.65,0,0,1-.93-3.15,27.23,27.23,0,0,1,.59-3.78c.38-1.87.91-3.72,1.24-5.6a6.18,6.18,0,0,1,1.71-3.33,45.39,45.39,0,0,1,7.16-6.34C1562.91,359.48,1567.65,357.81,1572.58,358.11Z" transform="translate(-827.23 252.15)"/><path d="M1422,293a30.11,30.11,0,0,1-8.63,3.36,29.16,29.16,0,0,0-8.72,3.22,3.76,3.76,0,0,1-1.15-.33,9.25,9.25,0,0,0-7.23-1.8c-2,.23-4.1.59-6.15.89a1.86,1.86,0,0,1-1.64-.77c-2.46-4.91-1.48-5.69,3-6.42,2.67-.43,5.41-.39,8.11-.57a14.41,14.41,0,0,0,2.37-.22c.42-.1.76-.53,1.11-.84.11-.09.14-.28.19-.43,1.27-3.77.6-4,5.9-5a56.09,56.09,0,0,0,6.46-1.76,40,40,0,0,0,4.44-1.74,15.35,15.35,0,0,0,8-7.25,3.76,3.76,0,0,1,3.79-2.32,39.07,39.07,0,0,1,5.73.13,58.75,58.75,0,0,0,10,.73,1.45,1.45,0,0,1,1.12.7c.81,2.91,1.52,5.84,2.25,8.77a.94.94,0,0,1-.77,1c-.79.07-1.58.17-2.37.17-3.35,0-6.71,0-10.06,0-1.11,0-2.23.05-3.34.1a1.57,1.57,0,0,0-1.34,1.16c-.19,1.09-.3,2.21-.57,3.29a15.1,15.1,0,0,1-4,7,2.36,2.36,0,0,1-2.63.61C1424.71,294.27,1423.56,293.71,1422,293Z" transform="translate(-827.23 252.15)"/><path d="M1347,535.54c-.28-.06-.75,0-.82-.2a13.42,13.42,0,0,0-3.5-4.46,39.26,39.26,0,0,1-8.52-11.47,72.92,72.92,0,0,1-5.5-14.77,173.24,173.24,0,0,1-3.95-19.69q-1.89-12.78-3.72-25.58c-.14-.95-.24-1.9-.33-2.86a2.81,2.81,0,0,1,3.74-3,26.44,26.44,0,0,1,6.39,3.22c1.71,1.18,3.4,2.38,5,3.63a55.46,55.46,0,0,0,8.39,5.52,1.43,1.43,0,0,1,.87,1.92c-.84,2.58-1.64,5.17-2.49,7.75a27.27,27.27,0,0,1-2.37,5.73,4.54,4.54,0,0,1-7.32.65,24.58,24.58,0,0,1-1.62-2.36c-.54-.79-1-1.62-1.6-2.38a4.58,4.58,0,0,0-2.35-1.56,1.07,1.07,0,0,0-1.35.95c0,.32,0,.64,0,.95a185.94,185.94,0,0,0,2.44,20.91,77.61,77.61,0,0,0,3,11.55c2.83,7.79,6.88,14.75,14,19.54a25.73,25.73,0,0,1,1.47,6.07Z" transform="translate(-827.23 252.15)"/><path d="M1376.16,328.7c-3.65,2.71-4,1.91-3.59,6.86a26.84,26.84,0,0,1,0,4.3c-.3,3.46-2,5.44-5.42,6.46a1.25,1.25,0,0,1-1.43-.9,19.15,19.15,0,0,1-.43-9,36.16,36.16,0,0,1,2.2-8.8c1.33-3.24,2.68-6.48,4.11-9.68,1.24-2.76,2.65-5.45,3.92-8.2a3.38,3.38,0,0,1,2.53-2c1.24-.25,2.52-.34,3.78-.51.91-.12,1.21-.83.72-1.77-.22-.42-.53-.8-.76-1.22a1.69,1.69,0,0,1,.76-2.39,5.72,5.72,0,0,1,6.32,0,2,2,0,0,1,.68,1.67,21.1,21.1,0,0,1-3.35,7.36c-1.2,1.69-2.43,3.36-3.73,5C1379.41,319.69,1377,323.76,1376.16,328.7Z" transform="translate(-827.23 252.15)"/><path d="M1571.71,238.28c4.06-.13,4.06-.13,9.34-1.77.3.09.69.1.88.3,2.24,2.33,5,2.65,8,2a24.69,24.69,0,0,1,6.18-.59,5.32,5.32,0,0,1,3.07,1.17,1.49,1.49,0,0,1-.09,2.42,4,4,0,0,1-3.15.82c-1.73-.3-3.43-.71-5.16-1a3.26,3.26,0,0,0-1.39.06,1,1,0,0,0-.57.66,1.06,1.06,0,0,0,.18.85c.88,1,2.27,1.07,3.39,1.66a2.51,2.51,0,0,1,1.38,2.31,6.28,6.28,0,0,1-.9,3.66c-.89,1.42-1.41,2.07-3,1.55-2.14-.69-4.12,0-6.08.64s-3.55,1.43-5.36,2a9.33,9.33,0,0,1-6.08.43,1.2,1.2,0,0,1-.66-1.12c.08-.31.13-.63.23-.93A7.64,7.64,0,0,1,1576,249c1.56-.79,3.21-1.41,4.83-2.07a18,18,0,0,0,4.63-2.45,1.29,1.29,0,0,0,0-2,7.09,7.09,0,0,0-6.39-1,13.27,13.27,0,0,0-8.7,6.94,2.28,2.28,0,0,1-2.27,1.4,8.18,8.18,0,0,1-4.19-.67,1.32,1.32,0,0,1-.62-2c.89-1.11,1.79-2.23,2.79-3.26C1567.76,242.11,1569.6,240.35,1571.71,238.28Z" transform="translate(-827.23 252.15)"/><path d="M1359.55,549.8c4.45,2.09,9,2,13.53.44a2,2,0,0,0,1.49-2.18,25.19,25.19,0,0,0-1.56-8.93c-1-3-2.19-6-3.31-9a60.39,60.39,0,0,1-3.15-10.55,28.3,28.3,0,0,1-.12-10c.41-2.21.34-2.22-2.1-3.51a2.63,2.63,0,0,1-.37-.29c-.27-2.5-.06-3.91.79-5.46a1.28,1.28,0,0,1,1.64-.4,5.43,5.43,0,0,1,2.27,3,16.87,16.87,0,0,1,.82,5.19c.07,7.68.08,6.5,3.24,13.29,4,8.69,8.11,17.38,11.73,26.26a22.31,22.31,0,0,0,1.12,2.1l-.06-.09a1,1,0,0,1-1.3-.08,25.8,25.8,0,0,1-1.82-2.8c-.79-1.39-1.48-2.82-2.27-4.21a1,1,0,0,0-.75-.43.9.9,0,0,0-.75.41c-.67,1.78-1.33,3.57-1.9,5.39a13.19,13.19,0,0,1-2,4.3,3.37,3.37,0,0,1-2.86,1.48c-3.83-.22-7.63-.63-11.17-2.26a2.54,2.54,0,0,1-.81-.49,1.23,1.23,0,0,1-.19-1.3Z" transform="translate(-827.23 252.15)"/><path d="M1348.55,470.23c4.57-3,4-2.41,6.53-6.48.25-.4.52-.79.78-1.18a1.5,1.5,0,0,1,1.73-.31,5.33,5.33,0,0,1,2.26,2.39,11.66,11.66,0,0,1,1.07,6,24.42,24.42,0,0,1-.48,2.82,2.16,2.16,0,0,0,1.11,2.41c.79.52,1.73.82,2.19,1.76.16.33,0,1.12-.31,1.2a3.84,3.84,0,0,1-.92.18,4.07,4.07,0,0,0-3.53,2.09c-.7,1.06-1.38,2.14-2.12,3.17a5,5,0,0,1-2.66,1.93,1.79,1.79,0,0,1-1.77-.35,5.33,5.33,0,0,1-1-1,9.77,9.77,0,0,1-1.73-4.4C1349.29,477.14,1349,473.82,1348.55,470.23Z" transform="translate(-827.23 252.15)"/><path d="M1547.56,153.63c-.62-.8-1.25-1.51-1.76-2.29-1-1.45-1.47-1.69-3.08-1.15a12.92,12.92,0,0,1-1.75.72,1.9,1.9,0,0,1-1.34-.36,5.08,5.08,0,0,1-1.72-5.58,1.61,1.61,0,0,1,1-.83,5.56,5.56,0,0,1,5,1c1.14.85,2.22,1.79,3.13,2.53a2,2,0,0,0,2-.43q3.57-2.4,7.1-4.88a42.3,42.3,0,0,1,7.39-4.38,3.09,3.09,0,0,1,1.36-.35,1.57,1.57,0,0,1,1.15.6,4.49,4.49,0,0,1,.46,1.82c.22,2.74-.49,5.38-1,8.05a1.74,1.74,0,0,1-1.37,1.15,4.77,4.77,0,0,1-3.62-.86c-.88-.68-1.78-1.34-2.68-2a2,2,0,0,0-1.83,0,2.11,2.11,0,0,0-.39,2.6c.7.86,1.5,1.64,2.21,2.49a11,11,0,0,1,1,1.57,1.15,1.15,0,0,1-1,1.69,7.26,7.26,0,0,1-2.35-.27A14,14,0,0,0,1547.56,153.63Z" transform="translate(-827.23 252.15)"/><path d="M1670.82,812.9a169,169,0,0,0,13.68-29.53,176.73,176.73,0,0,0,7-24.9c.12-.62.31-1.24.43-1.86a4.74,4.74,0,0,1,1.93-3.19,2.65,2.65,0,0,0,1.35-2.39,7.4,7.4,0,0,1,1.56-4.92,9.33,9.33,0,0,0,1.89-4.84,3.73,3.73,0,0,1,.88-2.18,30.3,30.3,0,0,0,5.38-10.08q1.29-3.62,2.64-7.2a20.39,20.39,0,0,1,2.54-5.12c.12-.16.5-.14.76-.16a.62.62,0,0,1,.11.39c-.62,1.82-1.17,3.66-1.89,5.43-2.49,6.06-5,12.11-7.58,18.12a225.39,225.39,0,0,0-10.2,28.39c-2.22,7.84-4.66,15.61-7.64,23.2a94.6,94.6,0,0,1-6.8,14.26,36.58,36.58,0,0,1-4.41,6.26,1.26,1.26,0,0,1-1.7.19Z" transform="translate(-827.23 252.15)"/><path d="M1289,134.44c-.07.29,0,.7-.24.83-1,.76-2.09,1.47-3.16,2.16a192.18,192.18,0,0,0-34.23,28.35,10.87,10.87,0,0,0-3,4.78,18.22,18.22,0,0,1-4.77,7.65c-1.44,1.5-3,2.91-4.43,4.38-.9.9-1.79,1.82-2.65,2.77a4.18,4.18,0,0,0-1.22,3,32.6,32.6,0,0,1-.11,3.83,8.79,8.79,0,0,1-.63,2.28,2.89,2.89,0,0,1-3.12,1.71c-.47,0-1-.52-.88-.91a10.41,10.41,0,0,1,.45-1.83,62.74,62.74,0,0,1,6.49-11.7q6.84-9.84,14.59-19a111.14,111.14,0,0,1,18.69-17.11,151,151,0,0,1,16.06-10.42,3.72,3.72,0,0,1,2.23-.7Z" transform="translate(-827.23 252.15)"/><path d="M1371.79,112.74c-.89,0-1.83-.09-2.78-.16a126.87,126.87,0,0,0-14.85-.28,74.62,74.62,0,0,0-32.51,9c-2.56,1.4-2.57,1.38-6.39,1.31,0-.12,0-.29.07-.35a3.62,3.62,0,0,1,1.1-.88,151.8,151.8,0,0,0,15.78-6.93,33.46,33.46,0,0,1,10-3.32,46,46,0,0,1,5.24-.48c3,0,6.07.05,9.11.08l5.75.07a23.63,23.63,0,0,0,8.93-1.5,40.78,40.78,0,0,1,9.3-2.21,17.65,17.65,0,0,1,4.76-.08,4.2,4.2,0,0,1,3.75,2.55c.16.41.09.68-.34.72a5.39,5.39,0,0,1-1.39,0c-1.88-.38-3.75-.83-5.63-1.2-3.36-.67-6.34,0-8.69,2.66A11,11,0,0,1,1371.79,112.74Z" transform="translate(-827.23 252.15)"/><path d="M1223.18,212.59c-1.64,2.85-2.22,6-3.58,9.06-.27-.38-.55-.58-.53-.76.65-7.08,2.32-13.85,6-20a11,11,0,0,1,1.5-1.84c.14-.15.54-.08.8,0a.44.44,0,0,1,.24.38,4.75,4.75,0,0,1-.32,1.84,30.28,30.28,0,0,1-2,2.66c-.38.51-.75,1-1.1,1.57-.67,1-.33,1.9.79,2.11.79.14,1.59.2,2.36.39a2.92,2.92,0,0,1,2.52,2.54,2.87,2.87,0,0,0,.29.9.89.89,0,0,0,1.16.46,4.72,4.72,0,0,1,1.38-.34,1.7,1.7,0,0,1,1.23.51,8,8,0,0,1,1.27,2.54c.72,3.06,0,4.29-3,4.74a13.78,13.78,0,0,1-1.42.18,2.94,2.94,0,0,1-3.17-1.58,43.5,43.5,0,0,0-3.2-4.76C1224.2,212.84,1223.64,212.78,1223.18,212.59Z" transform="translate(-827.23 252.15)"/><path d="M1838.46,234.23c1.24,3.63,2.52,7.24,3.7,10.87a82.86,82.86,0,0,1,3.65,20.23,67,67,0,0,0,1.67,11.35,17.94,17.94,0,0,1,.46,3.79c.06,3.68,0,7.35,0,11a26.74,26.74,0,0,1-.69,5.69,98.21,98.21,0,0,1-3.65,12.38,9.82,9.82,0,0,1-1.13,2.09c-.1.16-.55.09-.85.12l.11.1a66.83,66.83,0,0,0,4.18-24.37,162.25,162.25,0,0,0-1.6-21.47c-.45-3.32-1-6.63-1.33-10-.3-2.93-1-5.64-3.12-7.83a4.48,4.48,0,0,1-.51-1,54.61,54.61,0,0,0-1-10.33,9.48,9.48,0,0,1,.24-2.82Z" transform="translate(-827.23 252.15)"/><path d="M1780.23,148.63a1.92,1.92,0,0,1,1.82.12c1.12.89,2.25,1.76,3.29,2.74,14.64,13.87,27.4,29.18,36.49,47.32a6.11,6.11,0,0,0,1.55,2.36l.06,0c-.64,0-1.3.11-1.74-.5-.93-1.29-1.91-2.56-2.77-3.9-2.52-3.89-5-7.84-7.5-11.72-2.2-3.34-4.42-6.67-6.76-9.9a59.21,59.21,0,0,0-13.37-13.67,9.94,9.94,0,0,1-2.82-3.2,49.48,49.48,0,0,0-7-9.1c-.29-.3-.84-.35-1.27-.51Z" transform="translate(-827.23 252.15)"/><path d="M1219.17,274.49c-.28-.38-.73-.72-.82-1.14A50.23,50.23,0,0,1,1217,261c.23-6.23.17-12.47.31-18.7,0-2.08.29-4.15.5-6.22a5.38,5.38,0,0,1,.6-1.4c.61,1.59,1,3,1.63,4.22s1.54,2.42,2.29,3.64a3.27,3.27,0,0,1,.26,2.34,6.17,6.17,0,0,1-1.81,3.31c-.81.77-1.68,1.47-2.42,2.1a3.37,3.37,0,0,0-.36,2.46c.33,2.53.69,5.07,1.08,7.59.16,1.07.91,1.49,2.12,1.25.47-.09.93-.28,1.4-.36a1.67,1.67,0,0,1,2.14,1.34,9.38,9.38,0,0,1,.2,3.8,6.67,6.67,0,0,1-.47,1.34,1.26,1.26,0,0,1-1.64.44,6.36,6.36,0,0,1-1-1c-.42-.56-1-1-1.59-.7a2.58,2.58,0,0,0-1,1.5,20.5,20.5,0,0,0-.17,6.68Z" transform="translate(-827.23 252.15)"/><path d="M1241.74,218a16.56,16.56,0,0,1,5.21,1,12.8,12.8,0,0,1,7.86,7.8,1.73,1.73,0,0,1-.17,1.79,2.41,2.41,0,0,1-2.45,1.12,6.92,6.92,0,0,1-1.79-.62c-1.29-.61-2.57-1.27-3.84-1.93a15.52,15.52,0,0,0-5.34-2c-2.43-.25-3.11-1.95-3.69-3.79a2.58,2.58,0,0,1,2.37-3.36C1240.22,218,1240.54,218,1241.74,218Z" transform="translate(-827.23 252.15)"/><path d="M1731.25,512.41a18.5,18.5,0,0,0,1.21-7.51,17.38,17.38,0,0,1,2.12-9.67,14.46,14.46,0,0,0,1.75-7.85c-.09-2.23-.23-4.46-.35-6.69-.12-2.39-.26-4.78-.36-7.17a18.76,18.76,0,0,1,.85-5.66,10.91,10.91,0,0,1,3.21-5.23,2.32,2.32,0,0,1,3.69.48,3.58,3.58,0,0,1,.6,1.28,1.18,1.18,0,0,1-.29.85,1.89,1.89,0,0,1-.8.49c-1.35.46-2.71.9-4.17,1.37-.06,1.12-.15,2.23-.18,3.34-.08,3.67,0,7.34-.23,11a113.1,113.1,0,0,1-4.64,26.81,35.9,35.9,0,0,1-1.29,3.6,1,1,0,0,1-1.22.45Z" transform="translate(-827.23 252.15)"/><path d="M1617.22,102.64c-2.22,0-3.82.13-5.39,0-3.81-.37-7.62-.84-11.42-1.32-6.49-.82-13-1.6-19.52-2-2.87-.17-5.75-.09-8.62,0a6.09,6.09,0,0,1-4.72-1.89c-.1-.1-.22-.34-.18-.42s.35-.53.51-.51c4.13.38,8.26.81,12.39,1.22,1.11.11,2.22.23,3.34.29,7.65.41,15.27,1.26,22.88,2.17a49.51,49.51,0,0,1,9.4,1.72A14.23,14.23,0,0,1,1617.22,102.64Z" transform="translate(-827.23 252.15)"/><path d="M1548,885.86c-.25-.58-.55-1.18.17-1.66a48.49,48.49,0,0,1,15.73-6.65,38.47,38.47,0,0,1,10.9-.93,23.37,23.37,0,0,1,8.74,2.19A7.88,7.88,0,0,1,1585,880c-.33.11-.5.23-.63.2a51.71,51.71,0,0,0-25.93,1.29c-2.89.85-5.71,2-8.53,3a14.71,14.71,0,0,0-2,1.26Z" transform="translate(-827.23 252.15)"/><path d="M1503.57,96.42a4,4,0,0,1,.56-.75,2.88,2.88,0,0,1,.85-.4c6.12-2.07,6.12-2.07,12.62-2.07,9.74,0,19.49.06,29.23,0a37.14,37.14,0,0,1,8.59,1.38c-.43.37-.61.66-.79.66-3.35-.06-6.71,0-10.05-.26a233.63,233.63,0,0,0-30.17.29c-1.11.07-2.23.17-3.34.29-2.54.26-5.08.55-7.62.82Z" transform="translate(-827.23 252.15)"/><path d="M1800.85,250.2a8.23,8.23,0,0,1-.16,1.37,1.33,1.33,0,0,1-.86,1.05,19.07,19.07,0,0,0-2.21.86,1,1,0,0,0-.46.77c0,1.1.2,2.2.2,3.31a2.12,2.12,0,0,1-1.74,2,6.34,6.34,0,0,1-4.18-.51,1.93,1.93,0,0,1-.83-2.79c.87-1.52,1.69-3.05,2.56-4.57a27.17,27.17,0,0,1,1.76-2.82,5.1,5.1,0,0,1,3.17-2c1.56-.31,2.55.35,2.67,1.84C1800.81,249.2,1800.83,249.68,1800.85,250.2Z" transform="translate(-827.23 252.15)"/><path d="M1715.68,644.09a113,113,0,0,1-.87-20.85,208.22,208.22,0,0,0,.29-21,47.75,47.75,0,0,1,.24-5.73,7.06,7.06,0,0,1,.49-1.84c.17-.42.34-1,.9-1s.55.6.54,1c-.12,3.19-.26,6.38-.37,9.57-.18,5.1-.4,10.2-.49,15.3-.11,6.7-.1,13.41-.18,20.11A11.31,11.31,0,0,1,1715.68,644.09Z" transform="translate(-827.23 252.15)"/><path d="M1772.14,221.15c1.7-.36,2.93-.66,4.19-.86a5.23,5.23,0,0,1,2.8.41,2.21,2.21,0,0,1,1,3.52,13.23,13.23,0,0,1-1.29,1.41,7.09,7.09,0,0,0-2,3.17,1.35,1.35,0,0,1-1,.94,3.15,3.15,0,0,1-3.92-1.82,8.19,8.19,0,0,1-.48-2.79A32.64,32.64,0,0,1,1772.14,221.15Z" transform="translate(-827.23 252.15)"/><path d="M1562.27,428.16c.78.08,1.72.16,2.65.29a2,2,0,0,1,1.64,2c.1,3-.76,4.44-3.36,5.64-.43.19-.87.36-1.32.52a2.16,2.16,0,0,1-2.52-.74,8,8,0,0,1-1.63-4.84c0-1.77.68-2.6,2.48-2.75C1560.84,428.24,1561.47,428.21,1562.27,428.16Z" transform="translate(-827.23 252.15)"/><path d="M1718.81,554a22.19,22.19,0,0,1,.23,4.82c0,1.92-.06,3.84-.25,5.75a177.31,177.31,0,0,0-.73,20.61c0,.61-.07,1.21-.11,1.91a3.39,3.39,0,0,1-1.51-3A79.24,79.24,0,0,1,1716,576a72.3,72.3,0,0,1,.9-11c.55-3.31.92-6.65,1.4-10A4.31,4.31,0,0,1,1718.81,554Z" transform="translate(-827.23 252.15)"/><path d="M1818.15,359.27a3.57,3.57,0,0,1,0-1.39,48.28,48.28,0,0,0,4-10.68,3.68,3.68,0,0,1,.84-1.67,20.68,20.68,0,0,0,3.66-6.09,21.07,21.07,0,0,1,1.89-3.29,7.07,7.07,0,0,1,1.79-1.5c.16-.12.54,0,.79.13a.45.45,0,0,1,.16.4,3,3,0,0,1-.26.89c-2.67,5.23-5.33,10.47-8.06,15.66-1.1,2.11-2.36,4.14-3.57,6.18-.32.53-.63,1.11-1.33,1.27Z" transform="translate(-827.23 252.15)"/><path d="M1509.72,406.61c-1.15-.1-2.09-.18-3-.28a1.67,1.67,0,0,1-1.25-1.26,4.27,4.27,0,0,1,1.66-4.61,4.22,4.22,0,0,1,4.49-.36,4.74,4.74,0,0,1,3,3.95,1.88,1.88,0,0,1-1.76,2.31C1511.73,406.49,1510.63,406.54,1509.72,406.61Z" transform="translate(-827.23 252.15)"/><path d="M1219.05,274.6c.6.35.72,1,1,1.56a36.32,36.32,0,0,0,4,7.54c1.2.79,2.52.39,3.76.55a17.44,17.44,0,0,1,2.8.49,2.27,2.27,0,0,1,1.39,3.08,5.58,5.58,0,0,1-2.38,2.89,2.31,2.31,0,0,1-1.34.13,1.05,1.05,0,0,1-.85-1,10.88,10.88,0,0,1,.13-1.88,1.35,1.35,0,0,0-1-1.46l-4.18-1.23a22.14,22.14,0,0,1-3.38-8.85,7.14,7.14,0,0,1,.11-1.89Z" transform="translate(-827.23 252.15)"/><path d="M1651.85,829.48a4.47,4.47,0,0,1,.63-1.21c3-2.83,5.89-5.66,8.92-8.4a41.7,41.7,0,0,1,7.68-5.44,4.37,4.37,0,0,0,1.76-1.51l-.14-.15c0,.43.31,1,.14,1.31a6.29,6.29,0,0,1-1.36,1.91c-2.56,2.36-5.1,4.75-7.78,7s-5.28,4-8,6a7.81,7.81,0,0,1-1.7.71Z" transform="translate(-827.23 252.15)"/><path d="M1834.94,225.13c-.59.21-1.19.45-1.66-.25a124.21,124.21,0,0,1-7.07-11.71,39,39,0,0,1-3.17-8.37,4.2,4.2,0,0,1,.38-3.66l0,0a9.28,9.28,0,0,0,.36,1.35q5.13,10.77,10.33,21.51a12.06,12.06,0,0,0,.82,1.14S1834.94,225.13,1834.94,225.13Z" transform="translate(-827.23 252.15)"/><path d="M1752.27,451.66a6.33,6.33,0,0,1-.59-1.2,21.83,21.83,0,0,1-.42-7.6c.14-1.43.36-2.85.5-4.27a13.72,13.72,0,0,1,2.9-7c.11-.15.49-.13.75-.13.06,0,.18.28.16.42-.2,1.42-.45,2.83-.64,4.24-.47,3.48-.9,7-1.4,10.43-.22,1.56-.56,3.11-.87,4.66C1752.63,451.37,1752.45,451.47,1752.27,451.66Z" transform="translate(-827.23 252.15)"/><path d="M1530.69,858.8c.29,0,.74-.1.85.05a43.71,43.71,0,0,1,7.7,15.26,17.77,17.77,0,0,1,.39,6.17c0,.22-.28.43-.47.6,0,0-.3-.11-.36-.22a5.36,5.36,0,0,1-.33-.9,141.91,141.91,0,0,0-6.87-18.84c-.31-.73-.55-1.5-.82-2.24Z" transform="translate(-827.23 252.15)"/><path d="M1556.9,163.35a2.42,2.42,0,0,1-.09.94,2,2,0,0,1-.81,1.05c-2.82,1.38-5.61.25-6.4-2.55a2.21,2.21,0,0,1,1.7-2.86,6.09,6.09,0,0,1,4.14.31,2.25,2.25,0,0,1,1.46,2.18Z" transform="translate(-827.23 252.15)"/><path d="M1483,837.3c.28.11.68.13.82.33.74,1,1.44,2.1,2.11,3.18,2,3.26,3.91,6.57,6,9.78s4.47,6.6,6.73,9.87a2,2,0,0,1,0,2.23h0a2.69,2.69,0,0,0-.86-1.64c-5.94-6.78-10.25-14.64-14.68-22.42-.21-.36-.09-.92-.12-1.38Z" transform="translate(-827.23 252.15)"/><path d="M1369,494.26c-.06.27-.13.74-.26,1.19a2.84,2.84,0,0,1-4,2,4.35,4.35,0,0,1-2.51-2.63,2.14,2.14,0,0,1,0-1.37,4.07,4.07,0,0,1,4.11-2.51A2.83,2.83,0,0,1,1369,494.26Z" transform="translate(-827.23 252.15)"/><path d="M1578.67,161.91a21.34,21.34,0,0,1-2.6-.41,1,1,0,0,1-.87-1,9.84,9.84,0,0,1,.13-2.31,4,4,0,0,1,4.86-2.64,1.62,1.62,0,0,1,.42.2,5,5,0,0,1,1.85,4.55,1.52,1.52,0,0,1-.83,1A26.8,26.8,0,0,1,1578.67,161.91Z" transform="translate(-827.23 252.15)"/><path d="M1643.15,112.59a61,61,0,0,1-15.51-4.37,27.17,27.17,0,0,1-4.05-2.46.93.93,0,0,1-.2-1.25l-.08.13a7.25,7.25,0,0,1,1.39.26q8.85,3.34,17.68,6.74a1,1,0,0,1,.66,1.06Z" transform="translate(-827.23 252.15)"/><path d="M1718.67,686.48a2.84,2.84,0,0,1,.17,2.49c-1.31,5.08-2.65,10.15-4,15.22-.32,1.23-.61,2.46-1,3.67a.8.8,0,0,1-1,.65c.32-2.21.51-4.43,1-6.58a117,117,0,0,1,4.07-13.7C1718.1,687.67,1718.38,687.14,1718.67,686.48Z" transform="translate(-827.23 252.15)"/><path d="M1786.85,389.08c1.15-1.05,2.35-2.07,3.46-3.17a32.73,32.73,0,0,1,11.23-7.68l-.12-.12c0,.29.19.64.08.86a3.65,3.65,0,0,1-.86,1.1,84.81,84.81,0,0,1-10.65,7.8,8.41,8.41,0,0,1-3.11,1Z" transform="translate(-827.23 252.15)"/><path d="M1414.7,569.8a7.35,7.35,0,0,1-4.59,0,59.22,59.22,0,0,1-8.37-3,4.5,4.5,0,0,0-2.68-.68l0,.06a36.43,36.43,0,0,1,7.73-.54,3.81,3.81,0,0,1,2.13,1.54,6.49,6.49,0,0,0,5.81,2.62Z" transform="translate(-827.23 252.15)"/><path d="M1645.47,835.73a16,16,0,0,0-5.5,6.43,12,12,0,0,1-3.53,4.47c-.19.17-.58.11-.88.15l.1.08a5.62,5.62,0,0,1,.24-1.37,17.13,17.13,0,0,0,1.23-2.56c1-4,4.23-5.65,7.52-7.24.22-.11.59.1.89.17Z" transform="translate(-827.23 252.15)"/><path d="M1755.92,425.21a6.78,6.78,0,0,1-.25-5.08,36,36,0,0,1,3.21-8.44c.55.74.13,1.42,0,2.09-.58,3.43-1.16,6.86-1.78,10.28C1757,424.67,1756.71,425.23,1755.92,425.21Z" transform="translate(-827.23 252.15)"/><path d="M1841.64,311.78a2,2,0,0,1,.32,1.79,15.7,15.7,0,0,1-.64,1.78,105.41,105.41,0,0,1-4.76,10c-.84-1-.23-1.89-.35-2.69a3.92,3.92,0,0,1,.93-3.08,55.64,55.64,0,0,0,4.63-7.71Z" transform="translate(-827.23 252.15)"/><path d="M1801.54,378.23c.7-.85,1.38-1.74,2.12-2.55q4-4.4,8.07-8.74c.42-.45.81-1,1.54-1l-.09-.09c0,.3.07.68-.08.9a58.7,58.7,0,0,1-10.37,11.33,1.14,1.14,0,0,1-1.3,0Z" transform="translate(-827.23 252.15)"/><path d="M1594.34,883.58a19.25,19.25,0,0,1,5.44-.3,4.06,4.06,0,0,0,3-1.19,2.84,2.84,0,0,1,.78-.36,4.26,4.26,0,0,1-.37,3.64c-.12.23-.59.53-.72.46-2.18-1.15-4.74-.24-6.91-1.35A11.5,11.5,0,0,1,1594.34,883.58Z" transform="translate(-827.23 252.15)"/><path d="M1388.23,556.48a1.61,1.61,0,0,1,2.13.19c2,2,4,4.06,5.89,6.12a1,1,0,0,1,0,1.28l.12-.13a21.58,21.58,0,0,1-6.49-5.8c-.46-.6-1-1.14-1.52-1.7Z" transform="translate(-827.23 252.15)"/><path d="M1322.48,430.53l-1.47.13a19.5,19.5,0,0,1-3.07-5.7,1.79,1.79,0,0,1,.21-1.78l-.1.13c1.51,1.6,2,3.69,3,5.61.31.66.58,1.42,1.45,1.6Z" transform="translate(-827.23 252.15)"/><path d="M1731.15,512.31a2.11,2.11,0,0,1,.43,1.76,28.59,28.59,0,0,1-1,3.08,24,24,0,0,1-1.34,2.37c.25-2.89,1.32-4.94,2.07-7.09Z" transform="translate(-827.23 252.15)"/><path d="M1652,829.68c-.83,1.64-2.38,2.42-3.89,3.22-.35.18-.91,0-1.36-.07a.81.81,0,0,0,0,.11c1.14-.13,1.75-1.05,2.55-1.7s1.32-1.64,2.48-1.76Z" transform="translate(-827.23 252.15)"/><path d="M1350.11,540.93c-.45-.09-1.07,0-1.33-.3a6.76,6.76,0,0,1-2.06-4.17,2.93,2.93,0,0,1,.22-.92s-.09.1-.08.09c.53,1.07,1.08,2.14,1.58,3.23a4.32,4.32,0,0,0,1.63,2.11Z" transform="translate(-827.23 252.15)"/><path d="M1480.6,832a9.8,9.8,0,0,0,1.77,3.19,2.53,2.53,0,0,1,.59,2.12l.06,0c-.27-.12-.66-.16-.81-.37-.62-.89-1.21-1.81-1.74-2.76a2.13,2.13,0,0,1,.2-2.22Z" transform="translate(-827.23 252.15)"/><path d="M1295.12,130.29a1.54,1.54,0,0,1-.7,1.62c-.51.35-1.09.63-1.57,1s-.83.89-1.26,1.32c0,0,0,.05,0,.05l-.25-1.42c.82-.45,1.67-.86,2.44-1.37a11.28,11.28,0,0,0,1.34-1.25Z" transform="translate(-827.23 252.15)"/><path d="M1816.15,362.15a6.74,6.74,0,0,1-2.15,3.47c-.16.18-.54.18-.82.26l.09.09c.2-1.68,1.32-2.74,2.53-3.73.09-.07.3,0,.46,0Z" transform="translate(-827.23 252.15)"/><path d="M1635.56,846.78c0,.3.08.67-.06.88-.79,1.12-1.38,2.4-2.61,3.14l.12.1c-.06-.27-.26-.63-.16-.8.76-1.22,1.41-2.56,2.81-3.24Z" transform="translate(-827.23 252.15)"/><path d="M1351,544.82c-.29-.55-.57-1.11-.89-1.64a2.07,2.07,0,0,1-.05-2.23s0,0,0,0a11.44,11.44,0,0,0,.64,1.72,2.18,2.18,0,0,1,.23,2.21Z" transform="translate(-827.23 252.15)"/><path d="M1816.26,362.25a2.51,2.51,0,0,1,1.89-3l-.1-.09a3.65,3.65,0,0,1-1.9,3Z" transform="translate(-827.23 252.15)"/><path d="M1357.11,549.35l-1.62-.72c-.54-.24-1.08-.48-1.6-.74l-.05.05c.58-.24,1.18-.52,1.78-.12s1.46.65,1.38,1.65Z" transform="translate(-827.23 252.15)"/><path d="M1259.36,366.83c-.27-.11-.65-.14-.8-.34a4,4,0,0,1-1.11-2.52l-.12.07a2.77,2.77,0,0,1,1.93,2.87Z" transform="translate(-827.23 252.15)"/><path d="M1503.45,96.34c-.41.16-.81.32-1.23.45-.13,0-.38,0-.41,0-.18-.33,0-.48.42-.44l1.33.07Z" transform="translate(-827.23 252.15)"/><path d="M1645.38,114a4.43,4.43,0,0,0-.64-.59c-.51-.3-1-.56-1.58-.83l-.12.12a3,3,0,0,1,.45-.11c1.41-.11,1.44-.12,1.88,1.41Z" transform="translate(-827.23 252.15)"/><path d="M1497.25,97.44l0,.29c-.16,0-.4.09-.46,0C1496.6,97.48,1496.77,97.35,1497.25,97.44Z" transform="translate(-827.23 252.15)"/><path d="M1645.37,114c1.46-.61,3-.13,4.47-.15h0c-1.47.54-3,.16-4.47.15Z" transform="translate(-827.23 252.15)"/><path d="M1747.65,461.69a5.28,5.28,0,0,1,.36.76c0,.09-.13.28-.25.35s-.35.1-.42,0a.49.49,0,0,1,.06-.79,3.52,3.52,0,0,1,.38-.24Z" transform="translate(-827.23 252.15)"/><path d="M1770.3,138.7a2.24,2.24,0,0,0-.59-.39,7.33,7.33,0,0,0-1.17-.22l-.14.11c.59.36,1.13.92,1.93.54Z" transform="translate(-827.23 252.15)"/><path d="M1530.78,858.68c-.25-.81-.5-1.62-.76-2.42l-.08-.14c.45.83,1.19,1.57.76,2.66Z" transform="translate(-827.23 252.15)"/><path d="M1298,129.92l.46-.53-.58.42Z" transform="translate(-827.23 252.15)"/><path d="M1838.6,234.13c-.39-.16-.8-.28-1.18-.48a3.9,3.9,0,0,1-.68-.55l.11,0a2.37,2.37,0,0,1,1.6,1.11Z" transform="translate(-827.23 252.15)"/><path d="M1322.45,430.52c0,.55.12,1.09.12,1.64a8.23,8.23,0,0,1-.16,1.2l.09-.08c-1-.91-.76-1.83,0-2.75Z" transform="translate(-827.23 252.15)"/><path d="M1604.64,877.12v.74l.3-.06-.39-.6Z" transform="translate(-827.23 252.15)"/><path d="M1723.31,528.78c0,.29-.06.63.07.85a1.29,1.29,0,0,1-.22,1.62l.12.13c0-.87,0-1.74,0-2.62Z" transform="translate(-827.23 252.15)"/><path d="M1545,886.22c.93-.49,1.84-1.18,3-.38,0,0,0-.05,0,0-.94.09-1.9.15-2.87.22Z" transform="translate(-827.23 252.15)"/><path d="M1257.45,364c-.88-.38-1-1.13-1-2l-.13.09c1,.3,1,1.11,1,1.93Z" transform="translate(-827.23 252.15)"/><path d="M1256.5,362c-1-.29-1-1.12-1-1.95l-.13.12c.95.33.95,1.13,1,1.92Z" transform="translate(-827.23 252.15)"/><path d="M1478.7,829.28a4.41,4.41,0,0,1,0,2.69l.12-.11a3.17,3.17,0,0,1,0-2.61Z" transform="translate(-827.23 252.15)"/><path d="M1765.53,138c1,0,2-.62,2.85.26l.16-.12-3-.13Z" transform="translate(-827.23 252.15)"/><path d="M1833.38,330.45a5.83,5.83,0,0,1-.08.84c0,.12-.21.33-.26.31-.33-.12-.47-.41-.26-.69s.47-.24.71-.36Z" transform="translate(-827.23 252.15)"/><path d="M1357,549.47c.91-.37,1.7.09,2.53.36l.12-.15c-1.25.69-1.51.66-2.54-.33Z" transform="translate(-827.23 252.15)"/><path d="M1833.74,327.91c.12.41.25.81.35,1.22a1.09,1.09,0,0,1-.71,1.32l.11.1.27-2.66Z" transform="translate(-827.23 252.15)"/><path d="M1289,134.54c.92-1.09,1.24-1.12,2.55-.25,0,0,0-.06,0,0-.86.07-1.74.13-2.62.18Z" transform="translate(-827.23 252.15)"/><path d="M1835.77,227c-1.35-.41-1.35-.41-.85-1.82,0,0-.05,0,0,0,0,.73.07,1.47.92,1.82Z" transform="translate(-827.23 252.15)"/><path d="M1835.81,227c0,.38-.08.75-.13,1.13l.09-1.15Z" transform="translate(-827.23 252.15)"/><path d="M1399.05,564a2.91,2.91,0,0,0-.8.16,1.68,1.68,0,0,1-1.92-.23l-.13.14a1.74,1.74,0,0,1,1.6-.19,7.36,7.36,0,0,0,1.25.13Z" transform="translate(-827.23 252.15)"/><path d="M1836.74,233.1l.32-.61c-.74,0-.36.36-.2.64Z" transform="translate(-827.23 252.15)"/><path d="M1295.13,130.27l2.89-.36-.11-.1a1.56,1.56,0,0,1-1.52.55c-.42-.06-.85-.05-1.27-.07Z" transform="translate(-827.23 252.15)"/><path d="M1399.06,566.13c0-.71,0-1.42,0-2.13h0c0,.72,0,1.44,0,2.17C1399,566.19,1399.06,566.13,1399.06,566.13Z" transform="translate(-827.23 252.15)"/><path d="M1388.31,556.44l.2-.75c.68.48-.13.51-.25.78Z" transform="translate(-827.23 252.15)"/><path d="M1385.57,549.76l-.18.16.12-.24Z" transform="translate(-827.23 252.15)"/><path d="M1353.36,546.46c.85.4.85.4.5,1.46l0,0c-.15-.5-.28-1-.42-1.55Z" transform="translate(-827.23 252.15)"/><path d="M1470.4,816.5l.27-.13c-.28-.15-.31-.09-.08.18Z" transform="translate(-827.23 252.15)"/><path d="M1477,828.63a.93.93,0,0,0-.09-.21c-.3.06-.31.18,0,.31Z" transform="translate(-827.23 252.15)"/><path d="M1476.89,828.73c.59.19,1.18.38,1.79.56l.14,0a2.44,2.44,0,0,1-1.79-.63Z" transform="translate(-827.23 252.15)"/><path d="M1353.47,546.34a1,1,0,0,1-1.08-.79,1.13,1.13,0,0,1-.1.13c.66-.16,1,.11,1.06.78Z" transform="translate(-827.23 252.15)"/><path d="M1350.94,544.9c1.12-.23,1.12-.23,1.35.77a.58.58,0,0,0,.1-.12c-.43-.25-.87-.51-1.33-.75Z" transform="translate(-827.23 252.15)"/><path d="M1480.67,831.9a1.41,1.41,0,0,1-1.87-.06l-.14.13a1.94,1.94,0,0,1,1.92,0Z" transform="translate(-827.23 252.15)"/><path d="M1723.32,528.76l1.93-.5.07-.18-2,.7Z" transform="translate(-827.23 252.15)"/><path d="M1646.32,834.36c.18-.46.35-.92.51-1.4a.65.65,0,0,1,0-.13c-.07.51.24,1.19-.59,1.4Z" transform="translate(-827.23 252.15)"/><path d="M1645.54,835.86a1.26,1.26,0,0,1,.78-1.5l-.12-.13c-.26.49-.51,1-.74,1.48Z" transform="translate(-827.23 252.15)"/><path d="M1725.25,528.26l-.12-.3c-.22.26-.16.3.19.13Z" transform="translate(-827.23 252.15)"/><path d="M1632.89,850.8c-.23.45-.46.89-.67,1.35l.07.09a3.79,3.79,0,0,1-.12-.4c-.11-.83-.11-.83.83-.94Z" transform="translate(-827.23 252.15)"/><path d="M1770.86,140.74l.23.17c.18-.26.12-.36-.16-.3Z" transform="translate(-827.23 252.15)"/><path d="M1530,856.25l-.2-.08.1.23a1.18,1.18,0,0,0,0-.27Z" transform="translate(-827.23 252.15)"/><path d="M1747.78,461.8l.87-1.09-.12-.12c.15,1.12.15,1.12-.88,1.11Z" transform="translate(-827.23 252.15)"/><path d="M1748.65,460.71l.7-.24c-.12.78-.51.19-.8.13C1748.53,460.59,1748.65,460.71,1748.65,460.71Z" transform="translate(-827.23 252.15)"/><path d="M1498.63,862.69c.31,0,.61,0,.92,0s.42.23.32.63l.14-.07c-.39-.28-.73-.69-1.32-.54Z" transform="translate(-827.23 252.15)"/><path d="M1499.87,863.3l1.29,1.24.2.05c-.44-.46-.89-.91-1.34-1.37Z" transform="translate(-827.23 252.15)"/><path d="M1501.16,864.54l.3-.18c-.32-.18-.36-.11-.11.23Z" transform="translate(-827.23 252.15)"/><path d="M1318.15,423.18l-.73.21c.13-.85.39-.21.62-.07Z" transform="translate(-827.23 252.15)"/><path d="M1314.69,417.24l.33-.18c-.31-.21-.36-.13-.14.25Z" transform="translate(-827.23 252.15)"/><path d="M1770.33,138.74c.18.66.36,1.32.53,2,0,0,.08-.13.07-.11-.22-.63-.42-1.26-.62-1.9Z" transform="translate(-827.23 252.15)"/><path d="M1833.76,327.89l.33.12-.35-.1Z" transform="translate(-827.23 252.15)"/><path d="M1545.06,886l.08.3c.22-.23.17-.28-.16-.12Z" transform="translate(-827.23 252.15)"/><path d="M1779.87,147l.36,1.68h0c0-.56-.1-1.13-.17-1.68Z" transform="translate(-827.23 252.15)"/><path d="M1778.48,146.7c.32.77.83.59,1.38.26l.17,0c-.52-.1-1.06-.19-1.59-.31C1778.45,146.6,1778.48,146.7,1778.48,146.7Z" transform="translate(-827.23 252.15)"/><path d="M1623.39,104.51c-.19.28-.39.31-.57.08,0,0,.13-.15.16-.14s.21.14.32.2Z" transform="translate(-827.23 252.15)"/><path d="M1777.59,144.66c.3.67.6,1.33.89,2,0,0,0-.08,0-.05,0-.69.27-1.5-.65-1.91Z" transform="translate(-827.23 252.15)"/><path d="M1777.79,144.72l-.32.18c.33.2.37.12.13-.24Z" transform="translate(-827.23 252.15)"/><path d="M1773.78,141.83c-.24.28-.21.5.11.57.08,0,.2-.14.29-.22l-.23-.26Z" transform="translate(-827.23 252.15)"/><path d="M1774,141.92l-.31.07c.24.27.3.22.16-.15Z" transform="translate(-827.23 252.15)"/><path d="M1786.88,388.87l.23.3c.15-.35.07-.39-.26-.1Z" transform="translate(-827.23 252.15)"/><path class="cls-1" d="M1268.52,376.65l.34-.1-.2.06A.51.51,0,0,1,1268.52,376.65Z" transform="translate(-827.23 252.15)"/><path class="cls-1" d="M2061.31,757.8l.32.14c0-.36-.06-.35-.25,0A1.34,1.34,0,0,1,2061.31,757.8Z" transform="translate(-827.23 252.15)"/></svg>