<?xml version="1.0" encoding="UTF-8"?>
<!DOCTYPE svg PUBLIC "-//W3C//DTD SVG 1.1//EN" "http://www.w3.org/Graphics/SVG/1.1/DTD/svg11.dtd">
<!-- Creator: CorelDRAW X7 -->
<svg xmlns="http://www.w3.org/2000/svg" xml:space="preserve" width="144mm" height="30mm" version="1.1" style="shape-rendering:geometricPrecision; text-rendering:geometricPrecision; image-rendering:optimizeQuality; fill-rule:evenodd; clip-rule:evenodd"
viewBox="0 0 14400 3000"
 xmlns:xlink="http://www.w3.org/1999/xlink">
 <defs>
  <style type="text/css">
   <![CDATA[
    .fil0 {fill:#FEFEFE;fill-rule:nonzero}
   ]]>
  </style>
 </defs>
 <g id="__x0023_Layer_x0020_1">
  <metadata id="CorelCorpID_0Corel-Layer"/>
  <path class="fil0" d="M2044 921c37,111 98,334 182,670 69,277 138,497 207,660l25 0c67,-148 136,-371 207,-672 71,-312 136,-537 196,-675 15,-38 47,-58 95,-59 20,0 57,5 111,15 48,9 83,12 105,9 13,11 32,27 56,47 6,436 9,1087 11,1955 -16,43 -79,66 -189,69 -52,-24 -82,-63 -88,-118 -1,-43 -2,-88 -3,-133 1,-101 -1,-231 -8,-392 -11,-227 -16,-359 -17,-397 -9,-4 -17,-6 -22,-5 -15,0 -25,13 -32,40 -12,36 -19,56 -21,60 -8,25 -52,183 -130,474 -53,193 -111,343 -174,453 -26,10 -52,15 -80,16 -66,1 -120,-21 -163,-65 -37,-102 -88,-269 -153,-502 -62,-221 -113,-383 -153,-489 -13,1 -21,8 -25,24l-4 42c5,93 7,216 5,369 -4,182 -5,304 -4,367 2,59 3,114 4,167 -7,40 -35,61 -86,62 -90,2 -128,2 -115,-1 -17,-12 -38,-34 -64,-64 3,-208 -2,-533 -15,-974 -13,-425 -17,-750 -12,-974 37,-42 95,-64 172,-66 83,-1 144,28 182,87z"/>
  <path class="fil0" d="M4808 2956c-11,-1 -22,-2 -33,-3 -13,-1 -30,-2 -51,-3 -21,-2 -36,-3 -45,-3 -35,-3 -64,-20 -88,-52l-138 -494c-12,-8 -29,-22 -49,-40 -53,6 -147,0 -279,-16 -118,-12 -210,-13 -277,-2 -36,54 -67,154 -93,300 -25,138 -61,238 -106,299 -81,10 -125,14 -130,14 -46,-3 -83,-24 -110,-61 -13,-45 -16,-70 -10,-78 48,-182 123,-516 224,-1003 88,-425 170,-756 246,-992 64,-9 190,-2 376,22 23,15 52,42 84,80 39,163 104,410 195,740 91,331 156,580 195,747 -10,8 -14,19 -14,30 -1,13 11,34 35,63 23,29 37,51 40,67 -8,33 3,85 31,155 33,76 48,127 48,154 0,34 -17,59 -51,76zm-461 -871l0 0c-19,-109 -53,-250 -102,-421l-119 -431c-8,0 -13,-6 -18,-17 -4,-10 -9,-14 -15,-11 -31,102 -64,235 -99,399 -48,230 -76,364 -86,403 -19,25 -12,51 21,78 33,8 67,13 102,15 41,3 96,1 165,-6 69,-6 119,-9 151,-9z"/>
  <path class="fil0" d="M5379 894c12,244 18,532 18,863 -3,287 -6,572 -10,856l46 41c45,10 96,14 155,12 18,-1 46,-2 83,-3 37,-1 63,-2 80,-3 116,-4 207,22 273,76 15,62 23,102 24,119 1,43 -14,76 -47,98 -72,2 -150,5 -234,8 -195,7 -393,0 -592,-20 -38,-29 -59,-70 -62,-123 -7,-88 -11,-135 -13,-138 2,-298 5,-595 8,-890 5,-347 3,-645 -6,-895 -1,-32 16,-51 51,-56 46,-5 73,-14 82,-25 49,-13 97,13 144,80z"/>
  <path class="fil0" d="M6433 894c12,244 18,532 18,863 -3,287 -6,572 -10,856l46 41c45,10 96,14 155,12 19,-1 46,-2 83,-3 37,-1 63,-2 80,-3 116,-4 207,22 273,76 15,62 23,102 24,119 1,43 -14,76 -47,98 -71,2 -150,5 -234,8 -195,7 -393,0 -592,-20 -38,-29 -59,-70 -62,-123 -7,-88 -11,-135 -13,-138 2,-298 5,-595 8,-890 5,-347 3,-645 -5,-895 -1,-32 15,-51 50,-56 46,-5 73,-14 82,-25 50,-13 97,13 144,80z"/>
  <path class="fil0" d="M8097 1061c71,96 99,202 84,318 -18,43 -50,67 -99,71 -28,3 -58,-2 -89,-13 -20,-16 -74,-86 -162,-209 -64,-88 -128,-128 -191,-121 -25,2 -50,11 -75,26 -58,54 -87,125 -86,214 0,52 10,102 32,150 26,37 64,81 112,133 48,52 107,113 177,181 134,132 227,236 278,313 84,121 125,244 121,368 -2,121 -39,230 -108,327 -38,51 -81,91 -128,119 -47,28 -99,44 -156,49 -105,9 -207,-12 -303,-62 -97,-50 -190,-130 -280,-239 -69,-105 -100,-220 -93,-344 22,-27 55,-42 98,-44 33,-2 66,4 98,17 19,19 53,90 103,210 37,87 90,140 160,161 42,12 82,17 119,15 57,-2 100,-19 126,-51 44,-78 67,-142 68,-193 0,-15 -1,-30 -3,-45 -14,-111 -78,-224 -191,-338 -52,-46 -104,-93 -156,-139 -51,-47 -102,-93 -153,-140 -111,-111 -174,-224 -188,-341 -9,-63 -13,-119 -14,-169 -4,-223 65,-374 209,-450 46,-24 94,-40 145,-46 48,-6 95,-5 144,4 48,9 97,26 147,50 99,48 184,121 254,218z"/>
  <path class="fil0" d="M1310 384c95,130 133,273 113,430 -23,58 -68,90 -133,96 -38,3 -78,-3 -121,-18 -27,-22 -99,-116 -218,-282 -87,-119 -173,-174 -258,-164 -34,3 -68,15 -102,36 -79,72 -117,168 -117,288 1,71 15,138 43,203 36,50 87,109 152,180 66,70 145,152 240,244 181,178 307,319 376,423 113,164 168,330 163,498 -4,164 -53,311 -146,441 -52,70 -110,124 -174,161 -63,38 -133,59 -210,66 -142,12 -279,-15 -410,-83 -130,-68 -256,-176 -378,-324 -93,-142 -135,-296 -126,-464 31,-37 75,-57 134,-60 44,-2 88,5 132,23 25,26 71,122 139,285 50,116 121,188 216,217 57,15 110,22 160,20 78,-2 135,-25 171,-69 60,-105 91,-192 91,-261 1,-20 0,-40 -3,-60 -19,-151 -105,-303 -259,-457 -70,-63 -140,-126 -210,-188 -69,-63 -138,-126 -207,-189 -150,-150 -235,-304 -255,-461 -11,-85 -17,-160 -18,-228 -5,-302 88,-505 282,-608 63,-33 128,-54 197,-63 64,-8 128,-6 194,6 65,12 131,35 198,68 134,65 249,163 344,294z"/>
  <g id="_744321632">
   <path class="fil0" d="M9099 130c9,336 10,733 1,1190 -12,394 -24,787 -36,1178l61 58c62,15 133,22 214,21 25,-1 63,-1 114,-2 51,-1 88,-1 110,-2 160,-2 285,36 375,113 19,85 29,140 29,163 1,61 -21,105 -67,135 -99,1 -206,3 -323,4 -269,4 -541,-10 -815,-43 -51,-41 -79,-98 -82,-171 -7,-123 -12,-186 -15,-192 12,-410 24,-818 36,-1225 16,-478 22,-889 17,-1234 -1,-44 23,-69 71,-75 63,-6 101,-17 114,-33 68,-17 133,22 196,115z"/>
   <path class="fil0" d="M11205 197c53,214 152,558 297,1034 138,456 235,802 290,1039 51,26 79,37 84,32 66,-249 150,-602 249,-1060 109,-494 190,-850 243,-1067 20,-81 81,-122 185,-123 20,-1 48,1 84,3 45,4 76,7 91,7 41,20 61,49 62,85 0,13 -3,31 -7,55 -5,23 -8,42 -7,55 -134,573 -328,1436 -580,2589 -35,76 -120,115 -254,116 -61,0 -152,-10 -274,-33 -26,-10 -49,-25 -69,-46 -179,-611 -432,-1495 -761,-2650 10,-26 20,-55 30,-85 10,-30 28,-51 53,-65 13,-2 25,-4 38,-4 71,-1 153,39 246,118z"/>
   <path class="fil0" d="M14281 30c78,19 117,81 116,185 0,24 -3,43 -8,59 -77,80 -223,122 -439,125 -292,5 -464,14 -518,26 -20,274 -14,543 19,807l46 36c58,0 138,-2 239,-6 112,-4 192,-6 240,-6 99,1 187,11 262,30 51,56 66,150 47,283 -7,10 -19,27 -34,50 -64,7 -193,13 -389,16 -170,1 -299,10 -388,28 -26,99 -40,215 -41,348 -1,65 9,240 29,524 15,14 38,34 68,60 416,-12 666,-14 750,-5 68,24 102,66 101,126 0,11 -2,28 -4,51 -3,24 -4,41 -4,51 -1,29 4,53 14,74 -8,11 -22,28 -42,51l-1157 32c-94,-40 -140,-119 -139,-236 0,-10 0,-26 0,-47 1,-21 1,-36 1,-47 0,-47 -4,-85 -14,-114l-1 -2399c11,-26 35,-57 74,-93 197,-4 394,-7 589,-10 236,-6 431,-5 583,1z"/>
   <path class="fil0" d="M10627 140c-4,136 -9,281 -14,434 -6,209 -11,524 -13,944 -3,420 -8,734 -14,943 -5,156 -10,303 -17,438 -17,36 -50,56 -101,60 -51,3 -102,7 -153,11 -57,-20 -96,-53 -115,-98 -12,-24 -17,-65 -15,-124 2,-58 -2,-101 -11,-127 -7,-280 3,-693 30,-1241 27,-547 37,-961 31,-1240 18,-23 37,-47 58,-71 21,-24 47,-37 77,-39 42,10 85,19 127,28 55,12 98,39 130,82z"/>
  </g>
 </g>
</svg>
