<?xml version="1.0" encoding="UTF-8"?>
<!DOCTYPE svg PUBLIC "-//W3C//DTD SVG 1.1//EN" "http://www.w3.org/Graphics/SVG/1.1/DTD/svg11.dtd">
<!-- Creator: CorelDRAW X7 -->
<svg xmlns="http://www.w3.org/2000/svg" xml:space="preserve" width="140mm" height="30mm" version="1.1" style="shape-rendering:geometricPrecision; text-rendering:geometricPrecision; image-rendering:optimizeQuality; fill-rule:evenodd; clip-rule:evenodd"
viewBox="0 0 14000 3000"
 xmlns:xlink="http://www.w3.org/1999/xlink">
 <defs>
  <style type="text/css">
   <![CDATA[
    .fil0 {fill:#FEFEFE;fill-rule:nonzero}
    .fil1 {fill:#373435;fill-rule:nonzero}
   ]]>
  </style>
 </defs>
 <g id="Layer_x0020_1">
  <metadata id="CorelCorpID_0Corel-Layer"/>
  <g id="_728043872">
   <g>
    <path class="fil0" d="M2173 205c50,149 132,448 245,898 92,371 184,666 278,885l33 0c90,-198 182,-498 277,-901 95,-419 183,-720 263,-905 21,-51 64,-77 128,-79 27,0 76,6 148,20 65,11 112,15 141,12 18,15 43,36 76,63 7,584 12,1458 14,2621 -21,59 -106,90 -254,93 -69,-32 -109,-84 -118,-158 -1,-58 -2,-118 -3,-179 2,-134 -2,-309 -12,-525 -13,-304 -21,-482 -22,-533 -12,-5 -22,-7 -29,-7 -20,0 -34,19 -43,54 -17,49 -26,76 -28,81 -12,33 -70,245 -175,636 -70,258 -148,460 -234,607 -34,13 -69,20 -106,21 -88,2 -161,-27 -219,-87 -50,-136 -118,-360 -206,-674 -82,-295 -150,-513 -205,-654 -17,0 -28,10 -32,31l-7 57c8,124 10,289 7,495 -5,244 -6,408 -4,492 1,78 3,153 4,224 -8,54 -47,81 -115,83 -120,2 -171,2 -154,-1 -22,-17 -51,-46 -86,-86 4,-279 -3,-714 -20,-1306 -17,-571 -23,-1006 -16,-1306 50,-57 127,-86 231,-89 111,-2 192,37 243,117z"/>
    <path class="fil0" d="M5881 2933c-15,-1 -30,-2 -45,-3 -17,-1 -40,-3 -68,-5 -28,-2 -49,-3 -61,-4 -47,-3 -86,-26 -117,-69l-185 -663c-17,-11 -39,-29 -66,-53 -72,7 -197,0 -375,-22 -158,-16 -282,-17 -371,-2 -48,72 -90,207 -124,402 -35,185 -83,319 -143,401 -109,13 -167,19 -175,19 -62,-5 -111,-32 -147,-83 -17,-59 -21,-94 -14,-103 66,-244 166,-693 301,-1345 119,-570 229,-1014 329,-1332 87,-12 255,-1 505,31 32,20 69,55 113,106 52,219 139,550 261,993 123,444 210,777 262,1001 -13,12 -19,26 -19,41 -1,18 15,46 47,85 31,39 49,68 54,89 -10,45 3,114 42,208 43,102 64,171 64,206 -1,46 -24,80 -68,102zm-619 -1168l0 0c-25,-146 -71,-334 -137,-564l-159 -578c-10,0 -18,-8 -24,-22 -6,-15 -13,-19 -20,-15 -42,137 -86,315 -134,535 -63,307 -102,487 -115,540 -25,34 -16,68 28,104 45,11 90,18 137,21 55,4 128,1 221,-8 93,-9 161,-13 203,-13z"/>
    <path class="fil0" d="M6646 169c16,327 24,713 24,1157 -4,384 -8,766 -13,1148l61 55c60,13 129,18 208,15 25,0 62,-2 111,-3 50,-2 86,-3 108,-4 155,-5 277,29 366,102 20,83 31,136 32,159 2,58 -19,102 -63,132 -96,3 -201,6 -314,10 -262,9 -526,0 -794,-26 -51,-39 -78,-94 -83,-165 -9,-119 -15,-181 -18,-186 4,-399 8,-797 12,-1193 6,-465 4,-865 -8,-1200 -1,-43 21,-68 68,-75 62,-7 98,-19 110,-34 66,-18 130,18 193,108z"/>
    <path class="fil0" d="M8059 169c16,327 24,713 25,1157 -4,384 -9,766 -13,1148l61 55c60,13 129,18 208,15 25,0 62,-2 111,-3 49,-2 85,-3 107,-4 156,-5 278,29 367,102 20,83 30,136 31,159 2,58 -19,102 -62,132 -96,3 -201,6 -315,10 -261,9 -526,0 -793,-26 -51,-39 -79,-94 -84,-165 -9,-119 -14,-181 -17,-186 4,-399 7,-797 11,-1193 7,-465 4,-865 -7,-1200 -2,-43 21,-68 68,-75 61,-7 98,-19 110,-34 66,-18 130,18 192,108z"/>
    <path class="fil0" d="M10291 392c95,129 132,272 112,427 -23,58 -67,89 -132,95 -37,4 -78,-2 -120,-17 -26,-23 -98,-116 -216,-280 -87,-118 -172,-173 -256,-163 -34,3 -68,15 -102,35 -78,72 -116,168 -115,287 0,70 14,137 43,201 35,49 86,109 150,179 65,70 144,151 238,242 180,177 304,317 373,419 112,163 167,328 162,495 -4,162 -52,308 -145,438 -51,69 -109,122 -172,160 -63,37 -133,58 -209,65 -141,12 -277,-15 -407,-83 -129,-67 -254,-174 -375,-321 -92,-141 -134,-294 -125,-461 31,-36 75,-56 132,-59 44,-2 88,5 132,23 25,26 71,120 138,282 49,116 120,187 214,216 56,15 110,22 159,20 78,-3 134,-25 170,-69 59,-104 90,-190 91,-258 0,-21 -1,-41 -4,-61 -18,-149 -104,-300 -257,-453 -70,-62 -139,-124 -208,-187 -69,-62 -138,-125 -206,-187 -149,-149 -233,-301 -253,-458 -11,-84 -17,-159 -18,-226 -4,-300 88,-501 280,-603 62,-33 127,-54 196,-63 63,-8 127,-6 192,6 65,12 130,35 197,67 133,65 247,162 341,292z"/>
    <path class="fil0" d="M1297 392c95,129 132,272 112,427 -23,58 -67,89 -132,95 -37,4 -78,-2 -120,-17 -27,-23 -98,-116 -216,-280 -87,-118 -172,-173 -256,-163 -34,3 -68,15 -102,35 -78,72 -116,168 -116,287 1,70 15,137 43,201 36,49 87,109 151,179 65,70 144,151 238,242 180,177 304,317 373,419 112,163 166,328 162,495 -4,162 -53,308 -145,438 -51,69 -109,122 -172,160 -63,37 -133,58 -209,65 -141,12 -277,-15 -407,-83 -129,-67 -254,-174 -375,-321 -92,-141 -134,-294 -125,-461 31,-36 75,-56 132,-59 44,-2 88,5 132,23 25,26 71,120 138,282 49,116 120,187 214,216 56,15 110,22 159,20 78,-3 134,-25 170,-69 59,-104 90,-190 91,-258 0,-21 -1,-41 -4,-61 -18,-149 -104,-300 -257,-453 -70,-62 -139,-124 -208,-187 -69,-62 -138,-125 -206,-187 -149,-149 -233,-301 -253,-458 -11,-84 -17,-159 -18,-226 -5,-300 88,-501 280,-603 62,-33 127,-54 196,-63 63,-8 127,-6 192,6 65,12 130,35 197,67 133,65 247,162 341,292z"/>
   </g>
   <g>
    <path class="fil0" d="M11371 1559c5,167 5,364 1,590 -6,196 -12,391 -18,585l30 29c30,7 66,11 106,10 13,0 31,0 57,-1 25,0 43,0 54,-1 80,-1 142,18 186,56 10,43 15,70 15,81 0,30 -11,52 -33,67 -49,1 -103,1 -161,2 -133,2 -268,-5 -404,-21 -26,-21 -39,-49 -41,-85 -4,-61 -6,-93 -7,-95 6,-204 12,-406 18,-608 8,-237 10,-441 8,-612 0,-22 11,-35 35,-38 32,-3 50,-8 57,-16 34,-8 66,11 97,57z"/>
    <path class="fil0" d="M12416 1592c26,106 75,277 147,513 69,227 117,398 144,516 26,13 40,18 42,16 33,-124 74,-299 124,-526 54,-245 94,-422 120,-530 10,-40 40,-60 92,-61 10,0 24,0 42,2 22,2 37,3 45,3 20,10 30,24 30,42 0,7 -1,16 -3,28 -3,11 -4,20 -4,27 -66,284 -162,712 -287,1285 -18,37 -60,57 -126,57 -30,1 -76,-5 -136,-16 -13,-5 -24,-13 -35,-23 -88,-303 -214,-742 -377,-1315 5,-13 10,-27 15,-42 5,-15 13,-26 26,-32 6,-2 13,-2 19,-2 35,-1 76,19 122,58z"/>
    <path class="fil0" d="M13942 1509c39,10 58,40 58,92 0,12 -1,22 -4,29 -38,40 -111,61 -218,62 -145,3 -230,7 -257,14 -10,135 -7,269 10,400l22 17c29,1 69,0 119,-2 56,-2 95,-3 119,-3 49,0 93,5 130,15 25,27 33,74 24,140 -4,5 -10,13 -18,25 -31,3 -95,6 -192,8 -85,0 -149,5 -193,14 -13,49 -20,106 -21,172 0,33 5,119 15,261 8,6 19,16 34,29 206,-6 330,-7 372,-2 34,12 50,33 50,62 0,6 -1,14 -2,26 -1,11 -2,20 -2,25 0,14 2,26 7,37 -4,5 -11,13 -21,25l-574 16c-47,-20 -69,-59 -69,-117 0,-6 0,-13 0,-24 0,-10 0,-18 1,-23 0,-23 -3,-42 -7,-56l-1 -1191c6,-13 18,-28 37,-46 98,-2 195,-4 292,-5 118,-3 214,-3 289,0z"/>
    <path class="fil0" d="M12129 1564c-2,67 -4,139 -6,215 -4,104 -6,260 -7,469 -2,208 -4,364 -7,468 -2,77 -5,150 -9,217 -8,18 -24,28 -50,30 -25,1 -50,3 -75,5 -29,-10 -48,-26 -57,-48 -6,-12 -9,-33 -8,-62 1,-29 -1,-50 -6,-63 -3,-139 2,-344 15,-616 14,-271 19,-476 16,-615 9,-12 18,-23 29,-35 10,-12 23,-19 38,-19 21,4 42,9 63,13 27,6 49,20 64,41z"/>
   </g>
  </g>
 </g>
 <g id="__x0023_Layer_x0020_1">
  <metadata id="CorelCorpID_1Corel-Layer"/>
  <path class="fil1" d="M-15539 -14311c18,56 49,169 92,339 35,141 70,252 105,335l13 0c34,-75 69,-188 105,-341 35,-158 69,-272 99,-342 8,-19 24,-29 48,-29 10,-1 29,2 56,7 25,4 42,6 54,5 6,5 16,13 28,24 3,220 5,551 6,990 -8,23 -40,34 -96,35 -27,-12 -42,-31 -45,-59 0,-22 -1,-45 -1,-68 0,-51 -1,-117 -5,-198 -5,-116 -8,-183 -8,-202 -5,-2 -8,-3 -11,-3 -8,1 -13,7 -16,21 -7,18 -10,28 -11,30 -4,13 -26,93 -66,241 -27,97 -56,174 -88,229 -13,5 -27,8 -41,8 -33,1 -61,-10 -82,-32 -19,-52 -45,-137 -78,-255 -31,-112 -57,-194 -78,-248 -6,0 -10,4 -12,12l-2 22c2,47 3,109 2,187 -2,92 -2,154 -2,186 1,29 2,58 2,85 -3,20 -18,30 -43,31 -46,1 -65,1 -59,0 -8,-7 -19,-18 -32,-33 1,-106 -1,-270 -8,-494 -6,-216 -8,-380 -6,-494 19,-21 48,-32 88,-33 42,-1 72,14 92,44z"/>
  <path class="fil1" d="M-14138 -13280c-5,0 -11,0 -16,-1 -7,0 -16,-1 -26,-1 -11,-1 -19,-2 -23,-2 -18,-1 -33,-10 -45,-26l-70 -251c-6,-4 -14,-11 -25,-20 -27,3 -74,0 -141,-8 -60,-6 -107,-7 -141,-1 -18,27 -33,78 -47,152 -13,70 -31,121 -54,152 -41,4 -63,7 -66,7 -23,-2 -42,-12 -55,-31 -7,-23 -8,-36 -5,-40 24,-92 62,-261 113,-508 45,-216 87,-383 125,-504 33,-4 96,0 190,12 13,8 27,21 43,40 20,83 53,208 99,376 46,167 79,293 99,378 -5,5 -7,10 -7,15 0,7 5,18 17,33 12,14 19,26 21,33 -4,17 1,44 16,79 16,39 24,65 24,78 0,17 -9,30 -26,38zm-234 -441l0 0c-9,-55 -27,-126 -52,-213l-60 -219c-3,0 -6,-3 -9,-8 -2,-6 -5,-8 -7,-6 -16,52 -33,119 -51,202 -24,117 -38,185 -43,204 -10,13 -6,26 10,40 17,4 34,7 52,8 21,1 49,0 84,-3 35,-4 60,-5 76,-5z"/>
  <path class="fil1" d="M-13849 -14325c7,124 10,270 10,438 -2,145 -3,290 -5,434l23 21c23,5 49,7 79,6 9,-1 23,-1 42,-2 18,-1 32,-1 40,-1 59,-2 105,11 139,38 7,32 11,52 12,60 0,22 -8,39 -24,50 -36,1 -76,3 -119,4 -99,4 -199,0 -300,-10 -19,-15 -30,-35 -31,-62 -4,-45 -6,-69 -7,-70 1,-151 3,-302 4,-452 3,-175 2,-327 -3,-453 0,-17 8,-26 26,-29 23,-2 37,-7 42,-13 25,-6 49,7 72,41z"/>
  <path class="fil1" d="M-11434 -14303c4,123 4,269 1,437 -5,145 -9,290 -14,434l23 21c23,6 49,8 79,8 9,0 23,-1 42,-1 18,0 32,0 40,0 59,-1 105,13 138,41 7,31 11,52 11,60 0,22 -8,39 -25,49 -36,1 -76,2 -119,2 -99,2 -199,-4 -300,-16 -19,-15 -29,-36 -30,-63 -2,-45 -4,-68 -5,-70 4,-151 9,-301 13,-451 6,-176 8,-327 6,-454 0,-16 9,-25 26,-27 24,-3 38,-7 42,-13 25,-6 49,8 72,43z"/>
  <path class="fil1" d="M-10659 -14279c20,79 56,206 109,381 51,167 87,295 107,382 19,10 29,14 31,12 24,-92 55,-222 92,-390 40,-182 69,-313 89,-393 7,-30 30,-45 68,-45 7,0 18,0 31,1 17,2 28,3 33,3 15,7 23,18 23,31 0,5 -1,12 -3,20 -1,9 -2,16 -2,20 -49,211 -121,529 -213,953 -13,28 -44,42 -94,43 -22,0 -56,-4 -101,-12 -9,-4 -18,-10 -25,-17 -66,-225 -159,-550 -280,-975 4,-10 7,-20 11,-32 4,-11 10,-19 20,-23 4,-1 9,-2 14,-2 26,0 56,14 90,43z"/>
  <path class="fil1" d="M-9527 -14340c28,7 43,30 42,68 0,9 -1,16 -3,22 -28,29 -82,45 -161,46 -107,2 -171,5 -191,9 -7,101 -5,200 7,297l17 13c22,0 51,0 88,-2 41,-1 71,-2 89,-2 36,0 68,4 96,11 18,20 24,55 17,104 -3,4 -7,10 -13,19 -23,2 -70,4 -142,5 -63,1 -111,4 -143,11 -10,36 -15,79 -15,128 -1,24 3,88 10,193 6,5 14,12 25,21 153,-4 245,-4 276,-1 25,9 38,24 37,46 0,4 0,10 -1,19 -1,9 -2,15 -2,19 0,10 2,19 6,27 -3,4 -8,10 -16,19l-426 11c-34,-14 -51,-43 -51,-86 0,-4 1,-10 1,-18 0,-7 0,-13 0,-17 0,-17 -2,-31 -5,-42l-1 -882c4,-10 13,-21 27,-35 73,-1 145,-2 217,-4 87,-2 159,-1 215,1z"/>
  <path class="fil1" d="M-13314 -14325c6,124 9,270 9,438 -1,145 -3,290 -5,434l23 21c23,5 49,7 79,6 9,-1 23,-1 42,-2 19,-1 32,-1 41,-1 58,-2 105,11 138,38 8,32 12,52 12,60 1,22 -7,39 -23,50 -37,1 -77,3 -119,4 -99,4 -199,0 -300,-10 -20,-15 -30,-35 -32,-62 -3,-45 -6,-69 -7,-70 2,-151 3,-302 5,-452 2,-175 1,-327 -3,-453 -1,-17 8,-26 26,-29 23,-2 37,-7 41,-13 25,-6 49,7 73,41z"/>
  <path class="fil1" d="M-12470 -14240c36,49 50,102 42,161 -9,22 -25,34 -50,36 -14,2 -29,-1 -45,-6 -10,-9 -37,-44 -82,-106 -33,-45 -65,-66 -97,-62 -13,1 -25,6 -38,14 -30,27 -44,63 -44,108 0,26 6,52 16,76 14,18 33,41 57,67 25,27 55,58 90,92 68,67 115,120 141,159 43,61 63,124 62,187 -2,61 -20,116 -55,165 -20,26 -41,46 -65,61 -24,14 -51,22 -79,24 -54,5 -105,-6 -154,-31 -49,-25 -96,-66 -142,-121 -35,-54 -51,-112 -47,-175 11,-13 28,-21 50,-22 16,-1 33,2 50,8 9,10 26,46 52,107 18,44 45,71 81,82 21,6 41,8 60,7 29,0 50,-9 64,-25 22,-40 34,-73 34,-98 0,-8 0,-15 -1,-23 -7,-56 -40,-114 -97,-171 -27,-24 -53,-48 -79,-71 -26,-24 -52,-47 -78,-71 -56,-56 -88,-114 -95,-173 -5,-32 -7,-60 -7,-85 -2,-114 33,-190 106,-228 23,-13 48,-21 74,-24 23,-3 48,-2 72,2 25,5 50,13 75,25 50,25 93,62 129,111z"/>
  <path class="fil1" d="M-15871 -14240c36,49 50,102 43,161 -9,22 -26,34 -50,36 -14,2 -30,-1 -46,-6 -10,-9 -37,-44 -81,-106 -33,-45 -65,-66 -97,-62 -13,1 -26,6 -39,14 -29,27 -43,63 -43,108 0,26 5,52 16,76 13,18 32,41 57,67 24,27 54,58 90,92 68,67 115,120 141,159 42,61 63,124 61,187 -1,61 -20,116 -55,165 -19,26 -41,46 -65,61 -24,14 -50,22 -79,24 -53,5 -104,-6 -154,-31 -49,-25 -96,-66 -141,-121 -35,-54 -51,-112 -48,-175 12,-13 29,-21 50,-22 17,-1 33,2 50,8 9,10 27,46 52,107 19,44 46,71 81,82 22,6 42,8 60,7 30,0 51,-9 65,-25 22,-40 33,-73 34,-98 0,-8 0,-15 -1,-23 -7,-56 -40,-114 -98,-171 -26,-24 -52,-48 -78,-71 -26,-24 -52,-47 -78,-71 -56,-56 -88,-114 -96,-173 -4,-32 -6,-60 -7,-85 -1,-114 34,-190 106,-228 24,-13 48,-21 74,-24 24,-3 48,-2 73,2 24,5 49,13 74,25 51,25 94,62 129,111z"/>
  <path class="fil1" d="M-10872 -14300c-1,50 -3,104 -5,160 -2,77 -4,193 -5,347 -1,155 -2,270 -5,347 -1,58 -4,112 -6,161 -6,14 -18,21 -37,22 -19,2 -37,3 -56,4 -21,-7 -36,-19 -42,-36 -5,-8 -7,-23 -6,-45 1,-22 -1,-37 -4,-47 -3,-103 1,-255 11,-456 10,-202 14,-354 11,-457 7,-8 14,-17 22,-26 7,-9 17,-13 28,-14 15,3 31,7 47,10 20,5 36,15 47,30z"/>
 </g>
</svg>
