<svg data-name="Layer 1" xmlns="http://www.w3.org/2000/svg" viewBox="0 0 307.98 307.98"><path d="M298.35 211.73a9.63 9.63 0 00-9.62 9.63v67.37H19.25v-67.37a9.63 9.63 0 00-9.63-9.63A9.63 9.63 0 000 221.36v77a9.63 9.63 0 009.62 9.63h288.73a9.64 9.64 0 009.63-9.63v-77a9.63 9.63 0 00-9.63-9.63zm0 0"/><path d="M147 228.16a9.85 9.85 0 0013.75 0l67.32-66.41a9.54 9.54 0 000-13.61 9.78 9.78 0 00-13.74 0l-50.77 50.05V9.62A9.67 9.67 0 00153.84 0a9.67 9.67 0 00-9.72 9.62v188.57l-50.77-50a9.78 9.78 0 00-13.74 0 9.55 9.55 0 000 13.61zm0 0"/></svg>