<svg xmlns="http://www.w3.org/2000/svg" width="48mm" height="48mm" viewBox="0 0 4800 4800" shape-rendering="geometricPrecision" text-rendering="geometricPrecision" image-rendering="optimizeQuality" fill-rule="evenodd" clip-rule="evenodd"><path d="M3744 400H2306c-362 0-656 294-656 656v1678c-114-54-241-84-375-84-483 0-875 392-875 875s392 875 875 875 875-392 875-875V1400h1750v1334c-114-54-241-84-375-84-483 0-875 392-875 875s392 875 875 875 875-392 875-875V1056c0-362-294-656-656-656z" fill="#d21435" fill-rule="nonzero"/></svg>