<svg xmlns="http://www.w3.org/2000/svg" width="48mm" height="48mm" viewBox="0 0 4800 4800" shape-rendering="geometricPrecision" text-rendering="geometricPrecision" image-rendering="optimizeQuality" fill-rule="evenodd" clip-rule="evenodd"><path d="M3113 2113H1687c-435 0-843 373-789 826l113 851c88 452 353 813 788 813h1202c435 0 700-374 788-825l112-852c57-444-353-813-788-813zm88-1090c0 457-358 827-801 827s-801-370-801-827c0-456 358-826 801-826s801 370 801 826zm1209 165h-611c-186-1-360 159-338 352l2 16c591 14 899 697 899 697 186 0 300-159 338-353l48-365c23-189-151-347-338-347zm-305-114c190 0 343-158 343-353 0-196-153-355-343-355-189 0-343 159-343 355 0 195 154 353 343 353zM390 1188h611c187-1 360 159 338 352l-2 16c-591 14-899 697-899 697-186 0-300-159-337-353l-49-365c-23-189 152-347 338-347zm305-114c-190 0-343-158-343-353 0-196 153-355 343-355s343 159 343 355c0 195-153 353-343 353z" fill="#d21435" fill-rule="nonzero"/></svg>