<svg version="1.0" id="Layer_1" xmlns="http://www.w3.org/2000/svg" x="0" y="0" viewBox="0 0 283.5 69" xml:space="preserve"><style>.st0{fill:#fff}</style><g id="XMLID_391_"><path id="XMLID_483_" class="st0" d="M244.3 17.7c0 .2.1.5.1.7 0 2.6.6 5.2 1 7.8.3 2.1.5 4.2 1.2 6.2.5 3.4 1.1 6.7 1.7 10.1.1.7.2 1.5.7 2.1.2-.7.5-1.3.7-2 1.2-4.4 2.8-8.8 3.8-13.2.1-.3.3-.6.6-1.3 1.2 3.5 1.9 6.7 2.7 9.9.3.5-.4 1.2.4 1.5v.1c.2 1.6.6 3.1 1.2 4.7.2.4.2 1 .9 1 .6-.1.6-.7.7-1.1.7-3.6 1.3-7.2 1.8-10.8.9-6.3 1.9-12.5 3-18.7.7-4 1.4-8.1 2-12.2.2-1.2.4-1.7 1.8-1.8 3.9-.1 7.8-.1 11.7-.1 1.9 0 2.1.2 1.8 2.1-1.3 7.3-2.8 14.6-4.1 22-1 5.5-1.9 11-2.8 16.6-1 6-1.9 12-3.2 17.9-.5 2.6-.8 5.2-1.2 7.8-.3 1.9-.6 2.2-2.6 2.2-3-.1-6.1.3-9.1-.3-.1 0-.1-.1-.1-.2-.1-.1-.1-.2-.1-.2 0-.1 0-.1.1-.1 0-.1-.1-.2-.1-.3V68c-1.3-4.9-2.7-9.8-3.8-14.8h-.2c-.2-.4.4-1.1-.4-1.4l.2-.1-.1.1c-.1-.5-.3-.3-.5-.1-1.2 3.2-1.9 6.5-3.1 9.7-.6.2-.3.7-.5 1.1v-.1.1c-.7 1.7-.9 3.5-1.5 5.2-.4 1.2-1 1.6-2.2 1.6-2.4-.1-4.8 0-7.1 0-2.2 0-2.1 0-2.5-2-.1-.6-.1-1.3-.4-1.9-.1-.7-.4-1.4-.3-2.2 0-.8 0-1.6-.2-2.4 0-.2-.1-.3-.1-.5-.3-.4.4-1-.3-1.3h.1-.1c-1-6.2-1.7-12.5-2.7-18.7-1.4-8.9-2.9-17.9-4.2-26.8-.5-3.5-1.2-7.1-1.7-10.6-.1-1 .1-1.3 1.1-1.5 3.9-.5 7.7-.2 11.6-.3 1.2 0 1.6.4 1.8 1.6.8 4.8 1.3 9.9 2.5 15z"/><path id="XMLID_484_" class="st0" d="M150.7 2.6c0-1.1.3-1.7 1.5-1.7 5.7-.1 11.3-.4 17 .3 1.3.2 2.4.9 3.6 1.2.3.6.9.5 1.4.8l-.2.1.1-.1c5.7 4.7 8.5 10.7 8.6 18.2.1 4.5-.6 8.7-2.3 12.8-.8 2-2.1 3.7-3.4 5.4l-.1-.1.1.1c-.5.3-.9.6-1 1.1l-.1-.1.1.1c-1 .5-1.7 1.5-2.6 2.2-.6.5-.4 1.1-.2 1.8 1.1 3.4 2.8 6.6 4.1 9.9 1.6 4.2 3.5 8.2 5.3 12.3.7 1.5.4 1.9-1.3 2-3.2.1-3.5 0-4.7-3-3.4-8.1-6.8-16.2-10.2-24.2-.1-.2-.2-.3-.4-.4-.3-.8.2-1.1.9-1.2 6.9-1.4 9.5-6.3 10.7-12.5 0-.2.1-.4.1-.6.4-5.2.7-10.5-2.2-15.2-.1-.1-.2-.3-.2-.4-.3-.6-.6-1.1-1-1.6l-.3-.3-.3-.3-.1-.1-.3-.3-.1-.1-.3-.3c-.1 0-.1-.1-.2-.1l-.3-.3c-.1 0-.1-.1-.2-.2-.5-.5-1-.7-1.6-1-.2-.1-.3-.1-.4-.2-1.3-.3-2.5-1.8-4-.5-.2.2-.5.3-.6.5-.3.7-.2 1.4-.2 2.1 0 5.9-.1 11.8 0 17.7.1 3.3-.5 6.6-.3 9.8.3 6.8-.3 13.6 0 20.4.2 3.2.1 6.4.1 9.6 0 2-.4 2.6-2.4 2.6-3.6.1-7.3 0-10.9 0-1.3 0-1.3-.9-1.3-1.8"/><path id="XMLID_485_" class="st0" d="M99.1 64.3l.1-.1h10c1.6 0 1.6 0 1.7 1.7v1.8c0 1.5 0 1.6-1.6 1.6-3.9-.2-7.8-.1-11.7-.1-4.7-.2-9.4-.5-14.1-.5-1.9 0-2-.1-1.6-1.9 2-7.8 3.7-15.8 5.8-23.6 3.1-11.5 6-23.1 8.9-34.6.2-.6.4-1.2.5-1.9.2-1.1.1-1.3-1-1.3H85.9c-.6 0-.9-.3-.9-.9V.9c0-.8.4-1 1.1-1 4.5.1 9.1 0 13.6.3 3.5.2 6.9.1 10.4.2h2.9c1.2 0 1.2.1.9 1.2-.5 2-1.1 4-1.7 6-2.4 8.1-4.2 16.3-6.4 24.4-2.2 8.4-4.6 16.8-6.8 25.2-.5 1.9-1 3.8-1.6 5.7-.1.3-.1.6 0 1l.9.3c.3-.1.6 0 .8.1z"/><path id="XMLID_486_" class="st0" d="M120.5 5.2c-.9-.5-.6-3.5.2-4.3 2.6-.3 5.1-.1 7.7-.1h15.4c2.3 0 2.4.2 1.7 2.4-1.9 6.6-3.8 13.3-5.4 20-1.4 5.9-3 11.8-4.6 17.6-1.8 7.1-3.7 14.3-5.4 21.5-.1.6-.2 1.2-.1 1.8h.1v.1c.9.3 1.9.2 2.8.2 2.9 0 5.8.1 8.8.2 1 0 1.4.4 1.3 1.4v.4c.1 2.7 0 2.8-2.8 2.8h-12c-.7 0-1.4-.1-2.1.2-3.1.1-6.2.2-9.3 0-.3-.2-.7-.2-1-.2-2.8-.1-2.8-.1-2.1-2.9 1.3-4.7 2.4-9.5 3.8-14.2.2-.6.4-1.2.4-1.9.1-.2.1-.5.2-.7 1.7-5.8 3.2-11.6 4.7-17.4v-.2c1.8-6.5 3.6-13.1 5.1-19.7.6-1.5.8-3.1 1.3-4.6.4-1.4.1-1.8-1.5-1.9-2.2-.1-4.4 0-6.6-.1"/><path id="XMLID_487_" class="st0" d="M16.8 66.5c0 2.1 0 2.1-2.1 2.1H4.3c-1.7 0-1.6 0-1.9-1.6-.2-.9-.1-1.8-.1-2.7 0-7.5.1-15-.2-22.4-.3-7.4-.1-14.7-.4-22-.2-6-.1-12-.2-17.9 0-1.8.2-2.1 2-2.1 3.8 0 7.5 0 11.3.1h.4c1.7 0 2.8.6 3.5 2.3 1.2 3.1 2.6 6.1 3.9 9.2.2.5.5 1 .8 1.4.2-.1.5-.1.7-.2 1.7-3.6 3.4-7.2 5.1-10.9C30-.2 30 0 32.1 0c2.7 0 5.4-.1 8.1-.2h3.4c1.7 0 2 .3 2 1.9.6 12 .2 24 .4 36.1.2 9.5.2 19 .2 28.5v1.1c0 .9-.5 1.3-1.3 1.3H32.7c-1.7 0-1.8-.1-1.8-1.8 0-6.6.1-13.2.1-19.7 0-9.9-.1-19.7-.2-29.6 0-1.2-.2-2.5-.3-3.8-.7.4-.9 1.1-1.2 1.6l-4.2 8.7c-.4.7-.6 1.8-1.4 1.9-.8 0-1-1-1.4-1.7l-5.1-9.9c-.3.2-.6-1-.9 0 .1 1.2.1 2.3.2 3.5"/><path id="XMLID_488_" class="st0" d="M52.4 45.6c0-6.8-.1-13.6 0-20.5.1-4.8.3-9.6.1-14.3-.1-3.1-.2-6.2-.2-9.3 0-1.6.2-1.8 1.7-1.8h23.3c1.7 0 1.8.2 1.8 1.9v2.5c0 1.3-.1 1.4-1.5 1.4h-8.8c-1.4 0-1.5.1-1.5 1.6 0 4.3-.1 8.6-.1 12.9 0 1.8.1 1.9 1.9 1.9 2.8 0 5.5 0 8.3.1 1.5 0 1.6.2 1.7 1.7v2.2c0 1.2-.2 1.5-1.5 1.5h-9.1c-1-.1-1.2.4-1.2 1.3v6.8c0 8.7.2 17.5 0 26.2 0 1.6 0 1.6 1.6 1.6h7.4c.7 0 1.3 0 2 .2.6.2 1 .4 1 1.1v3.2c0 .8-.4 1.2-1.2 1.2-4.1-.1-8.1.1-12.2-.2-3.3-.2-6.7-.1-10-.1-4.1 0-3.3.2-3.4-3.3-.1-6.6-.1-13.2-.1-19.8z"/><g id="XMLID_489_"><path id="XMLID_492_" class="st0" d="M227.1 29.2c0-.3-.1-.5-.1-.8-.9-6.7-2.3-13.3-5.6-19.4-1.1-1.2-2-2.5-3.2-3.6 0-.1-.1-.1-.2-.1-.3 0-.5 0-.4-.4-.3.1-.4-.1-.4-.3-.4-.2-.9-.2-1.1-.7-2.6-1.4-5.1-2.7-8.2-2.8-4-.1-7.5.8-10.7 3.1l.1.1-.1-.1c-1 .9-2 1.8-2.9 2.9 0 .3-.1.4-.3.4-.2.4-.2.9-.7 1.1-2 3.1-3.2 6.6-4.4 10.1-1.4 4.2-2.1 8.5-2.3 12.9-.1 4.7.1 9.4.7 14.1.1.2.1.5.2.7.4 1.1.5 2.3.8 3.5v.1c1.5 4.6 3.2 9.1 6.1 13 .3 0 .4 0 .3.3v.1c1 .9 1.9 2 2.9 2.8 6.5 4 12.9 3.7 19.2-.4.2-.3.4-.6.8-.7.1 0 .1 0 .2-.1 1.5-1.3 2.6-3 3.7-4.6 1.2-2.3 2.2-4.7 3-7.2 1.1-3.8 1.8-7.7 2.6-11.6 0-.2 0-.5.1-.7.1-3.9 0-7.8-.1-11.7zm-15.4 31.2c0 1.2-.1 2.4-1.3 3.1l-.1.1c-1.5 1.6-3.4 1.6-5.3 1-1.8-.5-2.8-1.9-3.2-3.8-.1-.7-.1-1.4-.1-2.1V39.9c.1-.6.1-1.2 0-1.8-.1-.1-.1-.2 0-.4.1-1.1.1-2.2 0-3.3.1-8 0-16 0-24 0-1.6.4-3 1.6-4.2h-.1.1c0-.3.1-.4.3-.3v-.1.1c2-1.5 3.3-1.6 5.3-.5l.1.1c1.9 1.1 2.7 2.8 2.7 4.9v50z"/></g></g></svg>