<svg xmlns="http://www.w3.org/2000/svg" width="270" height="270"><path d="M0 0h270v270H0z"/><path fill="#BCBEC0" d="M162.131 208.389c-.629-.627-1.405-1.123-2.33-1.484-.924-.361-1.988-.541-3.193-.541a13.69 13.69 0 00-2.646.265l.745-4.301h5.944c.463 0 .857-.051 1.179-.15.323-.098.587-.24.794-.424.205-.184.353-.398.443-.643.088-.246.134-.521.134-.824v-1.82h-11.537l-1.935 11.209 2.711.754a9.237 9.237 0 013.217-.598c1.301 0 2.291.322 2.973.967.682.643 1.021 1.557 1.021 2.74 0 .617-.082 1.195-.246 1.734-.163.539-.412 1.006-.744 1.398s-.752.699-1.26.924c-.507.227-1.104.338-1.791.338-.666 0-1.23-.082-1.696-.25a7.359 7.359 0 01-1.22-.559c-.349-.203-.66-.389-.935-.557a1.6 1.6 0 00-.841-.252c-.454 0-.824.195-1.109.582l-1.348 1.82c.393.367.835.719 1.332 1.055.496.332 1.033.629 1.609.885s1.195.461 1.861.613a9.368 9.368 0 002.092.227c1.258 0 2.417-.199 3.479-.596a8.166 8.166 0 002.741-1.672 7.67 7.67 0 001.799-2.574c.434-1 .65-2.107.65-3.322 0-.973-.159-1.885-.477-2.732a6.061 6.061 0 00-1.416-2.212zm30.434 12.098c-.629-.627-1.406-1.123-2.33-1.482-.924-.361-1.989-.541-3.193-.541a13.338 13.338 0 00-2.646.265l.744-4.303h5.943c.465 0 .857-.049 1.182-.148.321-.1.586-.242.792-.422.206-.184.354-.4.444-.646.089-.244.135-.52.135-.824v-1.82h-8.863l4.663-12.01h-2.752c-.745 0-1.406.193-1.981.578-.574.385-.995.926-1.26 1.617l-1.129 2.895c-.388-1.009-.867-1.875-1.441-2.596-.762-.959-1.662-1.67-2.702-2.137s-2.163-.699-3.367-.699c-1.206 0-2.325.232-3.36.699s-1.929 1.178-2.678 2.137c-.751.955-1.34 2.166-1.768 3.627-.428 1.459-.642 3.184-.642 5.172s.214 3.717.642 5.182c.428 1.467 1.017 2.678 1.768 3.635.749.959 1.643 1.67 2.678 2.137 1.035.465 2.154.697 3.36.697.188 0 .372-.016.558-.027l-5.371 13.77h2.729c.668 0 1.325-.197 1.971-.59.645-.393 1.114-.975 1.41-1.744l4.297-11.066 2.479.688a9.28 9.28 0 013.217-.596c1.299 0 2.291.322 2.973.965.68.646 1.021 1.559 1.021 2.74 0 .617-.082 1.195-.246 1.736a3.86 3.86 0 01-.744 1.396c-.334.393-.754.703-1.261.928s-1.104.338-1.79.338c-.666 0-1.231-.086-1.695-.254a7.31 7.31 0 01-1.222-.557 80.65 80.65 0 01-.935-.557 1.61 1.61 0 00-.841-.252c-.454 0-.823.193-1.108.58l-1.348 1.824a10.784 10.784 0 002.94 1.938 9.793 9.793 0 001.862.611c.666.152 1.362.23 2.092.23 1.257 0 2.416-.199 3.479-.598 1.062-.396 1.977-.955 2.741-1.674a7.64 7.64 0 001.8-2.574c.433-1 .649-2.107.649-3.32 0-.975-.159-1.883-.476-2.732a6.152 6.152 0 00-1.42-2.216zm-16.281-2.881c-.481.24-.975.359-1.481.359s-.997-.119-1.466-.359c-.472-.242-.888-.666-1.253-1.273-.364-.605-.657-1.432-.88-2.479-.221-1.049-.332-2.383-.332-4.006 0-1.611.111-2.941.332-3.988.223-1.045.516-1.873.88-2.48.365-.607.781-1.031 1.253-1.271.469-.24.959-.361 1.466-.361s1 .121 1.481.361c.48.24.905.664 1.275 1.271.369.607.668 1.436.896 2.48.227 1.047.34 2.377.34 3.988 0 1.34-.082 2.472-.236 3.42l-1.417 3.633c-.264.308-.548.549-.858.705zm36.811-.832c-.433-1.459-1.03-2.668-1.79-3.627-.761-.957-1.662-1.67-2.703-2.135a8.152 8.152 0 00-3.367-.697c-1.204 0-2.324.232-3.36.697s-1.927 1.178-2.678 2.135c-.751.959-1.339 2.168-1.767 3.627-.428 1.461-.643 3.186-.643 5.176 0 1.988.215 3.713.643 5.18.428 1.465 1.016 2.676 1.767 3.635.751.957 1.642 1.67 2.678 2.135s2.156.701 3.36.701a8.155 8.155 0 003.367-.701c1.041-.465 1.942-1.178 2.703-2.135.76-.959 1.357-2.17 1.79-3.635.435-1.467.651-3.191.651-5.18.001-1.991-.216-3.715-.651-5.176zm-4.208 9.178c-.227 1.047-.524 1.873-.895 2.48-.369.607-.796 1.033-1.275 1.273-.48.24-.975.361-1.482.361s-.996-.121-1.467-.361c-.469-.24-.887-.666-1.252-1.273-.363-.607-.657-1.434-.878-2.48-.224-1.045-.333-2.381-.333-4.002 0-1.613.109-2.941.333-3.99.221-1.047.515-1.873.878-2.48.365-.605.783-1.029 1.252-1.271.471-.24.959-.361 1.467-.361s1.002.121 1.482.361c.479.242.906.666 1.275 1.271.37.607.668 1.434.895 2.48.227 1.049.342 2.377.342 3.99 0 1.621-.115 2.957-.342 4.002zm-60.59-180.88v19.475c0 3.75-3.225 6.808-7.189 6.808h-2.986v-.572h-7.403v.572h-2.987c-3.965 0-7.188-3.058-7.188-6.808V45.072h-2.961v19.475c0 5.383 4.554 9.771 10.149 9.771h2.987v4.692h.925v3.354h5.555V79.01h.924v-4.692h2.986c5.596 0 10.154-4.388 10.154-9.771V45.072h-2.966zm-33.354 1.032h1.921v3.977h-1.921zm36.984 0h1.919v3.977h-1.919z"/><path fill="#BCBEC0" d="M139.502 57.974a.848.848 0 010-1.695h6.592v-2.073h-6.592a.845.845 0 110-1.693h6.592v-2.071h-6.592a.846.846 0 110-1.691h6.592v-2.075h-6.592a.845.845 0 110-1.69h6.592v-2.075h-6.592a.845.845 0 01-.848-.844c0-.474.378-.851.848-.851h6.592v-2.071h-6.592a.848.848 0 010-1.695h6.592v-4.048a6.585 6.585 0 00-3.939-6.032v6.535a.85.85 0 01-.843.849.85.85 0 01-.845-.849v-7.022a6.674 6.674 0 00-.965-.069h-.858v7.092c0 .466-.378.849-.847.849s-.848-.383-.848-.849v-7.092h-1.819v7.092a.85.85 0 01-1.698 0v-7.092h-1.823v7.092a.847.847 0 01-.846.849.849.849 0 01-.843-.849v-7.092h-.582c-.428 0-.842.04-1.241.116v6.976a.847.847 0 01-.844.849.847.847 0 01-.844-.849v-6.405a6.595 6.595 0 00-3.661 5.902v4.048h6.263c.47 0 .846.381.846.851a.843.843 0 01-.846.844h-6.263v2.071h6.263c.47 0 .846.377.846.851a.843.843 0 01-.846.844h-6.263v2.075h6.263c.47 0 .846.375.846.847a.844.844 0 01-.846.843h-6.263v2.075h6.263a.845.845 0 110 1.691h-6.263v2.071h6.263c.47 0 .846.379.846.85a.844.844 0 01-.846.843h-6.263v2.073h6.263c.47 0 .846.381.846.851a.843.843 0 01-.846.844h-6.263v3.297a6.58 6.58 0 003.661 5.897v-5.647a.843.843 0 111.688 0v6.218c.399.081.813.116 1.241.116h.582v-6.334a.845.845 0 111.689 0v6.334h1.823v-6.334c0-.47.378-.847.852-.847.465 0 .846.377.846.847v6.334h1.819v-6.334c0-.47.379-.847.848-.847s.847.377.847.847v6.334h.858c.327 0 .65-.023.965-.066v-6.268a.845.845 0 111.688 0v5.78a6.588 6.588 0 003.939-6.03v-3.297h-6.592zm83.652 55.696a2.29 2.29 0 00-2.287 2.286 2.29 2.29 0 002.287 2.288 2.289 2.289 0 002.288-2.288 2.29 2.29 0 00-2.288-2.286z"/><path fill="#BCBEC0" d="M223.154 90.834c-13.874 0-25.12 11.25-25.12 25.122 0 13.874 11.246 25.125 25.12 25.125s25.122-11.25 25.122-25.125c0-13.872-11.248-25.122-25.122-25.122zm-7.646 44.749a.789.789 0 01-.719.475.806.806 0 01-.312-.066 21.852 21.852 0 01-13.188-20.074.78.78 0 01.781-.779c.434 0 .784.349.784.779a20.302 20.302 0 0012.243 18.64c.402.168.58.628.411 1.025zm1.55-3.475a.787.787 0 01-1.027.417 17.815 17.815 0 01-10.891-16.433c0-.432.348-.785.781-.785.432 0 .781.354.781.785 0 6.55 3.9 12.434 9.937 14.992.4.17.587.628.419 1.024zm1.381-3.389a.783.783 0 01-.722.474.765.765 0 01-.304-.059 14.04 14.04 0 01-8.585-12.957.782.782 0 011.564 0c0 5.038 2.994 9.556 7.63 11.517a.78.78 0 01.417 1.025zm4.715-3.545a9.216 9.216 0 01-9.216-9.218c0-5.09 4.125-9.218 9.216-9.218a9.219 9.219 0 010 18.436zm13.54-8.694a.786.786 0 01-.785-.785c0-5.034-2.994-9.552-7.63-11.514a.78.78 0 11.609-1.438 14.034 14.034 0 018.587 12.952.786.786 0 01-.781.785zm3.687.087a.784.784 0 01-.783-.785 16.25 16.25 0 00-9.938-14.992.78.78 0 11.608-1.439 17.808 17.808 0 0110.894 16.432.782.782 0 01-.781.784zm3.85.17a.781.781 0 01-.783-.781c0-8.1-4.805-15.418-12.246-18.636a.781.781 0 11.624-1.434 21.852 21.852 0 0113.185 20.07.778.778 0 01-.78.781zM80.799 216.508c-5.106 0-9.26 4.154-9.26 9.262 0 5.109 4.154 9.264 9.26 9.264 5.107 0 9.263-4.154 9.263-9.264 0-5.107-4.155-9.262-9.263-9.262zm2.182 11.444v4.373h-4.363v-4.373h-4.373v-4.363h4.373v-4.373h4.363v4.373h4.375v4.363h-4.375zm10.432-26.539c-.115 1.219-.819 4.111-1.471 4.652-.654.543-1.524-.025-1.551-1.008-.008-.391.071-1.592.136-2.723.251-4.432-3.1-8.68-4.245-9.768-1.142-1.084-2.993-2.664-4.461-2.775-1.469-.107-1.469 1.145-1.469 1.145v22.195l-.002.068c-6.151.219-11.183 4.863-12.008 10.844-4.479.383-8.39-1.449-9.411-4.736-1.252-4.035 2.33-8.732 7.998-10.488 3.106-.967 6.189-.844 8.551.117 0 0 1.774.861 1.851-1.189v-28.131s0-1.102 1.103-1.102c.883 0 1.096.896 1.602 1.631.828 1.205 5.221 6.295 5.948 6.9.979.817 8.062 7.608 7.429 14.368z"/><path fill="#FFF" d="M142.842 100.151h-9.222v10.956h1.462v-5.569h7.76z"/><path fill="#FFF" d="M149.382 120.445l-15.016-11.314-14.795 11.147v4.575l14.795-11.15 15.016 11.316z"/><path fill="#FFF" d="M135.13 127.121h-4.828v-1.462h3.391l.053-3.388 1.461.023-.077 4.827z"/><path fill="#FFF" d="M173.5 155.973v-29.036h-28.075v-2.584l-11.115-8.376-10.782 8.126v2.834H95.342v29.036h-3.744v4.383h37.851v-14.791a4.971 4.971 0 119.941 0v14.791h37.854v-4.383H173.5zm-65.354-4.869h-7.974v-7.791h7.974v7.791zm0-9.861h-7.974v-7.792h7.974v7.792zm10.044 9.861h-7.975v-7.791h7.975v7.791zm0-9.861h-7.975v-7.792h7.975v7.792zm16.221-9.45a5.402 5.402 0 11.002-10.804 5.402 5.402 0 01-.002 10.804zm23.994 19.311h-7.975v-7.791h7.975v7.791zm0-9.861h-7.975v-7.792h7.975v7.792zm10.043 9.861h-7.973v-7.791h7.973v7.791zm0-9.861h-7.973v-7.792h7.973v7.792z"/><path fill="#BCBEC0" d="M137.922 235.073a2.523 2.523 0 01-2.522-2.436 2.527 2.527 0 012.434-2.613l.252-.008c1.405-.062 2.562 1.041 2.612 2.436a2.523 2.523 0 01-2.435 2.611l-.251.008c-.029.002-.06.002-.09.002zm-9.078-.137c-.051 0-.101 0-.152-.004l-.251-.016a2.522 2.522 0 01-2.373-2.666 2.533 2.533 0 012.668-2.375l.254.016a2.524 2.524 0 01-.146 5.045zm18.377-.652a2.525 2.525 0 01-2.5-2.199 2.521 2.521 0 012.178-2.828l.221-.033a2.526 2.526 0 01.71 5.001l-.281.039c-.109.014-.219.02-.328.02zm-27.65-.416c-.138 0-.278-.01-.418-.033l-.247-.041a2.526 2.526 0 01.826-4.984l.251.045a2.523 2.523 0 01-.412 5.013zm-9.121-2.012a2.44 2.44 0 01-.677-.094l-.027-.008-.188-.051a2.527 2.527 0 011.3-4.881l.245.07c1.343.375 2.141 1.77 1.767 3.111a2.517 2.517 0 01-2.42 1.853zm-8.86-2.939c-.303 0-.612-.055-.912-.172l-.241-.092a2.524 2.524 0 111.834-4.705l.231.088a2.526 2.526 0 01-.912 4.881zm-37.395-27.133a2.514 2.514 0 01-1.956-.926l-.147-.18a2.524 2.524 0 01.329-3.555 2.524 2.524 0 013.556.326l.172.209a2.525 2.525 0 01-1.954 4.126zm145.126-5.211c-.51 0-1.023-.154-1.469-.473a2.521 2.521 0 01-.58-3.523l.129-.182a2.526 2.526 0 013.517-.621 2.523 2.523 0 01.619 3.516l-.161.23a2.526 2.526 0 01-2.055 1.053zm-150.682-2.291a2.525 2.525 0 01-2.108-1.131l-.139-.211a2.523 2.523 0 01.712-3.498 2.523 2.523 0 013.499.711l.139.209a2.525 2.525 0 01-2.103 3.92zm155.688-5.59a2.525 2.525 0 01-2.2-3.758l.124-.221a2.529 2.529 0 013.438-.971 2.526 2.526 0 01.969 3.438l-.124.221a2.525 2.525 0 01-2.207 1.291zm-160.453-2.436a2.527 2.527 0 01-2.236-1.35l-.123-.234a2.528 2.528 0 011.076-3.408 2.527 2.527 0 013.405 1.078l.111.211a2.525 2.525 0 01-2.233 3.703zm164.629-5.916a2.527 2.527 0 01-2.314-3.537l.098-.219a2.522 2.522 0 013.316-1.322 2.523 2.523 0 011.32 3.318l-.105.244a2.523 2.523 0 01-2.315 1.516zm-168.547-2.558a2.526 2.526 0 01-2.341-1.578l-.103-.258a2.523 2.523 0 011.424-3.273 2.523 2.523 0 013.275 1.424l.084.211a2.525 2.525 0 01-2.339 3.474zm171.845-6.178a2.526 2.526 0 01-2.405-3.297l.075-.234a2.523 2.523 0 013.17-1.643 2.523 2.523 0 011.643 3.17l-.078.248a2.53 2.53 0 01-2.405 1.756zM46.927 168.95a2.528 2.528 0 01-2.426-1.83l-.073-.258a2.522 2.522 0 011.749-3.111 2.522 2.522 0 013.113 1.748l.065.23a2.525 2.525 0 01-2.428 3.221zm177.255-6.373a2.526 2.526 0 01-2.472-3.049l.048-.227a2.526 2.526 0 114.95 1.002l-.056.266a2.53 2.53 0 01-2.47 2.008zm-179.358-2.725c-1.2 0-2.265-.859-2.482-2.082l-.048-.275a2.524 2.524 0 012.075-2.906 2.523 2.523 0 012.906 2.076l.038.219a2.525 2.525 0 01-2.489 2.968zm180.799-6.5a2.525 2.525 0 01-2.512-2.805l.023-.225a2.526 2.526 0 015.026.504l-.029.279a2.53 2.53 0 01-2.508 2.247zM43.664 150.59a2.526 2.526 0 01-2.515-2.334l-.019-.266a2.525 2.525 0 115.037-.355l.017.236a2.525 2.525 0 01-2.52 2.719zM56.342 96.9a2.527 2.527 0 01-2.16-3.829l.129-.213a2.526 2.526 0 114.328 2.602l-.132.219a2.522 2.522 0 01-2.165 1.221zm5.201-7.754a2.525 2.525 0 01-2.018-4.04l.155-.207a2.525 2.525 0 014.033 3.04l-.148.197a2.515 2.515 0 01-2.022 1.01zm145.529-1.206a2.52 2.52 0 01-2.007-.99l-.137-.176a2.526 2.526 0 013.975-3.114l.172.223a2.522 2.522 0 01-2.003 4.057zM67.508 81.961a2.523 2.523 0 01-1.857-4.235l.186-.201a2.525 2.525 0 013.688 3.45l-.158.172a2.52 2.52 0 01-1.859.814zm133.483-1.107a2.522 2.522 0 01-1.823-.777l-.181-.189a2.525 2.525 0 113.657-3.481l.167.176a2.523 2.523 0 01-1.82 4.271zM74.194 75.37a2.5 2.5 0 01-1.875-.828c-.927-1.041-.87-2.605.171-3.535l.182-.159a2.523 2.523 0 113.373 3.757l-.125.11a2.592 2.592 0 01-1.726.655zm120.027-.948c-.584 0-1.17-.201-1.647-.611l-.175-.15a2.527 2.527 0 01-.297-3.559 2.527 2.527 0 013.559-.296l.209.18a2.524 2.524 0 01-1.649 4.436zM81.462 69.585a2.523 2.523 0 01-1.484-4.568l.231-.166a2.526 2.526 0 112.91 4.127l-.178.128a2.517 2.517 0 01-1.479.479zm105.371-.874c-.488 0-.982-.142-1.418-.438l-.188-.129c-1.144-.797-1.447-2.385-.65-3.529.797-1.144 2.35-1.441 3.492-.646l.043.031.145.099a2.526 2.526 0 01.666 3.51 2.53 2.53 0 01-2.09 1.102zm-97.501-4.204a2.524 2.524 0 01-2.2-1.264 2.508 2.508 0 01.92-3.435l.041-.022.155-.09a2.526 2.526 0 013.454.905c.705 1.203.3 2.75-.904 3.454l-.202.116a2.545 2.545 0 01-1.264.336zm89.571-.726c-.418 0-.84-.104-1.23-.321l-.199-.11a2.526 2.526 0 112.422-4.431l.245.134a2.526 2.526 0 01-1.238 4.728zm-81.276-3.485a2.524 2.524 0 01-1.041-4.827l.235-.106a2.525 2.525 0 112.067 4.608l-.224.101a2.527 2.527 0 01-1.037.224zm72.885-.608c-.335 0-.676-.066-1.003-.209l-.202-.087a2.525 2.525 0 011.947-4.659l.265.112a2.528 2.528 0 01-1.007 4.843zm-64.176-2.748a2.528 2.528 0 01-2.395-1.729 2.522 2.522 0 011.597-3.193l.245-.081a2.525 2.525 0 011.588 4.794l-.236.078a2.552 2.552 0 01-.799.131zm55.411-.461c-.244 0-.492-.035-.737-.11l-.243-.075a2.525 2.525 0 011.472-4.831l.243.075a2.523 2.523 0 011.679 3.152 2.528 2.528 0 01-2.414 1.789zM68.62 113.032a2.086 2.086 0 00-2.084 2.083c0 1.149.935 2.084 2.084 2.084s2.083-.935 2.083-2.084a2.085 2.085 0 00-2.083-2.083zm-8.29-4.632a3.879 3.879 0 00-3.875 3.875 3.88 3.88 0 003.875 3.876 3.88 3.88 0 003.877-3.876 3.88 3.88 0 00-3.877-3.875zm-11.564-3.953a5.412 5.412 0 00-5.406 5.405 5.41 5.41 0 005.406 5.403 5.41 5.41 0 005.404-5.403 5.41 5.41 0 00-5.404-5.405zm-8.192 31.198h16.378l.004-9.812c-.001-4.468-3.675-8.142-8.191-8.142-4.517 0-8.191 3.674-8.191 8.189v9.765zm31.475-12.751v4.167h-3.665v-2.566a8.004 8.004 0 00-1.449-4.595c.5-.285 1.069-.46 1.684-.46a3.436 3.436 0 013.43 3.454zm-5.716 1.529l-.005 7.271h-7.319l.001-5.813c0-2.36-.811-4.531-2.157-6.265a5.96 5.96 0 013.477-1.12c3.309 0 6 2.691 6.003 5.927zm-37.422-11.391a2.085 2.085 0 00-2.083 2.083c0 1.149.935 2.084 2.083 2.084s2.084-.935 2.084-2.084a2.086 2.086 0 00-2.084-2.083zm8.29-4.632a3.88 3.88 0 00-3.877 3.875 3.88 3.88 0 003.877 3.876 3.88 3.88 0 003.875-3.876 3.879 3.879 0 00-3.875-3.875zm-8.29 11.039c.615 0 1.185.175 1.684.46a8.004 8.004 0 00-1.449 4.595v2.566h-3.665v-4.167a3.44 3.44 0 013.43-3.454zm8.29-.943a5.96 5.96 0 013.477 1.12 10.184 10.184 0 00-2.157 6.265l.001 5.813h-7.319l-.005-7.271c.003-3.236 2.695-5.927 6.003-5.927z"/></svg>