<svg xmlns="http://www.w3.org/2000/svg" width="270" height="270"><path fill="#D31F36" d="M0 0h270v270H0z"/><path fill="#939598" d="M201.019 81.027H69.38c-4.519 0-8.195 3.743-8.195 8.343v75.552c0 4.601 3.677 8.342 8.195 8.342h131.639c4.518 0 8.195-3.741 8.195-8.342V89.37c0-4.6-3.677-8.343-8.195-8.343zm1.709 85.751H67.671V86.996h135.057v79.782zm-54.128 9.385v2.03c0 1.217-1.042 2.202-2.329 2.202h-22.603c-1.286 0-2.329-.985-2.329-2.202v-2.03H44.203v1.423c0 4.601 4.836 8.344 10.781 8.344h160.434c5.943 0 10.781-3.743 10.781-8.344v-1.423H148.6z"/><path fill="#FFF" d="M151.778 120.181v22.868c0 4.406-3.788 7.996-8.444 7.996h-3.506v-.672h-8.694v.672h-3.507c-4.66 0-8.443-3.59-8.443-7.996v-22.868h-3.477v22.868c0 6.323 5.348 11.472 11.92 11.472h3.507v5.517h1.086v6.74h6.522v-6.74h1.086v-5.517h3.506c6.572 0 11.924-5.148 11.924-11.472v-22.868h-3.48zm-39.172 1.208h2.257v4.671h-2.257zm43.435 0h2.253v4.671h-2.253z"/><path fill="#FFF" d="M141.447 135.331a.994.994 0 110-1.989h7.743v-2.431h-7.743a.997.997 0 010-1.991h7.743v-2.433h-7.743a.994.994 0 110-1.989h7.743v-2.433h-7.743a.994.994 0 110-1.988h7.743v-2.436h-7.743a.994.994 0 110-1.988h7.743v-2.432h-7.743a.995.995 0 110-1.989h7.743v-4.755a7.734 7.734 0 00-4.627-7.083v7.674a.995.995 0 01-.989.994.995.995 0 01-.994-.994V98.82a7.782 7.782 0 00-1.131-.08h-1.01v8.328c0 .547-.441.994-.992.994s-.996-.447-.996-.994V98.74h-2.137v8.328a.997.997 0 01-1.993 0V98.74h-2.142v8.328a.992.992 0 11-1.982 0V98.74h-.686c-.5 0-.986.046-1.453.137v8.191a.996.996 0 01-.994.994.991.991 0 01-.992-.994v-7.522a7.74 7.74 0 00-4.298 6.932v4.755h7.353a.994.994 0 110 1.989h-7.353v2.432h7.353c.553 0 .996.442.996.997a.992.992 0 01-.996.991h-7.353v2.436h7.353c.553 0 .996.442.996.993a.992.992 0 01-.996.995h-7.353v2.433h7.353a.994.994 0 110 1.989h-7.353v2.433h7.353a.995.995 0 110 1.991h-7.353v2.431h7.353a.994.994 0 110 1.989h-7.353v3.869a7.727 7.727 0 004.298 6.929v-6.633a.99.99 0 01.992-.996c.548 0 .994.445.994.996v7.303c.467.093.953.139 1.453.139h.686v-7.441a.99.99 0 111.982 0v7.441h2.142v-7.441a.996.996 0 011.993 0v7.441h2.137v-7.441a.995.995 0 111.988 0v7.441h1.01c.385 0 .764-.03 1.131-.082v-7.359c0-.551.445-.996.994-.996.543 0 .989.445.989.996v6.79a7.741 7.741 0 004.627-7.086v-3.869h-7.743zm21.929-1.315a1.658 1.658 0 01-1.465-2.433 22.108 22.108 0 002.535-10.279c0-3.57-.824-6.976-2.449-10.123a1.658 1.658 0 112.947-1.523 25.13 25.13 0 012.82 11.645c0 4.117-1.01 8.207-2.92 11.827a1.658 1.658 0 01-1.468.886zm6.775 2.392a1.66 1.66 0 01-1.47-2.425c2.053-3.941 3.093-8.207 3.093-12.678 0-4.411-1.012-8.623-3.009-12.519a1.659 1.659 0 012.953-1.512c2.238 4.369 3.374 9.09 3.374 14.032 0 4.94-1.2 9.854-3.47 14.21a1.655 1.655 0 01-1.471.892zm6.775 2.389a1.659 1.659 0 01-1.473-2.421c2.422-4.688 3.649-9.759 3.649-15.072 0-5.25-1.199-10.268-3.564-14.912a1.66 1.66 0 012.957-1.506c2.604 5.116 3.926 10.639 3.926 16.418A36.313 36.313 0 01178.4 137.9c-.294.57-.873.897-1.474.897zm-69.668-4.781a1.657 1.657 0 01-1.468-.885 25.417 25.417 0 01-2.921-11.827c0-4.105.949-8.023 2.822-11.646a1.66 1.66 0 012.947 1.523 21.825 21.825 0 00-2.452 10.122c0 3.581.877 7.135 2.538 10.278a1.658 1.658 0 01-1.466 2.435zm-6.777 2.392a1.659 1.659 0 01-1.473-.893 30.878 30.878 0 01-3.468-14.21c0-4.944 1.136-9.666 3.375-14.032a1.66 1.66 0 012.952 1.514c-1.997 3.894-3.01 8.105-3.01 12.519 0 4.473 1.041 8.738 3.093 12.678a1.659 1.659 0 01-1.469 2.424zm-6.774 2.389a1.657 1.657 0 01-1.475-.897 36.309 36.309 0 01-4.02-16.596c0-5.779 1.321-11.303 3.927-16.418a1.659 1.659 0 012.956 1.506c-2.366 4.644-3.565 9.661-3.565 14.912 0 5.313 1.228 10.384 3.65 15.072a1.659 1.659 0 01-1.473 2.421z"/></svg>