<svg xmlns="http://www.w3.org/2000/svg" width="270" height="270"><path d="M0 0h270v270H0z"/><path fill="#BCBEC0" d="M51.348 122.437a1.513 1.513 0 00-.574-.404 1.945 1.945 0 00-.764-.142c-.285 0-.54.047-.766.142a1.542 1.542 0 00-.576.404 1.825 1.825 0 00-.362.646 2.71 2.71 0 00-.125.855c0 .322.041.608.125.86.083.253.205.47.362.644.157.178.349.312.576.404.226.093.481.14.766.14.285 0 .539-.047.764-.14.226-.093.417-.227.574-.404.158-.174.279-.391.362-.644a2.74 2.74 0 00.125-.86c0-.317-.042-.602-.125-.855a1.839 1.839 0 00-.362-.646z"/><path fill="#BCBEC0" d="M85.323 113.687v-9.54H26.04v9.548a5.997 5.997 0 010 11.989v9.548h59.284v-9.541a6.001 6.001 0 01-6.001-6.003 5.999 5.999 0 016-6.001zm-8.773 15.538a2.445 2.445 0 01-2.442 2.444H37.255a2.445 2.445 0 01-2.44-2.444v-19.071a2.444 2.444 0 012.44-2.442h36.853a2.445 2.445 0 012.442 2.442v19.071z"/><path fill="#BCBEC0" d="M44.936 114.023a7.26 7.26 0 01-.124-.426c-.039.155-.081.3-.124.434a4.867 4.867 0 01-.125.344l-.652 1.852h1.805l-.658-1.86a8.224 8.224 0 01-.122-.344z"/><path fill="#BCBEC0" d="M74.108 109.214H37.255a.938.938 0 00-.938.939v19.071c0 .519.421.939.938.939h36.853a.94.94 0 00.939-.939v-19.071a.94.94 0 00-.939-.939zm-11.38 3.245h1.265v6.074h-1.265v-6.074zm-16.142 5.997a.459.459 0 01-.153-.199l-.411-1.16h-2.419l-.411 1.16a.466.466 0 01-.146.189.393.393 0 01-.264.087h-.983l2.374-6.074h1.286l2.369 6.074h-.975a.434.434 0 01-.267-.077zm6.31 6.719a2.837 2.837 0 01-.632.982 2.893 2.893 0 01-.981.651c-.383.157-.807.238-1.273.238s-.891-.081-1.273-.238a2.921 2.921 0 01-.983-.651 2.854 2.854 0 01-.635-.982 3.358 3.358 0 01-.224-1.237c0-.443.075-.854.224-1.232.149-.377.36-.706.635-.982.273-.274.601-.491.983-.649.382-.157.807-.236 1.273-.236s.89.079 1.273.236c.382.158.71.375.981.653.272.276.483.605.632.982.149.379.225.789.225 1.229 0 .445-.075.855-.225 1.236zm.716-8.457c-.15.373-.361.694-.633.961-.272.269-.6.478-.982.627a3.418 3.418 0 01-1.273.228h-2.336v-6.074h2.336a3.5 3.5 0 011.273.223c.382.154.709.363.982.634.271.269.483.588.633.959.149.372.223.776.223 1.219 0 .442-.074.851-.223 1.223zm5.635 10.261h-.649a.584.584 0 01-.247-.049.554.554 0 01-.197-.168l-3.027-3.849a7.448 7.448 0 01.026.551v3.515h-1.111v-6.077h.662c.053 0 .099.004.136.008a.362.362 0 01.103.027.563.563 0 01.18.163l3.048 3.868a5.807 5.807 0 01-.034-.59v-3.476h1.11v6.077zm-.606-9.405a.463.463 0 01-.438.272h-.177a.494.494 0 01-.259-.069.497.497 0 01-.18-.203l-1.746-3.309c.008.099.016.193.02.282.005.093.009.178.009.255v3.73h-1.11v-6.074h.954c.054 0 .101 0 .143.004.043.002.08.01.112.023a.27.27 0 01.087.058.488.488 0 01.078.11l1.699 3.239a5.815 5.815 0 01.28.623c.042-.112.086-.223.132-.327.046-.106.096-.209.148-.308l1.688-3.228a.41.41 0 01.079-.11.311.311 0 01.199-.081c.04-.004.088-.004.145-.004h.955v6.074h-1.11v-3.73a4.502 4.502 0 01.029-.524l-1.737 3.297zm5.746 4.315h-2.604v1.561h2.026v.95h-2.026v1.596h2.604v.984h-3.869v-6.077h3.869v.986zm5.177-8.418H67.79v5.062h-1.26v-5.062h-1.775v-1.012h4.81v1.012z"/><path fill="#BCBEC0" d="M52.06 113.992a1.546 1.546 0 00-.572-.408 1.982 1.982 0 00-.764-.143h-1.071v4.107h1.071c.285 0 .54-.048.764-.141.225-.095.415-.229.572-.406.156-.176.276-.393.359-.646.083-.255.126-.541.126-.862 0-.317-.042-.604-.126-.86a1.776 1.776 0 00-.359-.641z"/><path fill="#FFF" d="M157.74 101.532c-.715-.592-5.019-5.576-5.83-6.758-.494-.725-.703-1.6-1.568-1.6-1.082 0-1.082 1.081-1.082 1.081v27.558c-.073 2.012-1.812 1.168-1.812 1.168v.002c-2.314-.943-5.336-1.062-8.377-.118-5.556 1.722-9.065 6.326-7.838 10.279 1.227 3.953 6.722 5.76 12.277 4.041 1.912-.594 3.584-1.529 4.901-2.66 0 0 2.397-1.996 3.179-3.805.583-1.337.631-3.628.631-3.628v-21.746s0-1.227 1.439-1.12c1.44.108 3.254 1.654 4.371 2.718 1.121 1.067 4.408 5.229 4.159 9.571-.063 1.106-.14 2.282-.132 2.667.025.963.879 1.52 1.519.986.642-.532 1.327-3.363 1.442-4.557.62-6.624-6.32-13.28-7.279-14.079zm12.337 44.348c-1.657-2.76-5.082-1.438-5.413-.994-.332.441-6.846 5.963-12.367 7.84-5.523 1.879-8.614 3.645-21.865-.221 0 0-2.873-.33-2.983-1.768-.11-1.434 1.215-1.434 2.872-1.654 1.576-.211 16.269.018 16.361.018a3.633 3.633 0 003.633-3.633 3.634 3.634 0 00-3.633-3.637c-.079 0-.154.018-.235.023v-.061h-27.28s-4.417.459-7.73 2.385c-3.313 1.922-8.945 6.959-10.16 9.078-1.215 2.121-1.968 2.561-2.098 3.887 0 0-.827 3.037 1.656 5.521 2.484 2.484 5.301 1.988 7.73 1.326 2.429-.664 4.858-1.766 7.73-.996 2.872.773 15.571 2.982 17.78 3.426 2.209.441 8.173 1.768 13.142-.773 4.971-2.541 16.784-8.723 21.313-14.355 0 0 3.202-2.652 1.547-5.412z"/><path fill="#BCBEC0" d="M149.039 44.436V63.91c0 3.75-3.226 6.808-7.189 6.808h-2.986v-.572h-7.404v.572h-2.987c-3.965 0-7.188-3.058-7.188-6.808V44.436h-2.961V63.91c0 5.383 4.554 9.771 10.149 9.771h2.987v4.693h.925v3.354h5.555v-3.354h.924v-4.693h2.986c5.596 0 10.154-4.388 10.154-9.771V44.436h-2.965zm-33.355 1.032h1.921v3.977h-1.921zm36.983 0h1.92v3.977h-1.92z"/><path fill="#BCBEC0" d="M140.244 57.337a.849.849 0 110-1.695h6.591v-2.073h-6.591a.845.845 0 110-1.693h6.591v-2.071h-6.591a.847.847 0 110-1.691h6.591V46.04h-6.591a.846.846 0 110-1.689h6.591v-2.075h-6.591a.846.846 0 01-.849-.845c0-.474.378-.851.849-.851h6.591v-2.07h-6.591a.849.849 0 110-1.695h6.591v-4.048a6.586 6.586 0 00-3.938-6.032v6.535a.85.85 0 01-.844.849.85.85 0 01-.845-.849v-7.022a6.804 6.804 0 00-.964-.069h-.859v7.092a.849.849 0 01-.846.849.85.85 0 01-.848-.849v-7.092h-1.819v7.092a.851.851 0 01-.847.849.85.85 0 01-.852-.849v-7.092h-1.823v7.092a.847.847 0 01-.846.849.849.849 0 01-.843-.849v-7.092h-.582c-.428 0-.842.04-1.241.117v6.975a.847.847 0 01-.844.849.847.847 0 01-.844-.849v-6.405a6.595 6.595 0 00-3.661 5.902v4.048h6.263c.47 0 .846.381.846.851a.842.842 0 01-.846.844h-6.263v2.071h6.263c.47 0 .846.377.846.851a.844.844 0 01-.846.845h-6.263v2.075h6.263a.844.844 0 110 1.689h-6.263v2.075h6.263a.845.845 0 110 1.691h-6.263v2.071h6.263a.845.845 0 110 1.693h-6.263v2.073h6.263c.47 0 .846.381.846.851a.843.843 0 01-.846.844h-6.263v3.297a6.579 6.579 0 003.661 5.897v-5.647c0-.47.375-.846.844-.846.468 0 .844.376.844.846v6.218c.399.081.813.116 1.241.116h.582v-6.334a.844.844 0 111.689 0v6.334h1.823v-6.334c0-.47.378-.846.852-.846.466 0 .847.376.847.846v6.334h1.819v-6.334c0-.47.379-.846.848-.846.468 0 .846.376.846.846v6.334h.859c.326 0 .65-.023.964-.066v-6.268a.844.844 0 111.689 0v5.78a6.589 6.589 0 003.938-6.03V57.34h-6.591zm23.433 150.373c-.629-.627-1.406-1.123-2.33-1.482-.925-.361-1.988-.541-3.193-.541a13.374 13.374 0 00-2.647.265l.745-4.303h5.944c.464 0 .858-.049 1.179-.148.323-.1.588-.242.794-.422.206-.184.353-.398.444-.646.088-.244.133-.52.133-.824v-1.82h-11.537L151.275 209l2.711.754c1.078-.396 2.15-.598 3.217-.598 1.301 0 2.291.322 2.973.965.681.646 1.021 1.559 1.021 2.74 0 .617-.082 1.195-.246 1.736a3.875 3.875 0 01-.744 1.396 3.467 3.467 0 01-1.26.928c-.508.225-1.105.338-1.791.338-.666 0-1.231-.086-1.697-.254a7.31 7.31 0 01-1.219-.557c-.35-.205-.66-.391-.936-.557s-.555-.252-.84-.252c-.455 0-.824.193-1.109.58l-1.348 1.824a10.86 10.86 0 002.94 1.938 9.817 9.817 0 001.862.611c.664.152 1.363.23 2.091.23 1.259 0 2.417-.199 3.479-.598a8.09 8.09 0 002.742-1.674 7.65 7.65 0 001.799-2.574c.433-1 .649-2.107.649-3.32 0-.975-.159-1.883-.476-2.732a6.12 6.12 0 00-1.416-2.214zm30.434 12.102c-.629-.629-1.406-1.123-2.33-1.484s-1.99-.543-3.193-.543a13.58 13.58 0 00-2.646.267l.744-4.301h5.943c.465 0 .857-.051 1.182-.15.32-.098.585-.24.791-.424.207-.184.354-.398.444-.643.089-.248.135-.521.135-.826v-1.82h-8.863l4.663-12.01h-2.752c-.745 0-1.406.193-1.98.578-.575.385-.996.924-1.26 1.615l-1.129 2.896c-.389-1.008-.868-1.874-1.441-2.597-.762-.957-1.662-1.67-2.703-2.135-1.04-.465-2.162-.697-3.367-.697s-2.324.232-3.359.697-1.93 1.178-2.679 2.135c-.751.959-1.339 2.168-1.768 3.627-.428 1.461-.642 3.186-.642 5.176 0 1.988.214 3.713.642 5.18.429 1.465 1.017 2.676 1.768 3.635.749.957 1.644 1.67 2.679 2.135s2.154.701 3.359.701c.188 0 .372-.016.557-.027l-5.369 13.766h2.728c.669 0 1.325-.195 1.971-.588.646-.395 1.114-.975 1.411-1.746l4.296-11.064 2.479.689a9.239 9.239 0 013.218-.598c1.299 0 2.29.32 2.972.967.681.643 1.021 1.557 1.021 2.74 0 .617-.081 1.195-.245 1.732a3.838 3.838 0 01-.745 1.398 3.457 3.457 0 01-1.261.926c-.507.225-1.104.338-1.79.338-.665 0-1.231-.084-1.695-.25a7.346 7.346 0 01-1.222-.559c-.348-.203-.66-.389-.935-.557s-.554-.252-.841-.252c-.453 0-.822.195-1.107.582l-1.348 1.82a10.694 10.694 0 002.939 1.94c.576.256 1.197.461 1.863.613a9.355 9.355 0 002.092.227c1.256 0 2.416-.199 3.478-.596 1.062-.398 1.977-.957 2.741-1.674a7.611 7.611 0 001.8-2.574c.433-1 .649-2.105.649-3.32 0-.973-.158-1.885-.475-2.732a6.141 6.141 0 00-1.42-2.213zm-16.281-2.883a3.18 3.18 0 01-2.947 0c-.473-.24-.889-.664-1.254-1.273-.364-.607-.656-1.434-.879-2.48-.221-1.045-.332-2.381-.332-4.002 0-1.613.111-2.941.332-3.99.223-1.047.515-1.873.879-2.48.365-.605.781-1.029 1.254-1.271.469-.24.958-.359 1.465-.359.508 0 1 .119 1.482.359.48.242.904.666 1.275 1.271.369.607.668 1.434.896 2.48.227 1.049.34 2.377.34 3.99 0 1.338-.082 2.47-.235 3.415l-1.42 3.639c-.264.307-.547.547-.856.701zm36.81-.83c-.433-1.463-1.029-2.672-1.789-3.629-.762-.959-1.662-1.668-2.703-2.137a8.159 8.159 0 00-3.367-.697c-1.205 0-2.325.232-3.361.697-1.035.469-1.927 1.178-2.678 2.137-.75.957-1.339 2.166-1.766 3.629-.428 1.459-.644 3.184-.644 5.172s.216 3.717.644 5.182c.427 1.467 1.016 2.678 1.766 3.635.751.957 1.643 1.67 2.678 2.135 1.036.467 2.156.699 3.361.699a8.129 8.129 0 003.367-.699c1.041-.465 1.941-1.178 2.703-2.135.76-.957 1.356-2.168 1.789-3.635.435-1.465.651-3.193.651-5.182s-.216-3.713-.651-5.172zm-4.207 9.176c-.227 1.049-.525 1.875-.896 2.48-.369.607-.796 1.031-1.275 1.271a3.28 3.28 0 01-1.481.361 3.19 3.19 0 01-1.467-.361c-.47-.24-.888-.664-1.252-1.271-.363-.605-.658-1.432-.879-2.48-.223-1.047-.333-2.381-.333-4.004 0-1.611.11-2.941.333-3.988.221-1.047.516-1.873.879-2.48.364-.607.782-1.031 1.252-1.271a3.166 3.166 0 011.467-.361c.507 0 1.001.119 1.481.361.479.24.906.664 1.275 1.271.37.607.669 1.434.896 2.48s.342 2.377.342 3.988c0 1.623-.115 2.957-.342 4.004zm12.893-111.981a2.292 2.292 0 00-2.287 2.288 2.291 2.291 0 002.287 2.288 2.29 2.29 0 002.289-2.288 2.292 2.292 0 00-2.289-2.288z"/><path fill="#BCBEC0" d="M223.326 90.46c-13.873 0-25.121 11.25-25.121 25.122 0 13.871 11.248 25.121 25.121 25.121 13.874 0 25.123-11.25 25.123-25.121 0-13.872-11.249-25.122-25.123-25.122zm-7.647 44.748a.785.785 0 01-.717.475.836.836 0 01-.312-.066 21.86 21.86 0 01-13.188-20.077.782.782 0 011.566 0 20.296 20.296 0 0012.242 18.639c.399.17.58.633.409 1.029zm1.551-3.476a.788.788 0 01-1.028.418 17.816 17.816 0 01-10.891-16.432.783.783 0 111.564 0c0 6.552 3.9 12.436 9.936 14.992a.78.78 0 01.419 1.022zm1.381-3.389a.78.78 0 01-.721.476.754.754 0 01-.305-.06 14.041 14.041 0 01-8.584-12.958.782.782 0 011.562 0 12.48 12.48 0 007.631 11.517.78.78 0 01.417 1.025zm4.715-3.543c-5.091 0-9.217-4.129-9.217-9.218a9.217 9.217 0 019.217-9.219 9.218 9.218 0 110 18.437zm13.54-8.696a.786.786 0 01-.784-.783c0-5.034-2.994-9.554-7.631-11.515a.78.78 0 11.609-1.439 14.041 14.041 0 018.588 12.954.787.787 0 01-.782.783zm3.687.087a.784.784 0 01-.782-.785c0-6.551-3.9-12.438-9.939-14.99a.778.778 0 01-.414-1.021.784.784 0 011.023-.419 17.807 17.807 0 0110.894 16.431.784.784 0 01-.782.784zm3.851.172a.781.781 0 01-.783-.781c0-8.1-4.807-15.421-12.246-18.636a.784.784 0 01-.406-1.032.78.78 0 011.029-.402 21.851 21.851 0 0113.186 20.07.78.78 0 01-.78.781zm-162.059 99.51c-5.106 0-9.26 4.154-9.26 9.26 0 5.109 4.154 9.264 9.26 9.264 5.107 0 9.263-4.154 9.263-9.264-.001-5.106-4.156-9.26-9.263-9.26zm2.181 11.443v4.373h-4.363v-4.373H75.79v-4.365h4.373v-4.373h4.363v4.373h4.375v4.365h-4.375zm10.432-26.539c-.115 1.217-.819 4.111-1.471 4.652-.654.541-1.524-.027-1.551-1.01-.008-.389.071-1.592.136-2.721.251-4.434-3.1-8.68-4.245-9.77-1.142-1.082-2.993-2.662-4.461-2.775-1.469-.105-1.469 1.146-1.469 1.146v22.193l-.002.07c-6.151.219-11.183 4.861-12.008 10.844-4.479.383-8.39-1.451-9.411-4.736-1.252-4.037 2.33-8.734 7.998-10.488 3.106-.967 6.189-.846 8.551.115 0 0 1.774.863 1.851-1.189V178.98s0-1.102 1.103-1.102c.883 0 1.096.895 1.602 1.629.828 1.205 5.221 6.295 5.948 6.9.98.817 8.062 7.61 7.429 14.37zm43.404 33.619a2.524 2.524 0 01-2.522-2.436 2.52 2.52 0 012.435-2.611l.251-.01c1.405-.064 2.563 1.039 2.612 2.434a2.52 2.52 0 01-2.434 2.611l-.252.01-.09.002zm-9.079-.135c-.051 0-.101-.002-.152-.004l-.251-.016a2.527 2.527 0 01-2.373-2.67 2.531 2.531 0 012.668-2.373l.254.016a2.525 2.525 0 01-.146 5.047zm18.378-.654a2.525 2.525 0 01-.322-5.029l.221-.029a2.525 2.525 0 01.71 5l-.28.037a2.865 2.865 0 01-.329.021zm-27.651-.416c-.138 0-.278-.012-.418-.035l-.247-.039a2.526 2.526 0 01.826-4.982l.251.041a2.526 2.526 0 01-.412 5.015zm-9.121-2.012c-.224 0-.451-.029-.677-.092l-.027-.008-.188-.053a2.525 2.525 0 111.3-4.879l.245.066a2.538 2.538 0 011.767 3.115 2.517 2.517 0 01-2.42 1.851zm-8.86-2.939c-.303 0-.612-.055-.912-.172l-.241-.094a2.526 2.526 0 011.834-4.706l.231.09a2.525 2.525 0 01-.912 4.882zm-37.395-27.133a2.52 2.52 0 01-1.956-.926l-.147-.18a2.524 2.524 0 113.885-3.227l.172.209a2.525 2.525 0 01-1.954 4.124zm145.126-5.211a2.511 2.511 0 01-1.469-.473 2.52 2.52 0 01-.58-3.523l.128-.184a2.527 2.527 0 013.517-.619 2.521 2.521 0 01.619 3.516l-.161.23a2.527 2.527 0 01-2.054 1.053zm-150.682-2.291a2.52 2.52 0 01-2.108-1.131l-.139-.211a2.526 2.526 0 014.211-2.787l.139.211a2.526 2.526 0 01-2.103 3.918zm155.688-5.59c-.417 0-.842-.104-1.232-.32a2.53 2.53 0 01-.969-3.439l.125-.221a2.527 2.527 0 014.407 2.469l-.125.221a2.527 2.527 0 01-2.206 1.29zm-160.454-2.437a2.527 2.527 0 01-2.236-1.35l-.123-.234a2.525 2.525 0 014.481-2.33l.111.211a2.524 2.524 0 01-1.058 3.41 2.524 2.524 0 01-1.175.293zm164.63-5.914a2.525 2.525 0 01-2.313-3.537l.097-.221a2.523 2.523 0 013.317-1.32 2.522 2.522 0 011.32 3.316l-.106.246a2.526 2.526 0 01-2.315 1.516zm-168.547-2.559a2.526 2.526 0 01-2.341-1.578l-.103-.258a2.525 2.525 0 014.699-1.851l.084.213a2.526 2.526 0 01-2.339 3.474zm171.845-6.178a2.527 2.527 0 01-2.405-3.297l.075-.234a2.528 2.528 0 013.171-1.645 2.528 2.528 0 011.643 3.172l-.079.25a2.53 2.53 0 01-2.405 1.754zm-174.874-2.656a2.525 2.525 0 01-2.426-1.83l-.073-.256a2.526 2.526 0 011.749-3.113 2.522 2.522 0 013.113 1.75l.065.229a2.525 2.525 0 01-2.428 3.22zm177.256-6.373a2.526 2.526 0 01-2.472-3.047l.047-.229a2.52 2.52 0 012.975-1.973 2.524 2.524 0 011.975 2.975l-.055.27a2.528 2.528 0 01-2.47 2.004zm-179.359-2.723c-1.2 0-2.265-.857-2.482-2.08l-.048-.279a2.526 2.526 0 012.075-2.906 2.523 2.523 0 012.906 2.076l.038.221a2.524 2.524 0 01-2.489 2.968zm180.798-6.502a2.523 2.523 0 01-2.512-2.805l.023-.223a2.528 2.528 0 012.764-2.262 2.527 2.527 0 012.261 2.764l-.029.281a2.524 2.524 0 01-2.507 2.245zm-181.958-2.761a2.524 2.524 0 01-2.515-2.332l-.019-.266a2.525 2.525 0 115.037-.355l.017.236a2.524 2.524 0 01-2.52 2.717zm12.678-53.687a2.525 2.525 0 01-2.16-3.829l.129-.215a2.526 2.526 0 013.466-.862 2.524 2.524 0 01.862 3.464l-.132.221a2.528 2.528 0 01-2.165 1.221zm5.201-7.755a2.524 2.524 0 01-2.018-4.04l.155-.207a2.525 2.525 0 114.033 3.04l-.148.197a2.525 2.525 0 01-2.022 1.01zm145.528-1.205a2.52 2.52 0 01-2.007-.992l-.136-.176a2.524 2.524 0 113.975-3.115l.172.224a2.525 2.525 0 01-2.004 4.059zM67.947 81.283a2.525 2.525 0 01-1.857-4.235l.186-.199a2.523 2.523 0 013.569-.118 2.523 2.523 0 01.119 3.568l-.158.17a2.524 2.524 0 01-1.859.814zm133.482-1.104a2.522 2.522 0 01-1.823-.777l-.18-.189a2.523 2.523 0 01.088-3.57 2.522 2.522 0 013.568.089l.168.176a2.525 2.525 0 01-1.821 4.271zM74.633 74.692a2.497 2.497 0 01-1.875-.828c-.927-1.042-.87-2.606.171-3.533l.182-.162a2.525 2.525 0 013.373 3.757l-.125.113a2.585 2.585 0 01-1.726.653zm120.027-.946a2.508 2.508 0 01-1.647-.614l-.174-.147a2.524 2.524 0 113.262-3.855l.209.178a2.525 2.525 0 01-1.65 4.438zM81.901 68.909a2.526 2.526 0 01-1.484-4.571l.231-.165a2.525 2.525 0 012.91 4.126l-.178.129a2.506 2.506 0 01-1.479.481zm105.371-.874c-.488 0-.982-.143-1.418-.438l-.188-.13c-1.145-.795-1.447-2.383-.65-3.529.797-1.142 2.349-1.439 3.491-.645l.044.029.145.101a2.525 2.525 0 01-1.424 4.612zm-97.501-4.206a2.525 2.525 0 01-2.2-1.265 2.506 2.506 0 01.92-3.433l.041-.023.155-.089a2.525 2.525 0 112.55 4.36l-.202.114c-.398.23-.833.336-1.264.336zm89.571-.725c-.418 0-.84-.103-1.23-.322l-.199-.11a2.524 2.524 0 112.422-4.431l.244.135a2.526 2.526 0 01-1.237 4.728zm-81.276-3.487a2.526 2.526 0 01-1.041-4.827l.235-.104a2.526 2.526 0 012.067 4.609l-.224.099a2.494 2.494 0 01-1.037.223zm72.885-.607a2.5 2.5 0 01-1.003-.209l-.201-.085a2.524 2.524 0 111.946-4.659l.265.11a2.526 2.526 0 01-1.007 4.843zm-64.176-2.748a2.525 2.525 0 01-.798-4.922l.245-.078a2.523 2.523 0 013.191 1.602 2.526 2.526 0 01-1.603 3.191l-.236.077c-.264.089-.533.13-.799.13zm55.411-.461c-.244 0-.493-.036-.738-.11l-.242-.073a2.526 2.526 0 011.472-4.831l.242.073a2.526 2.526 0 01-.734 4.941z"/></svg>