<svg xmlns="http://www.w3.org/2000/svg" width="270" height="270"><path fill="#D31F36" d="M0 0h270v270H0z"/><path fill="#BCBEC0" d="M148.98 39.049v19.475c0 3.75-3.226 6.806-7.19 6.806h-2.986v-.57H131.4v.57h-2.987c-3.965 0-7.188-3.056-7.188-6.806V39.049h-2.961v19.475c0 5.381 4.554 9.769 10.149 9.769h2.987v4.692h.925v3.355h5.555v-3.355h.923v-4.692h2.986c5.597 0 10.155-4.388 10.155-9.769V39.049h-2.964zm-33.355 1.03h1.921v3.977h-1.921zm36.984 0h1.92v3.977h-1.92z"/><path fill="#BCBEC0" d="M140.184 51.95a.847.847 0 110-1.695h6.592v-2.073h-6.592a.847.847 0 110-1.693h6.592v-2.071h-6.592a.847.847 0 110-1.693h6.592v-2.073h-6.592a.846.846 0 110-1.692h6.592v-2.075h-6.592a.848.848 0 110-1.695h6.592v-2.069h-6.592a.85.85 0 010-1.697h6.592v-4.046a6.583 6.583 0 00-3.939-6.032v6.535a.848.848 0 01-.842.847.848.848 0 01-.846-.847v-7.024a7.107 7.107 0 00-.965-.067h-.857v7.092a.848.848 0 01-1.696 0V20.79h-1.818v7.092a.85.85 0 01-1.699 0V20.79h-1.823v7.092a.845.845 0 11-1.689 0V20.79h-.582c-.428 0-.842.038-1.241.114v6.978a.845.845 0 11-1.688 0v-6.407a6.598 6.598 0 00-3.661 5.904v4.046h6.263c.47 0 .846.381.846.851a.844.844 0 01-.846.846h-6.263v2.069h6.263c.47 0 .846.379.846.851a.843.843 0 01-.846.844h-6.263v2.075h6.263c.47 0 .846.375.846.849a.844.844 0 01-.846.843h-6.263v2.073h6.263c.47 0 .846.378.846.844 0 .47-.376.849-.846.849h-6.263v2.071h6.263c.47 0 .846.379.846.848a.844.844 0 01-.846.845h-6.263v2.073h6.263c.47 0 .846.381.846.849a.844.844 0 01-.846.846h-6.263v3.295a6.58 6.58 0 003.661 5.899v-5.649a.843.843 0 111.688 0v6.22a6.38 6.38 0 001.241.116h.582v-6.336a.845.845 0 111.689 0v6.336h1.823v-6.336c0-.468.378-.846.853-.846.465 0 .846.378.846.846v6.336h1.818v-6.336c0-.468.379-.846.849-.846.468 0 .847.378.847.846v6.336h.857c.328 0 .651-.023.965-.068v-6.268c0-.468.379-.846.846-.846.461 0 .842.378.842.846v5.782a6.589 6.589 0 003.939-6.032V51.95h-6.592zm-24.036 166.452c-.629-.629-1.405-1.123-2.33-1.484s-1.989-.541-3.194-.541c-.412 0-.837.02-1.276.064a13.11 13.11 0 00-1.371.203l.745-4.303h5.943c.464 0 .858-.049 1.18-.15.323-.098.587-.24.793-.422.206-.184.353-.398.444-.645a2.41 2.41 0 00.134-.824v-1.822h-11.537l-1.934 11.211 2.71.754a9.28 9.28 0 013.217-.596c1.299 0 2.29.322 2.972.965.681.645 1.022 1.559 1.022 2.74 0 .617-.082 1.195-.246 1.736-.164.537-.412 1.004-.745 1.396s-.753.701-1.26.926c-.507.225-1.104.338-1.791.338-.666 0-1.231-.084-1.696-.252a7.286 7.286 0 01-1.22-.557 58.596 58.596 0 01-.935-.559 1.61 1.61 0 00-.84-.25c-.454 0-.824.193-1.109.58l-1.347 1.822c.391.367.834.717 1.332 1.051a10.084 10.084 0 003.471 1.5 9.374 9.374 0 002.092.229c1.257 0 2.417-.199 3.479-.598a8.13 8.13 0 002.743-1.672 7.634 7.634 0 001.798-2.574c.433-1.002.65-2.107.65-3.32 0-.975-.159-1.885-.476-2.732a6.117 6.117 0 00-1.418-2.214zm30.434 12.099c-.629-.627-1.405-1.123-2.329-1.484-.926-.359-1.988-.541-3.194-.541a13.69 13.69 0 00-2.645.265l.744-4.301h5.943c.464 0 .858-.051 1.18-.15.323-.098.587-.24.793-.424s.353-.398.444-.643c.088-.246.134-.521.134-.824v-1.82h-8.862l4.663-12.01h-2.75c-.747 0-1.408.193-1.982.578-.576.385-.996.922-1.26 1.615l-1.129 2.895c-.388-1.008-.868-1.874-1.441-2.598-.762-.955-1.662-1.668-2.703-2.133a8.129 8.129 0 00-3.367-.699c-1.205 0-2.325.232-3.359.699-1.036.465-1.929 1.178-2.679 2.133-.75.959-1.339 2.168-1.768 3.629-.428 1.459-.641 3.186-.641 5.174s.213 3.715.641 5.18c.428 1.467 1.017 2.678 1.768 3.637.75.957 1.643 1.668 2.679 2.135a8.1 8.1 0 003.359.699c.189 0 .373-.016.558-.027l-5.371 13.768h2.728c.668 0 1.326-.195 1.971-.588.645-.395 1.114-.975 1.41-1.746l4.297-11.066 2.479.689a9.234 9.234 0 013.218-.598c1.299 0 2.29.322 2.971.967.682.643 1.022 1.557 1.022 2.74 0 .617-.082 1.195-.245 1.734-.164.541-.412 1.006-.745 1.398s-.753.701-1.26.926-1.104.336-1.791.336c-.665 0-1.231-.082-1.695-.25a7.346 7.346 0 01-1.222-.559 53.98 53.98 0 01-.935-.557 1.608 1.608 0 00-.841-.252c-.453 0-.823.195-1.108.582l-1.347 1.82c.391.367.834.719 1.331 1.055.497.332 1.032.629 1.608.885a9.95 9.95 0 001.863.613 9.355 9.355 0 002.092.227c1.257 0 2.416-.199 3.479-.596 1.061-.398 1.975-.955 2.741-1.672a7.67 7.67 0 001.799-2.574c.433-1 .65-2.107.65-3.322 0-.973-.159-1.885-.477-2.732a6.138 6.138 0 00-1.419-2.213zm-16.282-2.882c-.481.242-.975.361-1.481.361s-.996-.119-1.466-.361c-.471-.24-.888-.664-1.252-1.271s-.657-1.434-.88-2.482c-.221-1.045-.333-2.381-.333-4.002 0-1.611.112-2.941.333-3.988.223-1.047.515-1.875.88-2.482.365-.605.781-1.029 1.252-1.27.47-.24.959-.361 1.466-.361s1 .121 1.481.361.906.664 1.276 1.27c.369.607.668 1.436.896 2.482s.341 2.377.341 3.988c0 1.34-.082 2.474-.237 3.421l-1.417 3.633a2.831 2.831 0 01-.859.701zm36.813-.83c-.434-1.461-1.03-2.67-1.791-3.627-.762-.959-1.662-1.67-2.702-2.137-1.041-.465-2.163-.699-3.368-.699s-2.324.234-3.359.699c-1.035.467-1.929 1.178-2.678 2.137-.751.957-1.34 2.166-1.768 3.627-.429 1.461-.642 3.184-.642 5.172s.213 3.717.642 5.184c.428 1.465 1.017 2.676 1.768 3.633.749.959 1.643 1.672 2.678 2.137s2.154.697 3.359.697 2.327-.232 3.368-.697c1.04-.465 1.94-1.178 2.702-2.137.761-.957 1.357-2.168 1.791-3.633.432-1.467.649-3.195.649-5.184s-.218-3.711-.649-5.172zm-4.207 9.177c-.229 1.047-.527 1.873-.896 2.479-.37.607-.795 1.031-1.275 1.273-.481.24-.975.361-1.482.361-.506 0-.996-.121-1.465-.361-.472-.242-.888-.666-1.253-1.273-.364-.605-.657-1.432-.88-2.479-.221-1.049-.332-2.381-.332-4.006 0-1.611.111-2.941.332-3.988.223-1.045.516-1.871.88-2.479.365-.609.781-1.033 1.253-1.273.469-.24.959-.361 1.465-.361.508 0 1.001.121 1.482.361.48.24.905.664 1.275 1.273.369.607.668 1.434.896 2.479.227 1.047.34 2.377.34 3.988 0 1.625-.114 2.957-.34 4.006zm60.601-100.448a2.291 2.291 0 00-2.285 2.288 2.291 2.291 0 002.285 2.289 2.292 2.292 0 002.291-2.289 2.293 2.293 0 00-2.291-2.288z"/><path fill="#BCBEC0" d="M223.507 112.685c-13.871 0-25.119 11.25-25.119 25.122 0 13.871 11.248 25.121 25.119 25.121 13.876 0 25.123-11.25 25.123-25.121 0-13.872-11.247-25.122-25.123-25.122zm-7.645 44.748a.786.786 0 01-.718.475.835.835 0 01-.311-.066 21.858 21.858 0 01-13.189-20.076.783.783 0 011.566 0c0 8.105 4.807 15.42 12.243 18.639a.78.78 0 01.409 1.028zm1.55-3.476a.788.788 0 01-1.026.418 17.813 17.813 0 01-10.891-16.432.783.783 0 111.564 0c0 6.551 3.9 12.436 9.934 14.992a.779.779 0 01.419 1.022zm1.38-3.389a.778.778 0 01-.719.475.756.756 0 01-.305-.059 14.043 14.043 0 01-8.586-12.959.783.783 0 011.563 0 12.48 12.48 0 007.632 11.518c.4.167.585.624.415 1.025zm4.715-3.543c-5.089 0-9.216-4.129-9.216-9.219 0-5.091 4.127-9.218 9.216-9.218a9.218 9.218 0 110 18.437zm13.541-8.695a.785.785 0 01-.783-.783c0-5.035-2.994-9.554-7.631-11.515a.78.78 0 11.609-1.439 14.042 14.042 0 018.588 12.955.786.786 0 01-.783.782zm3.688.086a.784.784 0 01-.782-.785 16.245 16.245 0 00-9.938-14.99.78.78 0 11.609-1.44 17.808 17.808 0 0110.894 16.43.786.786 0 01-.783.785zm3.85.171a.78.78 0 01-.782-.781c0-8.099-4.807-15.42-12.247-18.635a.784.784 0 01-.406-1.032.78.78 0 011.03-.402 21.851 21.851 0 0113.186 20.07.78.78 0 01-.781.78z"/><path fill="#FFF" d="M163.702 113.466h-58.021c-1.991 0-3.611 1.649-3.611 3.677v33.298c0 2.027 1.62 3.678 3.611 3.678h58.021c1.99 0 3.612-1.65 3.612-3.678v-33.298c0-2.028-1.622-3.677-3.612-3.677zm.753 37.793h-59.527v-35.164h59.527v35.164zm-23.858 4.137v.896c0 .535-.459.971-1.025.971h-9.963c-.567 0-1.026-.436-1.026-.971v-.896H94.584v.627c0 2.029 2.132 3.678 4.751 3.678h70.712c2.621 0 4.752-1.648 4.752-3.678v-.627h-34.202z"/><path fill="#BCBEC0" d="M47.113 141.58c-5.106 0-9.261 4.154-9.261 9.262 0 5.109 4.155 9.264 9.261 9.264 5.107 0 9.263-4.154 9.263-9.264-.001-5.108-4.156-9.262-9.263-9.262zm2.181 11.443v4.373h-4.363v-4.373h-4.373v-4.363h4.373v-4.373h4.363v4.373h4.375v4.363h-4.375zm10.433-26.539c-.115 1.218-.819 4.111-1.471 4.651-.654.543-1.524-.024-1.551-1.008-.008-.391.071-1.591.135-2.722.252-4.433-3.099-8.68-4.245-9.769-1.142-1.083-2.992-2.664-4.46-2.775-1.469-.107-1.469 1.146-1.469 1.146v22.195l-.002.068c-6.151.219-11.183 4.863-12.008 10.844-4.479.383-8.391-1.449-9.411-4.736-1.252-4.035 2.33-8.731 7.998-10.489 3.106-.966 6.189-.844 8.55.117 0 0 1.774.863 1.851-1.19v-28.13s0-1.1 1.103-1.1c.883 0 1.096.895 1.602 1.629.828 1.205 5.221 6.294 5.948 6.899.98.818 8.062 7.611 7.43 14.37zm113.921 93.967a2.532 2.532 0 01-2.285-1.443 2.525 2.525 0 011.202-3.363l.221-.107a2.524 2.524 0 112.174 4.558l-.232.111a2.52 2.52 0 01-1.08.244zm-80.897-1.231a2.52 2.52 0 01-1.151-.279l-.242-.125a2.525 2.525 0 112.34-4.474l.208.107a2.524 2.524 0 01-1.155 4.771zm89.11-3.207a2.524 2.524 0 01-2.161-1.217 2.523 2.523 0 01.849-3.467l.204-.125a2.526 2.526 0 012.642 4.305l-.227.137c-.409.248-.86.367-1.307.367zm-97.186-1.48c-.472 0-.949-.133-1.374-.408l-.226-.148a2.524 2.524 0 112.781-4.215l.198.129a2.526 2.526 0 01-1.379 4.642zm104.903-3.774a2.524 2.524 0 01-1.533-4.533l.199-.152a2.524 2.524 0 013.539.477 2.522 2.522 0 01-.476 3.537l-.199.154a2.528 2.528 0 01-1.53.517zM77.12 209.046a2.517 2.517 0 01-1.581-.559l-.214-.174a2.525 2.525 0 113.2-3.905l.179.145a2.523 2.523 0 01.385 3.549 2.517 2.517 0 01-1.969.944zm119.618-4.341a2.497 2.497 0 01-1.834-.787c-.951-1.018-.928-2.586.09-3.539l.177-.166a2.524 2.524 0 113.465 3.673l-.135.127a2.58 2.58 0 01-1.763.692zm-126.577-1.883a2.52 2.52 0 01-1.778-.734l-.172-.17a2.524 2.524 0 113.541-3.599l.187.186a2.523 2.523 0 01-1.778 4.317zm133.055-4.78a2.523 2.523 0 01-1.893-4.195l.152-.176a2.523 2.523 0 013.562-.25 2.524 2.524 0 01.25 3.562l-.179.205a2.515 2.515 0 01-1.892.854zm-139.344-2.119a2.517 2.517 0 01-1.956-.928l-.154-.188a2.526 2.526 0 01.342-3.555 2.528 2.528 0 013.555.344l.166.201a2.525 2.525 0 01-1.953 4.126zm145.126-5.252a2.48 2.48 0 01-1.436-.453c-1.139-.807-1.429-2.352-.623-3.488l.138-.197a2.526 2.526 0 114.136 2.897l-.109.158a2.59 2.59 0 01-2.106 1.083zm-150.683-2.25a2.522 2.522 0 01-2.108-1.133l-.134-.201a2.525 2.525 0 114.201-2.801l.144.215a2.525 2.525 0 01-2.103 3.92zm155.689-5.591a2.525 2.525 0 01-2.198-3.763l.125-.221a2.526 2.526 0 114.398 2.48l-.123.219a2.521 2.521 0 01-2.202 1.285zM53.55 180.392c-.907 0-1.784-.49-2.236-1.348l-.117-.223a2.523 2.523 0 011.057-3.41 2.523 2.523 0 013.411 1.057l.117.223a2.525 2.525 0 01-2.232 3.701zm164.631-5.914a2.524 2.524 0 01-2.311-3.541l.095-.219a2.524 2.524 0 114.633 2.006l-.106.244a2.52 2.52 0 01-2.311 1.51zm-168.549-2.561a2.527 2.527 0 01-2.341-1.576l-.102-.252a2.524 2.524 0 011.417-3.277 2.523 2.523 0 013.278 1.416l.086.217a2.526 2.526 0 01-2.338 3.472zm170.616-65.413a2.524 2.524 0 01-2.373-1.665l-.082-.223a2.526 2.526 0 014.738-1.748l.092.251a2.525 2.525 0 01-2.375 3.385zm-168.61-7.218a2.524 2.524 0 01-2.288-3.59l.113-.241a2.525 2.525 0 114.568 2.152l-.102.217a2.525 2.525 0 01-2.291 1.462zm164.954-1.371a2.523 2.523 0 01-2.271-1.42l-.107-.22a2.526 2.526 0 014.534-2.224l.113.231a2.525 2.525 0 01-2.269 3.633zM56.019 91.04a2.526 2.526 0 01-2.163-3.822l.141-.235a2.525 2.525 0 114.313 2.63l-.121.199a2.526 2.526 0 01-2.17 1.228zm156.059-1.295a2.518 2.518 0 01-2.148-1.194l-.129-.206a2.525 2.525 0 114.282-2.676l.137.22a2.528 2.528 0 01-.813 3.479 2.544 2.544 0 01-1.329.377zM61.221 83.284a2.525 2.525 0 01-2.023-4.032l.171-.229a2.524 2.524 0 114.012 3.067l-.132.178a2.523 2.523 0 01-2.028 1.016zm145.527-1.205a2.523 2.523 0 01-1.997-.977l-.151-.197a2.525 2.525 0 013.985-3.101l.157.201a2.526 2.526 0 01-1.994 4.074zM67.186 76.1a2.523 2.523 0 01-1.857-4.235l.172-.187a2.524 2.524 0 013.568-.146 2.523 2.523 0 01.147 3.567l-.171.187a2.53 2.53 0 01-1.859.814zm133.481-1.106a2.518 2.518 0 01-1.837-.792l-.159-.168a2.524 2.524 0 113.642-3.495l.189.197a2.525 2.525 0 01-1.835 4.258zM73.848 69.557a2.523 2.523 0 01-1.672-4.417l.189-.168a2.526 2.526 0 013.34 3.788l-.188.165a2.51 2.51 0 01-1.669.632zm120.051-.995a2.52 2.52 0 01-1.64-.606l-.191-.163a2.525 2.525 0 113.28-3.841l.192.164a2.525 2.525 0 01-1.641 4.446zm-112.76-4.838a2.526 2.526 0 01-1.474-4.577l.212-.15a2.524 2.524 0 112.929 4.113l-.198.142a2.524 2.524 0 01-1.469.472zm105.371-.874c-.497 0-.999-.146-1.438-.452l-.197-.136a2.524 2.524 0 112.862-4.16l.218.149a2.527 2.527 0 01.634 3.516 2.532 2.532 0 01-2.079 1.083zm-97.525-4.185a2.52 2.52 0 01-2.188-1.263 2.523 2.523 0 01.921-3.449l.241-.137a2.524 2.524 0 112.482 4.397l-.195.111a2.501 2.501 0 01-1.261.341zm89.596-.745c-.413 0-.833-.102-1.22-.316l-.211-.116a2.526 2.526 0 012.422-4.432l.234.13a2.525 2.525 0 01-1.225 4.734zm-81.276-3.487a2.524 2.524 0 01-1.028-4.832l.248-.109a2.524 2.524 0 112.018 4.629l-.212.094a2.528 2.528 0 01-1.026.218zm72.885-.607c-.331 0-.667-.064-.991-.203l-.227-.097a2.525 2.525 0 011.971-4.65l.239.103a2.525 2.525 0 01-.992 4.847zm-64.176-2.749a2.526 2.526 0 01-.785-4.925l.258-.084a2.525 2.525 0 011.535 4.811l-.223.073a2.52 2.52 0 01-.785.125zm55.409-.46c-.248 0-.501-.037-.75-.115l-.23-.07a2.524 2.524 0 111.473-4.829l.255.078a2.524 2.524 0 01-.748 4.936z"/></svg>