<?xml version="1.0" encoding="utf-8"?>
<!-- Generator: Adobe Illustrator 19.0.0, SVG Export Plug-In . SVG Version: 6.00 Build 0)  -->
<svg version="1.0" id="Layer_1" xmlns="http://www.w3.org/2000/svg" xmlns:xlink="http://www.w3.org/1999/xlink" x="0px" y="0px"
	 viewBox="0 0 283.5 69" style="enable-background:new 0 0 283.5 69;" xml:space="preserve">
<style type="text/css">
	.st0{fill:#FFFFFF;}
</style>
<g id="XMLID_391_">
	<path id="XMLID_483_" class="st0" d="M244.3,17.7c0,0.2,0.1,0.5,0.1,0.7c0,2.6,0.6,5.2,1,7.8c0.3,2.1,0.5,4.2,1.2,6.2
		c0.5,3.4,1.1,6.7,1.7,10.1c0.1,0.7,0.2,1.5,0.7,2.1c0.2-0.7,0.5-1.3,0.7-2c1.2-4.4,2.8-8.8,3.8-13.2c0.1-0.3,0.3-0.6,0.6-1.3
		c1.2,3.5,1.9,6.7,2.7,9.9c0.3,0.5-0.4,1.2,0.4,1.5l0,0.1c0.2,1.6,0.6,3.1,1.2,4.7c0.2,0.4,0.2,1,0.9,1c0.6-0.1,0.6-0.7,0.7-1.1
		c0.7-3.6,1.3-7.2,1.8-10.8c0.9-6.3,1.9-12.5,3-18.7c0.7-4,1.4-8.1,2-12.2c0.2-1.2,0.4-1.7,1.8-1.8c3.9-0.1,7.8-0.1,11.7-0.1
		c1.9,0,2.1,0.2,1.8,2.1c-1.3,7.3-2.8,14.6-4.1,22c-1,5.5-1.9,11-2.8,16.6c-1,6-1.9,12-3.2,17.9c-0.5,2.6-0.8,5.2-1.2,7.8
		c-0.3,1.9-0.6,2.2-2.6,2.2c-3-0.1-6.1,0.3-9.1-0.3c-0.1,0-0.1-0.1-0.1-0.2c-0.1-0.1-0.1-0.2-0.1-0.2c0-0.1,0-0.1,0.1-0.1
		c0-0.1-0.1-0.2-0.1-0.3c0,0,0-0.1,0-0.1c-1.3-4.9-2.7-9.8-3.8-14.8c0,0-0.1,0-0.2,0l0,0c-0.2-0.4,0.4-1.1-0.4-1.4l0.2-0.1l-0.1,0.1
		c-0.1-0.5-0.3-0.3-0.5-0.1c-1.2,3.2-1.9,6.5-3.1,9.7c-0.6,0.2-0.3,0.7-0.5,1.1l0-0.1l0,0.1c-0.7,1.7-0.9,3.5-1.5,5.2
		c-0.4,1.2-1,1.6-2.2,1.6c-2.4-0.1-4.8,0-7.1,0c-2.2,0-2.1,0-2.5-2c-0.1-0.6-0.1-1.3-0.4-1.9c-0.1-0.7-0.4-1.4-0.3-2.2
		c0-0.8,0-1.6-0.2-2.4c0-0.2-0.1-0.3-0.1-0.5c-0.3-0.4,0.4-1-0.3-1.3l0.1,0l-0.1,0c-1-6.2-1.7-12.5-2.7-18.7
		c-1.4-8.9-2.9-17.9-4.2-26.8c-0.5-3.5-1.2-7.1-1.7-10.6c-0.1-1,0.1-1.3,1.1-1.5c3.9-0.5,7.7-0.2,11.6-0.3c1.2,0,1.6,0.4,1.8,1.6
		C242.6,7.5,243.1,12.6,244.3,17.7z"/>
	<path id="XMLID_484_" class="st0" d="M150.7,2.6c0-1.1,0.3-1.7,1.5-1.7c5.7-0.1,11.3-0.4,17,0.3c1.3,0.2,2.4,0.9,3.6,1.2
		c0,0,0,0,0,0c0.3,0.6,0.9,0.5,1.4,0.8L174,3.3l0.1-0.1c5.7,4.7,8.5,10.7,8.6,18.2c0.1,4.5-0.6,8.7-2.3,12.8c-0.8,2-2.1,3.7-3.4,5.4
		l-0.1-0.1l0.1,0.1c-0.5,0.3-0.9,0.6-1,1.1l-0.1-0.1l0.1,0.1c-1,0.5-1.7,1.5-2.6,2.2c-0.6,0.5-0.4,1.1-0.2,1.8
		c1.1,3.4,2.8,6.6,4.1,9.9c1.6,4.2,3.5,8.2,5.3,12.3c0.7,1.5,0.4,1.9-1.3,2c-3.2,0.1-3.5,0-4.7-3c-3.4-8.1-6.8-16.2-10.2-24.2
		c-0.1-0.2-0.2-0.3-0.4-0.4l0,0c-0.3-0.8,0.2-1.1,0.9-1.2c6.9-1.4,9.5-6.3,10.7-12.5c0-0.2,0.1-0.4,0.1-0.6
		c0.4-5.2,0.7-10.5-2.2-15.2c-0.1-0.1-0.2-0.3-0.2-0.4c-0.3-0.6-0.6-1.1-1-1.6c-0.1-0.1-0.2-0.2-0.3-0.3c-0.1-0.1-0.2-0.2-0.3-0.3
		c0,0-0.1-0.1-0.1-0.1c-0.1-0.1-0.2-0.2-0.3-0.3c0,0-0.1-0.1-0.1-0.1c-0.1-0.1-0.2-0.2-0.3-0.3c-0.1,0-0.1-0.1-0.2-0.1
		c-0.1-0.1-0.2-0.2-0.3-0.3c-0.1,0-0.1-0.1-0.2-0.2c-0.5-0.5-1-0.7-1.6-1c-0.2-0.1-0.3-0.1-0.4-0.2c-1.3-0.3-2.5-1.8-4-0.5
		c-0.2,0.2-0.5,0.3-0.6,0.5c-0.3,0.7-0.2,1.4-0.2,2.1c0,5.9-0.1,11.8,0,17.7c0.1,3.3-0.5,6.6-0.3,9.8c0.3,6.8-0.3,13.6,0,20.4
		c0.2,3.2,0.1,6.4,0.1,9.6c0,2-0.4,2.6-2.4,2.6c-3.6,0.1-7.3,0-10.9,0c-1.3,0-1.3-0.9-1.3-1.8"/>
	<path id="XMLID_485_" class="st0" d="M99.1,64.3l0.1-0.1c3.3,0,6.7,0,10,0c1.6,0,1.6,0,1.7,1.7c0,0.6,0,1.2,0,1.8
		c0,1.5,0,1.6-1.6,1.6c-3.9-0.2-7.8-0.1-11.7-0.1c-4.7-0.2-9.4-0.5-14.1-0.5c-1.9,0-2-0.1-1.6-1.9c2-7.8,3.7-15.8,5.8-23.6
		c3.1-11.5,6-23.1,8.9-34.6C96.8,8,97,7.4,97.1,6.7c0.2-1.1,0.1-1.3-1-1.3c-2.8,0-5.6,0-8.4,0c-0.6,0-1.2,0-1.8,0
		c-0.6,0-0.9-0.3-0.9-0.9c0-1.2,0-2.4,0-3.6c0-0.8,0.4-1,1.1-1c4.5,0.1,9.1,0,13.6,0.3c3.5,0.2,6.9,0.1,10.4,0.2c1,0,1.9,0,2.9,0
		c1.2,0,1.2,0.1,0.9,1.2c-0.5,2-1.1,4-1.7,6c-2.4,8.1-4.2,16.3-6.4,24.4c-2.2,8.4-4.6,16.8-6.8,25.2c-0.5,1.9-1,3.8-1.6,5.7
		c-0.1,0.3-0.1,0.6,0,1c0.3,0.1,0.6,0.2,0.9,0.3C98.6,64.1,98.9,64.2,99.1,64.3z"/>
	<path id="XMLID_486_" class="st0" d="M120.5,5.2c-0.9-0.5-0.6-3.5,0.2-4.3c2.6-0.3,5.1-0.1,7.7-0.1c5.1,0,10.3,0,15.4,0
		c2.3,0,2.4,0.2,1.7,2.4c-1.9,6.6-3.8,13.3-5.4,20c-1.4,5.9-3,11.8-4.6,17.6c-1.8,7.1-3.7,14.3-5.4,21.5c-0.1,0.6-0.2,1.2-0.1,1.8
		l0.1,0l0,0.1c0.9,0.3,1.9,0.2,2.8,0.2c2.9,0,5.8,0.1,8.8,0.2c1,0,1.4,0.4,1.3,1.4c0,0.1,0,0.2,0,0.4c0.1,2.7,0,2.8-2.8,2.8
		c-4,0-8,0-12,0c-0.7,0-1.4-0.1-2.1,0.2c-3.1,0.1-6.2,0.2-9.3,0c-0.3-0.2-0.7-0.2-1-0.2c-2.8-0.1-2.8-0.1-2.1-2.9
		c1.3-4.7,2.4-9.5,3.8-14.2c0.2-0.6,0.4-1.2,0.4-1.9c0.1-0.2,0.1-0.5,0.2-0.7c1.7-5.8,3.2-11.6,4.7-17.4l0-0.2
		c1.8-6.5,3.6-13.1,5.1-19.7l0,0c0.6-1.5,0.8-3.1,1.3-4.6c0.4-1.4,0.1-1.8-1.5-1.9c-2.2-0.1-4.4,0-6.6-0.1"/>
	<path id="XMLID_487_" class="st0" d="M16.8,66.5c0,2.1,0,2.1-2.1,2.1c-3.5,0-6.9,0-10.4,0c-1.7,0-1.6,0-1.9-1.6
		c-0.2-0.9-0.1-1.8-0.1-2.7c0-7.5,0.1-15-0.2-22.4c-0.3-7.4-0.1-14.7-0.4-22c-0.2-6-0.1-12-0.2-17.9c0-1.8,0.2-2.1,2-2.1
		c3.8,0,7.5,0,11.3,0.1c0.1,0,0.2,0,0.4,0c1.7,0,2.8,0.6,3.5,2.3c1.2,3.1,2.6,6.1,3.9,9.2c0.2,0.5,0.5,1,0.8,1.4
		c0.2-0.1,0.5-0.1,0.7-0.2c1.7-3.6,3.4-7.2,5.1-10.9C30-0.2,30,0,32.1,0c2.7,0,5.4-0.1,8.1-0.2c1.1,0,2.3,0,3.4,0c1.7,0,2,0.3,2,1.9
		c0.6,12,0.2,24,0.4,36.1c0.2,9.5,0.2,19,0.2,28.5c0,0.4,0,0.7,0,1.1c0,0.9-0.5,1.3-1.3,1.3c-1.2,0-2.4,0-3.6,0c-2.9,0-5.7,0-8.6,0
		c-1.7,0-1.8-0.1-1.8-1.8c0-6.6,0.1-13.2,0.1-19.7c0-9.9-0.1-19.7-0.2-29.6c0-1.2-0.2-2.5-0.3-3.8c-0.7,0.4-0.9,1.1-1.2,1.6
		c-1.4,2.9-2.8,5.8-4.2,8.7c-0.4,0.7-0.6,1.8-1.4,1.9c-0.8,0-1-1-1.4-1.7c-1.7-3.3-3.4-6.6-5.1-9.9c-0.3,0.2-0.6-1-0.9,0
		c0.1,1.2,0.1,2.3,0.2,3.5"/>
	<path id="XMLID_488_" class="st0" d="M52.4,45.6c0-6.8-0.1-13.6,0-20.5c0.1-4.8,0.3-9.6,0.1-14.3c-0.1-3.1-0.2-6.2-0.2-9.3
		c0-1.6,0.2-1.8,1.7-1.8c7.8,0,15.6,0,23.3,0c1.7,0,1.8,0.2,1.8,1.9c0,0.8,0,1.7,0,2.5c0,1.3-0.1,1.4-1.5,1.4c-2.9,0-5.9,0-8.8,0
		c-1.4,0-1.5,0.1-1.5,1.6c0,4.3-0.1,8.6-0.1,12.9c0,1.8,0.1,1.9,1.9,1.9c2.8,0,5.5,0,8.3,0.1c1.5,0,1.6,0.2,1.7,1.7
		c0,0.7,0,1.4,0,2.2c0,1.2-0.2,1.5-1.5,1.5c-2.6,0-5.1,0-7.7,0c-0.5,0-1,0-1.4,0c-1-0.1-1.2,0.4-1.2,1.3c0,2.3,0,4.5,0,6.8
		c0,8.7,0.2,17.5,0,26.2c0,1.6,0,1.6,1.6,1.6c2.5,0,4.9,0,7.4,0c0.7,0,1.3,0,2,0.2c0.6,0.2,1,0.4,1,1.1c0,1.1,0,2.2,0,3.2
		c0,0.8-0.4,1.2-1.2,1.2c-4.1-0.1-8.1,0.1-12.2-0.2c-3.3-0.2-6.7-0.1-10-0.1c-4.1,0-3.3,0.2-3.4-3.3C52.4,58.8,52.4,52.2,52.4,45.6
		C52.4,45.6,52.4,45.6,52.4,45.6z"/>
	<g id="XMLID_489_">
		<polygon id="XMLID_490_" class="st0" points="216.8,65.8 216.8,65.8 216.8,65.8 		"/>
		<polygon id="XMLID_491_" class="st0" points="221.4,9 221.4,9 221.4,9 		"/>
		<path id="XMLID_492_" class="st0" d="M227.1,29.2c0-0.3-0.1-0.5-0.1-0.8c-0.9-6.7-2.3-13.3-5.6-19.4c-1.1-1.2-2-2.5-3.2-3.6
			c0-0.1-0.1-0.1-0.2-0.1c-0.3,0-0.5,0-0.4-0.4l0,0c-0.3,0.1-0.4-0.1-0.4-0.3l0,0c-0.4-0.2-0.9-0.2-1.1-0.7l0,0c0,0,0,0,0,0
			c0,0,0,0,0,0l0,0c-2.6-1.4-5.1-2.7-8.2-2.8c-4-0.1-7.5,0.8-10.7,3.1l0.1,0.1l-0.1-0.1c-1,0.9-2,1.8-2.9,2.9c0,0.3-0.1,0.4-0.3,0.4
			l0,0c-0.2,0.4-0.2,0.9-0.7,1.1l0,0c-2,3.1-3.2,6.6-4.4,10.1c-1.4,4.2-2.1,8.5-2.3,12.9c-0.1,4.7,0.1,9.4,0.7,14.1
			c0.1,0.2,0.1,0.5,0.2,0.7c0.4,1.1,0.5,2.3,0.8,3.5l0,0.1c1.5,4.6,3.2,9.1,6.1,13l0,0c0.3,0,0.4,0,0.3,0.3l0,0.1
			c1,0.9,1.9,2,2.9,2.8l0,0c6.5,4,12.9,3.7,19.2-0.4c0.2-0.3,0.4-0.6,0.8-0.7c0.1,0,0.1,0,0.2-0.1c1.5-1.3,2.6-3,3.7-4.6
			c1.2-2.3,2.2-4.7,3-7.2c1.1-3.8,1.8-7.7,2.6-11.6c0-0.2,0-0.5,0.1-0.7C227.3,37,227.2,33.1,227.1,29.2z M211.7,60.4
			c0,1.2-0.1,2.4-1.3,3.1l-0.1,0.1c-1.5,1.6-3.4,1.6-5.3,1c-1.8-0.5-2.8-1.9-3.2-3.8c-0.1-0.7-0.1-1.4-0.1-2.1c0-6.3,0-12.5,0-18.8
			c0.1-0.6,0.1-1.2,0-1.8c-0.1-0.1-0.1-0.2,0-0.4c0.1-1.1,0.1-2.2,0-3.3c0.1-8,0-16,0-24c0-1.6,0.4-3,1.6-4.2l-0.1,0l0.1,0
			c0-0.3,0.1-0.4,0.3-0.3l0-0.1l0,0.1c2-1.5,3.3-1.6,5.3-0.5l0.1,0.1c1.9,1.1,2.7,2.8,2.7,4.9C211.7,27.1,211.7,43.7,211.7,60.4z"/>
		<path id="XMLID_495_" class="st0" d="M221.5,60.4C221.5,60.4,221.5,60.4,221.5,60.4C221.5,60.4,221.5,60.4,221.5,60.4L221.5,60.4z
			"/>
	</g>
</g>
<g id="XMLID_418_">
</g>
<g id="XMLID_419_">
</g>
<g id="XMLID_420_">
</g>
<g id="XMLID_421_">
</g>
<g id="XMLID_422_">
</g>
<g id="XMLID_423_">
</g>
</svg>
