<?xml version="1.0" encoding="utf-8"?>
<!-- Generator: Adobe Illustrator 14.0.0, SVG Export Plug-In  -->
<!DOCTYPE svg PUBLIC "-//W3C//DTD SVG 1.1//EN" "http://www.w3.org/Graphics/SVG/1.1/DTD/svg11.dtd" [
	<!ENTITY ns_flows "http://ns.adobe.com/Flows/1.0/">
]>
<svg version="1.1"
	 xmlns="http://www.w3.org/2000/svg" xmlns:xlink="http://www.w3.org/1999/xlink" xmlns:a="http://ns.adobe.com/AdobeSVGViewerExtensions/3.0/"
	 x="0px" y="0px" width="270px" height="270px" viewBox="0 0 270 270" enable-background="new 0 0 270 270" xml:space="preserve">
<defs>
</defs>
<rect width="270" height="270"/>
<path fill="#BCBEC0" d="M162.131,208.389c-0.629-0.627-1.405-1.123-2.33-1.484c-0.924-0.361-1.988-0.541-3.193-0.541
	c-0.412,0-0.837,0.021-1.275,0.062s-0.895,0.109-1.371,0.203l0.745-4.301h5.944c0.463,0,0.857-0.051,1.179-0.15
	c0.323-0.098,0.587-0.24,0.794-0.424c0.205-0.184,0.353-0.398,0.443-0.643c0.088-0.246,0.134-0.521,0.134-0.824v-1.82h-11.537
	l-1.935,11.209l2.711,0.754c1.078-0.398,2.15-0.598,3.217-0.598c1.301,0,2.291,0.322,2.973,0.967
	c0.682,0.643,1.021,1.557,1.021,2.74c0,0.617-0.082,1.195-0.246,1.734c-0.163,0.539-0.412,1.006-0.744,1.398
	s-0.752,0.699-1.26,0.924c-0.507,0.227-1.104,0.338-1.791,0.338c-0.666,0-1.23-0.082-1.696-0.25
	c-0.464-0.168-0.871-0.354-1.22-0.559c-0.349-0.203-0.66-0.389-0.935-0.557c-0.276-0.168-0.556-0.252-0.841-0.252
	c-0.454,0-0.824,0.195-1.109,0.582l-1.348,1.82c0.393,0.367,0.835,0.719,1.332,1.055c0.496,0.332,1.033,0.629,1.609,0.885
	s1.195,0.461,1.861,0.613c0.665,0.152,1.363,0.227,2.092,0.227c1.258,0,2.417-0.199,3.479-0.596
	c1.062-0.398,1.975-0.957,2.741-1.672c0.766-0.717,1.365-1.576,1.799-2.574c0.434-1,0.65-2.107,0.65-3.322
	c0-0.973-0.159-1.885-0.477-2.732C163.233,209.754,162.76,209.016,162.131,208.389z"/>
<path fill="#BCBEC0" d="M192.565,220.487c-0.629-0.627-1.406-1.123-2.33-1.482c-0.924-0.361-1.989-0.541-3.193-0.541
	c-0.412,0-0.838,0.02-1.275,0.062c-0.439,0.041-0.896,0.109-1.371,0.203l0.744-4.303h5.943c0.465,0,0.857-0.049,1.182-0.148
	c0.321-0.1,0.586-0.242,0.792-0.422c0.206-0.184,0.354-0.4,0.444-0.646c0.089-0.244,0.135-0.52,0.135-0.824v-1.82h-8.863
	l4.663-12.01h-2.752c-0.745,0-1.406,0.193-1.981,0.578c-0.574,0.385-0.995,0.926-1.26,1.617l-1.129,2.895
	c-0.388-1.009-0.867-1.875-1.441-2.596c-0.762-0.959-1.662-1.67-2.702-2.137s-2.163-0.699-3.367-0.699
	c-1.206,0-2.325,0.232-3.36,0.699s-1.929,1.178-2.678,2.137c-0.751,0.955-1.34,2.166-1.768,3.627
	c-0.428,1.459-0.642,3.184-0.642,5.172s0.214,3.717,0.642,5.182c0.428,1.467,1.017,2.678,1.768,3.635
	c0.749,0.959,1.643,1.67,2.678,2.137c1.035,0.465,2.154,0.697,3.36,0.697c0.188,0,0.372-0.016,0.558-0.027l-5.371,13.77h2.729
	c0.668,0,1.325-0.197,1.971-0.59c0.645-0.393,1.114-0.975,1.41-1.744l4.297-11.066l2.479,0.688c1.078-0.396,2.15-0.596,3.217-0.596
	c1.299,0,2.291,0.322,2.973,0.965c0.68,0.646,1.021,1.559,1.021,2.74c0,0.617-0.082,1.195-0.246,1.736
	c-0.164,0.539-0.411,1.004-0.744,1.396c-0.334,0.393-0.754,0.703-1.261,0.928s-1.104,0.338-1.79,0.338
	c-0.666,0-1.231-0.086-1.695-0.254c-0.466-0.166-0.873-0.354-1.222-0.557c-0.349-0.205-0.661-0.391-0.935-0.557
	c-0.274-0.166-0.555-0.252-0.841-0.252c-0.454,0-0.823,0.193-1.108,0.58l-1.348,1.824c0.391,0.365,0.834,0.715,1.332,1.051
	c0.497,0.336,1.032,0.631,1.608,0.887c0.575,0.258,1.196,0.461,1.862,0.611c0.666,0.152,1.362,0.23,2.092,0.23
	c1.257,0,2.416-0.199,3.479-0.598c1.062-0.396,1.977-0.955,2.741-1.674c0.767-0.717,1.366-1.574,1.8-2.574
	c0.433-1,0.649-2.107,0.649-3.32c0-0.975-0.159-1.883-0.476-2.732C193.667,221.854,193.193,221.116,192.565,220.487z
	 M176.284,217.606c-0.481,0.24-0.975,0.359-1.481,0.359s-0.997-0.119-1.466-0.359c-0.472-0.242-0.888-0.666-1.253-1.273
	c-0.364-0.605-0.657-1.432-0.88-2.479c-0.221-1.049-0.332-2.383-0.332-4.006c0-1.611,0.111-2.941,0.332-3.988
	c0.223-1.045,0.516-1.873,0.88-2.48c0.365-0.607,0.781-1.031,1.253-1.271c0.469-0.24,0.959-0.361,1.466-0.361s1,0.121,1.481,0.361
	c0.48,0.24,0.905,0.664,1.275,1.271c0.369,0.607,0.668,1.436,0.896,2.48c0.227,1.047,0.34,2.377,0.34,3.988
	c0,1.34-0.082,2.472-0.236,3.42l-1.417,3.633C176.878,217.209,176.594,217.45,176.284,217.606z"/>
<path fill="#BCBEC0" d="M213.095,216.774c-0.433-1.459-1.03-2.668-1.79-3.627c-0.761-0.957-1.662-1.67-2.703-2.135
	c-1.04-0.465-2.162-0.697-3.367-0.697c-1.204,0-2.324,0.232-3.36,0.697s-1.927,1.178-2.678,2.135
	c-0.751,0.959-1.339,2.168-1.767,3.627c-0.428,1.461-0.643,3.186-0.643,5.176c0,1.988,0.215,3.713,0.643,5.18
	c0.428,1.465,1.016,2.676,1.767,3.635c0.751,0.957,1.642,1.67,2.678,2.135s2.156,0.701,3.36,0.701c1.205,0,2.327-0.236,3.367-0.701
	c1.041-0.465,1.942-1.178,2.703-2.135c0.76-0.959,1.357-2.17,1.79-3.635c0.435-1.467,0.651-3.191,0.651-5.18
	C213.747,219.959,213.53,218.235,213.095,216.774z M208.887,225.952c-0.227,1.047-0.524,1.873-0.895,2.48
	c-0.369,0.607-0.796,1.033-1.275,1.273c-0.48,0.24-0.975,0.361-1.482,0.361s-0.996-0.121-1.467-0.361
	c-0.469-0.24-0.887-0.666-1.252-1.273c-0.363-0.607-0.657-1.434-0.878-2.48c-0.224-1.045-0.333-2.381-0.333-4.002
	c0-1.613,0.109-2.941,0.333-3.99c0.221-1.047,0.515-1.873,0.878-2.48c0.365-0.605,0.783-1.029,1.252-1.271
	c0.471-0.24,0.959-0.361,1.467-0.361s1.002,0.121,1.482,0.361c0.479,0.242,0.906,0.666,1.275,1.271
	c0.37,0.607,0.668,1.434,0.895,2.48c0.227,1.049,0.342,2.377,0.342,3.99C209.229,223.571,209.114,224.907,208.887,225.952z"/>
<path fill="#BCBEC0" d="M148.297,45.072v19.475c0,3.75-3.225,6.808-7.189,6.808h-2.986v-0.572h-7.403v0.572h-2.987
	c-3.965,0-7.188-3.058-7.188-6.808V45.072h-2.961v19.475c0,5.383,4.554,9.771,10.149,9.771h2.987v4.692h0.925v3.354h5.555V79.01
	h0.924v-4.692h2.986c5.596,0,10.154-4.388,10.154-9.771V45.072H148.297z"/>
<rect x="114.943" y="46.104" fill="#BCBEC0" width="1.921" height="3.977"/>
<rect x="151.927" y="46.104" fill="#BCBEC0" width="1.919" height="3.977"/>
<path fill="#BCBEC0" d="M139.502,57.974c-0.47,0-0.848-0.377-0.848-0.844c0-0.47,0.378-0.851,0.848-0.851h6.592v-2.073h-6.592
	c-0.47,0-0.848-0.379-0.848-0.843c0-0.471,0.378-0.85,0.848-0.85h6.592v-2.071h-6.592c-0.47,0-0.848-0.379-0.848-0.847
	c0-0.466,0.378-0.844,0.848-0.844h6.592v-2.075h-6.592c-0.47,0-0.848-0.379-0.848-0.843c0-0.472,0.378-0.847,0.848-0.847h6.592
	v-2.075h-6.592c-0.47,0-0.848-0.378-0.848-0.844c0-0.474,0.378-0.851,0.848-0.851h6.592v-2.071h-6.592
	c-0.47,0-0.848-0.377-0.848-0.844c0-0.47,0.378-0.851,0.848-0.851h6.592v-4.048c0-2.694-1.615-5.009-3.939-6.032v6.535
	c0,0.466-0.381,0.849-0.843,0.849c-0.466,0-0.845-0.383-0.845-0.849v-7.022c-0.314-0.046-0.638-0.069-0.965-0.069h-0.858v7.092
	c0,0.466-0.378,0.849-0.847,0.849s-0.848-0.383-0.848-0.849v-7.092h-1.819v7.092c0,0.466-0.381,0.849-0.846,0.849
	c-0.474,0-0.852-0.383-0.852-0.849v-7.092h-1.823v7.092c0,0.466-0.375,0.849-0.846,0.849c-0.464,0-0.843-0.383-0.843-0.849v-7.092
	h-0.582c-0.428,0-0.842,0.04-1.241,0.116v6.976c0,0.466-0.376,0.849-0.844,0.849c-0.469,0-0.844-0.383-0.844-0.849v-6.405
	c-2.17,1.083-3.661,3.318-3.661,5.902v4.048h6.263c0.47,0,0.846,0.381,0.846,0.851c0,0.467-0.376,0.844-0.846,0.844h-6.263v2.071
	h6.263c0.47,0,0.846,0.377,0.846,0.851c0,0.466-0.376,0.844-0.846,0.844h-6.263v2.075h6.263c0.47,0,0.846,0.375,0.846,0.847
	c0,0.464-0.376,0.843-0.846,0.843h-6.263v2.075h6.263c0.47,0,0.846,0.378,0.846,0.844c0,0.468-0.376,0.847-0.846,0.847h-6.263v2.071
	h6.263c0.47,0,0.846,0.379,0.846,0.85c0,0.464-0.376,0.843-0.846,0.843h-6.263v2.073h6.263c0.47,0,0.846,0.381,0.846,0.851
	c0,0.467-0.376,0.844-0.846,0.844h-6.263v3.297c0,2.584,1.491,4.82,3.661,5.897v-5.647c0-0.47,0.375-0.847,0.844-0.847
	c0.468,0,0.844,0.377,0.844,0.847v6.218c0.399,0.081,0.813,0.116,1.241,0.116h0.582v-6.334c0-0.47,0.379-0.847,0.843-0.847
	c0.471,0,0.846,0.377,0.846,0.847v6.334h1.823v-6.334c0-0.47,0.378-0.847,0.852-0.847c0.465,0,0.846,0.377,0.846,0.847v6.334h1.819
	v-6.334c0-0.47,0.379-0.847,0.848-0.847s0.847,0.377,0.847,0.847v6.334h0.858c0.327,0,0.65-0.023,0.965-0.066v-6.268
	c0-0.47,0.379-0.847,0.845-0.847c0.462,0,0.843,0.377,0.843,0.847v5.78c2.324-1.022,3.939-3.342,3.939-6.03v-3.297H139.502z"/>
<path fill="#BCBEC0" d="M223.154,113.67c-1.261,0-2.287,1.027-2.287,2.286c0,1.263,1.026,2.288,2.287,2.288
	c1.263,0,2.288-1.025,2.288-2.288C225.442,114.697,224.417,113.67,223.154,113.67z"/>
<path fill="#BCBEC0" d="M223.154,90.834c-13.874,0-25.12,11.25-25.12,25.122c0,13.874,11.246,25.125,25.12,25.125
	s25.122-11.25,25.122-25.125C248.276,102.084,237.028,90.834,223.154,90.834z M215.508,135.583
	c-0.129,0.295-0.417,0.475-0.719,0.475c-0.105,0-0.209-0.023-0.312-0.066c-8.013-3.464-13.188-11.343-13.188-20.074
	c0-0.431,0.351-0.779,0.781-0.779c0.434,0,0.784,0.349,0.784,0.779c0,8.105,4.806,15.418,12.243,18.64
	C215.499,134.726,215.677,135.186,215.508,135.583z M217.058,132.108c-0.126,0.298-0.418,0.479-0.722,0.479
	c-0.101,0-0.204-0.019-0.305-0.062c-6.615-2.799-10.891-9.252-10.891-16.433c0-0.432,0.348-0.785,0.781-0.785
	c0.432,0,0.781,0.354,0.781,0.785c0,6.55,3.9,12.434,9.937,14.992C217.039,131.254,217.226,131.712,217.058,132.108z
	 M218.439,128.719c-0.126,0.296-0.416,0.474-0.722,0.474c-0.101,0-0.203-0.016-0.304-0.059c-5.214-2.204-8.585-7.291-8.585-12.957
	c0-0.428,0.352-0.779,0.783-0.779s0.781,0.352,0.781,0.779c0,5.038,2.994,9.556,7.63,11.517
	C218.421,127.863,218.608,128.318,218.439,128.719z M223.154,125.174c-5.091,0-9.216-4.126-9.216-9.218
	c0-5.09,4.125-9.218,9.216-9.218s9.218,4.128,9.218,9.218C232.372,121.048,228.245,125.174,223.154,125.174z M236.694,116.48
	c-0.434,0-0.785-0.354-0.785-0.785c0-5.034-2.994-9.552-7.63-11.514c-0.396-0.17-0.582-0.624-0.417-1.024
	c0.17-0.4,0.628-0.584,1.026-0.414c5.216,2.205,8.587,7.287,8.587,12.952C237.475,116.126,237.124,116.48,236.694,116.48z
	 M240.381,116.567c-0.432,0-0.783-0.351-0.783-0.785c0-6.551-3.9-12.438-9.938-14.992c-0.396-0.17-0.585-0.625-0.416-1.021
	c0.168-0.398,0.628-0.584,1.024-0.418c6.618,2.797,10.894,9.249,10.894,16.432C241.163,116.217,240.811,116.567,240.381,116.567z
	 M244.231,116.737c-0.432,0-0.783-0.348-0.783-0.781c0-8.1-4.805-15.418-12.246-18.636c-0.396-0.17-0.578-0.631-0.406-1.029
	c0.172-0.395,0.631-0.576,1.03-0.405c8.011,3.465,13.185,11.343,13.185,20.07C245.01,116.39,244.664,116.737,244.231,116.737z"/>
<path fill="#BCBEC0" d="M80.799,216.508c-5.106,0-9.26,4.154-9.26,9.262c0,5.109,4.154,9.264,9.26,9.264
	c5.107,0,9.263-4.154,9.263-9.264C90.062,220.663,85.907,216.508,80.799,216.508z M82.981,227.952v4.373h-4.363v-4.373h-4.373
	v-4.363h4.373v-4.373h4.363v4.373h4.375v4.363H82.981z M93.413,201.413c-0.115,1.219-0.819,4.111-1.471,4.652
	c-0.654,0.543-1.524-0.025-1.551-1.008c-0.008-0.391,0.071-1.592,0.136-2.723c0.251-4.432-3.1-8.68-4.245-9.768
	c-1.142-1.084-2.993-2.664-4.461-2.775c-1.469-0.107-1.469,1.145-1.469,1.145v22.195c0,0-0.001,0.037-0.002,0.068
	c-6.151,0.219-11.183,4.863-12.008,10.844c-4.479,0.383-8.39-1.449-9.411-4.736c-1.252-4.035,2.33-8.732,7.998-10.488
	c3.106-0.967,6.189-0.844,8.551,0.117c0,0,1.774,0.861,1.851-1.189v-28.131c0,0,0-1.102,1.103-1.102
	c0.883,0,1.096,0.896,1.602,1.631c0.828,1.205,5.221,6.295,5.948,6.9C86.963,187.862,94.046,194.653,93.413,201.413z"/>
<polygon fill="#FFFFFF" points="142.842,100.151 135.082,100.151 133.62,100.151 133.62,105.538 133.62,111.107 135.082,111.107 
	135.082,105.538 142.842,105.538 "/>
<polygon fill="#FFFFFF" points="149.382,120.445 134.366,109.131 119.571,120.278 119.571,124.853 134.366,113.703 149.382,125.019 
	"/>
<polygon fill="#FFFFFF" points="135.13,127.121 130.302,127.121 130.302,125.659 133.693,125.659 133.746,122.271 135.207,122.294 
	135.13,127.121 "/>
<path fill="#FFFFFF" d="M173.5,155.973v-29.036h-28.075v-2.584l-11.115-8.376l-10.782,8.126v2.834H95.342v29.036h-3.744v4.383
	h37.851v-14.791c0-2.746,2.225-4.973,4.971-4.973c2.746,0,4.97,2.227,4.97,4.973v14.791h37.854v-4.383H173.5z M108.146,151.104
	h-7.974v-7.791h7.974V151.104z M108.146,141.243h-7.974v-7.792h7.974V141.243z M118.19,151.104h-7.975v-7.791h7.975V151.104z
	 M118.19,141.243h-7.975v-7.792h7.975V141.243z M134.411,131.793c-2.982,0-5.401-2.419-5.401-5.401c0-2.984,2.418-5.403,5.401-5.403
	c2.984,0,5.403,2.419,5.403,5.403C139.814,129.374,137.395,131.793,134.411,131.793z M158.405,151.104h-7.975v-7.791h7.975V151.104z
	 M158.405,141.243h-7.975v-7.792h7.975V141.243z M168.448,151.104h-7.973v-7.791h7.973V151.104z M168.448,141.243h-7.973v-7.792
	h7.973V141.243z"/>
<path fill="#BCBEC0" d="M137.922,235.073c-1.354,0-2.474-1.07-2.522-2.436c-0.049-1.393,1.041-2.562,2.434-2.613l0.252-0.008
	c1.405-0.062,2.562,1.041,2.612,2.436c0.05,1.393-1.04,2.562-2.435,2.611l-0.251,0.008
	C137.983,235.073,137.952,235.073,137.922,235.073L137.922,235.073z M128.844,234.936c-0.051,0-0.101,0-0.152-0.004l-0.251-0.016
	c-1.393-0.08-2.454-1.275-2.373-2.666c0.081-1.393,1.28-2.449,2.668-2.375l0.254,0.016c1.391,0.082,2.454,1.277,2.371,2.668
	C131.282,233.901,130.169,234.936,128.844,234.936L128.844,234.936z M147.221,234.284c-1.25,0-2.334-0.928-2.5-2.199
	c-0.181-1.383,0.795-2.65,2.178-2.828l0.221-0.033c1.385-0.191,2.659,0.766,2.854,2.146c0.196,1.381-0.765,2.66-2.144,2.855
	l-0.281,0.039C147.44,234.278,147.33,234.284,147.221,234.284L147.221,234.284z M119.571,233.868c-0.138,0-0.278-0.01-0.418-0.033
	l-0.247-0.041c-1.376-0.23-2.306-1.529-2.078-2.904c0.228-1.377,1.528-2.307,2.904-2.08l0.251,0.045
	c1.375,0.229,2.304,1.527,2.075,2.904C121.853,232.995,120.783,233.868,119.571,233.868L119.571,233.868z M110.45,231.856
	c-0.224,0-0.451-0.029-0.677-0.094l-0.027-0.008l-0.188-0.051c-1.348-0.359-2.149-1.744-1.79-3.092
	c0.36-1.348,1.746-2.148,3.09-1.789l0.245,0.07c1.343,0.375,2.141,1.77,1.767,3.111C112.559,231.122,111.553,231.856,110.45,231.856
	L110.45,231.856z M101.59,228.917c-0.303,0-0.612-0.055-0.912-0.172l-0.241-0.092c-1.3-0.508-1.942-1.971-1.436-3.271
	c0.507-1.301,1.973-1.941,3.27-1.434l0.231,0.088c1.301,0.506,1.946,1.967,1.442,3.268
	C103.557,228.303,102.602,228.917,101.59,228.917L101.59,228.917z M64.195,201.784c-0.731,0-1.457-0.314-1.956-0.926l-0.147-0.18
	c-0.891-1.074-0.744-2.666,0.329-3.555c1.072-0.893,2.665-0.746,3.556,0.326l0.172,0.209c0.883,1.08,0.724,2.672-0.355,3.553
	C65.324,201.596,64.757,201.784,64.195,201.784L64.195,201.784z M209.321,196.573c-0.51,0-1.023-0.154-1.469-0.473
	c-1.135-0.814-1.395-2.391-0.58-3.523l0.129-0.182c0.801-1.143,2.375-1.42,3.517-0.621c1.142,0.801,1.421,2.375,0.619,3.516
	l-0.161,0.23C210.881,196.208,210.106,196.573,209.321,196.573L209.321,196.573z M58.639,194.282c-0.819,0-1.622-0.398-2.108-1.131
	l-0.139-0.211c-0.77-1.162-0.451-2.729,0.712-3.498c1.162-0.771,2.729-0.453,3.499,0.711l0.139,0.209
	c0.77,1.164,0.451,2.73-0.712,3.5C59.602,194.147,59.117,194.282,58.639,194.282L58.639,194.282z M214.327,188.692
	c-0.416,0-0.841-0.104-1.231-0.322c-1.216-0.68-1.649-2.219-0.969-3.436l0.124-0.221c0.682-1.217,2.22-1.65,3.438-0.971
	c1.217,0.682,1.65,2.221,0.969,3.438l-0.124,0.221C216.07,188.229,215.211,188.692,214.327,188.692L214.327,188.692z
	 M53.874,186.256c-0.907,0-1.784-0.492-2.236-1.35l-0.123-0.234c-0.643-1.24-0.162-2.764,1.076-3.408
	c1.239-0.641,2.762-0.16,3.405,1.078l0.111,0.211c0.65,1.232,0.176,2.76-1.058,3.41C54.673,186.161,54.271,186.256,53.874,186.256
	L53.874,186.256z M218.503,180.34c-0.337,0-0.68-0.068-1.009-0.211c-1.279-0.559-1.863-2.049-1.305-3.326l0.098-0.219
	c0.55-1.283,2.037-1.873,3.316-1.322c1.281,0.551,1.873,2.035,1.32,3.318l-0.105,0.244
	C220.404,179.774,219.477,180.34,218.503,180.34L218.503,180.34z M49.956,177.782c-0.998,0-1.943-0.596-2.341-1.578l-0.103-0.258
	c-0.511-1.297,0.127-2.764,1.424-3.273c1.297-0.512,2.764,0.125,3.275,1.424l0.084,0.211c0.524,1.293-0.1,2.766-1.392,3.289
	C50.592,177.721,50.271,177.782,49.956,177.782L49.956,177.782z M221.801,171.604c-0.256,0-0.516-0.039-0.771-0.121
	c-1.328-0.426-2.061-1.85-1.634-3.176l0.075-0.234c0.422-1.328,1.838-2.066,3.17-1.643c1.33,0.42,2.064,1.84,1.643,3.17
	l-0.078,0.248C223.861,170.92,222.869,171.604,221.801,171.604L221.801,171.604z M46.927,168.95c-1.098,0-2.108-0.723-2.426-1.83
	l-0.073-0.258c-0.376-1.344,0.407-2.736,1.749-3.111c1.343-0.379,2.737,0.406,3.113,1.748l0.065,0.23
	c0.384,1.338-0.391,2.736-1.731,3.121C47.391,168.917,47.157,168.95,46.927,168.95L46.927,168.95z M224.182,162.577
	c-0.172,0-0.348-0.021-0.523-0.057c-1.363-0.287-2.236-1.627-1.949-2.992l0.048-0.227c0.276-1.367,1.604-2.254,2.975-1.975
	c1.367,0.275,2.251,1.609,1.975,2.977l-0.056,0.266C226.401,161.758,225.352,162.577,224.182,162.577L224.182,162.577z
	 M44.824,159.852c-1.2,0-2.265-0.859-2.482-2.082l-0.048-0.275c-0.229-1.377,0.7-2.678,2.075-2.906
	c1.375-0.234,2.676,0.701,2.906,2.076l0.038,0.219c0.245,1.373-0.668,2.684-2.042,2.93C45.121,159.84,44.971,159.852,44.824,159.852
	L44.824,159.852z M225.623,153.352c-0.094,0-0.188-0.006-0.283-0.016c-1.387-0.156-2.384-1.404-2.229-2.789l0.023-0.225
	c0.139-1.387,1.379-2.4,2.764-2.26c1.388,0.139,2.399,1.375,2.262,2.764l-0.029,0.279
	C227.985,152.397,226.892,153.352,225.623,153.352L225.623,153.352z M43.664,150.59c-1.307,0-2.414-1.008-2.515-2.334l-0.019-0.266
	c-0.098-1.391,0.95-2.6,2.34-2.697c1.391-0.1,2.599,0.951,2.697,2.342l0.017,0.236c0.107,1.391-0.934,2.604-2.325,2.711
	C43.794,150.588,43.729,150.59,43.664,150.59L43.664,150.59z M56.342,96.9c-0.444,0-0.893-0.116-1.301-0.361
	c-1.194-0.72-1.579-2.272-0.859-3.468l0.129-0.213c0.719-1.195,2.27-1.582,3.466-0.864c1.195,0.72,1.581,2.271,0.862,3.466
	l-0.132,0.219C58.033,96.466,57.198,96.9,56.342,96.9L56.342,96.9z M61.543,89.146c-0.527,0-1.059-0.164-1.513-0.505
	c-1.115-0.836-1.342-2.418-0.505-3.535l0.155-0.207c0.839-1.112,2.423-1.335,3.536-0.495c1.114,0.839,1.336,2.423,0.497,3.535
	l-0.148,0.197C63.069,88.799,62.312,89.146,61.543,89.146L61.543,89.146z M207.072,87.94c-0.761,0-1.511-0.342-2.007-0.99
	l-0.137-0.176c-0.859-1.099-0.668-2.685,0.43-3.545s2.685-0.669,3.545,0.431l0.172,0.223c0.849,1.106,0.637,2.692-0.471,3.539
	C208.146,87.771,207.606,87.94,207.072,87.94L207.072,87.94z M67.508,81.961c-0.612,0-1.225-0.221-1.71-0.668
	c-1.026-0.943-1.092-2.541-0.147-3.567l0.186-0.201c0.953-1.018,2.55-1.071,3.569-0.118c1.019,0.953,1.072,2.551,0.119,3.568
	l-0.158,0.172C68.868,81.688,68.189,81.961,67.508,81.961L67.508,81.961z M200.991,80.854c-0.664,0-1.327-0.261-1.823-0.777
	l-0.181-0.189c-0.962-1.01-0.922-2.607,0.088-3.57c1.011-0.961,2.609-0.919,3.569,0.089l0.167,0.176
	c0.967,1.008,0.933,2.605-0.074,3.57C202.248,80.622,201.618,80.854,200.991,80.854L200.991,80.854z M74.194,75.37
	c-0.694,0-1.383-0.277-1.875-0.828c-0.927-1.041-0.87-2.605,0.171-3.535l0.182-0.159c1.038-0.934,2.634-0.845,3.565,0.191
	c0.932,1.037,0.845,2.635-0.192,3.566l-0.125,0.11C75.431,75.151,74.811,75.37,74.194,75.37L74.194,75.37z M194.221,74.422
	c-0.584,0-1.17-0.201-1.647-0.611l-0.175-0.15c-1.064-0.899-1.197-2.493-0.297-3.559c0.9-1.063,2.494-1.197,3.559-0.296l0.209,0.18
	c1.058,0.909,1.176,2.503,0.266,3.561C195.635,74.126,194.931,74.422,194.221,74.422L194.221,74.422z M81.462,69.585
	c-0.782,0-1.553-0.361-2.047-1.044c-0.818-1.128-0.566-2.706,0.563-3.524l0.231-0.166c1.139-0.803,2.714-0.533,3.519,0.607
	c0.803,1.141,0.531,2.717-0.609,3.52l-0.178,0.128C82.494,69.429,81.976,69.585,81.462,69.585L81.462,69.585z M186.833,68.711
	c-0.488,0-0.982-0.142-1.418-0.438l-0.188-0.129c-1.144-0.797-1.447-2.385-0.65-3.529c0.797-1.144,2.35-1.441,3.492-0.646
	L188.112,64l0.145,0.099c1.153,0.785,1.451,2.355,0.666,3.51C188.434,68.324,187.64,68.711,186.833,68.711L186.833,68.711z
	 M89.332,64.507c-0.879,0-1.736-0.451-2.2-1.264c-0.691-1.212-0.291-2.742,0.92-3.435l0.041-0.022l0.155-0.09
	c1.203-0.703,2.75-0.298,3.454,0.905c0.705,1.203,0.3,2.75-0.904,3.454l-0.202,0.116C90.198,64.398,89.763,64.507,89.332,64.507
	L89.332,64.507z M178.903,63.781c-0.418,0-0.84-0.104-1.23-0.321l-0.199-0.11c-1.225-0.669-1.674-2.204-1.006-3.427
	c0.67-1.226,2.203-1.675,3.428-1.004l0.245,0.134c1.216,0.681,1.649,2.22,0.968,3.437C180.646,63.315,179.788,63.781,178.903,63.781
	L178.903,63.781z M97.627,60.296c-0.962,0-1.881-0.555-2.303-1.487c-0.574-1.271-0.009-2.766,1.262-3.34l0.235-0.106
	c1.271-0.568,2.767-0.002,3.337,1.271c0.571,1.271,0.002,2.768-1.27,3.337l-0.224,0.101C98.328,60.223,97.975,60.296,97.627,60.296
	L97.627,60.296z M170.512,59.688c-0.335,0-0.676-0.066-1.003-0.209l-0.202-0.087c-1.287-0.536-1.895-2.016-1.355-3.302
	c0.535-1.286,2.018-1.894,3.302-1.357l0.265,0.112c1.279,0.555,1.867,2.04,1.312,3.32C172.418,59.118,171.488,59.688,170.512,59.688
	L170.512,59.688z M106.336,56.94c-1.057,0-2.042-0.671-2.395-1.729c-0.441-1.323,0.273-2.754,1.597-3.193l0.245-0.081
	c1.322-0.44,2.752,0.28,3.191,1.604c0.438,1.324-0.279,2.752-1.603,3.19l-0.236,0.078C106.871,56.896,106.602,56.94,106.336,56.94
	L106.336,56.94z M161.747,56.479c-0.244,0-0.492-0.035-0.737-0.11l-0.243-0.075c-1.333-0.406-2.084-1.816-1.678-3.152
	c0.406-1.333,1.821-2.083,3.15-1.679l0.243,0.075c1.335,0.406,2.086,1.816,1.679,3.152
	C163.829,55.776,162.829,56.479,161.747,56.479L161.747,56.479z"/>
<path fill="#BCBEC0" d="M68.62,113.032c-1.149,0-2.084,0.935-2.084,2.083c0,1.149,0.935,2.084,2.084,2.084s2.083-0.935,2.083-2.084
	C70.704,113.967,69.769,113.032,68.62,113.032L68.62,113.032z M60.33,108.4c-2.137,0-3.875,1.738-3.875,3.875
	c0,2.137,1.739,3.876,3.875,3.876c2.138,0,3.877-1.739,3.877-3.876C64.208,110.139,62.468,108.4,60.33,108.4L60.33,108.4z
	 M48.766,104.447c-2.981,0-5.406,2.425-5.406,5.405c0,2.979,2.425,5.403,5.406,5.403c2.98,0,5.404-2.424,5.404-5.403
	C54.17,106.872,51.746,104.447,48.766,104.447L48.766,104.447z M40.574,135.645h16.378l0.004-9.812
	c-0.001-4.468-3.675-8.142-8.191-8.142c-4.517,0-8.191,3.674-8.191,8.189V135.645L40.574,135.645z M72.049,122.894v4.167h-3.665
	l0-2.566c0-1.708-0.539-3.291-1.449-4.595c0.5-0.285,1.069-0.46,1.684-0.46C70.512,119.439,72.05,120.978,72.049,122.894z
	 M66.333,124.423l-0.005,7.271h-7.319l0.001-5.813c0-2.36-0.811-4.531-2.157-6.265c0.982-0.702,2.181-1.12,3.477-1.12
	C63.639,118.496,66.33,121.187,66.333,124.423z M28.911,113.032c-1.149,0-2.083,0.935-2.083,2.083c0,1.149,0.935,2.084,2.083,2.084
	s2.084-0.935,2.084-2.084C30.995,113.967,30.06,113.032,28.911,113.032L28.911,113.032z M37.201,108.4
	c-2.138,0-3.877,1.738-3.877,3.875c0,2.137,1.739,3.876,3.877,3.876c2.137,0,3.875-1.739,3.875-3.876
	C41.077,110.139,39.338,108.4,37.201,108.4L37.201,108.4z M28.911,119.439c0.615,0,1.185,0.175,1.684,0.46
	c-0.91,1.304-1.449,2.887-1.449,4.595l0,2.566h-3.665v-4.167C25.481,120.978,27.02,119.439,28.911,119.439z M37.201,118.496
	c1.296,0,2.495,0.418,3.477,1.12c-1.346,1.734-2.157,3.904-2.157,6.265l0.001,5.813h-7.319l-0.005-7.271
	C31.201,121.187,33.893,118.496,37.201,118.496z"/>
</svg>
