<?xml version="1.0" encoding="utf-8"?>
<!-- Generator: Adobe Illustrator 14.0.0, SVG Export Plug-In  -->
<!DOCTYPE svg PUBLIC "-//W3C//DTD SVG 1.1//EN" "http://www.w3.org/Graphics/SVG/1.1/DTD/svg11.dtd" [
	<!ENTITY ns_flows "http://ns.adobe.com/Flows/1.0/">
]>
<svg version="1.1"
	 xmlns="http://www.w3.org/2000/svg" xmlns:xlink="http://www.w3.org/1999/xlink" xmlns:a="http://ns.adobe.com/AdobeSVGViewerExtensions/3.0/"
	 x="0px" y="0px" width="270px" height="270px" viewBox="0 0 270 270" enable-background="new 0 0 270 270" xml:space="preserve">
<defs>
</defs>
<rect width="270" height="270"/>
<path fill="#BCBEC0" d="M51.348,122.437c-0.157-0.178-0.348-0.312-0.574-0.404c-0.225-0.095-0.479-0.142-0.764-0.142
	c-0.285,0-0.54,0.047-0.766,0.142c-0.227,0.093-0.418,0.227-0.576,0.404c-0.158,0.178-0.279,0.395-0.362,0.646
	c-0.084,0.254-0.125,0.538-0.125,0.855c0,0.322,0.041,0.608,0.125,0.86c0.083,0.253,0.205,0.47,0.362,0.644
	c0.157,0.178,0.349,0.312,0.576,0.404c0.226,0.093,0.481,0.14,0.766,0.14c0.285,0,0.539-0.047,0.764-0.14
	c0.226-0.093,0.417-0.227,0.574-0.404c0.158-0.174,0.279-0.391,0.362-0.644c0.083-0.252,0.125-0.538,0.125-0.86
	c0-0.317-0.042-0.602-0.125-0.855C51.626,122.831,51.505,122.614,51.348,122.437z"/>
<path fill="#BCBEC0" d="M85.323,113.687v-9.54H26.04v9.548c3.24,0.087,5.84,2.733,5.84,5.994s-2.6,5.908-5.84,5.995v9.548h59.284
	v-9.541c-3.315,0-6.001-2.687-6.001-6.003C79.322,116.373,82.008,113.687,85.323,113.687z M76.55,129.225
	c0,1.348-1.095,2.444-2.442,2.444H37.255c-1.346,0-2.44-1.097-2.44-2.444v-19.071c0-1.346,1.095-2.442,2.44-2.442h36.853
	c1.347,0,2.442,1.097,2.442,2.442V129.225z"/>
<path fill="#BCBEC0" d="M44.936,114.023c-0.043-0.13-0.084-0.274-0.124-0.426c-0.039,0.155-0.081,0.3-0.124,0.434
	c-0.043,0.132-0.085,0.247-0.125,0.344l-0.652,1.852h1.805l-0.658-1.86C45.021,114.27,44.979,114.153,44.936,114.023z"/>
<path fill="#BCBEC0" d="M74.108,109.214H37.255c-0.518,0-0.938,0.42-0.938,0.939v19.071c0,0.519,0.421,0.939,0.938,0.939h36.853
	c0.518,0,0.939-0.421,0.939-0.939v-19.071C75.047,109.634,74.626,109.214,74.108,109.214z M62.728,112.459h1.265v6.074h-1.265
	V112.459z M46.586,118.456c-0.069-0.05-0.119-0.118-0.153-0.199l-0.411-1.16h-2.419l-0.411,1.16
	c-0.027,0.069-0.076,0.132-0.146,0.189c-0.069,0.059-0.158,0.087-0.264,0.087h-0.983l2.374-6.074h1.286l2.369,6.074h-0.975
	C46.742,118.533,46.655,118.507,46.586,118.456z M52.896,125.175c-0.148,0.379-0.359,0.708-0.632,0.982
	c-0.271,0.276-0.599,0.495-0.981,0.651c-0.383,0.157-0.807,0.238-1.273,0.238s-0.891-0.081-1.273-0.238
	c-0.382-0.156-0.71-0.375-0.983-0.651c-0.275-0.274-0.485-0.604-0.635-0.982c-0.149-0.381-0.224-0.791-0.224-1.237
	c0-0.443,0.075-0.854,0.224-1.232c0.149-0.377,0.36-0.706,0.635-0.982c0.273-0.274,0.601-0.491,0.983-0.649
	c0.382-0.157,0.807-0.236,1.273-0.236s0.89,0.079,1.273,0.236c0.382,0.158,0.71,0.375,0.981,0.653
	c0.272,0.276,0.483,0.605,0.632,0.982c0.149,0.379,0.225,0.789,0.225,1.229C53.121,124.384,53.046,124.794,52.896,125.175z
	 M53.612,116.718c-0.15,0.373-0.361,0.694-0.633,0.961c-0.272,0.269-0.6,0.478-0.982,0.627c-0.382,0.152-0.807,0.228-1.273,0.228
	h-2.336v-6.074h2.336c0.466,0,0.891,0.075,1.273,0.223c0.382,0.154,0.709,0.363,0.982,0.634c0.271,0.269,0.483,0.588,0.633,0.959
	c0.149,0.372,0.223,0.776,0.223,1.219C53.835,115.937,53.761,116.346,53.612,116.718z M59.247,126.979h-0.649
	c-0.098,0-0.18-0.018-0.247-0.049c-0.068-0.029-0.133-0.089-0.197-0.168l-3.027-3.849c0.008,0.097,0.015,0.195,0.019,0.288
	c0.004,0.095,0.007,0.182,0.007,0.263v3.515h-1.111v-6.077h0.662c0.053,0,0.099,0.004,0.136,0.008
	c0.038,0.004,0.072,0.014,0.103,0.027c0.03,0.018,0.06,0.037,0.088,0.062c0.028,0.025,0.059,0.059,0.092,0.101l3.048,3.868
	c-0.011-0.106-0.02-0.207-0.025-0.306c-0.005-0.101-0.009-0.195-0.009-0.284v-3.476h1.11V126.979z M58.641,117.574
	c-0.094,0.182-0.241,0.272-0.438,0.272h-0.177c-0.098,0-0.184-0.024-0.259-0.069c-0.074-0.047-0.136-0.114-0.18-0.203l-1.746-3.309
	c0.008,0.099,0.016,0.193,0.02,0.282c0.005,0.093,0.009,0.178,0.009,0.255v3.73h-1.11v-6.074h0.954c0.054,0,0.101,0,0.143,0.004
	c0.043,0.002,0.08,0.01,0.112,0.023c0.031,0.013,0.061,0.032,0.087,0.058c0.027,0.027,0.052,0.063,0.078,0.11l1.699,3.239
	c0.053,0.099,0.103,0.199,0.148,0.302c0.046,0.104,0.091,0.211,0.132,0.321c0.042-0.112,0.086-0.223,0.132-0.327
	c0.046-0.106,0.096-0.209,0.148-0.308l1.688-3.228c0.024-0.047,0.051-0.083,0.079-0.11c0.028-0.025,0.058-0.045,0.09-0.058
	c0.033-0.014,0.068-0.021,0.109-0.023c0.04-0.004,0.088-0.004,0.145-0.004h0.955v6.074h-1.11v-3.73c0-0.077,0.002-0.162,0.007-0.251
	c0.004-0.091,0.011-0.182,0.022-0.273L58.641,117.574z M64.387,121.889h-2.604v1.561h2.026v0.95h-2.026v1.596h2.604v0.984h-3.869
	v-6.077h3.869V121.889z M69.564,113.471H67.79v5.062h-1.26v-5.062h-1.775v-1.012h4.81V113.471z"/>
<path fill="#BCBEC0" d="M52.06,113.992c-0.157-0.178-0.347-0.314-0.572-0.408c-0.225-0.093-0.479-0.143-0.764-0.143h-1.071v4.107
	h1.071c0.285,0,0.54-0.048,0.764-0.141c0.225-0.095,0.415-0.229,0.572-0.406c0.156-0.176,0.276-0.393,0.359-0.646
	c0.083-0.255,0.126-0.541,0.126-0.862c0-0.317-0.042-0.604-0.126-0.86C52.336,114.381,52.216,114.165,52.06,113.992z"/>
<path fill="#FFFFFF" d="M157.74,101.532c-0.715-0.592-5.019-5.576-5.83-6.758c-0.494-0.725-0.703-1.6-1.568-1.6
	c-1.082,0-1.082,1.081-1.082,1.081v27.558c-0.073,2.012-1.812,1.168-1.812,1.168v0.002c-2.314-0.943-5.336-1.062-8.377-0.118
	c-5.556,1.722-9.065,6.326-7.838,10.279c1.227,3.953,6.722,5.76,12.277,4.041c1.912-0.594,3.584-1.529,4.901-2.66l0,0
	c0,0,2.397-1.996,3.179-3.805c0.583-1.337,0.631-3.628,0.631-3.628v-21.746c0,0,0-1.227,1.439-1.12
	c1.44,0.108,3.254,1.654,4.371,2.718c1.121,1.067,4.408,5.229,4.159,9.571c-0.063,1.106-0.14,2.282-0.132,2.667
	c0.025,0.963,0.879,1.52,1.519,0.986c0.642-0.532,1.327-3.363,1.442-4.557C165.639,108.987,158.699,102.331,157.74,101.532z"/>
<path fill="#FFFFFF" d="M170.077,145.88c-1.657-2.76-5.082-1.438-5.413-0.994c-0.332,0.441-6.846,5.963-12.367,7.84
	c-5.523,1.879-8.614,3.645-21.865-0.221c0,0-2.873-0.33-2.983-1.768c-0.11-1.434,1.215-1.434,2.872-1.654
	c1.576-0.211,16.269,0.018,16.361,0.018c2.007,0,3.633-1.627,3.633-3.633c0-2.01-1.626-3.637-3.633-3.637
	c-0.079,0-0.154,0.018-0.235,0.023v-0.061h-27.28c0,0-4.417,0.459-7.73,2.385c-3.313,1.922-8.945,6.959-10.16,9.078
	c-1.215,2.121-1.968,2.561-2.098,3.887c0,0-0.827,3.037,1.656,5.521c2.484,2.484,5.301,1.988,7.73,1.326
	c2.429-0.664,4.858-1.766,7.73-0.996c2.872,0.773,15.571,2.982,17.78,3.426c2.209,0.441,8.173,1.768,13.142-0.773
	c4.971-2.541,16.784-8.723,21.313-14.355C168.53,151.292,171.732,148.64,170.077,145.88z"/>
<path fill="#BCBEC0" d="M149.039,44.436V63.91c0,3.75-3.226,6.808-7.189,6.808h-2.986v-0.572h-7.404v0.572h-2.987
	c-3.965,0-7.188-3.058-7.188-6.808V44.436h-2.961V63.91c0,5.383,4.554,9.771,10.149,9.771h2.987v4.693h0.925v3.354h5.555v-3.354
	h0.924v-4.693h2.986c5.596,0,10.154-4.388,10.154-9.771V44.436H149.039z"/>
<rect x="115.684" y="45.468" fill="#BCBEC0" width="1.921" height="3.977"/>
<rect x="152.667" y="45.468" fill="#BCBEC0" width="1.92" height="3.977"/>
<path fill="#BCBEC0" d="M140.244,57.337c-0.471,0-0.849-0.377-0.849-0.844c0-0.47,0.378-0.851,0.849-0.851h6.591v-2.073h-6.591
	c-0.471,0-0.849-0.379-0.849-0.842c0-0.472,0.378-0.851,0.849-0.851h6.591v-2.071h-6.591c-0.471,0-0.849-0.379-0.849-0.847
	c0-0.465,0.378-0.844,0.849-0.844h6.591V46.04h-6.591c-0.471,0-0.849-0.379-0.849-0.843c0-0.472,0.378-0.846,0.849-0.846h6.591
	v-2.075h-6.591c-0.471,0-0.849-0.379-0.849-0.845c0-0.474,0.378-0.851,0.849-0.851h6.591V38.51h-6.591
	c-0.471,0-0.849-0.376-0.849-0.844c0-0.47,0.378-0.851,0.849-0.851h6.591v-4.048c0-2.694-1.615-5.009-3.938-6.032v6.535
	c0,0.466-0.381,0.849-0.844,0.849c-0.466,0-0.845-0.383-0.845-0.849v-7.022c-0.313-0.045-0.638-0.069-0.964-0.069h-0.859v7.092
	c0,0.466-0.378,0.849-0.846,0.849c-0.469,0-0.848-0.383-0.848-0.849v-7.092h-1.819v7.092c0,0.466-0.381,0.849-0.847,0.849
	c-0.473,0-0.852-0.383-0.852-0.849v-7.092h-1.823v7.092c0,0.466-0.375,0.849-0.846,0.849c-0.464,0-0.843-0.383-0.843-0.849v-7.092
	h-0.582c-0.428,0-0.842,0.04-1.241,0.117v6.975c0,0.466-0.376,0.849-0.844,0.849c-0.469,0-0.844-0.383-0.844-0.849v-6.405
	c-2.17,1.083-3.661,3.318-3.661,5.902v4.048h6.263c0.47,0,0.846,0.381,0.846,0.851c0,0.468-0.376,0.844-0.846,0.844h-6.263v2.071
	h6.263c0.47,0,0.846,0.377,0.846,0.851c0,0.466-0.376,0.845-0.846,0.845h-6.263v2.075h6.263c0.47,0,0.846,0.374,0.846,0.846
	c0,0.464-0.376,0.843-0.846,0.843h-6.263v2.075h6.263c0.47,0,0.846,0.379,0.846,0.844c0,0.468-0.376,0.847-0.846,0.847h-6.263v2.071
	h6.263c0.47,0,0.846,0.379,0.846,0.851c0,0.463-0.376,0.842-0.846,0.842h-6.263v2.073h6.263c0.47,0,0.846,0.381,0.846,0.851
	c0,0.467-0.376,0.844-0.846,0.844h-6.263v3.297c0,2.584,1.491,4.821,3.661,5.897v-5.647c0-0.47,0.375-0.846,0.844-0.846
	c0.468,0,0.844,0.376,0.844,0.846v6.218c0.399,0.081,0.813,0.116,1.241,0.116h0.582v-6.334c0-0.47,0.379-0.846,0.843-0.846
	c0.471,0,0.846,0.376,0.846,0.846v6.334h1.823v-6.334c0-0.47,0.378-0.846,0.852-0.846c0.466,0,0.847,0.376,0.847,0.846v6.334h1.819
	v-6.334c0-0.47,0.379-0.846,0.848-0.846c0.468,0,0.846,0.376,0.846,0.846v6.334h0.859c0.326,0,0.65-0.023,0.964-0.066v-6.268
	c0-0.47,0.379-0.846,0.845-0.846c0.463,0,0.844,0.376,0.844,0.846v5.78c2.323-1.022,3.938-3.342,3.938-6.03v-3.297H140.244z"/>
<path fill="#BCBEC0" d="M163.677,207.71c-0.629-0.627-1.406-1.123-2.33-1.482c-0.925-0.361-1.988-0.541-3.193-0.541
	c-0.412,0-0.838,0.02-1.276,0.062c-0.438,0.041-0.895,0.109-1.371,0.203l0.745-4.303h5.944c0.464,0,0.858-0.049,1.179-0.148
	c0.323-0.1,0.588-0.242,0.794-0.422c0.206-0.184,0.353-0.398,0.444-0.646c0.088-0.244,0.133-0.52,0.133-0.824v-1.82h-11.537
	L151.275,209l2.711,0.754c1.078-0.396,2.15-0.598,3.217-0.598c1.301,0,2.291,0.322,2.973,0.965c0.681,0.646,1.021,1.559,1.021,2.74
	c0,0.617-0.082,1.195-0.246,1.736c-0.164,0.539-0.412,1.004-0.744,1.396c-0.333,0.393-0.753,0.703-1.26,0.928
	c-0.508,0.225-1.105,0.338-1.791,0.338c-0.666,0-1.231-0.086-1.697-0.254c-0.464-0.166-0.871-0.354-1.219-0.557
	c-0.35-0.205-0.66-0.391-0.936-0.557s-0.555-0.252-0.84-0.252c-0.455,0-0.824,0.193-1.109,0.58l-1.348,1.824
	c0.392,0.365,0.834,0.715,1.332,1.051c0.496,0.336,1.032,0.631,1.608,0.887c0.576,0.258,1.196,0.461,1.862,0.611
	c0.664,0.152,1.363,0.23,2.091,0.23c1.259,0,2.417-0.199,3.479-0.598c1.062-0.396,1.975-0.955,2.742-1.674
	c0.766-0.717,1.365-1.574,1.799-2.574c0.433-1,0.649-2.107,0.649-3.32c0-0.975-0.159-1.883-0.476-2.732
	C164.778,209.078,164.305,208.339,163.677,207.71z"/>
<path fill="#BCBEC0" d="M194.111,219.812c-0.629-0.629-1.406-1.123-2.33-1.484s-1.99-0.543-3.193-0.543
	c-0.412,0-0.838,0.021-1.275,0.064c-0.439,0.041-0.896,0.109-1.371,0.203l0.744-4.301h5.943c0.465,0,0.857-0.051,1.182-0.15
	c0.32-0.098,0.585-0.24,0.791-0.424c0.207-0.184,0.354-0.398,0.444-0.643c0.089-0.248,0.135-0.521,0.135-0.826v-1.82h-8.863
	l4.663-12.01h-2.752c-0.745,0-1.406,0.193-1.98,0.578c-0.575,0.385-0.996,0.924-1.26,1.615l-1.129,2.896
	c-0.389-1.008-0.868-1.874-1.441-2.597c-0.762-0.957-1.662-1.67-2.703-2.135c-1.04-0.465-2.162-0.697-3.367-0.697
	s-2.324,0.232-3.359,0.697s-1.93,1.178-2.679,2.135c-0.751,0.959-1.339,2.168-1.768,3.627c-0.428,1.461-0.642,3.186-0.642,5.176
	c0,1.988,0.214,3.713,0.642,5.18c0.429,1.465,1.017,2.676,1.768,3.635c0.749,0.957,1.644,1.67,2.679,2.135s2.154,0.701,3.359,0.701
	c0.188,0,0.372-0.016,0.557-0.027l-5.369,13.766h2.728c0.669,0,1.325-0.195,1.971-0.588c0.646-0.395,1.114-0.975,1.411-1.746
	l4.296-11.064l2.479,0.689c1.078-0.398,2.15-0.598,3.218-0.598c1.299,0,2.29,0.32,2.972,0.967c0.681,0.643,1.021,1.557,1.021,2.74
	c0,0.617-0.081,1.195-0.245,1.732c-0.164,0.541-0.412,1.008-0.745,1.398c-0.333,0.393-0.753,0.701-1.261,0.926
	c-0.507,0.225-1.104,0.338-1.79,0.338c-0.665,0-1.231-0.084-1.695-0.25c-0.466-0.168-0.872-0.354-1.222-0.559
	c-0.348-0.203-0.66-0.389-0.935-0.557s-0.554-0.252-0.841-0.252c-0.453,0-0.822,0.195-1.107,0.582l-1.348,1.82
	c0.391,0.367,0.834,0.719,1.332,1.053c0.496,0.334,1.031,0.629,1.607,0.887c0.576,0.256,1.197,0.461,1.863,0.613
	c0.665,0.152,1.361,0.227,2.092,0.227c1.256,0,2.416-0.199,3.478-0.596c1.062-0.398,1.977-0.957,2.741-1.674
	c0.768-0.715,1.367-1.576,1.8-2.574c0.433-1,0.649-2.105,0.649-3.32c0-0.973-0.158-1.885-0.475-2.732
	C195.212,221.175,194.738,220.439,194.111,219.812z M177.83,216.929c-0.482,0.24-0.975,0.361-1.482,0.361
	c-0.507,0-0.996-0.121-1.465-0.361c-0.473-0.24-0.889-0.664-1.254-1.273c-0.364-0.607-0.656-1.434-0.879-2.48
	c-0.221-1.045-0.332-2.381-0.332-4.002c0-1.613,0.111-2.941,0.332-3.99c0.223-1.047,0.515-1.873,0.879-2.48
	c0.365-0.605,0.781-1.029,1.254-1.271c0.469-0.24,0.958-0.359,1.465-0.359c0.508,0,1,0.119,1.482,0.359
	c0.48,0.242,0.904,0.666,1.275,1.271c0.369,0.607,0.668,1.434,0.896,2.48c0.227,1.049,0.34,2.377,0.34,3.99
	c0,1.338-0.082,2.47-0.235,3.415l-1.42,3.639C178.422,216.535,178.139,216.775,177.83,216.929z"/>
<path fill="#BCBEC0" d="M214.64,216.099c-0.433-1.463-1.029-2.672-1.789-3.629c-0.762-0.959-1.662-1.668-2.703-2.137
	c-1.041-0.465-2.163-0.697-3.367-0.697c-1.205,0-2.325,0.232-3.361,0.697c-1.035,0.469-1.927,1.178-2.678,2.137
	c-0.75,0.957-1.339,2.166-1.766,3.629c-0.428,1.459-0.644,3.184-0.644,5.172s0.216,3.717,0.644,5.182
	c0.427,1.467,1.016,2.678,1.766,3.635c0.751,0.957,1.643,1.67,2.678,2.135c1.036,0.467,2.156,0.699,3.361,0.699
	c1.204,0,2.326-0.232,3.367-0.699c1.041-0.465,1.941-1.178,2.703-2.135c0.76-0.957,1.356-2.168,1.789-3.635
	c0.435-1.465,0.651-3.193,0.651-5.182S215.075,217.558,214.64,216.099z M210.433,225.275c-0.227,1.049-0.525,1.875-0.896,2.48
	c-0.369,0.607-0.796,1.031-1.275,1.271c-0.48,0.24-0.975,0.361-1.481,0.361c-0.508,0-0.996-0.121-1.467-0.361
	c-0.47-0.24-0.888-0.664-1.252-1.271c-0.363-0.605-0.658-1.432-0.879-2.48c-0.223-1.047-0.333-2.381-0.333-4.004
	c0-1.611,0.11-2.941,0.333-3.988c0.221-1.047,0.516-1.873,0.879-2.48c0.364-0.607,0.782-1.031,1.252-1.271
	c0.471-0.242,0.959-0.361,1.467-0.361c0.507,0,1.001,0.119,1.481,0.361c0.479,0.24,0.906,0.664,1.275,1.271
	c0.37,0.607,0.669,1.434,0.896,2.48s0.342,2.377,0.342,3.988C210.775,222.894,210.66,224.228,210.433,225.275z"/>
<path fill="#BCBEC0" d="M223.326,113.294c-1.26,0-2.287,1.029-2.287,2.288c0,1.261,1.027,2.288,2.287,2.288
	c1.264,0,2.289-1.027,2.289-2.288C225.615,114.323,224.589,113.294,223.326,113.294z"/>
<path fill="#BCBEC0" d="M223.326,90.46c-13.873,0-25.121,11.25-25.121,25.122c0,13.871,11.248,25.121,25.121,25.121
	c13.874,0,25.123-11.25,25.123-25.121C248.449,101.71,237.2,90.46,223.326,90.46z M215.679,135.208
	c-0.127,0.295-0.416,0.475-0.717,0.475c-0.107,0-0.209-0.025-0.312-0.066c-8.012-3.467-13.188-11.345-13.188-20.077
	c0-0.428,0.351-0.779,0.781-0.779c0.434,0,0.785,0.352,0.785,0.779c0,8.106,4.806,15.421,12.242,18.639
	C215.669,134.349,215.85,134.812,215.679,135.208z M217.23,131.732c-0.127,0.298-0.418,0.48-0.721,0.48
	c-0.102,0-0.205-0.02-0.307-0.062c-6.613-2.799-10.891-9.25-10.891-16.432c0-0.432,0.35-0.783,0.783-0.783
	c0.43,0,0.781,0.352,0.781,0.783c0,6.552,3.9,12.436,9.936,14.992C217.21,130.878,217.398,131.338,217.23,131.732z M218.611,128.343
	c-0.125,0.298-0.416,0.476-0.721,0.476c-0.102,0-0.203-0.016-0.305-0.06c-5.215-2.205-8.584-7.293-8.584-12.958
	c0-0.428,0.35-0.779,0.781-0.779c0.434,0,0.781,0.352,0.781,0.779c0,5.038,2.996,9.556,7.631,11.517
	C218.593,127.486,218.779,127.942,218.611,128.343z M223.326,124.8c-5.091,0-9.217-4.129-9.217-9.218
	c0-5.092,4.126-9.219,9.217-9.219c5.092,0,9.219,4.127,9.219,9.219C232.544,120.671,228.417,124.8,223.326,124.8z M236.866,116.104
	c-0.433,0-0.784-0.355-0.784-0.783c0-5.034-2.994-9.554-7.631-11.515c-0.396-0.171-0.582-0.625-0.416-1.025
	c0.17-0.398,0.627-0.584,1.025-0.414c5.215,2.207,8.588,7.289,8.588,12.954C237.648,115.749,237.296,116.104,236.866,116.104z
	 M240.553,116.191c-0.432,0-0.782-0.352-0.782-0.785c0-6.551-3.9-12.438-9.939-14.99c-0.396-0.17-0.584-0.625-0.414-1.021
	c0.166-0.398,0.627-0.584,1.023-0.419c6.618,2.798,10.894,9.248,10.894,16.431C241.334,115.84,240.984,116.191,240.553,116.191z
	 M244.404,116.363c-0.432,0-0.783-0.348-0.783-0.781c0-8.1-4.807-15.421-12.246-18.636c-0.397-0.172-0.578-0.634-0.406-1.032
	c0.171-0.395,0.629-0.575,1.029-0.402c8.01,3.464,13.186,11.341,13.186,20.07C245.183,116.016,244.835,116.363,244.404,116.363z"/>
<path fill="#BCBEC0" d="M82.345,215.873c-5.106,0-9.26,4.154-9.26,9.26c0,5.109,4.154,9.264,9.26,9.264
	c5.107,0,9.263-4.154,9.263-9.264C91.607,220.027,87.452,215.873,82.345,215.873z M84.526,227.316v4.373h-4.363v-4.373H75.79v-4.365
	h4.373v-4.373h4.363v4.373h4.375v4.365H84.526z M94.958,200.777c-0.115,1.217-0.819,4.111-1.471,4.652
	c-0.654,0.541-1.524-0.027-1.551-1.01c-0.008-0.389,0.071-1.592,0.136-2.721c0.251-4.434-3.1-8.68-4.245-9.77
	c-1.142-1.082-2.993-2.662-4.461-2.775c-1.469-0.105-1.469,1.146-1.469,1.146v22.193c0,0-0.001,0.039-0.002,0.07
	c-6.151,0.219-11.183,4.861-12.008,10.844c-4.479,0.383-8.39-1.451-9.411-4.736c-1.252-4.037,2.33-8.734,7.998-10.488
	c3.106-0.967,6.189-0.846,8.551,0.115c0,0,1.774,0.863,1.851-1.189V178.98c0,0,0-1.102,1.103-1.102c0.883,0,1.096,0.895,1.602,1.629
	c0.828,1.205,5.221,6.295,5.948,6.9C88.509,187.224,95.591,194.017,94.958,200.777z"/>
<path fill="#BCBEC0" d="M138.362,234.396c-1.354,0-2.475-1.072-2.522-2.436c-0.05-1.395,1.04-2.564,2.435-2.611l0.251-0.01
	c1.405-0.064,2.563,1.039,2.612,2.434c0.05,1.395-1.04,2.564-2.434,2.611l-0.252,0.01
	C138.421,234.394,138.391,234.396,138.362,234.396L138.362,234.396z M129.283,234.261c-0.051,0-0.101-0.002-0.152-0.004
	l-0.251-0.016c-1.393-0.084-2.454-1.277-2.373-2.67c0.081-1.393,1.28-2.447,2.668-2.373l0.254,0.016
	c1.391,0.082,2.454,1.277,2.371,2.67C131.721,233.226,130.608,234.261,129.283,234.261L129.283,234.261z M147.661,233.607
	c-1.25,0-2.335-0.926-2.5-2.199c-0.182-1.383,0.795-2.648,2.178-2.83l0.221-0.029c1.385-0.193,2.658,0.766,2.854,2.145
	c0.197,1.381-0.764,2.658-2.144,2.855l-0.28,0.037C147.878,233.599,147.768,233.607,147.661,233.607L147.661,233.607z
	 M120.01,233.191c-0.138,0-0.278-0.012-0.418-0.035l-0.247-0.039c-1.376-0.229-2.306-1.529-2.078-2.904
	c0.228-1.377,1.528-2.305,2.904-2.078l0.251,0.041c1.375,0.229,2.304,1.531,2.075,2.906
	C122.292,232.316,121.222,233.191,120.01,233.191L120.01,233.191z M110.889,231.179c-0.224,0-0.451-0.029-0.677-0.092l-0.027-0.008
	l-0.188-0.053c-1.348-0.359-2.149-1.742-1.79-3.09c0.36-1.348,1.746-2.15,3.09-1.789l0.245,0.066
	c1.343,0.375,2.141,1.771,1.767,3.115C112.998,230.445,111.992,231.179,110.889,231.179L110.889,231.179z M102.029,228.24
	c-0.303,0-0.612-0.055-0.912-0.172l-0.241-0.094c-1.3-0.508-1.942-1.971-1.436-3.27c0.507-1.299,1.973-1.941,3.27-1.436l0.231,0.09
	c1.301,0.504,1.946,1.967,1.442,3.268C103.996,227.626,103.041,228.24,102.029,228.24L102.029,228.24z M64.634,201.107
	c-0.731,0-1.457-0.316-1.956-0.926l-0.147-0.18c-0.891-1.072-0.744-2.664,0.329-3.557c1.072-0.891,2.665-0.744,3.556,0.33
	l0.172,0.209c0.883,1.078,0.724,2.668-0.355,3.553C65.763,200.921,65.196,201.107,64.634,201.107L64.634,201.107z M209.76,195.896
	c-0.511,0-1.024-0.154-1.469-0.473c-1.135-0.812-1.395-2.391-0.58-3.523l0.128-0.184c0.801-1.141,2.375-1.418,3.517-0.619
	c1.143,0.799,1.421,2.373,0.619,3.516l-0.161,0.23C211.321,195.529,210.545,195.896,209.76,195.896L209.76,195.896z M59.078,193.605
	c-0.819,0-1.622-0.396-2.108-1.131l-0.139-0.211c-0.77-1.162-0.451-2.729,0.712-3.5c1.162-0.771,2.729-0.449,3.499,0.713
	l0.139,0.211c0.77,1.162,0.451,2.729-0.712,3.5C60.041,193.47,59.556,193.605,59.078,193.605L59.078,193.605z M214.766,188.015
	c-0.417,0-0.842-0.104-1.232-0.32c-1.216-0.684-1.649-2.223-0.969-3.439l0.125-0.221c0.682-1.217,2.219-1.648,3.437-0.969
	c1.217,0.682,1.651,2.219,0.97,3.438l-0.125,0.221C216.508,187.55,215.651,188.015,214.766,188.015L214.766,188.015z
	 M54.312,185.578c-0.907,0-1.784-0.492-2.236-1.35l-0.123-0.234c-0.643-1.236-0.162-2.762,1.076-3.404
	c1.239-0.643,2.762-0.162,3.405,1.074l0.111,0.211c0.65,1.234,0.176,2.762-1.058,3.41C55.112,185.482,54.709,185.578,54.312,185.578
	L54.312,185.578z M218.942,179.664c-0.337,0-0.68-0.068-1.009-0.213c-1.278-0.559-1.862-2.045-1.304-3.324l0.097-0.221
	c0.55-1.283,2.038-1.871,3.317-1.32c1.281,0.551,1.873,2.037,1.32,3.316l-0.106,0.246
	C220.842,179.097,219.916,179.664,218.942,179.664L218.942,179.664z M50.395,177.105c-0.998,0-1.943-0.596-2.341-1.578l-0.103-0.258
	c-0.511-1.299,0.127-2.764,1.424-3.275c1.297-0.51,2.764,0.127,3.275,1.424l0.084,0.213c0.524,1.293-0.1,2.764-1.392,3.289
	C51.031,177.044,50.71,177.105,50.395,177.105L50.395,177.105z M222.24,170.927c-0.255,0-0.515-0.041-0.771-0.121
	c-1.327-0.428-2.06-1.848-1.634-3.176l0.075-0.234c0.423-1.328,1.839-2.066,3.171-1.645c1.329,0.424,2.064,1.842,1.643,3.172
	l-0.079,0.25C224.299,170.244,223.307,170.927,222.24,170.927L222.24,170.927z M47.366,168.271c-1.098,0-2.108-0.721-2.426-1.83
	l-0.073-0.256c-0.376-1.342,0.407-2.736,1.749-3.113c1.343-0.379,2.737,0.406,3.113,1.75l0.065,0.229
	c0.384,1.342-0.391,2.738-1.731,3.123C47.83,168.24,47.596,168.271,47.366,168.271L47.366,168.271z M224.622,161.898
	c-0.173,0-0.348-0.018-0.523-0.055c-1.364-0.289-2.237-1.629-1.949-2.992l0.047-0.229c0.276-1.365,1.604-2.254,2.975-1.973
	c1.367,0.277,2.252,1.607,1.975,2.975l-0.055,0.27C226.84,161.083,225.791,161.898,224.622,161.898L224.622,161.898z
	 M45.263,159.175c-1.2,0-2.265-0.857-2.482-2.08l-0.048-0.279c-0.229-1.375,0.7-2.676,2.075-2.906
	c1.375-0.234,2.676,0.701,2.906,2.076l0.038,0.221c0.245,1.373-0.668,2.686-2.042,2.93C45.56,159.162,45.41,159.175,45.263,159.175
	L45.263,159.175z M226.061,152.673c-0.094,0-0.188-0.004-0.283-0.016c-1.387-0.154-2.383-1.402-2.229-2.789l0.023-0.223
	c0.139-1.387,1.378-2.4,2.764-2.262c1.387,0.139,2.398,1.377,2.261,2.764l-0.029,0.281
	C228.424,151.72,227.331,152.673,226.061,152.673L226.061,152.673z M44.103,149.912c-1.307,0-2.414-1.006-2.515-2.332l-0.019-0.266
	c-0.098-1.391,0.95-2.598,2.34-2.697c1.391-0.1,2.599,0.951,2.697,2.342l0.017,0.236c0.107,1.391-0.934,2.605-2.325,2.711
	C44.233,149.91,44.167,149.912,44.103,149.912L44.103,149.912z M56.781,96.225c-0.444,0-0.893-0.117-1.301-0.363
	c-1.194-0.72-1.579-2.272-0.859-3.466l0.129-0.215c0.719-1.194,2.27-1.581,3.466-0.862c1.195,0.718,1.581,2.271,0.862,3.464
	l-0.132,0.221C58.472,95.788,57.637,96.225,56.781,96.225L56.781,96.225z M61.982,88.47c-0.527,0-1.059-0.166-1.513-0.505
	c-1.115-0.837-1.342-2.421-0.505-3.535l0.155-0.207c0.839-1.112,2.423-1.338,3.536-0.497c1.114,0.838,1.336,2.422,0.497,3.537
	l-0.148,0.197C63.508,88.12,62.75,88.47,61.982,88.47L61.982,88.47z M207.51,87.265c-0.76,0-1.51-0.342-2.007-0.992l-0.136-0.176
	c-0.86-1.097-0.669-2.685,0.43-3.545c1.097-0.86,2.684-0.667,3.545,0.43l0.172,0.224c0.848,1.108,0.636,2.692-0.472,3.54
	C208.584,87.095,208.045,87.265,207.51,87.265L207.51,87.265z M67.947,81.283c-0.612,0-1.225-0.221-1.71-0.667
	c-1.026-0.944-1.092-2.543-0.147-3.568l0.186-0.199c0.953-1.02,2.55-1.071,3.569-0.118c1.019,0.951,1.072,2.549,0.119,3.568
	l-0.158,0.17C69.307,81.009,68.628,81.283,67.947,81.283L67.947,81.283z M201.429,80.179c-0.664,0-1.327-0.261-1.823-0.777
	l-0.18-0.189c-0.963-1.01-0.923-2.609,0.088-3.57c1.01-0.961,2.609-0.922,3.568,0.089l0.168,0.176
	c0.966,1.006,0.932,2.604-0.074,3.57C202.686,79.945,202.057,80.179,201.429,80.179L201.429,80.179z M74.633,74.692
	c-0.694,0-1.383-0.276-1.875-0.828c-0.927-1.042-0.87-2.606,0.171-3.533l0.182-0.162c1.038-0.931,2.634-0.844,3.565,0.193
	c0.932,1.038,0.845,2.634-0.192,3.564l-0.125,0.113C75.87,74.476,75.25,74.692,74.633,74.692L74.633,74.692z M194.66,73.746
	c-0.584,0-1.169-0.201-1.647-0.614l-0.174-0.147c-1.064-0.901-1.197-2.493-0.297-3.559s2.493-1.197,3.559-0.296l0.209,0.178
	c1.057,0.909,1.176,2.505,0.266,3.561C196.075,73.448,195.37,73.746,194.66,73.746L194.66,73.746z M81.901,68.909
	c-0.782,0-1.553-0.363-2.047-1.044c-0.818-1.13-0.566-2.708,0.563-3.527l0.231-0.165c1.139-0.804,2.714-0.531,3.519,0.609
	c0.803,1.138,0.531,2.714-0.609,3.517l-0.178,0.129C82.933,68.753,82.415,68.909,81.901,68.909L81.901,68.909z M187.272,68.035
	c-0.488,0-0.982-0.143-1.418-0.438l-0.188-0.13c-1.145-0.795-1.447-2.383-0.65-3.529c0.797-1.142,2.349-1.439,3.491-0.645
	l0.044,0.029l0.145,0.101c1.152,0.785,1.451,2.355,0.666,3.508C188.874,67.648,188.079,68.035,187.272,68.035L187.272,68.035z
	 M89.771,63.829c-0.879,0-1.736-0.452-2.2-1.265c-0.691-1.209-0.291-2.74,0.92-3.433l0.041-0.023l0.155-0.089
	c1.203-0.704,2.75-0.3,3.454,0.903c0.705,1.206,0.3,2.752-0.904,3.457l-0.202,0.114C90.637,63.723,90.202,63.829,89.771,63.829
	L89.771,63.829z M179.342,63.104c-0.418,0-0.84-0.103-1.23-0.322l-0.199-0.11c-1.225-0.668-1.674-2.201-1.006-3.426
	c0.67-1.224,2.203-1.673,3.428-1.005l0.244,0.135c1.217,0.683,1.65,2.221,0.969,3.438C181.084,62.64,180.226,63.104,179.342,63.104
	L179.342,63.104z M98.066,59.617c-0.962,0-1.881-0.552-2.303-1.485c-0.574-1.272-0.009-2.768,1.262-3.342l0.235-0.104
	c1.271-0.567,2.767-0.004,3.337,1.271c0.571,1.272,0.002,2.766-1.27,3.338l-0.224,0.099C98.767,59.547,98.414,59.617,98.066,59.617
	L98.066,59.617z M170.951,59.01c-0.335,0-0.675-0.066-1.003-0.209l-0.201-0.085c-1.287-0.538-1.895-2.016-1.356-3.304
	c0.536-1.286,2.019-1.894,3.302-1.355l0.265,0.11c1.279,0.555,1.867,2.042,1.313,3.32C172.857,58.439,171.926,59.01,170.951,59.01
	L170.951,59.01z M106.775,56.262c-1.057,0-2.042-0.668-2.395-1.726c-0.441-1.324,0.273-2.754,1.597-3.196l0.245-0.078
	c1.322-0.44,2.752,0.277,3.191,1.602c0.438,1.323-0.279,2.752-1.603,3.191l-0.236,0.077
	C107.31,56.221,107.041,56.262,106.775,56.262L106.775,56.262z M162.186,55.801c-0.244,0-0.493-0.036-0.738-0.11l-0.242-0.073
	c-1.334-0.408-2.085-1.819-1.679-3.152c0.406-1.334,1.821-2.085,3.151-1.679l0.242,0.073c1.335,0.408,2.086,1.818,1.68,3.152
	C164.268,55.101,163.267,55.801,162.186,55.801L162.186,55.801z"/>
</svg>
