<?xml version="1.0" encoding="utf-8"?>
<!-- Generator: Adobe Illustrator 14.0.0, SVG Export Plug-In  -->
<!DOCTYPE svg PUBLIC "-//W3C//DTD SVG 1.1//EN" "http://www.w3.org/Graphics/SVG/1.1/DTD/svg11.dtd" [
	<!ENTITY ns_flows "http://ns.adobe.com/Flows/1.0/">
]>
<svg version="1.1"
	 xmlns="http://www.w3.org/2000/svg" xmlns:xlink="http://www.w3.org/1999/xlink" xmlns:a="http://ns.adobe.com/AdobeSVGViewerExtensions/3.0/"
	 x="0px" y="0px" width="270px" height="270px" viewBox="0 0 270 270" enable-background="new 0 0 270 270" xml:space="preserve">
<defs>
</defs>
<rect width="270" height="270"/>
<path fill="#BCBEC0" d="M148.98,39.049v19.475c0,3.75-3.226,6.806-7.19,6.806h-2.986v-0.57H131.4v0.57h-2.987
	c-3.965,0-7.188-3.056-7.188-6.806V39.049h-2.961v19.475c0,5.381,4.554,9.769,10.149,9.769h2.987v4.692h0.925v3.355h5.555v-3.355
	h0.923v-4.692h2.986c5.597,0,10.155-4.388,10.155-9.769V39.049H148.98z"/>
<rect x="115.625" y="40.079" fill="#BCBEC0" width="1.921" height="3.977"/>
<rect x="152.609" y="40.079" fill="#BCBEC0" width="1.92" height="3.977"/>
<path fill="#BCBEC0" d="M140.184,51.95c-0.469,0-0.848-0.379-0.848-0.846c0-0.468,0.379-0.849,0.848-0.849h6.592v-2.073h-6.592
	c-0.469,0-0.848-0.379-0.848-0.845c0-0.469,0.379-0.848,0.848-0.848h6.592v-2.071h-6.592c-0.469,0-0.848-0.379-0.848-0.849
	c0-0.466,0.379-0.844,0.848-0.844h6.592v-2.073h-6.592c-0.469,0-0.848-0.379-0.848-0.843c0-0.474,0.379-0.849,0.848-0.849h6.592
	v-2.075h-6.592c-0.469,0-0.848-0.378-0.848-0.844c0-0.472,0.379-0.851,0.848-0.851h6.592v-2.069h-6.592
	c-0.469,0-0.848-0.379-0.848-0.846c0-0.47,0.379-0.851,0.848-0.851h6.592v-4.046c0-2.696-1.615-5.009-3.939-6.032v6.535
	c0,0.466-0.381,0.847-0.842,0.847c-0.467,0-0.846-0.381-0.846-0.847v-7.024c-0.313-0.043-0.637-0.067-0.965-0.067h-0.857v7.092
	c0,0.466-0.379,0.847-0.847,0.847c-0.47,0-0.849-0.381-0.849-0.847v-7.092h-1.818v7.092c0,0.466-0.381,0.847-0.846,0.847
	c-0.475,0-0.853-0.381-0.853-0.847v-7.092h-1.823v7.092c0,0.466-0.375,0.847-0.846,0.847c-0.464,0-0.843-0.381-0.843-0.847v-7.092
	h-0.582c-0.428,0-0.842,0.038-1.241,0.114v6.978c0,0.466-0.376,0.847-0.844,0.847c-0.469,0-0.844-0.381-0.844-0.847v-6.407
	c-2.17,1.083-3.661,3.32-3.661,5.904v4.046h6.263c0.47,0,0.846,0.381,0.846,0.851c0,0.467-0.376,0.846-0.846,0.846h-6.263v2.069
	h6.263c0.47,0,0.846,0.379,0.846,0.851c0,0.466-0.376,0.844-0.846,0.844h-6.263v2.075h6.263c0.47,0,0.846,0.375,0.846,0.849
	c0,0.464-0.376,0.843-0.846,0.843h-6.263v2.073h6.263c0.47,0,0.846,0.378,0.846,0.844c0,0.47-0.376,0.849-0.846,0.849h-6.263v2.071
	h6.263c0.47,0,0.846,0.379,0.846,0.848c0,0.466-0.376,0.845-0.846,0.845h-6.263v2.073h6.263c0.47,0,0.846,0.381,0.846,0.849
	c0,0.467-0.376,0.846-0.846,0.846h-6.263v3.295c0,2.586,1.491,4.822,3.661,5.899v-5.649c0-0.468,0.375-0.846,0.844-0.846
	c0.468,0,0.844,0.378,0.844,0.846v6.22c0.399,0.079,0.813,0.116,1.241,0.116h0.582v-6.336c0-0.468,0.379-0.846,0.843-0.846
	c0.471,0,0.846,0.378,0.846,0.846v6.336h1.823v-6.336c0-0.468,0.378-0.846,0.853-0.846c0.465,0,0.846,0.378,0.846,0.846v6.336h1.818
	v-6.336c0-0.468,0.379-0.846,0.849-0.846c0.468,0,0.847,0.378,0.847,0.846v6.336h0.857c0.328,0,0.651-0.023,0.965-0.068v-6.268
	c0-0.468,0.379-0.846,0.846-0.846c0.461,0,0.842,0.378,0.842,0.846v5.782c2.324-1.022,3.939-3.342,3.939-6.032V51.95H140.184z"/>
<path fill="#BCBEC0" d="M116.148,218.402c-0.629-0.629-1.405-1.123-2.33-1.484c-0.925-0.361-1.989-0.541-3.194-0.541
	c-0.412,0-0.837,0.02-1.276,0.064c-0.438,0.041-0.895,0.107-1.371,0.203l0.745-4.303h5.943c0.464,0,0.858-0.049,1.18-0.15
	c0.323-0.098,0.587-0.24,0.793-0.422c0.206-0.184,0.353-0.398,0.444-0.645c0.089-0.246,0.134-0.521,0.134-0.824v-1.822h-11.537
	l-1.934,11.211l2.71,0.754c1.078-0.396,2.15-0.596,3.217-0.596c1.299,0,2.29,0.322,2.972,0.965c0.681,0.645,1.022,1.559,1.022,2.74
	c0,0.617-0.082,1.195-0.246,1.736c-0.164,0.537-0.412,1.004-0.745,1.396s-0.753,0.701-1.26,0.926
	c-0.507,0.225-1.104,0.338-1.791,0.338c-0.666,0-1.231-0.084-1.696-0.252c-0.465-0.166-0.872-0.354-1.22-0.557
	c-0.349-0.205-0.661-0.391-0.935-0.559c-0.275-0.166-0.555-0.25-0.84-0.25c-0.454,0-0.824,0.193-1.109,0.58l-1.347,1.822
	c0.391,0.367,0.834,0.717,1.332,1.051c0.497,0.336,1.033,0.633,1.609,0.889c0.575,0.256,1.196,0.459,1.862,0.611
	s1.363,0.229,2.092,0.229c1.257,0,2.417-0.199,3.479-0.598c1.062-0.396,1.975-0.955,2.743-1.672
	c0.766-0.717,1.365-1.574,1.798-2.574c0.433-1.002,0.65-2.107,0.65-3.32c0-0.975-0.159-1.885-0.476-2.732
	C117.25,219.769,116.777,219.031,116.148,218.402z"/>
<path fill="#BCBEC0" d="M146.582,230.501c-0.629-0.627-1.405-1.123-2.329-1.484c-0.926-0.359-1.988-0.541-3.194-0.541
	c-0.412,0-0.837,0.021-1.275,0.062s-0.896,0.111-1.37,0.203l0.744-4.301h5.943c0.464,0,0.858-0.051,1.18-0.15
	c0.323-0.098,0.587-0.24,0.793-0.424s0.353-0.398,0.444-0.643c0.088-0.246,0.134-0.521,0.134-0.824v-1.82h-8.862l4.663-12.01h-2.75
	c-0.747,0-1.408,0.193-1.982,0.578c-0.576,0.385-0.996,0.922-1.26,1.615l-1.129,2.895c-0.388-1.008-0.868-1.874-1.441-2.598
	c-0.762-0.955-1.662-1.668-2.703-2.133c-1.041-0.467-2.163-0.699-3.367-0.699c-1.205,0-2.325,0.232-3.359,0.699
	c-1.036,0.465-1.929,1.178-2.679,2.133c-0.75,0.959-1.339,2.168-1.768,3.629c-0.428,1.459-0.641,3.186-0.641,5.174
	s0.213,3.715,0.641,5.18c0.428,1.467,1.017,2.678,1.768,3.637c0.75,0.957,1.643,1.668,2.679,2.135
	c1.035,0.465,2.154,0.699,3.359,0.699c0.189,0,0.373-0.016,0.558-0.027l-5.371,13.768h2.728c0.668,0,1.326-0.195,1.971-0.588
	c0.645-0.395,1.114-0.975,1.41-1.746l4.297-11.066l2.479,0.689c1.078-0.398,2.149-0.598,3.218-0.598c1.299,0,2.29,0.322,2.971,0.967
	c0.682,0.643,1.022,1.557,1.022,2.74c0,0.617-0.082,1.195-0.245,1.734c-0.164,0.541-0.412,1.006-0.745,1.398
	s-0.753,0.701-1.26,0.926s-1.104,0.336-1.791,0.336c-0.665,0-1.231-0.082-1.695-0.25c-0.466-0.168-0.872-0.354-1.222-0.559
	c-0.348-0.203-0.66-0.389-0.935-0.557c-0.274-0.166-0.554-0.252-0.841-0.252c-0.453,0-0.823,0.195-1.108,0.582l-1.347,1.82
	c0.391,0.367,0.834,0.719,1.331,1.055c0.497,0.332,1.032,0.629,1.608,0.885c0.575,0.256,1.197,0.463,1.863,0.613
	c0.665,0.152,1.361,0.227,2.092,0.227c1.257,0,2.416-0.199,3.479-0.596c1.061-0.398,1.975-0.955,2.741-1.672
	c0.766-0.717,1.365-1.576,1.799-2.574c0.433-1,0.65-2.107,0.65-3.322c0-0.973-0.159-1.885-0.477-2.732
	C147.683,231.867,147.21,231.128,146.582,230.501z M130.3,227.619c-0.481,0.242-0.975,0.361-1.481,0.361s-0.996-0.119-1.466-0.361
	c-0.471-0.24-0.888-0.664-1.252-1.271s-0.657-1.434-0.88-2.482c-0.221-1.045-0.333-2.381-0.333-4.002
	c0-1.611,0.112-2.941,0.333-3.988c0.223-1.047,0.515-1.875,0.88-2.482c0.365-0.605,0.781-1.029,1.252-1.27
	c0.47-0.24,0.959-0.361,1.466-0.361s1,0.121,1.481,0.361s0.906,0.664,1.276,1.27c0.369,0.607,0.668,1.436,0.896,2.482
	s0.341,2.377,0.341,3.988c0,1.34-0.082,2.474-0.237,3.421l-1.417,3.633C130.895,227.224,130.611,227.463,130.3,227.619z"/>
<path fill="#BCBEC0" d="M167.113,226.789c-0.434-1.461-1.03-2.67-1.791-3.627c-0.762-0.959-1.662-1.67-2.702-2.137
	c-1.041-0.465-2.163-0.699-3.368-0.699s-2.324,0.234-3.359,0.699c-1.035,0.467-1.929,1.178-2.678,2.137
	c-0.751,0.957-1.34,2.166-1.768,3.627c-0.429,1.461-0.642,3.184-0.642,5.172s0.213,3.717,0.642,5.184
	c0.428,1.465,1.017,2.676,1.768,3.633c0.749,0.959,1.643,1.672,2.678,2.137s2.154,0.697,3.359,0.697s2.327-0.232,3.368-0.697
	c1.04-0.465,1.94-1.178,2.702-2.137c0.761-0.957,1.357-2.168,1.791-3.633c0.432-1.467,0.649-3.195,0.649-5.184
	S167.544,228.25,167.113,226.789z M162.906,235.966c-0.229,1.047-0.527,1.873-0.896,2.479c-0.37,0.607-0.795,1.031-1.275,1.273
	c-0.481,0.24-0.975,0.361-1.482,0.361c-0.506,0-0.996-0.121-1.465-0.361c-0.472-0.242-0.888-0.666-1.253-1.273
	c-0.364-0.605-0.657-1.432-0.88-2.479c-0.221-1.049-0.332-2.381-0.332-4.006c0-1.611,0.111-2.941,0.332-3.988
	c0.223-1.045,0.516-1.871,0.88-2.479c0.365-0.609,0.781-1.033,1.253-1.273c0.469-0.24,0.959-0.361,1.465-0.361
	c0.508,0,1.001,0.121,1.482,0.361c0.48,0.24,0.905,0.664,1.275,1.273c0.369,0.607,0.668,1.434,0.896,2.479
	c0.227,1.047,0.34,2.377,0.34,3.988C163.246,233.585,163.132,234.917,162.906,235.966z"/>
<path fill="#BCBEC0" d="M223.507,135.518c-1.26,0-2.285,1.03-2.285,2.288c0,1.26,1.025,2.289,2.285,2.289
	c1.266,0,2.291-1.029,2.291-2.289C225.798,136.548,224.773,135.518,223.507,135.518z"/>
<path fill="#BCBEC0" d="M223.507,112.685c-13.871,0-25.119,11.25-25.119,25.122c0,13.871,11.248,25.121,25.119,25.121
	c13.876,0,25.123-11.25,25.123-25.121C248.63,123.935,237.383,112.685,223.507,112.685z M215.862,157.433
	c-0.128,0.295-0.416,0.475-0.718,0.475c-0.105,0-0.209-0.025-0.311-0.066c-8.014-3.467-13.189-11.346-13.189-20.076
	c0-0.428,0.352-0.779,0.782-0.779c0.434,0,0.784,0.352,0.784,0.779c0,8.105,4.807,15.42,12.243,18.639
	C215.852,156.574,216.033,157.037,215.862,157.433z M217.412,153.957c-0.125,0.297-0.418,0.48-0.721,0.48
	c-0.102,0-0.203-0.02-0.305-0.062c-6.615-2.799-10.891-9.25-10.891-16.432c0-0.432,0.35-0.783,0.782-0.783
	c0.431,0,0.782,0.352,0.782,0.783c0,6.551,3.9,12.436,9.934,14.992C217.394,153.103,217.58,153.562,217.412,153.957z
	 M218.792,150.568c-0.125,0.297-0.414,0.475-0.719,0.475c-0.104,0-0.205-0.016-0.305-0.059c-5.215-2.205-8.586-7.293-8.586-12.959
	c0-0.428,0.351-0.779,0.782-0.779c0.433,0,0.781,0.352,0.781,0.779c0,5.039,2.997,9.557,7.632,11.518
	C218.777,149.71,218.962,150.167,218.792,150.568z M223.507,147.025c-5.089,0-9.216-4.129-9.216-9.219
	c0-5.091,4.127-9.218,9.216-9.218c5.093,0,9.22,4.127,9.22,9.218C232.727,142.896,228.6,147.025,223.507,147.025z M237.048,138.33
	c-0.434,0-0.783-0.355-0.783-0.783c0-5.035-2.994-9.554-7.631-11.515c-0.396-0.171-0.582-0.625-0.416-1.025
	c0.17-0.398,0.627-0.584,1.025-0.414c5.215,2.207,8.588,7.289,8.588,12.955C237.832,137.974,237.48,138.33,237.048,138.33z
	 M240.736,138.416c-0.432,0-0.782-0.352-0.782-0.785c0-6.551-3.899-12.437-9.938-14.99c-0.396-0.17-0.584-0.625-0.416-1.021
	c0.168-0.399,0.627-0.584,1.025-0.419c6.617,2.798,10.894,9.248,10.894,16.43C241.518,138.064,241.167,138.416,240.736,138.416z
	 M244.586,138.587c-0.432,0-0.782-0.348-0.782-0.781c0-8.099-4.807-15.42-12.247-18.635c-0.397-0.172-0.579-0.634-0.406-1.032
	c0.171-0.395,0.63-0.576,1.03-0.402c8.01,3.464,13.186,11.341,13.186,20.07C245.367,138.24,245.017,138.587,244.586,138.587z"/>
<path fill="#FFFFFF" d="M163.702,113.466h-58.021c-1.991,0-3.611,1.649-3.611,3.677v33.298c0,2.027,1.62,3.678,3.611,3.678h58.021
	c1.99,0,3.612-1.65,3.612-3.678v-33.298C167.314,115.115,165.692,113.466,163.702,113.466z M164.455,151.259h-59.527v-35.164h59.527
	V151.259z"/>
<path fill="#FFFFFF" d="M140.597,155.396v0.896c0,0.535-0.459,0.971-1.025,0.971h-9.963c-0.567,0-1.026-0.436-1.026-0.971v-0.896
	H94.584v0.627c0,2.029,2.132,3.678,4.751,3.678h70.712c2.621,0,4.752-1.648,4.752-3.678v-0.627H140.597z"/>
<path fill="#BCBEC0" d="M47.113,141.58c-5.106,0-9.261,4.154-9.261,9.262c0,5.109,4.155,9.264,9.261,9.264
	c5.107,0,9.263-4.154,9.263-9.264C56.375,145.734,52.22,141.58,47.113,141.58z M49.294,153.023v4.373h-4.363v-4.373h-4.373v-4.363
	h4.373v-4.373h4.363v4.373h4.375v4.363H49.294z M59.727,126.484c-0.115,1.218-0.819,4.111-1.471,4.651
	c-0.654,0.543-1.524-0.024-1.551-1.008c-0.008-0.391,0.071-1.591,0.135-2.722c0.252-4.433-3.099-8.68-4.245-9.769
	c-1.142-1.083-2.992-2.664-4.46-2.775c-1.469-0.107-1.469,1.146-1.469,1.146v22.195c0,0-0.001,0.037-0.002,0.068
	c-6.151,0.219-11.183,4.863-12.008,10.844c-4.479,0.383-8.391-1.449-9.411-4.736c-1.252-4.035,2.33-8.731,7.998-10.489
	c3.106-0.966,6.189-0.844,8.55,0.117c0,0,1.774,0.863,1.851-1.19v-28.13c0,0,0-1.1,1.103-1.1c0.883,0,1.096,0.895,1.602,1.629
	c0.828,1.205,5.221,6.294,5.948,6.899C53.277,112.932,60.359,119.725,59.727,126.484z"/>
<path fill="#BCBEC0" d="M173.648,220.451c-0.945,0-1.853-0.535-2.285-1.443c-0.596-1.262-0.059-2.766,1.202-3.363l0.221-0.107
	c1.259-0.598,2.766-0.064,3.365,1.191c0.603,1.26,0.067,2.766-1.191,3.367l-0.232,0.111
	C174.377,220.373,174.009,220.451,173.648,220.451L173.648,220.451z M92.751,219.22c-0.388,0-0.782-0.09-1.151-0.279l-0.242-0.125
	c-1.236-0.646-1.714-2.172-1.068-3.408c0.647-1.236,2.173-1.711,3.408-1.066l0.208,0.107c1.24,0.637,1.73,2.158,1.093,3.398
	C94.553,218.718,93.668,219.22,92.751,219.22L92.751,219.22z M181.861,216.013c-0.854,0-1.686-0.434-2.161-1.217
	c-0.724-1.191-0.343-2.744,0.849-3.467l0.204-0.125c1.188-0.73,2.743-0.357,3.473,0.83c0.729,1.189,0.356,2.744-0.831,3.475
	l-0.227,0.137C182.759,215.894,182.308,216.013,181.861,216.013L181.861,216.013z M84.675,214.533c-0.472,0-0.949-0.133-1.374-0.408
	l-0.226-0.148c-1.165-0.768-1.485-2.334-0.717-3.498c0.768-1.162,2.334-1.484,3.498-0.717l0.198,0.129
	c1.169,0.76,1.501,2.324,0.741,3.494C86.31,214.128,85.5,214.533,84.675,214.533L84.675,214.533z M189.578,210.759
	c-0.76,0-1.513-0.344-2.01-0.994c-0.846-1.109-0.633-2.693,0.477-3.539l0.199-0.152c1.11-0.846,2.694-0.633,3.539,0.477
	c0.846,1.107,0.633,2.691-0.476,3.537l-0.199,0.154C190.65,210.589,190.112,210.759,189.578,210.759L189.578,210.759z
	 M77.12,209.046c-0.556,0-1.114-0.184-1.581-0.559l-0.214-0.174c-1.079-0.883-1.236-2.475-0.353-3.553
	c0.883-1.078,2.474-1.236,3.553-0.352l0.179,0.145c1.087,0.873,1.259,2.463,0.385,3.549C78.59,208.724,77.858,209.046,77.12,209.046
	L77.12,209.046z M196.738,204.705c-0.673,0-1.344-0.262-1.834-0.787c-0.951-1.018-0.928-2.586,0.09-3.539l0.177-0.166
	c1.015-0.955,2.612-0.908,3.569,0.105s0.91,2.611-0.104,3.568l-0.135,0.127C198.008,204.474,197.371,204.705,196.738,204.705
	L196.738,204.705z M70.161,202.822c-0.643,0-1.286-0.246-1.778-0.734l-0.172-0.17c-0.994-0.977-1.008-2.576-0.03-3.57
	c0.979-0.994,2.577-1.006,3.571-0.029l0.187,0.186c0.99,0.982,0.998,2.58,0.015,3.57C71.46,202.572,70.811,202.822,70.161,202.822
	L70.161,202.822z M203.216,198.042c-0.594,0-1.191-0.209-1.672-0.633c-1.045-0.922-1.144-2.518-0.221-3.562l0.152-0.176
	c0.913-1.053,2.508-1.166,3.562-0.25c1.053,0.914,1.165,2.508,0.25,3.562l-0.179,0.205
	C204.611,197.753,203.914,198.042,203.216,198.042L203.216,198.042z M63.872,195.923c-0.731,0-1.457-0.316-1.956-0.928l-0.154-0.188
	c-0.887-1.074-0.734-2.666,0.342-3.555c1.077-0.885,2.668-0.732,3.555,0.344l0.166,0.201c0.883,1.078,0.724,2.67-0.355,3.553
	C65,195.736,64.434,195.923,63.872,195.923L63.872,195.923z M208.998,190.671c-0.499,0-1.001-0.146-1.436-0.453
	c-1.139-0.807-1.429-2.352-0.623-3.488l0.138-0.197c0.801-1.143,2.375-1.42,3.517-0.621c1.143,0.799,1.421,2.375,0.619,3.518
	l-0.109,0.158C210.605,190.289,209.804,190.671,208.998,190.671L208.998,190.671z M58.315,188.421c-0.819,0-1.622-0.398-2.108-1.133
	l-0.134-0.201c-0.774-1.16-0.46-2.729,0.7-3.502c1.16-0.773,2.727-0.459,3.501,0.701l0.144,0.215c0.77,1.164,0.451,2.73-0.712,3.5
	C59.278,188.285,58.794,188.421,58.315,188.421L58.315,188.421z M214.004,182.83c-0.421,0-0.847-0.104-1.237-0.324
	c-1.216-0.686-1.645-2.227-0.961-3.439l0.125-0.221c0.685-1.215,2.225-1.645,3.439-0.961c1.215,0.686,1.645,2.227,0.959,3.441
	l-0.123,0.219C215.742,182.369,214.886,182.83,214.004,182.83L214.004,182.83z M53.55,180.392c-0.907,0-1.784-0.49-2.236-1.348
	l-0.117-0.223c-0.65-1.234-0.177-2.762,1.057-3.41c1.232-0.652,2.76-0.178,3.411,1.057l0.117,0.223
	c0.65,1.232,0.176,2.76-1.058,3.41C54.35,180.298,53.947,180.392,53.55,180.392L53.55,180.392z M218.181,174.478
	c-0.34,0-0.686-0.066-1.016-0.213c-1.277-0.561-1.857-2.051-1.295-3.328l0.095-0.219c0.554-1.281,2.042-1.869,3.321-1.314
	s1.867,2.041,1.312,3.32l-0.106,0.244C220.078,173.916,219.151,174.478,218.181,174.478L218.181,174.478z M49.632,171.917
	c-0.998,0-1.943-0.596-2.341-1.576l-0.102-0.252c-0.514-1.297,0.121-2.764,1.417-3.277c1.295-0.516,2.764,0.119,3.278,1.416
	l0.086,0.217c0.524,1.293-0.1,2.764-1.392,3.289C50.269,171.859,49.948,171.917,49.632,171.917L49.632,171.917z M220.248,106.504
	c-1.031,0-2.001-0.637-2.373-1.665l-0.082-0.223c-0.482-1.309,0.188-2.76,1.496-3.243c1.309-0.481,2.76,0.188,3.242,1.495
	l0.092,0.251c0.475,1.311-0.203,2.759-1.514,3.234C220.825,106.456,220.534,106.504,220.248,106.504L220.248,106.504z
	 M51.638,99.286c-0.357,0-0.718-0.076-1.062-0.236c-1.265-0.587-1.814-2.088-1.226-3.354l0.113-0.241
	c0.594-1.263,2.099-1.802,3.36-1.209c1.261,0.595,1.802,2.099,1.208,3.361l-0.102,0.217C53.502,98.744,52.59,99.286,51.638,99.286
	L51.638,99.286z M216.592,97.915c-0.935,0-1.835-0.522-2.271-1.42l-0.107-0.22c-0.613-1.252-0.097-2.765,1.156-3.379
	c1.253-0.615,2.766-0.097,3.378,1.155l0.113,0.231c0.611,1.255,0.089,2.766-1.164,3.376
	C217.34,97.832,216.963,97.915,216.592,97.915L216.592,97.915z M56.019,91.04c-0.441,0-0.888-0.116-1.294-0.358
	c-1.196-0.716-1.585-2.268-0.869-3.464l0.141-0.235c0.726-1.189,2.28-1.566,3.471-0.841s1.568,2.279,0.842,3.471l-0.121,0.199
	C57.715,90.602,56.878,91.04,56.019,91.04L56.019,91.04z M212.078,89.745c-0.846,0-1.672-0.423-2.148-1.194l-0.129-0.206
	c-0.739-1.183-0.381-2.741,0.803-3.479c1.182-0.739,2.738-0.38,3.479,0.803l0.137,0.22c0.735,1.186,0.371,2.742-0.813,3.479
	C212.992,89.622,212.531,89.745,212.078,89.745L212.078,89.745z M61.221,83.284c-0.524,0-1.053-0.162-1.506-0.499
	c-1.118-0.833-1.35-2.415-0.517-3.533l0.171-0.229c0.848-1.107,2.434-1.318,3.54-0.472c1.108,0.847,1.319,2.433,0.472,3.539
	l-0.132,0.178C62.753,82.933,61.992,83.284,61.221,83.284L61.221,83.284z M206.748,82.079c-0.753,0-1.499-0.336-1.997-0.977
	l-0.151-0.197c-0.856-1.101-0.658-2.688,0.442-3.543c1.103-0.857,2.688-0.658,3.543,0.442l0.157,0.201
	c0.854,1.103,0.654,2.688-0.448,3.543C207.833,81.906,207.289,82.079,206.748,82.079L206.748,82.079z M67.186,76.1
	c-0.611,0-1.225-0.221-1.71-0.668c-1.026-0.943-1.092-2.542-0.147-3.567l0.172-0.187c0.944-1.026,2.542-1.092,3.568-0.146
	c1.026,0.943,1.092,2.54,0.147,3.567l-0.171,0.187C68.545,75.825,67.867,76.1,67.186,76.1L67.186,76.1z M200.667,74.994
	c-0.671,0-1.341-0.266-1.837-0.792l-0.159-0.168c-0.967-1.006-0.934-2.604,0.072-3.57c1.008-0.967,2.605-0.933,3.57,0.075
	l0.189,0.197c0.957,1.014,0.91,2.611-0.104,3.569C201.912,74.766,201.289,74.994,200.667,74.994L200.667,74.994z M73.848,69.557
	c-0.699,0-1.395-0.288-1.894-0.854c-0.923-1.046-0.824-2.642,0.222-3.563l0.189-0.168c1.048-0.922,2.643-0.821,3.564,0.224
	c0.922,1.046,0.822,2.642-0.224,3.564l-0.188,0.165C75.038,69.349,74.442,69.557,73.848,69.557L73.848,69.557z M193.899,68.562
	c-0.579,0-1.163-0.199-1.64-0.606l-0.191-0.163c-1.061-0.905-1.188-2.5-0.281-3.561c0.907-1.06,2.499-1.184,3.561-0.28l0.192,0.164
	c1.06,0.905,1.187,2.499,0.28,3.561C195.32,68.262,194.611,68.562,193.899,68.562L193.899,68.562z M81.139,63.724
	c-0.786,0-1.561-0.365-2.054-1.053c-0.812-1.134-0.553-2.712,0.58-3.524l0.212-0.15c1.135-0.811,2.711-0.544,3.521,0.592
	c0.809,1.135,0.544,2.712-0.592,3.521l-0.198,0.142C82.164,63.569,81.649,63.724,81.139,63.724L81.139,63.724z M186.51,62.85
	c-0.497,0-0.999-0.146-1.438-0.452l-0.197-0.136c-1.15-0.791-1.44-2.363-0.649-3.512c0.789-1.149,2.361-1.439,3.511-0.648
	l0.218,0.149c1.146,0.797,1.429,2.369,0.634,3.516C188.095,62.472,187.31,62.85,186.51,62.85L186.51,62.85z M88.985,58.665
	c-0.873,0-1.721-0.452-2.188-1.263c-0.699-1.207-0.286-2.751,0.921-3.449l0.241-0.137c1.214-0.687,2.754-0.259,3.44,0.957
	c0.686,1.214,0.257,2.754-0.958,3.44l-0.195,0.111C89.849,58.555,89.414,58.665,88.985,58.665L88.985,58.665z M178.581,57.92
	c-0.413,0-0.833-0.102-1.22-0.316l-0.211-0.116c-1.224-0.668-1.674-2.203-1.005-3.426c0.669-1.224,2.202-1.674,3.427-1.006
	l0.234,0.13c1.219,0.675,1.661,2.211,0.986,3.431C180.332,57.449,179.469,57.92,178.581,57.92L178.581,57.92z M97.305,54.433
	c-0.967,0-1.89-0.558-2.308-1.498c-0.567-1.274,0.006-2.767,1.28-3.334l0.248-0.109c1.279-0.558,2.767,0.028,3.323,1.305
	c0.558,1.278-0.027,2.769-1.305,3.324l-0.212,0.094C97.997,54.363,97.648,54.433,97.305,54.433L97.305,54.433z M170.19,53.826
	c-0.331,0-0.667-0.064-0.991-0.203l-0.227-0.097c-1.283-0.544-1.883-2.025-1.339-3.31s2.024-1.882,3.31-1.34l0.239,0.103
	c1.282,0.547,1.878,2.03,1.331,3.313C172.103,53.252,171.169,53.826,170.19,53.826L170.19,53.826z M106.014,51.077
	c-1.062,0-2.051-0.676-2.399-1.74c-0.434-1.325,0.289-2.751,1.614-3.185l0.258-0.084c1.329-0.424,2.748,0.31,3.173,1.639
	c0.423,1.328-0.31,2.748-1.638,3.172l-0.223,0.073C106.539,51.037,106.275,51.077,106.014,51.077L106.014,51.077z M161.423,50.617
	c-0.248,0-0.501-0.037-0.75-0.115l-0.23-0.07c-1.334-0.406-2.085-1.817-1.679-3.15c0.406-1.334,1.821-2.085,3.152-1.679l0.255,0.078
	c1.333,0.414,2.076,1.829,1.662,3.161C163.497,49.923,162.5,50.617,161.423,50.617L161.423,50.617z"/>
</svg>
